<svg width="183" height="139" viewBox="0 0 183 139" fill="none" xmlns="http://www.w3.org/2000/svg">
    <g clip-path="url(#clip0_152_11991)">
        <path d="M156.373 13.8739L161.083 18.5553L173.303 104.428L106.726 113.079L105.423 109.717L156.373 13.8739Z" fill="#C44C0A"/>
        <path d="M97.885 120.915L179.651 108.923L164.993 7.86811L163.278 6.56186C163.278 6.56186 108.179 101.259 97.6871 119.678C97.5137 119.978 97.8348 120.934 97.885 120.915Z" fill="#AE313D"/>
        <path d="M177.824 107.777L97.7089 119.705L91.227 91.7461L86.1361 69.8119L83.089 18.507L155.65 7.69334L163.278 6.56185L177.824 107.777Z" fill="#FF4053"/>
        <path opacity="0.29" d="M177.824 107.777L97.7088 119.705L91.227 91.746L91.228 91.4782C91.228 91.4782 103.512 104.837 133.868 97.8852C160.44 91.8186 156.924 24.4459 155.648 7.71738L163.278 6.56176L177.824 107.777Z" fill="#FF4053"/>
        <path d="M97.7089 119.705L94.3975 120.196L90.0085 120.829L86.3786 121.364L28.7674 129.837L22.2668 130.807L17.8036 131.457L16.6837 123.584L14.1019 105.563L14.0505 105.339L3.26021 30.2183L49.3186 23.4564L66.855 20.8726L69.7977 20.4439L71.0956 20.274L74.8978 19.7072L76.2722 19.4958L79.5836 19.0044L81.3985 18.7372L83.1393 18.4874L97.7089 119.705Z" fill="#FF4053"/>
        <path opacity="0.37" d="M69.7977 20.4438L16.6836 123.583L14.1019 105.563L14.0504 105.339L49.3185 23.4564L66.8549 20.8726L69.7977 20.4438Z" fill="#FF9EA8"/>
        <path opacity="0.37" d="M80.7841 21.918L28.7674 129.837L22.2667 130.807L76.2721 19.4957L79.5835 19.0043L80.7841 21.918Z" fill="#FF9EA8"/>
        <path opacity="0.31" d="M97.7089 119.704L94.3975 120.196L90.0085 120.829L86.3787 121.364L17.8036 131.457L14.102 105.563C19.2449 110.529 30.1325 117.668 47.6067 113.178C71.2767 107.106 73.0676 41.427 66.879 20.8747L71.0979 20.2498L74.9001 19.6829L81.3985 18.7371L83.1633 18.4895L97.7089 119.704Z" fill="#FF4053"/>
        <path d="M156.373 13.8739L159.7 20.3974L170.926 101.672L107.424 111.83L105.423 109.717L156.373 13.8739Z" fill="#00AAFF"/>
        <path d="M97.7089 119.705L94.3975 120.196C93.8705 117.833 92.8537 114.766 91.2992 115.861C90.0552 116.742 89.8744 118.917 90.0062 120.853L86.3764 121.388L71.0979 20.2498L74.9001 19.6829C75.7411 22.5627 77.1256 25.8346 78.9164 25.0538C80.5064 24.3514 81.1504 21.3681 81.4008 18.7129L83.1655 18.4654L97.7089 119.705Z" fill="#AE313D"/>
        <path d="M167.57 100.332C167.57 100.332 113.305 108.196 105.42 109.741C105.42 109.741 105.378 109.421 105.265 108.826C103.81 100.141 92.4927 33.1769 91.3128 23.3736C91.3128 23.3736 139.695 16.5874 153.273 14.4339C154.746 14.2075 155.828 14.0173 156.369 13.9222C156.373 13.8739 166.251 90.4672 167.57 100.332Z" fill="#E0EDFF"/>
        <path d="M104.637 50.5891C104.634 50.6132 104.632 50.6373 104.63 50.6615C104.429 51.7628 103.391 52.5172 102.269 52.3626C101.125 52.1817 100.353 51.1349 100.51 49.9808C100.557 49.7417 100.627 49.5048 100.744 49.2966C101.154 48.5317 101.996 48.0753 102.878 48.2072C104.024 48.364 104.818 49.4372 104.637 50.5891Z" fill="#00AAFF"/>
        <path d="M102.501 49.9007C101.89 49.9648 101.349 49.5485 101.26 48.9557C101.064 47.6953 100.765 45.4754 100.481 43.1108C99.9931 39.0467 99.623 34.5067 100.196 33.5623C100.681 32.78 101.388 35.7933 102.058 39.4606C102.66 42.8292 103.233 46.7552 103.491 48.6303C103.552 49.2692 103.111 49.8365 102.501 49.9007Z" fill="#47566E"/>
        <path d="M108.381 76.2925C108.2 77.4443 107.159 78.2228 106.013 78.0661C105.463 77.9899 105.007 77.7034 104.684 77.2833C104.339 76.8368 104.175 76.2613 104.256 75.6601C104.437 74.5083 105.478 73.7297 106.624 73.8865C107.339 74.0026 107.924 74.4717 108.226 75.109C108.362 75.4628 108.443 75.8844 108.381 76.2925Z" fill="#00AAFF"/>
        <path d="M108.697 92.687C107.78 94.2077 105.951 81.5426 105.426 77.6211C105.339 77.0041 105.781 76.4127 106.392 76.3485C107.003 76.2844 107.544 76.7007 107.633 77.2935C107.693 77.6888 107.767 78.1828 107.835 78.7493C108.229 81.4896 108.783 85.8765 108.945 89.0332C109.019 90.8178 108.985 92.2027 108.697 92.687Z" fill="#47566E"/>
        <path d="M104.321 29.5679L147.783 22.9021C148.372 22.8115 148.762 22.2639 148.673 21.671L148.626 21.3987C148.537 20.8059 147.993 20.4137 147.404 20.5043L103.943 27.17C103.354 27.2606 102.963 27.8083 103.053 28.4011L103.099 28.6734C103.189 29.2663 103.732 29.6584 104.321 29.5679Z" fill="#00AAFF"/>
        <path d="M108.446 54.8201L124.171 52.2116C124.834 52.1037 125.279 51.4881 125.173 50.8206C125.066 50.1531 124.456 49.7058 123.792 49.8138L108.068 52.4223C107.404 52.5302 106.959 53.1458 107.066 53.8133C107.172 54.4808 107.783 54.928 108.446 54.8201Z" fill="#00AAFF"/>
        <path d="M127.829 51.6313L153.184 47.4468C153.847 47.3389 154.292 46.7233 154.186 46.0558C154.079 45.3882 153.468 44.941 152.805 45.0489L127.451 49.2334C126.788 49.3414 126.343 49.9569 126.449 50.6244C126.555 51.292 127.166 51.7392 127.829 51.6313Z" fill="#00AAFF"/>
        <path d="M111.006 73.8371L136.361 69.6526C137.024 69.5447 137.469 68.9291 137.363 68.2616C137.256 67.5941 136.645 67.1468 135.982 67.2548L110.628 71.4392C109.965 71.5472 109.52 72.1627 109.626 72.8302C109.732 73.4978 110.343 73.945 111.006 73.8371Z" fill="#00AAFF"/>
        <path d="M128.798 99.8422L145.233 97.3981C145.896 97.2902 146.341 96.6746 146.259 96.0094C146.152 95.3418 145.542 94.8946 144.881 94.9784L128.446 97.4225C127.783 97.5305 127.338 98.146 127.42 98.8113C127.526 99.4788 128.135 99.9502 128.798 99.8422Z" fill="#00AAFF"/>
        <path d="M111.864 78.5936L123.902 76.6116C124.565 76.5037 125.01 75.8881 124.904 75.2206C124.797 74.553 124.187 74.1058 123.523 74.2137L111.486 76.1958C110.822 76.3037 110.377 76.9193 110.484 77.5868C110.59 78.2543 111.201 78.7016 111.864 78.5936Z" fill="#00AAFF"/>
        <path d="M127.426 75.9211L143.591 73.2567C144.254 73.1488 144.699 72.5332 144.593 71.8657C144.486 71.1982 143.876 70.7509 143.212 70.8589L127.047 73.5232C126.384 73.6312 125.939 74.2467 126.045 74.9142C126.152 75.5818 126.786 76.0313 127.426 75.9211Z" fill="#00AAFF"/>
        <path d="M112.804 82.9926L151.623 76.571C152.286 76.463 152.731 75.8475 152.625 75.1799C152.518 74.5124 151.907 74.0652 151.244 74.1731L112.425 80.5947C111.762 80.7027 111.317 81.3182 111.423 81.9857C111.53 82.6533 112.141 83.1005 112.804 82.9926Z" fill="#00AAFF"/>
        <path d="M120.112 57.0404L145.466 52.856C146.129 52.748 146.574 52.1325 146.468 51.465C146.362 50.7974 145.751 50.3502 145.088 50.4581L119.733 54.6426C119.07 54.7505 118.625 55.3661 118.732 56.0336C118.838 56.7011 119.449 57.1484 120.112 57.0404Z" fill="#00AAFF"/>
        <path d="M104.914 33.5443L121.968 30.9395C122.632 30.8315 123.077 30.216 122.97 29.5484C122.864 28.8809 122.253 28.4337 121.59 28.5416L104.535 31.1465C103.872 31.2544 103.427 31.87 103.533 32.5375C103.64 33.205 104.25 33.6523 104.914 33.5443Z" fill="#00AAFF"/>
        <path d="M125.112 30.4322L140.007 28.1595C140.67 28.0516 141.115 27.436 141.009 26.7685C140.903 26.1009 140.292 25.6537 139.629 25.7616L124.733 28.0344C124.07 28.1423 123.625 28.7579 123.732 29.4254C123.84 30.0688 124.449 30.5402 125.112 30.4322Z" fill="#00AAFF"/>
        <path d="M143.454 27.5104L148.264 26.7707C148.928 26.6628 149.373 26.0472 149.266 25.3797C149.16 24.7122 148.549 24.2649 147.886 24.3729L143.1 25.1149C142.436 25.2228 141.991 25.8383 142.098 26.5059C142.182 27.147 142.791 27.6184 143.454 27.5104Z" fill="#00AAFF"/>
        <path opacity="0.29" d="M167.57 100.332C167.57 100.332 113.306 108.196 105.42 109.741C105.42 109.741 105.378 109.421 105.265 108.825C113.225 105.972 135.43 95.9382 147.955 69.5526C157.224 49.9952 155.869 28.4619 153.299 14.412C154.772 14.1856 155.854 13.9954 156.395 13.9003C156.373 13.8739 166.251 90.4671 167.57 100.332Z" fill="#E0EDFF"/>
        <path d="M103.041 51.0962C103.748 51.0411 104.272 50.8713 104.632 50.6374C104.432 51.7387 103.393 52.4931 102.271 52.3386C101.127 52.1577 100.355 51.1108 100.512 49.9568C100.559 49.7176 100.63 49.4808 100.746 49.2726C100.718 49.83 100.847 51.279 103.041 51.0962Z" fill="#E0EDFF"/>
        <path d="M108.202 75.1068C107.322 74.9508 105.462 74.9216 104.66 77.2811C104.315 76.8346 104.151 76.2591 104.232 75.6579C104.413 74.5061 105.454 73.7275 106.6 73.8843C107.339 74.0026 107.921 74.4959 108.202 75.1068Z" fill="#E0EDFF"/>
        <path opacity="0.49" d="M102.058 39.4605C101.065 40.2435 100.641 41.6647 100.481 43.1107C99.993 39.0466 99.623 34.5066 100.196 33.5621C100.681 32.7799 101.386 35.8173 102.058 39.4605Z" fill="#47566E"/>
        <path opacity="0.49" d="M108.697 92.687C107.78 94.2077 105.951 81.5426 105.426 77.6211C105.339 77.0041 105.781 76.4127 106.392 76.3485C107.003 76.2844 107.544 76.7007 107.633 77.2935C107.693 77.6888 107.767 78.1828 107.835 78.7493C107.609 79.0933 107.376 79.5097 107.156 80.049C106.211 82.3708 107.84 86.6399 108.945 89.0332C109.019 90.8178 108.985 92.2027 108.697 92.687Z" fill="#47566E"/>
    </g>
    <defs>
        <clipPath id="clip0_152_11991">
            <rect width="183" height="138" fill="white" transform="translate(0 0.100098)"/>
        </clipPath>
    </defs>
</svg>
