<svg width="196" height="221" viewBox="0 0 196 221" fill="none" xmlns="http://www.w3.org/2000/svg">
    <path d="M79.5683 222.04H180.641L176.438 191.284H80.3022L79.5683 222.04Z" fill="#00AAFF"/>
    <path d="M80.2355 194.42L177.839 201.692L176.438 191.284H80.3022L80.2355 194.42Z" fill="#1184BE"/>
    <path d="M147.017 49.7156L149.819 56.5872L181.242 65.2601C186.112 66.5944 190.515 69.263 193.918 72.999C197.52 77.0019 201.79 83.1397 204.592 91.9461C210.463 110.359 247.556 177.208 200.856 187.548C200.856 187.548 192.316 189.55 180.108 183.546L180.641 187.215C180.975 189.35 179.307 191.285 177.172 191.285H79.7685C77.8338 191.285 76.2326 189.683 76.2326 187.749V181.544C76.2326 181.544 50.2138 184.346 41.7411 162.931C33.2683 141.449 60.5546 120.033 64.5575 109.626C68.5604 99.2847 67.2261 80.8714 79.8352 73.0658C92.4443 65.2601 109.19 57.9882 109.19 57.9882L109.924 52.184C110.124 50.5161 111.525 49.1818 113.259 49.1151L143.681 47.514C145.016 47.4473 146.417 48.3145 147.017 49.7156Z" fill="#FF4053"/>
    <path d="M171.168 107.557C171.168 107.557 164.963 123.502 157.892 124.169C150.82 124.836 146.483 124.77 144.282 126.104C144.282 126.104 162.362 131.441 167.499 132.709C172.702 134.043 176.438 134.31 176.438 134.31L171.168 107.557Z" fill="#E72E40"/>
    <path d="M41.6076 162.931C40.807 160.862 40.34 158.794 40.0732 156.726C59.8208 180.143 77.4335 145.318 77.4335 145.318L76.0992 181.544C76.0992 181.544 50.0804 184.413 41.6076 162.931Z" fill="#E72E40"/>
    <path d="M76.0992 181.544L77.4335 153.59" stroke="#393842" stroke-miterlimit="10" stroke-linecap="round" stroke-linejoin="round"/>
    <path d="M123.333 85.1411C123.333 85.1411 111.258 72.3985 109.056 58.0548L109.79 52.2507C109.99 50.5828 111.391 49.2485 113.126 49.1818L143.548 47.5806C145.082 47.5139 146.483 48.3812 147.017 49.7822L149.819 56.6538C149.752 56.5871 137.61 79.0033 123.333 85.1411Z" fill="white"/>
    <path d="M142.214 50.8496L139.278 32.9033H116.795L115.127 52.7844C115.127 52.7844 119.731 61.2571 125.802 61.991C125.868 61.9243 140.612 59.5893 142.214 50.8496Z" fill="#FEC9B6"/>
    <path d="M108.856 31.5691L110.658 20.1608C111.925 12.4219 119.264 7.08473 127.003 8.2856C134.742 9.55318 140.079 16.8918 138.878 24.6307L138.611 26.2986C139.011 26.2986 139.345 26.2986 139.745 26.3653C142.614 26.8323 144.549 29.5009 144.082 32.3029C143.615 35.1717 140.946 37.1064 138.144 36.6394C137.744 36.5727 137.343 36.4393 137.01 36.3058C135.609 43.9113 128.404 49.1151 120.731 47.8475C112.993 46.7134 107.655 39.3747 108.856 31.5691Z" fill="#FEC9B6"/>
    <path d="M117.863 19.5604C117.863 19.5604 117.663 20.9614 117.262 21.5619C116.795 22.4292 116.262 23.0296 115.328 23.4299C114.594 23.7635 113.927 24.0303 113.793 24.8976C113.526 26.2319 114.46 27.6329 115.728 28.0332" stroke="#5C3023" stroke-miterlimit="10" stroke-linecap="round" stroke-linejoin="round"/>
    <path d="M118.797 20.8279C118.597 23.2964 120.331 25.498 122.733 25.6981C125.068 25.8983 127.136 24.0302 127.336 21.4951C127.536 19.0266 125.802 16.825 123.4 16.6249C121.065 16.4915 118.997 18.3595 118.797 20.8279Z" stroke="white" stroke-miterlimit="10" stroke-linecap="round" stroke-linejoin="round"/>
    <path d="M111.311 24.8174C108.96 24.6327 107.213 22.4581 107.409 19.9604C107.606 17.4626 109.67 15.5876 112.021 15.7723C114.372 15.957 116.119 18.1315 115.922 20.6292C115.726 23.127 113.661 25.0021 111.311 24.8174Z" stroke="white" stroke-miterlimit="10" stroke-linecap="round" stroke-linejoin="round"/>
    <path d="M118.797 20.828C118.797 20.828 117.062 19.4937 115.928 20.6278" stroke="white" stroke-miterlimit="10" stroke-linecap="round" stroke-linejoin="round"/>
    <path d="M123.734 22.7627C123.365 22.7627 123.066 22.3445 123.066 21.8287C123.066 21.3128 123.365 20.8947 123.734 20.8947C124.102 20.8947 124.401 21.3128 124.401 21.8287C124.401 22.3445 124.102 22.7627 123.734 22.7627Z" fill="#3B1610"/>
    <path d="M113.593 21.8287C113.593 22.3624 113.86 22.7627 114.26 22.7627C114.594 22.7627 114.927 22.3624 114.927 21.8287C114.927 21.2949 114.66 20.8947 114.26 20.8947C113.86 20.8947 113.593 21.2949 113.593 21.8287Z" fill="#3B1610"/>
    <path d="M109.257 29.1006L109.056 32.2362C109.056 32.2362 110.524 27.2993 116.395 27.6996C122.199 28.0999 126.002 30.4349 126.736 36.3058C127.27 40.9091 136.676 34.1042 134.408 28.1666C134.408 28.1666 127.937 25.7649 130.072 18.0259C130.072 18.0259 122.8 17.7591 120.398 14.2232C117.996 10.6873 113.393 13.089 112.259 15.6909C112.259 15.6909 108.256 13.6228 109.79 9.61987C110.591 7.5517 111.925 7.28485 111.925 7.28485C111.925 7.28485 110.791 0.613357 116.061 0.0796379C121.332 -0.454081 124.801 2.88166 129.071 3.61553C133.341 4.34939 144.749 5.88383 146.15 10.8207C147.551 15.7576 146.684 18.2261 146.684 18.2261C146.684 18.2261 150.553 20.2942 149.619 25.6314C148.685 30.9686 146.55 33.5038 143.615 36.6394C142.347 38.0404 141.213 39.4414 140.346 40.6423L139.345 32.9034C139.345 32.9034 136.409 51.6502 115.995 48.5146C99.3827 45.9795 105.921 29.3675 109.257 29.1006Z" fill="#3B1610"/>
    <path d="M119.397 31.9693C119.397 31.9693 115.928 32.9701 114.26 31.3689" stroke="#FEC9B6" stroke-miterlimit="10" stroke-linecap="round" stroke-linejoin="round"/>
    <path d="M138.945 34.5045C139.879 35.3717 141.213 35.9055 142.614 35.9055C145.549 35.9055 148.018 33.5037 148.018 30.5016C148.018 27.5661 145.616 25.0977 142.614 25.0977C140.079 25.2311 138.945 34.5045 138.945 34.5045Z" fill="#FEC9B6"/>
    <path d="M140.813 31.0353L143.281 30.168L145.816 29.234" stroke="#5C3023" stroke-miterlimit="10" stroke-linecap="round" stroke-linejoin="round"/>
    <path d="M144.682 32.4364L143.281 30.1681" stroke="#5C3023" stroke-miterlimit="10" stroke-linecap="round" stroke-linejoin="round"/>
    <path d="M143.214 16.6249C141.747 15.6909 139.945 15.3573 138.211 15.2906C136.343 15.2239 132.54 15.0905 131.473 17.0919" stroke="#5C3023" stroke-miterlimit="10" stroke-linecap="round" stroke-linejoin="round"/>
    <path d="M118.863 12.0215C118.196 11.1543 117.062 10.8207 116.061 10.287C114.927 9.75324 112.526 8.61909 112.059 7.28479" stroke="#5C3023" stroke-miterlimit="10" stroke-linecap="round" stroke-linejoin="round"/>
    <path d="M120.398 40.709C119.731 41.0426 119.264 42.4436 118.997 43.1774C118.53 44.5784 118.597 45.9795 118.597 47.4472" stroke="#5C3023" stroke-miterlimit="10" stroke-linecap="round" stroke-linejoin="round"/>
    <path d="M114.994 39.4414C113.393 40.9091 112.859 43.9113 112.859 45.9795" stroke="#5C3023" stroke-miterlimit="10" stroke-linecap="round" stroke-linejoin="round"/>
    <path d="M111.258 38.5074C109.857 40.242 109.457 42.1768 109.056 44.3116" stroke="#5C3023" stroke-miterlimit="10" stroke-linecap="round" stroke-linejoin="round"/>
    <path d="M140.279 25.8983L127.136 22.4291" stroke="white" stroke-miterlimit="10" stroke-linecap="round" stroke-linejoin="round"/>
    <path d="M179.974 183.545L125.468 147.119C124.601 146.519 124.267 145.318 124.734 144.384L134.742 124.836C135.209 123.902 136.276 123.435 137.277 123.769C143.348 125.837 163.696 132.509 173.837 133.91C185.845 135.577 200.189 138.179 206.327 146.652" stroke="#393842" stroke-miterlimit="10" stroke-linecap="round" stroke-linejoin="round"/>
    <path d="M176.438 134.31L170.1 102.087" stroke="#393842" stroke-miterlimit="10" stroke-linecap="round" stroke-linejoin="round"/>
    <path d="M157.825 58.8555C157.825 58.8555 150.019 87.4761 123 95.2818C123 95.2818 104.253 84.6074 101.718 61.3906" stroke="#393842" stroke-miterlimit="10" stroke-linecap="round" stroke-linejoin="round"/>
    <path d="M155.623 64.8598L147.217 60.9236" stroke="#393842" stroke-miterlimit="10" stroke-linecap="round" stroke-linejoin="round"/>
    <path d="M151.821 72.1984L142.881 67.2615" stroke="#393842" stroke-miterlimit="10" stroke-linecap="round" stroke-linejoin="round"/>
    <path d="M145.683 80.6712L136.876 74.6669" stroke="#393842" stroke-miterlimit="10" stroke-linecap="round" stroke-linejoin="round"/>
    <path d="M138.077 87.7429L130.605 80.6711" stroke="#393842" stroke-miterlimit="10" stroke-linecap="round" stroke-linejoin="round"/>
    <path d="M123.333 85.1411L123.066 95.2818" stroke="#393842" stroke-miterlimit="10" stroke-linecap="round" stroke-linejoin="round"/>
    <path d="M119.397 80.6711L113.393 87.0758" stroke="#393842" stroke-miterlimit="10" stroke-linecap="round" stroke-linejoin="round"/>
    <path d="M115.194 73.9998L107.522 79.0034" stroke="#393842" stroke-miterlimit="10" stroke-linecap="round" stroke-linejoin="round"/>
    <path d="M111.391 66.3275L103.719 70.3971" stroke="#393842" stroke-miterlimit="10" stroke-linecap="round" stroke-linejoin="round"/>
    <path d="M123.333 85.1411C123.333 85.1411 121.198 82.8727 118.53 79.2034L122.333 70.9308C122.333 70.9308 119.531 69.5298 119.597 66.3275C119.597 66.3275 123.867 63.1919 125.868 62.5914C125.868 62.5914 129.871 63.859 132.006 65.8605C132.006 65.8605 131.673 70.0635 128.737 70.8641L130.538 80.6712C128.203 82.5392 125.802 84.0736 123.333 85.1411Z" fill="#A6DFFC"/>
    <path d="M128.67 70.8641C128.67 70.8641 125.401 69.0628 122.333 70.8641" stroke="#00AAFF" stroke-miterlimit="10" stroke-linecap="round" stroke-linejoin="round"/>
    <path d="M138.544 72.7989C138.544 72.7989 133.341 64.8598 125.868 62.6582C125.868 62.6582 118.396 65.9272 113.927 71.7981" stroke="#393842" stroke-miterlimit="10" stroke-linecap="round" stroke-linejoin="round"/>
    <path d="M98.382 115.696L102.718 117.298L112.192 91.5457C112.592 90.4115 112.059 89.144 110.858 88.7437L110.591 88.677C109.457 88.2767 108.189 88.8104 107.789 90.0112L98.382 115.696Z" fill="white"/>
    <path d="M125.868 120.633L111.992 106.89C110.858 105.756 109.256 105.289 107.655 105.623L97.1811 107.891C97.1811 107.891 95.0462 109.092 95.0462 111.694C95.0462 111.694 91.5103 112.161 91.2434 114.162C90.9766 116.164 92.4443 118.232 92.4443 118.232C92.4443 118.232 90.176 120.433 91.2434 122.902C91.2434 122.902 90.9099 124.97 91.2434 125.637C92.4443 128.306 95.7133 129.373 96.8475 129.44C98.3819 129.573 100.65 129.106 100.65 129.106C100.65 129.106 105.254 136.645 113.326 132.776L118.463 135.844L125.868 120.633Z" fill="#FEC9B6"/>
    <path d="M134.675 124.836L125.868 120.633L117.729 137.446L125.268 143.383L134.675 124.836Z" stroke="#393842" stroke-miterlimit="10" stroke-linecap="round" stroke-linejoin="round"/>
    <path d="M132.54 129.106L126.202 125.57" stroke="#393842" stroke-miterlimit="10" stroke-linecap="round" stroke-linejoin="round"/>
    <path d="M129.871 134.31L121.465 129.707" stroke="#393842" stroke-miterlimit="10" stroke-linecap="round" stroke-linejoin="round"/>
    <path d="M127.47 138.98L119.264 134.31" stroke="#393842" stroke-miterlimit="10" stroke-linecap="round" stroke-linejoin="round"/>
    <path d="M95.1129 111.694L104.386 109.826" stroke="#5C3023" stroke-miterlimit="10" stroke-linecap="round" stroke-linejoin="round"/>
    <path d="M92.5111 118.232L102.185 116.43" stroke="#5C3023" stroke-miterlimit="10" stroke-linecap="round" stroke-linejoin="round"/>
    <path d="M100.65 121.901L91.3102 122.835" stroke="#5C3023" stroke-miterlimit="10" stroke-linecap="round" stroke-linejoin="round"/>
    <path d="M100.784 129.106L98.3152 126.304H95.9802" stroke="#5C3023" stroke-miterlimit="10" stroke-linecap="round" stroke-linejoin="round"/>
    <path d="M54.8172 89.9446H86.5735C91.9107 89.9446 96.2471 94.281 96.2471 99.6182C96.2471 104.955 91.9107 109.292 86.5735 109.292H54.8172V89.9446Z" fill="#DCC9AB"/>
    <path d="M59.4872 161.329H104.32C106.121 161.329 107.455 159.662 107.055 157.86L94.3124 100.886C93.9788 99.2847 92.5111 98.1505 90.8432 98.1505H46.0776C44.2763 98.1505 42.9419 99.8184 43.3422 101.62L56.0848 158.594C56.4184 160.195 57.8861 161.329 59.4872 161.329Z" fill="#A6DFFC"/>
    <path d="M103.519 157.86L90.7765 100.886C90.4429 99.2847 88.9752 98.1505 87.3073 98.1505H90.8432C92.5111 98.1505 93.9121 99.2847 94.3124 100.886L107.055 157.86C107.455 159.595 106.121 161.329 104.32 161.329H100.784C102.585 161.329 103.919 159.662 103.519 157.86Z" fill="#00AAFF"/>
    <path d="M40.6736 89.9446H86.5734C81.2362 89.9446 76.8998 94.281 76.8998 99.6182L77.4335 106.89L30.9999 107.491V99.6182C30.9999 94.281 35.3364 89.9446 40.6736 89.9446Z" fill="white"/>
    <path d="M72.3632 93.4805H39.2059" stroke="#DCC9AB" stroke-miterlimit="10" stroke-linecap="round" stroke-linejoin="round"/>
    <path d="M69.5611 98.2172H36.4039" stroke="#DCC9AB" stroke-miterlimit="10" stroke-linecap="round" stroke-linejoin="round"/>
    <path d="M142.214 50.8497L142.881 48.5146" stroke="#393842" stroke-miterlimit="10" stroke-linecap="round" stroke-linejoin="round"/>
    <path d="M115.194 52.7177L113.926 50.3159" stroke="#393842" stroke-miterlimit="10" stroke-linecap="round" stroke-linejoin="round"/>
    <path d="M64.9578 160.329C63.6235 161.73 61.7555 162.397 59.8208 162.731C57.1522 163.131 53.5496 162.664 50.414 158.728C44.5431 151.322 47.8121 142.449 48.546 139.047C49.2798 135.644 47.9455 133.376 50.1471 132.108L52.3487 141.915C52.3487 141.915 63.8237 131.508 68.0934 132.108C72.3632 132.709 69.5611 134.977 69.5611 134.977C69.5611 134.977 72.9636 133.976 73.8976 135.911C74.8316 137.846 72.9636 139.113 72.9636 139.113C72.9636 139.113 74.7649 142.049 72.2297 145.385L67.026 151.522C67.026 151.522 73.3639 147.586 75.1652 148.32C77.7671 149.321 68.5604 156.593 64.9578 160.329Z" fill="#FEC9B6"/>
    <path d="M72.9636 138.98L59.754 151.723" stroke="#5C3023" stroke-miterlimit="10" stroke-linecap="round" stroke-linejoin="round"/>
    <path d="M69.5611 134.91L56.0847 145.385" stroke="#5C3023" stroke-miterlimit="10" stroke-linecap="round" stroke-linejoin="round"/>
    <path d="M67.026 151.389L63.757 154.591" stroke="#5C3023" stroke-miterlimit="10" stroke-linecap="round" stroke-linejoin="round"/>
    <path d="M130.739 150.655C130.739 150.655 146.617 167.801 140.212 175.673C133.808 183.545 106.321 187.815 105.654 191.284H177.039C179.24 191.284 180.975 189.283 180.575 187.081L179.974 183.545L177.172 181.677L130.739 150.655Z" fill="#E72E40"/>
    <path d="M117.596 194.62L122.8 222.04" stroke="#1184BE" stroke-miterlimit="10" stroke-linecap="round" stroke-linejoin="round"/>
    <path d="M102.505 174.777L13.1823 174.497C11.1088 174.483 9.19707 175.57 8.1481 177.363L1.83271 188.179C0.783739 189.971 0.768817 192.172 1.79354 193.957L7.98288 204.858C9.00746 206.664 10.9043 207.778 12.9778 207.792L102.279 208.072C104.353 208.086 106.265 206.998 107.314 205.206L113.65 194.39C114.699 192.598 114.714 190.397 113.689 188.612L107.5 177.711C106.475 175.904 104.558 174.791 102.505 174.777Z" fill="#04E061"/>
    <rect x="29.8065" y="181.602" width="54" height="19" rx="9.5" transform="rotate(0.388369 29.8065 181.602)" fill="#04E061"/>
    <path d="M25.6597 195.574L24.2197 195.564L24.2512 190.924L18.0433 190.882L18.0118 195.522L16.5719 195.512L16.6439 184.889L18.0839 184.898L18.0524 189.538L24.2603 189.58L24.2917 184.94L25.7317 184.95L25.6597 195.574ZM31.2993 188.044C33.3793 188.058 34.8122 189.108 34.7997 190.948L34.768 195.636L33.392 195.626L33.3974 194.826C32.8172 195.446 31.9666 195.825 30.8306 195.817C29.1027 195.805 27.8441 194.997 27.8553 193.349C27.8673 191.573 29.4074 190.975 31.1034 190.987L33.4233 191.002C33.4316 189.786 32.5066 189.332 31.2907 189.324C30.4107 189.318 29.5122 189.68 29.2194 190.382L27.6995 190.372C28.1418 188.855 29.6034 188.032 31.2993 188.044ZM33.4119 192.682L33.4152 192.202L31.0793 192.187C29.9433 192.179 29.2367 192.558 29.2313 193.358C29.2258 194.158 29.9273 194.531 30.9833 194.538C32.4713 194.548 33.4045 193.786 33.4119 192.682ZM44.0305 190.482L42.5265 190.472C42.147 189.813 41.4298 189.393 40.5658 189.387C39.1259 189.377 38.0941 190.522 38.0842 191.978C38.0743 193.434 39.0905 194.593 40.5305 194.603C41.3944 194.608 42.1173 194.197 42.5057 193.544L44.0097 193.554C43.472 194.975 42.1538 195.894 40.5218 195.883C38.3458 195.868 36.6932 194.193 36.7082 191.969C36.7233 189.745 38.3985 188.092 40.5745 188.107C42.2065 188.118 43.5121 189.055 44.0305 190.482ZM45.0729 189.561L45.0811 188.345L52.1529 188.393L52.1447 189.609L49.2968 189.59L49.2551 195.734L47.8792 195.724L47.9208 189.581L45.0729 189.561ZM57.0175 188.218C59.0974 188.232 60.5304 189.282 60.5179 191.122L60.4861 195.81L59.1102 195.801L59.1156 195.001C58.5354 195.621 57.6848 195.999 56.5488 195.991C54.8208 195.98 53.5623 195.171 53.5735 193.523C53.5855 191.747 55.1256 191.149 56.8215 191.161L59.1415 191.177C59.1497 189.961 58.2248 189.506 57.0088 189.498C56.1288 189.492 55.2304 189.854 54.9376 190.556L53.4176 190.546C53.8599 189.029 55.3215 188.207 57.0175 188.218ZM59.1301 192.857L59.1334 192.377L56.7974 192.361C55.6614 192.353 54.9549 192.732 54.9494 193.532C54.944 194.332 55.6455 194.705 56.7015 194.712C58.1894 194.722 59.1226 193.961 59.1301 192.857ZM68.6983 192.186C69.5273 192.623 69.715 193.264 69.7107 193.888C69.7034 194.976 68.9453 195.867 67.3453 195.856L62.8814 195.826L62.9313 188.466L67.3312 188.496C68.9312 188.507 69.6772 189.392 69.6697 190.496C69.6656 191.104 69.5014 191.727 68.6983 192.186ZM67.2096 194.639C67.8976 194.644 68.3316 194.343 68.3358 193.719C68.3401 193.095 67.9101 192.788 67.2222 192.784L64.2782 192.764L64.2656 194.62L67.2096 194.639ZM67.1664 191.567C67.8544 191.572 68.2884 191.271 68.2927 190.647C68.2969 190.023 67.867 189.716 67.179 189.711L64.2991 189.692L64.2865 191.548L67.1664 191.567ZM77.5016 188.565L78.8776 188.574L78.8277 195.934L77.4517 195.925L77.4728 192.821L73.1689 192.792L73.1478 195.896L71.7719 195.886L71.8217 188.527L73.1977 188.536L73.1771 191.576L77.481 191.605L77.5016 188.565ZM82.757 195.961L81.381 195.952L81.4309 188.592L82.8069 188.601L82.7705 193.961L87.1108 188.63L88.4867 188.64L88.4369 195.999L87.0609 195.99L87.0972 190.63L82.757 195.961ZM91.0401 188.657L92.416 188.666L92.3942 191.882L95.9519 188.69L97.7919 188.703L93.6871 192.355L97.742 196.062L95.9021 196.05L92.3866 193.002L92.3661 196.026L90.9902 196.017L91.0401 188.657Z" fill="white"/>
</svg>
