<svg width="375" height="800" viewBox="0 0 375 800" fill="none" xmlns="http://www.w3.org/2000/svg">
    <g clip-path="url(#clip0_345_9126)">
        <path d="M490.698 420.013L453.211 378.401C444.313 368.553 432.07 362.256 418.71 360.819L245.392 342.169C232.033 340.731 218.73 344.279 207.823 351.996L162.342 384.68C149.371 393.953 147.822 412.753 159.055 424.038L286.05 551.505C298.889 564.385 319.045 566.554 334.33 556.7L485.536 459.169C499.03 450.545 501.503 431.963 490.698 420.013Z" fill="#965EEB"/>
        <path d="M161.354 546.535L77.07 564.952C53.6851 570.09 33.0481 582.639 17.819 600.982L-37.3105 667.343C-61.3722 696.367 -32.2793 744.21 4.56088 736.199L88.8454 717.783C112.23 712.645 132.867 700.096 148.096 681.752L203.226 615.391C227.35 586.469 198.195 538.525 161.354 546.535Z" fill="#00E166"/>
        <path d="M128.878 496.328C147.8 467.142 139.388 428.073 110.135 409.21C67.4419 381.596 27.6405 349.564 -8.48111 313.609C-33.1712 288.987 -73.1278 289.057 -97.6243 313.756C-122.247 338.446 -122.176 378.402 -97.4189 402.966C-55.02 445.163 -8.3195 482.657 41.7601 515.071C70.9459 533.992 109.947 525.639 128.878 496.328Z" fill="#FF4053"/>
        <path d="M271.62 602.962L252.621 724.777C250.608 737.329 264.891 746.021 275.143 738.542L425.624 628.761C435.877 621.281 431.96 605.026 419.392 603.112L297.634 584.071C285.222 582.13 273.603 590.607 271.62 602.962Z" fill="#00AAFF"/>
    </g>
    <defs>
        <clipPath id="clip0_345_9126">
            <rect width="375" height="829" fill="white"/>
        </clipPath>
    </defs>
</svg>
