<svg width="43" height="42" viewBox="0 0 43 42" fill="none" xmlns="http://www.w3.org/2000/svg">
    <circle cx="21.2003" cy="21" r="21" fill="#FF4053"/>
    <mask id="mask0_96_2704" style="mask-type:alpha" maskUnits="userSpaceOnUse" x="0" y="0" width="43" height="42">
        <circle cx="21.2003" cy="21" r="21" fill="#FF4053"/>
    </mask>
    <g mask="url(#mask0_96_2704)">
        <path d="M2.16657 40.4079C2.16657 40.4079 -10.5984 41.8647 -13.5456 43.6718C-16.4928 45.479 -17.4138 46.1244 -18.2427 47.5074H-10.7826C-10.7826 47.5074 -7.90911 47.5996 -7.17232 46.3641C-7.17232 46.3641 6.05316 52.4863 10.4739 46.401L12.758 42.381L2.16657 40.4079Z" fill="#FEC9B6"/>
        <path d="M2.1665 40.4079L11.8185 44.0591L12.7579 42.3994L2.1665 40.4079Z" fill="#CD5E40"/>
        <path d="M16.884 19.9945L9.81076 23.074C7.32407 24.1067 5.48208 26.2642 4.87422 28.9012L2.1665 40.4079L7.13987 41.3299L6.21888 49.9968H33.2961L33.904 41.0164L39.301 40.8873L37.7353 29.2331C37.2932 25.9876 35.0276 23.2953 31.8962 22.3364L23.8283 19.9576L16.884 19.9945Z" fill="#CFFFE3"/>
        <path d="M14.2684 33.0871H9.27661V34.4886H14.2684V33.0871Z" stroke="#DCC9AB" stroke-width="0.5" stroke-miterlimit="10" stroke-linecap="round" stroke-linejoin="round"/>
        <path d="M33.2961 49.9968L33.904 41.0164L28.0096 41.2193C28.0096 41.2193 27.8254 36.9042 27.8254 34.8389C27.7517 35.7056 25.0808 43.7087 21.5626 45.7371C20.6969 46.235 17.2708 47.7655 16.4603 50.0153H33.2961V49.9968Z" fill="#DCC9AB"/>
        <path d="M7.13989 41.3299L8.90906 31.7963" stroke="#DCC9AB" stroke-width="0.5" stroke-miterlimit="10" stroke-linecap="round" stroke-linejoin="round"/>
        <path d="M21.9495 43.303L20.1812 26.0245C20.4206 25.7848 20.568 25.4528 20.568 25.084C20.568 24.3649 19.9786 23.7748 19.2602 23.7748H18.8549C18.1366 23.7748 17.5471 24.3649 17.5471 25.084C17.5471 25.4528 17.6945 25.7848 17.934 26.0245L16.1656 43.303H21.9495Z" fill="#04E061"/>
        <path d="M14.8209 21.0087C14.5631 22.152 14.6367 23.9776 14.7288 25.3053C14.7657 25.8216 15.4288 26.006 15.7235 25.5819C16.4235 24.6046 17.2155 23.7747 19.0575 24.1251C19.0575 24.1251 21.8758 23.3691 23.0546 26.3564C23.202 26.7436 23.7362 26.8174 23.9941 26.4855C24.9703 25.2684 26.6649 22.8343 26.6649 20.8427C26.6649 20.8427 26.6649 19.4044 25.3755 18.6483C23.7546 17.6895 15.5946 17.5235 14.8209 21.0087Z" fill="#04E061"/>
        <path d="M16.1656 9.94458C16.1656 9.94458 13.9921 9.39138 13.9553 7.23386C13.9184 5.07635 15.7788 4.39406 17.2156 5.16856C17.2156 5.16856 17.8971 3.60113 19.8864 4.74443C19.8864 4.74443 22.5021 2.86352 23.7178 5.79552C23.7178 5.79552 24.7861 4.91039 26.2413 6.53313C26.2413 6.53313 26.9229 7.39983 26.0203 8.56156C26.0203 8.56156 26.7571 9.44669 26.2597 10.7191L25.744 11.5489C25.744 11.5489 26.1676 14.905 22.9442 14.9235L16.1656 9.94458Z" fill="#5C3023"/>
        <path d="M25.3204 12.1205C25.3019 11.2723 24.5836 10.5715 23.7363 10.5715C23.11 10.5715 22.5758 10.9219 22.3179 11.4382C21.6916 10.9957 21.3969 10.2027 21.618 9.40981L21.9127 8.37716C21.9127 8.37716 20.0154 8.93036 18.4497 8.37716C16.8841 7.82395 15.871 8.37716 15.871 8.37716C15.8341 8.50624 15.7973 8.65376 15.7604 8.80128L14.7658 13.7802C14.4158 15.5873 15.3736 17.0994 16.9762 17.5604L16.8841 20.013C16.8841 20.013 17.4735 24.1251 19.0576 24.1251C20.2181 24.1251 22.2442 21.9123 23.2389 20.7321C23.6257 20.2711 23.7915 19.6626 23.681 19.0725L23.0363 13.6142C23.2389 13.7064 23.46 13.7617 23.6994 13.7617C24.6204 13.7617 25.3572 13.0241 25.3204 12.1205Z" fill="#FEC9B6"/>
        <path d="M17.9708 8.74596C18.6708 9.13321 20.0707 9.55733 21.5627 9.59422C21.5811 9.53889 21.5811 9.46513 21.5995 9.40981L21.8943 8.37716C21.8943 8.37716 19.997 8.93036 18.4313 8.37716C16.8656 7.82395 15.8525 8.37716 15.8525 8.37716C15.871 8.37716 16.6814 8.02679 17.9708 8.74596Z" fill="#F48B6E"/>
        <path d="M16.9761 17.5419C16.9761 17.5419 19.3522 18.3533 21.139 16.5277C21.139 16.5277 19.7759 19.0171 16.9761 18.8327V17.5419Z" fill="#F48B6E"/>
        <path d="M23.11 12.4893L24.4553 11.5489" stroke="#CD5E40" stroke-width="0.5" stroke-miterlimit="10" stroke-linecap="round" stroke-linejoin="round"/>
        <path d="M23.7731 12.0283L24.3628 12.4893" stroke="#CD5E40" stroke-width="0.5" stroke-miterlimit="10" stroke-linecap="round" stroke-linejoin="round"/>
        <path d="M28.0281 39.9284L27.7517 31.6119" stroke="#DCC9AB" stroke-width="0.5" stroke-miterlimit="10" stroke-linecap="round" stroke-linejoin="round"/>
        <path d="M39.3194 40.9058L31.3988 40.537C24.2519 38.5639 17.3445 41.4959 17.3445 41.4959C17.3445 41.4959 13.9368 42.3994 11.8738 42.5838C11.5422 42.6207 11.2475 42.7682 11.0449 43.0264L8.53976 46.0875C8.35556 46.2903 8.22662 46.5485 8.18978 46.8067C8.15294 47.2124 8.31873 47.5996 9.62654 46.7698C9.62654 46.7698 9.81074 48.0053 11.2475 46.7698C11.2475 46.7698 11.3948 48.1159 12.9421 46.862C12.9421 46.862 12.9421 48.0975 14.5999 46.9173L15.5209 46.3641C15.5209 46.3641 17.7497 47.1386 19.8312 46.401C22.2257 47.1202 30.5515 49.9968 36.6669 49.9415C41.7692 49.9231 39.3194 40.9058 39.3194 40.9058Z" fill="#FEC9B6"/>
        <path d="M31.3988 40.537L39.6325 42.3995L39.3194 40.9058L31.3988 40.537Z" fill="#F48B6E"/>
        <path d="M16.3504 10.4425H15.6501C15.4658 10.4425 15.2999 10.295 15.2999 10.0921C15.2999 9.90772 15.4474 9.74176 15.6501 9.74176H16.3504C16.5347 9.74176 16.7005 9.88928 16.7005 10.0921C16.7005 10.295 16.5347 10.4425 16.3504 10.4425Z" fill="#5C3023"/>
        <path d="M19.4082 10.7007L18.4683 10.4978C18.284 10.4609 18.155 10.2765 18.2103 10.0921C18.2472 9.90773 18.4314 9.77865 18.6157 9.83397L19.5556 10.0368C19.7399 10.0737 19.8689 10.2581 19.8136 10.4425C19.7952 10.6269 19.6109 10.756 19.4082 10.7007Z" fill="#5C3023"/>
        <path d="M16.663 12.4525C16.3681 12.1574 16.276 11.6411 16.5893 11.3276C16.792 11.1248 17.0316 10.9957 17.1606 10.7006C17.2527 10.4978 17.2896 10.2212 17.2896 10.0552" stroke="#CD5E40" stroke-width="0.5" stroke-miterlimit="10" stroke-linecap="round" stroke-linejoin="round"/>
        <path d="M16.3867 13.3929C16.3867 13.3929 17.216 13.6142 17.6583 13.2085" stroke="#CD5E40" stroke-width="0.5" stroke-miterlimit="10" stroke-linecap="round" stroke-linejoin="round"/>
        <path d="M16.0368 11.2538C16.0368 11.3829 15.9631 11.4935 15.8709 11.4935C15.7788 11.4935 15.7051 11.3829 15.7051 11.2538C15.7051 11.1247 15.7788 11.0141 15.8709 11.0141C15.9631 11.0141 16.0368 11.1247 16.0368 11.2538Z" fill="#3B1610"/>
        <path d="M18.4683 11.4936C18.4683 11.6226 18.3946 11.7333 18.3025 11.7333C18.2103 11.7333 18.1366 11.6226 18.1366 11.4936C18.1366 11.3645 18.2103 11.2538 18.3025 11.2538C18.3946 11.2538 18.4683 11.3645 18.4683 11.4936Z" fill="#3B1610"/>
        <path d="M21.9126 8.37717C22.0785 8.04524 22.5392 7.63956 22.7972 7.36295C23.0736 7.08635 23.4053 6.86507 23.7371 6.68066" stroke="#3B1610" stroke-width="0.5" stroke-miterlimit="10" stroke-linecap="round" stroke-linejoin="round"/>
        <path d="M15.8347 8.32182C15.1344 8.32182 14.471 7.8055 14.5078 7.03101" stroke="#3B1610" stroke-width="0.5" stroke-miterlimit="10" stroke-linecap="round" stroke-linejoin="round"/>
        <path d="M17.3999 5.81396C16.847 6.16433 17.2156 7.23386 17.5104 7.62111" stroke="#3B1610" stroke-width="0.5" stroke-miterlimit="10" stroke-linecap="round" stroke-linejoin="round"/>
        <path d="M22.3179 11.4198C22.3179 11.4198 22.7968 9.52045 24.8414 9.53889" stroke="#3B1610" stroke-width="0.5" stroke-miterlimit="10" stroke-linecap="round" stroke-linejoin="round"/>
        <path d="M17.9524 26.0245H20.1812" stroke="#08A84B" stroke-width="0.5" stroke-miterlimit="10" stroke-linecap="round" stroke-linejoin="round"/>
    </g>
</svg>
