<svg width="37" height="37" viewBox="0 0 37 37" fill="none" xmlns="http://www.w3.org/2000/svg">
    <circle cx="18.082" cy="18.4639" r="18" fill="#FF4053"/>
    <mask id="mask0_153_57841" style="mask-type:alpha" maskUnits="userSpaceOnUse" x="0" y="0" width="37" height="37">
        <circle cx="18.082" cy="18.4639" r="18" fill="#FF4053"/>
    </mask>
    <g mask="url(#mask0_153_57841)">
        <path d="M31.0742 42.3366C31.0742 42.9439 31.019 43.5512 30.9638 44.1309C30.9086 44.7106 30.8258 45.2903 30.7154 45.87C30.5221 47.0017 30.2461 48.1059 29.9148 49.1825C29.7492 49.7346 29.5836 50.2591 29.3903 50.7836C29.3075 51.0596 29.1971 51.308 29.1143 51.5841L28.9487 51.9981L28.8659 52.1914L28.7831 52.4122C28.2862 53.6268 26.906 54.2617 25.6362 53.82C24.3663 53.3508 23.7038 51.9429 24.1731 50.6455L24.2007 50.5627L24.3111 50.2591L24.4216 49.9278C24.5044 49.707 24.5596 49.4585 24.6424 49.2377C24.7804 48.7684 24.9184 48.2992 25.0565 47.8299C25.3049 46.8913 25.4981 45.9528 25.6362 45.0142C25.7742 44.0757 25.857 43.1647 25.857 42.2814C25.857 42.171 25.857 42.0606 25.857 41.9501C25.857 41.8949 25.857 41.8397 25.857 41.7845V41.6189V41.4533L25.8294 41.2876C25.8294 41.1772 25.8018 41.0668 25.8018 40.9288C25.7466 40.4595 25.6914 39.9626 25.6362 39.4657C25.4981 38.472 25.3325 37.4782 25.1393 36.4569C25.1117 36.2636 25.0841 36.098 25.0289 35.9048C24.9736 35.6563 24.946 35.4079 24.8908 35.1595C24.8632 34.9662 24.808 34.773 24.7804 34.5798C24.6976 34.1933 24.6148 33.8068 24.5596 33.4204C24.3387 32.399 24.1455 31.4053 23.8971 30.3839L23.5658 28.8657L23.4002 28.1203L23.2346 27.375V27.3474C23.2346 27.3198 23.2346 27.3198 23.2346 27.2922C22.9033 25.8016 23.8695 24.3109 25.3601 24.0073C26.3539 23.7864 27.32 24.1453 27.9549 24.8078C28.231 25.3323 28.507 25.9948 28.7831 26.6849L28.8383 26.9334L29.0039 27.7063L29.3351 29.2797C29.556 30.3287 29.7492 31.3501 29.9424 32.399C30.0529 32.9511 30.1357 33.5032 30.2461 34.0829C30.2737 34.1933 30.2737 34.3037 30.3013 34.4141C30.3289 34.5522 30.3565 34.6626 30.3565 34.8006C30.4117 35.049 30.4393 35.2975 30.4669 35.5459C30.6325 36.5949 30.7982 37.6715 30.9362 38.7756C30.9914 39.3277 31.0742 39.8798 31.1018 40.4595C31.1018 40.5975 31.1294 40.7355 31.1294 40.9012C31.1294 40.984 31.1294 41.0392 31.1294 41.122V41.3704V41.6189C31.1294 41.7017 31.1294 41.7845 31.1294 41.8397C31.0742 42.033 31.0742 42.171 31.0742 42.3366Z" fill="#FFCAB7"/>
        <path d="M24.7527 34.6626C24.8355 35.1043 24.9183 35.546 25.0011 35.9877L30.246 34.8835C30.2184 34.635 30.1631 34.3866 30.1079 34.1658L24.7527 34.6626Z" fill="#E0693E"/>
        <path d="M30.8811 34.3592L30.1634 34.4696L24.8357 35.2425L24.1732 35.353L22.9586 27.7065C22.7102 26.1883 22.9586 25.0289 24.118 24.0076C24.8633 23.3451 25.9123 22.6825 26.9613 23.5659C27.2649 23.8143 27.5686 24.2836 27.8722 24.8633C28.1483 25.3878 28.4243 26.0503 28.7003 26.7404C29.9149 29.9977 30.8811 34.3592 30.8811 34.3592Z" fill="#965EEB"/>
        <path d="M27.6237 31.4604C27.5961 31.9573 27.5685 32.4818 27.5409 32.9786C27.5409 33.0891 27.5133 33.2271 27.4857 33.3651C27.4305 33.6687 27.3752 34 27.32 34.3865C27.2372 34.9385 27.1544 35.5734 27.1544 36.2912C27.1544 36.3464 27.1544 36.4292 27.1544 36.512C27.1544 36.6776 27.1544 37.0917 27.1544 37.3401C27.1544 37.3953 27.1544 37.4505 27.1544 37.4782C27.182 38.0578 27.182 38.6651 27.182 39.2448C27.2648 44.4897 27.1544 49.4585 27.1544 49.4585C25.6914 50.259 21.7163 53.3507 9.40478 49.6517C7.52768 49.072 8.41102 46.836 8.41102 42.2813C8.41102 42.0881 8.41102 41.8949 8.41102 41.7016C8.41102 40.8459 8.43863 40.0178 8.43863 39.2448C8.46623 38.5823 8.46623 37.9474 8.49383 37.3401C8.49383 36.9813 8.52144 36.6224 8.52144 36.3188C8.52144 36.2083 8.52144 36.1255 8.52144 36.0151C8.52144 35.8219 8.52144 35.6563 8.52144 35.4906C8.52144 35.0766 8.52144 34.7177 8.52144 34.4141C8.52144 34.3312 8.52144 34.276 8.52144 34.2208C8.52144 33.9448 8.49384 33.6687 8.46623 33.3927C8.43863 32.7578 8.38342 32.1229 8.32821 31.488C8.10738 28.5067 8.02456 25.5254 9.92926 23.814C12.4413 21.578 14.5668 20.5291 14.5668 20.5291L21.0538 20.7499C21.0538 20.7499 26.7956 22.4614 27.2096 24.09C27.5685 25.4702 27.7617 28.4239 27.6237 31.4604Z" fill="#965EEB"/>
        <path d="M27.6238 31.4607C27.5962 31.9576 27.5686 32.4821 27.541 32.9789C27.541 33.0894 27.5134 33.2274 27.4858 33.3654H8.46639C8.43879 32.7305 8.38358 32.0956 8.32837 31.4607H27.6238Z" fill="#25252B"/>
        <path d="M27.3477 34.3865C27.2649 34.9386 27.182 35.5735 27.182 36.2912H8.54907C8.54907 36.1808 8.54907 36.0979 8.54907 35.9875C8.54907 35.7943 8.54907 35.6287 8.54907 35.463C8.54907 35.049 8.54907 34.6901 8.54907 34.3865H27.3477Z" fill="#25252B"/>
        <path d="M15.2846 25.1114C17.2169 25.2494 18.7627 24.6973 19.8117 24.1176C21.2747 23.3171 22.1028 22.3509 22.1305 22.3233C22.1857 22.2405 22.1857 22.1301 22.1028 22.0473C22.02 21.9921 21.9096 21.9921 21.8268 22.0749C21.7992 22.1025 18.5971 25.8567 13.6007 24.4212C13.4903 24.3936 13.3799 24.4488 13.3522 24.5593C13.3246 24.6697 13.3799 24.7801 13.4903 24.8077C14.1252 24.9733 14.7325 25.0837 15.2846 25.1114Z" fill="#25252B"/>
        <path d="M27.5132 34.911C27.596 34.911 27.6512 34.8558 27.6512 34.773C27.6512 34.7178 27.7893 30.025 27.458 27.2094C27.458 27.1266 27.3752 27.0714 27.32 27.099C27.2372 27.099 27.182 27.1818 27.2096 27.237C27.5408 30.025 27.4028 34.7178 27.4028 34.773C27.3752 34.8282 27.4304 34.911 27.5132 34.911Z" fill="#25252B"/>
        <path d="M27.4858 29.0314C27.541 29.0314 27.5962 29.0038 27.6238 28.9485L28.0378 27.9548C28.0655 27.8996 28.0378 27.8168 27.955 27.7892C27.8998 27.7616 27.817 27.7892 27.7894 27.872L27.3753 28.8657C27.3477 28.9209 27.3753 29.0038 27.4582 29.0314H27.4858Z" fill="#25252B"/>
        <path d="M14.9533 17.5202C14.9533 17.5202 14.6772 18.5139 13.7111 18.2931C12.7449 18.0999 13.573 17.2717 13.573 17.2717C13.573 17.2717 11.6131 17.7962 12.5793 15.8363C12.5793 15.8363 11.6683 16.1952 11.6959 15.2842C11.7235 14.3457 12.4965 13.5728 12.11 12.0821C11.7235 10.5915 11.5027 8.05188 13.3798 6.83728C15.2569 5.62269 17.6033 6.56124 20.3085 4.90498C23.9523 2.66902 23.6762 7.96906 22.1856 8.35553C20.695 8.74199 14.9533 17.5202 14.9533 17.5202Z" fill="#121633"/>
        <path d="M20.5843 19.3145L20.6948 20.9431C20.5291 21.1088 20.3635 21.2468 20.1703 21.3848C17.6031 23.2619 14.5942 21.302 14.5942 21.302L14.2629 15.6155L19.839 18.8728L20.5843 19.3145Z" fill="#FFCAB7"/>
        <path d="M20.5845 19.3144L20.6949 20.9431C20.5293 21.1087 20.3637 21.2468 20.1704 21.3848C17.8517 20.5566 16.0298 18.0999 16.0298 18.0999L19.8392 18.8452L20.5845 19.3144Z" fill="#121633"/>
        <path d="M22.02 13.1036C22.02 13.1036 22.8205 12.027 23.4002 13.0208C23.9523 14.0145 23.7039 16.1401 22.3513 15.864L22.02 13.1036Z" fill="#E0693E"/>
        <path d="M23.0966 15.9746C23.0966 15.9746 23.207 19.1767 19.8945 19.3699C16.6096 19.5632 14.346 17.7965 14.2356 17.6585L14.1528 16.996L13.7663 13.5454L13.5455 11.6959C13.5455 11.6959 12.9382 8.38339 16.0575 7.58286C18.3487 7.00317 20.557 7.25161 21.7164 8.41099C21.744 8.4386 21.7992 8.49381 21.8268 8.52141C22.1857 8.93548 22.4617 9.43235 22.5445 10.0397L22.8482 13.3522L22.931 14.1803L23.0966 15.9746Z" fill="#FFCAB7"/>
        <path d="M18.321 14.8977C18.321 14.8977 18.6799 16.3055 19.8117 16.5816C21.0815 16.8852 21.4403 15.2842 21.4403 15.2842L18.321 14.8977Z" fill="#F2F7F9"/>
        <path d="M20.2531 17.0785C20.3083 17.0785 20.3359 17.0509 20.3359 17.0509C20.3911 17.0233 20.4187 16.9681 20.3911 16.9129C20.3635 16.8577 20.3083 16.8301 20.2531 16.8577C20.2255 16.8577 19.8667 16.9957 19.5906 16.7197C19.5354 16.6921 19.4802 16.6921 19.4526 16.7197C19.425 16.7749 19.425 16.8301 19.4526 16.8577C19.7562 17.1613 20.1151 17.1061 20.2531 17.0785Z" fill="#E0693E"/>
        <path d="M18.459 12.717C18.4866 13.0483 18.3486 13.2967 18.1829 13.3243C18.0173 13.3243 17.8517 13.0759 17.8241 12.7722C17.7965 12.441 17.9345 12.1925 18.1001 12.1649C18.2934 12.1373 18.459 12.3858 18.459 12.717Z" fill="#121633"/>
        <path d="M21.6057 12.524C21.6333 12.8553 21.4953 13.1037 21.3297 13.1313C21.164 13.1313 20.9984 12.8829 20.9708 12.5792C20.9432 12.248 21.0812 11.9995 21.2469 11.9719C21.4401 11.9719 21.6057 12.2204 21.6057 12.524Z" fill="#121633"/>
        <path d="M20.088 14.2629C20.8609 14.2076 21.0817 13.6556 21.1093 13.628C21.137 13.6004 21.1093 13.5451 21.1093 13.5175C20.5021 12.441 19.8948 11.3644 19.8948 11.3368C19.8672 11.2816 19.7843 11.254 19.7291 11.2816C19.6739 11.3092 19.6463 11.392 19.6739 11.4472C19.6739 11.4472 20.2536 12.5238 20.8609 13.5451C20.8057 13.6556 20.5849 13.9316 20.088 13.9592C20.0052 13.9592 19.95 14.0144 19.9776 14.0972C19.95 14.2076 20.0328 14.2629 20.088 14.2629Z" fill="#121633"/>
        <path d="M17.2445 8.85241C16.8857 8.88002 16.582 9.15606 16.5544 9.51492C16.5268 9.76336 16.3888 10.067 15.9747 10.3707C15.0086 11.0884 15.2294 11.9441 15.5054 12.6894C15.7815 13.4071 14.4013 14.8702 13.3799 13.0759C12.3585 11.3092 12.9658 7.38938 15.6711 7.05813C18.3763 6.72687 22.0201 7.38938 22.3789 8.60397C22.7378 9.81857 22.6274 10.8675 22.6274 10.8675C22.6274 10.8675 22.1581 10.5087 22.1581 9.73575C22.1581 8.96283 21.606 8.68678 20.6951 8.63158C20.0602 8.57637 18.2935 8.74199 17.2445 8.85241Z" fill="#121633"/>
        <path d="M16.637 11.199C16.8302 11.5579 17.2719 11.6959 17.6307 11.5303C17.8516 11.4198 18.1 11.3094 18.376 11.2266C18.7625 11.1162 18.9833 10.7297 18.8453 10.3433C18.8453 10.3709 17.2719 10.3157 16.637 11.199Z" fill="#121633"/>
        <path d="M22.5996 10.8677C22.4616 11.2542 22.0199 11.4474 21.6335 11.3094C21.4126 11.2266 21.1366 11.1438 20.8605 11.1162C20.4741 11.061 20.198 10.6745 20.2809 10.288C20.3361 10.2604 21.8543 10.0396 22.5996 10.8677Z" fill="#121633"/>
        <path d="M15.2016 16.3057C15.2016 16.3333 14.8151 17.327 14.2354 17.6583L14.1526 16.9958C14.1802 16.9958 14.6771 16.8854 15.2016 16.3057Z" fill="#121633"/>
        <path d="M14.4841 14.125C14.4841 14.125 13.1039 12.4964 12.2481 13.8766C11.558 15.036 13.1591 17.824 14.6221 16.7474L14.4841 14.125Z" fill="#FFCAB7"/>
        <path d="M14.4563 16.2781C14.5391 16.2781 14.5943 16.1953 14.5667 16.1125C14.3183 14.6771 13.0761 14.2354 13.0209 14.2078C12.9657 14.1802 12.8828 14.2354 12.8552 14.2906C12.8276 14.3458 12.8828 14.4286 12.9381 14.4562C12.9933 14.4838 14.0974 14.8703 14.3183 16.1401C14.3183 16.2229 14.3735 16.2781 14.4563 16.2781Z" fill="#121633"/>
        <path d="M13.1865 15.5604C13.2141 15.5604 13.2417 15.5604 13.2693 15.5328C13.3797 15.4223 13.711 15.1739 13.9318 15.2291C14.0146 15.2291 14.0698 15.2015 14.0974 15.1187C14.125 15.0359 14.0698 14.9807 13.987 14.9531C13.6005 14.8703 13.1313 15.2843 13.1037 15.3119C13.0485 15.3671 13.0485 15.4499 13.1037 15.5052C13.1037 15.5328 13.1313 15.5604 13.1865 15.5604Z" fill="#121633"/>
        <path d="M12.7451 28.7L12.7175 28.7552L12.2758 30.1355L11.8342 31.5433L11.3925 32.9511L10.9784 34.3589C10.9232 34.5246 10.868 34.6902 10.8404 34.8558C10.7852 35.049 10.73 35.2699 10.6748 35.4631C10.6472 35.5459 10.6196 35.6287 10.592 35.7115C10.4539 36.1808 10.3159 36.6501 10.2055 37.1194C10.0951 37.5886 9.95707 38.0579 9.84665 38.4996C9.73623 38.9689 9.62581 39.4105 9.543 39.8522C9.43258 40.2939 9.37737 40.7355 9.29456 41.1772L9.23935 41.4809C9.21174 41.5637 9.21174 41.6465 9.21174 41.7293C9.18414 41.8949 9.18414 42.0882 9.18414 42.2814C9.18414 42.4746 9.18414 42.6679 9.18414 42.8335C9.18414 43.0267 9.21174 43.2199 9.21174 43.4132C9.23935 43.7996 9.29456 44.2137 9.37737 44.6278C9.543 45.4559 9.79144 46.3116 10.0951 47.1398C10.2607 47.5538 10.3987 47.9679 10.592 48.382C10.6748 48.6028 10.7576 48.796 10.868 48.9893L11.006 49.2929L11.0888 49.4309L11.1164 49.4861L11.1441 49.5137V49.5413C11.779 50.5075 11.5305 51.8049 10.592 52.4398C9.62581 53.0747 8.3284 52.8263 7.6935 51.8877L7.55548 51.6945L7.41746 51.5289C7.33464 51.4184 7.25183 51.308 7.16902 51.1976C7.00339 50.9768 6.86537 50.7283 6.69974 50.5075C6.39609 50.0382 6.12005 49.569 5.87161 49.0721C5.34713 48.1059 4.90546 47.057 4.519 45.9528C4.16014 44.8486 3.88409 43.6892 3.80128 42.4194C3.77367 42.1158 3.77368 41.7845 3.77368 41.4533C3.77368 41.2876 3.77367 41.122 3.80128 40.9564V40.846V40.7355L3.82889 40.5147C3.88409 39.935 3.93931 39.4105 4.02212 38.8584C4.10493 38.334 4.18774 37.8095 4.27056 37.285C4.35337 36.7605 4.46379 36.2636 4.57421 35.7392C4.65702 35.3251 4.76744 34.8834 4.85025 34.4693C4.90546 34.1933 4.98827 33.9173 5.04348 33.6412C5.07108 33.5308 5.09869 33.3928 5.1263 33.2824C5.1815 33.0891 5.20911 32.8959 5.26432 32.7303C5.37473 32.2334 5.51276 31.7365 5.65078 31.2396C5.7888 30.7428 5.92682 30.2459 6.06484 29.7766C6.14766 29.4453 6.25808 29.1141 6.36849 28.7552C7.0586 27.375 7.85913 25.9396 8.68726 24.9182C9.32216 24.6422 10.0675 24.587 10.7852 24.8354C12.3586 25.3875 13.242 27.099 12.7451 28.7Z" fill="#FFCAB7"/>
        <path d="M4.82227 34.497L10.5916 35.684C10.6744 35.408 10.7572 35.1043 10.84 34.8283L5.09831 33.3101C5.0155 33.6965 4.93268 34.083 4.82227 34.497Z" fill="#E0693E"/>
        <path d="M13.214 28.1204L10.8125 35.4631L10.6468 35.4079L5.01554 33.6412L4.35303 33.448C4.35303 33.448 5.15356 31.1568 6.31294 28.7553C7.00305 27.375 7.80358 25.9396 8.63171 24.9182C9.04577 24.4214 9.48745 24.0073 9.90151 23.7313C10.7849 23.1792 12.0547 23.4828 12.662 24.1729C13.7109 25.3875 13.7109 26.6573 13.214 28.1204Z" fill="#965EEB"/>
        <path d="M10.785 35.1041C10.8402 35.1041 10.8954 35.0765 10.923 35.0213L12.6897 29.4452C12.7173 29.3624 12.6621 29.3072 12.6069 29.2796C12.5241 29.252 12.4689 29.3072 12.4413 29.3624L10.6746 34.9385C10.647 35.0213 10.7022 35.0765 10.7574 35.1041H10.785Z" fill="#25252B"/>
        <path d="M12.1376 30.8807C12.1652 30.8807 12.1928 30.8807 12.2204 30.8531L13.0762 30.3562C13.1314 30.3286 13.159 30.2458 13.1314 30.163C13.1038 30.1078 13.0209 30.0801 12.9381 30.1078L12.0824 30.6046C12.0272 30.6322 11.9996 30.715 12.0272 30.7979C12.0548 30.8531 12.0824 30.8807 12.1376 30.8807Z" fill="#25252B"/>
    </g>
</svg>
