<svg width="162" height="162" viewBox="0 0 162 162" fill="none" xmlns="http://www.w3.org/2000/svg">
    <g clip-path="url(#clip0_317_17)">
        <path d="M110.037 159.5C110.037 159.5 113.426 170.987 114.345 173.055C115.207 175.123 135.367 216.535 135.367 216.535H93.0357C93.0357 216.535 76.149 192.124 72.1858 182.705C68.2225 173.227 67.8205 152.32 67.8205 152.32" fill="#00AAFF"/>
        <path d="M48.4639 151.114L44.0986 165.531C44.0986 165.531 40.1354 183.796 42.0883 195.398C44.0412 207.001 45.1325 216.535 45.1325 216.535H87.1196L82.0076 184.428L83.7308 158.236" fill="#00AAFF"/>
        <path d="M55.2416 151.114L50.8763 165.531C50.8763 165.531 46.9131 183.796 48.866 195.398C50.8763 207.001 51.9102 216.535 51.9102 216.535" stroke="#1F7CAB" stroke-miterlimit="10" stroke-linecap="round"/>
        <path d="M47.0854 183.853L59.0325 178.052C59.0325 178.052 64.3742 173.802 70.4052 161.28" stroke="#1F7CAB" stroke-miterlimit="10" stroke-linecap="round"/>
        <path d="M76.2638 44.1071L67.8205 48.9893L69.0267 54.2736L65.5804 63.119L55.5862 66.2781C55.5862 66.2781 74.5407 79.3164 79.5952 80.2355C86.0857 81.3842 95.2758 69.8966 95.2758 69.8966L89.934 67.5991L93.1506 55.5372" fill="#FFC1AA"/>
        <path d="M96.9415 45.0835C95.3906 40.6607 93.6675 34.6298 91.8869 31.4133C90.3936 28.6562 87.7514 24.7505 84.8221 23.4868C81.0312 21.936 76.8382 24.0612 73.1622 25.4972C67.0738 27.9095 65.8102 35.2041 66.6717 41.0054C67.361 45.4281 68.7395 49.6785 71.956 52.895C77.2403 58.1218 88.0386 60.764 94.1844 55.3074C97.1138 52.7227 98.6646 49.9657 96.9415 45.0835Z" fill="#FFC1AA"/>
        <path d="M83.9031 38.4207C84.2477 39.1099 84.0754 39.914 83.5584 40.1438C83.0415 40.431 82.2948 40.0289 81.9502 39.3397C81.6056 38.6504 81.7779 37.8463 82.2948 37.6165C82.8692 37.3868 83.5584 37.7314 83.9031 38.4207Z" fill="#303030"/>
        <path d="M93.4952 35.6062C93.8398 36.2955 93.6675 37.0996 93.1506 37.3293C92.6336 37.6165 91.8869 37.2145 91.5423 36.5252C91.1977 35.836 91.37 35.0318 91.8869 34.8021C92.4039 34.5723 93.1506 34.917 93.4952 35.6062Z" fill="#303030"/>
        <path d="M87.8663 35.6637C88.9002 37.4443 90.2787 38.9951 91.37 40.7757C91.5997 41.1203 91.7146 41.4649 91.7146 41.867C91.7146 43.0157 90.1064 43.5327 89.3022 43.9347" stroke="#303030" stroke-miterlimit="10" stroke-linecap="round"/>
        <path d="M68.1077 56.7434C68.1077 56.7434 72.6453 52.2632 73.1048 50.0232C74.0238 45.4281 72.3007 38.0761 73.1622 33.4236C77.6998 31.8154 80.8015 30.724 85.3965 29.1158C87.1196 28.484 88.8427 27.9096 90.451 27.048C91.5998 26.4736 92.6911 25.7844 93.4952 24.8079C94.2419 23.9464 94.7014 22.9125 95.046 21.8212C95.4481 20.6724 95.7353 19.4662 95.6778 18.3175C95.4481 15.6179 92.9208 13.2629 90.0489 13.0332C88.0961 12.9183 86.1432 13.7799 84.8221 15.101C84.0754 15.8476 82.9267 16.0774 81.9502 15.6753C81.8353 15.6179 81.663 15.5605 81.5481 15.5605C80.5143 15.3881 79.4804 15.6179 78.5614 15.9625C76.4362 16.7092 75.0002 19.2365 73.4494 20.7873C72.3581 21.8786 71.3242 20.3852 68.9118 21.1894C61.4449 23.6018 57.7689 29.2307 56.735 35.7211C55.5862 42.7286 59.0899 50.2529 64.604 54.6182C65.6953 55.4798 68.1077 56.7434 68.1077 56.7434Z" fill="#441533"/>
        <path d="M77.9295 56.1689C80.0547 58.0644 86.4878 60.0747 92.289 56.8582" stroke="#303030" stroke-miterlimit="10" stroke-linecap="round"/>
        <path d="M77.1254 36.6401C77.5275 35.6637 77.9295 34.6872 78.6188 33.9405C79.7101 32.8492 80.9737 32.9067 82.2948 33.3662" stroke="#303030" stroke-miterlimit="10" stroke-linecap="round"/>
        <path d="M89.1873 31.4707C89.3022 30.9538 89.532 30.3794 89.934 29.9199C90.9105 28.8286 92.2316 29.7476 92.9782 30.6091" stroke="#303030" stroke-miterlimit="10" stroke-linecap="round"/>
        <path d="M76.0915 45.2559C75.2874 43.1881 71.8986 42.6137 70.2903 43.9348C66.442 47.1513 70.8073 54.5608 75.23 53.8141C76.4936 53.5843 77.987 52.5505 77.9296 51.0571" fill="#FFC1AA"/>
        <path d="M71.2668 47.5533L76.3213 49.6211" stroke="#303030" stroke-miterlimit="10" stroke-linecap="round"/>
        <path d="M73.2197 43.4178C74.3684 43.6476 75.4023 44.222 76.2064 45.0835" stroke="#303030" stroke-miterlimit="10" stroke-linecap="round"/>
        <path d="M70.1754 51.4017C71.3816 52.8951 73.1622 54.2736 75.1725 53.8715C76.551 53.6418 77.8147 52.493 77.8147 50.9996" stroke="#303030" stroke-miterlimit="10" stroke-linecap="round"/>
        <path d="M86.8324 45.3132C87.0047 46.4046 87.4642 48.5872 89.6468 47.7831C90.3361 47.5533 90.9105 47.0364 91.1977 46.5194" stroke="#303030" stroke-miterlimit="10" stroke-linecap="round"/>
        <path d="M61.1003 63.9806C61.1003 63.9806 73.392 79.0293 82.4671 78.6272C88.4981 78.34 93.0931 68.9202 93.0931 68.9202C93.0931 68.9202 104.581 70.4711 108.372 72.4814C112.162 74.4917 106.534 103.957 107.97 113.952C109.405 124.003 113.196 165.473 113.196 165.473H43.2371C43.2371 165.473 34.5065 115.387 36.1722 96.5478C37.8379 77.7657 43.352 68.8628 47.3152 66.6227C51.2784 64.4401 61.1003 63.9806 61.1003 63.9806Z" fill="#965EEB"/>
        <path d="M55.6436 65.5314C60.411 72.1942 68.8543 80.2929 76.2064 83.854C80.1696 85.7495 86.7175 85.4049 90.5084 83.2222C95.2183 80.4652 99.6985 70.2987 99.6985 70.2987" stroke="#6D41B0" stroke-miterlimit="10" stroke-linecap="round"/>
        <path d="M107.28 72.0793C110.899 73.4579 114.345 75.5831 116.643 78.7421C118.998 82.0161 119.917 86.1516 120.548 90.1148C121.927 98.4433 122.559 106.944 122.444 115.387C122.329 123.659 121.927 133.423 120.146 141.522C118.021 151.171 111.818 157.145 101.709 157.317C92.1741 157.489 82.4671 153.928 73.6791 150.539C68.7395 148.644 63.8573 146.634 59.0325 144.394L69.199 119.351L96.0799 124.175C96.0799 124.175 101.077 98.3284 105.844 90.2297" fill="#965EEB"/>
        <path d="M104.064 94.2504C108.544 90.6318 114.345 88.4492 120.146 88.7938" stroke="#6D41B0" stroke-miterlimit="10" stroke-linecap="round"/>
        <path d="M69.199 119.408L96.0799 124.233C96.0799 124.233 101.077 98.3858 105.844 90.2871" stroke="#303030" stroke-miterlimit="10" stroke-linecap="round"/>
        <path d="M111.99 154.445C109.176 156.283 105.787 157.26 101.709 157.375C92.1741 157.547 82.4671 153.986 73.6791 150.597C68.7395 148.701 63.8573 146.691 59.0325 144.451" stroke="#303030" stroke-miterlimit="10" stroke-linecap="round"/>
        <path d="M95.5055 124.118C100.56 124.98 105.442 126.53 110.037 128.713" stroke="#303030" stroke-miterlimit="10" stroke-linecap="round"/>
        <path d="M71.0945 71.4476C73.6217 68.1736 75.9192 64.7274 78.6763 61.6832C80.6291 59.5005 82.8692 57.6051 85.339 56.0543C87.8089 54.5609 90.6808 53.1249 93.5526 52.8952C95.4481 52.7229 96.9989 53.9291 98.32 55.0778C99.1241 55.7671 99.8708 56.4563 100.675 57.1456C100.847 57.2605 100.962 57.4328 101.02 57.6051C101.077 58.0072 100.618 58.2943 100.215 58.4092C99.5836 58.5815 99.239 58.3518 98.5497 58.2943C99.0667 58.5815 99.4687 59.2133 99.6411 59.6154C99.9282 60.2472 99.8708 60.5344 99.5262 61.1662C100.158 61.3385 100.675 61.798 100.847 62.4873C101.02 63.1191 100.847 63.8084 100.618 64.4402C100.56 64.6125 100.445 64.7848 100.503 64.9571C100.56 65.1869 100.732 65.3018 100.847 65.4741C103.719 68.6331 98.9518 72.4815 96.3097 73.6877C96.1374 73.7451 95.9076 73.86 95.7353 73.86C95.3907 73.86 95.1035 73.5154 94.9886 73.1133C94.9312 72.7687 94.9886 72.3666 95.1035 72.022C91.2551 76.0426 91.3126 80.8674 86.258 83.1649" fill="#FFC1AA"/>
        <path d="M71.0945 71.4474C73.6217 68.1735 75.9192 64.7272 78.6762 61.683C80.6291 59.5004 82.8692 57.6049 85.339 56.0541C87.8089 54.5607 90.6807 53.1248 93.5526 52.895C95.4481 52.7227 95.965 53.3545 95.965 53.3545" stroke="#303030" stroke-miterlimit="10" stroke-linecap="round"/>
        <path d="M98.8369 58.4665C97.2287 57.5475 96.6543 57.088 94.8163 56.7434C92.9783 56.3987 90.5659 57.0306 89.0151 57.9496" stroke="#303030" stroke-miterlimit="10" stroke-linecap="round"/>
        <path d="M99.5262 61.2235C99.5262 61.2235 97.5159 60.5342 94.8737 60.8788C93.3229 61.0512 91.2551 61.9127 91.2551 61.9127" stroke="#303030" stroke-miterlimit="10" stroke-linecap="round"/>
        <path d="M100.503 64.957C99.1816 64.7272 97.8605 64.6698 96.5394 64.8996C95.3332 65.1293 94.2419 65.7037 93.0931 66.2781" stroke="#303030" stroke-miterlimit="10" stroke-linecap="round"/>
        <path d="M95.1035 72.0218L99.1816 68.4032" stroke="#303030" stroke-miterlimit="10" stroke-linecap="round"/>
        <path d="M50.5891 65.5314C45.3623 66.7376 32.5537 70.988 28.7053 85.1177C25.0867 98.2709 26.8673 111.654 29.0499 122.337C31.29 133.021 38.0102 153.756 47.7747 155.939C61.4449 158.925 68.0502 154.503 79.2506 125.726C90.451 96.9499 93.8973 81.7863 93.8973 81.7863L69.7734 69.8966C69.7734 69.8966 45.1325 106.944 42.6053 119.638" fill="#965EEB"/>
        <path d="M62.4213 81.3842L89.532 94.7672" stroke="#6D41B0" stroke-miterlimit="10" stroke-linecap="round"/>
        <path d="M69.8308 69.8966C69.8308 69.8966 45.19 106.944 42.6627 119.638" stroke="#303030" stroke-miterlimit="10" stroke-linecap="round"/>
        <path d="M40.595 150.712C42.7776 153.411 45.19 155.307 47.7747 155.881C61.4449 158.868 68.0502 154.445 79.2506 125.669C90.451 96.8923 93.8973 81.7288 93.8973 81.7288" stroke="#303030" stroke-miterlimit="10" stroke-linecap="round"/>
        <path d="M32.0941 77.9953C36.0574 77.7081 40.0206 78.9143 43.4668 80.9246C46.9131 82.8775 49.9573 85.6345 52.7718 88.5639" stroke="#6D41B0" stroke-miterlimit="10" stroke-linecap="round"/>
        <path d="M51.7379 85.1177C52.7718 88.3916 53.9205 95.2267 53.9205 95.2267" stroke="#303030" stroke-miterlimit="10" stroke-linecap="round"/>
    </g>
    <defs>
        <clipPath id="clip0_317_17">
            <rect width="162" height="162" rx="12" fill="white"/>
        </clipPath>
    </defs>
</svg>
