<svg width="376" height="700" viewBox="0 0 376 700" fill="none" xmlns="http://www.w3.org/2000/svg">
    <mask id="mask0_317_13" style="mask-type:alpha" maskUnits="userSpaceOnUse" x="0" y="0" width="376" height="700">
        <rect x="0.170013" width="375" height="700" fill="#D9D9D9"/>
    </mask>
    <g mask="url(#mask0_317_13)">
        <path d="M389.231 64.6848L341.998 33.2618C328.879 24.5563 313.513 20.5377 297.881 21.7239L241.311 25.999C216.592 27.8925 207.276 63.5145 227.903 77.2674L275.136 108.69C288.255 117.396 303.621 121.414 319.253 120.228L375.823 115.953C400.522 114.136 409.858 78.4376 389.231 64.6848Z" fill="#00E166"/>
        <path d="M87.4389 307.499L160.081 182.535C167.627 169.682 155.729 154.104 141.345 157.906L-69.788 213.717C-84.1725 217.52 -86.8183 236.943 -73.9065 244.388L50.9771 317.052C63.7079 324.459 80.0104 320.15 87.4389 307.499Z" fill="#00AAFF"/>
        <path d="M459.969 398.425C450.495 369.8 419.514 354.298 390.893 363.849C349.065 377.741 305.817 387.282 261.912 392.207C231.871 395.548 210.247 422.605 213.663 452.566C217.004 482.607 244.061 504.231 274.099 500.812C325.629 495.028 376.312 483.784 425.392 467.5C454.017 458.027 469.522 427.123 459.969 398.425Z" fill="#FF4053"/>
        <path d="M240.572 556.062L217.519 514.51C212.041 504.671 203.12 497.13 192.35 493.393L52.6211 444.914C41.8509 441.177 30.1764 441.572 19.6876 445.872L-24.1474 464.217C-36.6395 469.409 -41.5061 484.656 -34.3724 496.128L46.3023 625.733C54.4599 638.83 70.7096 644.468 85.2261 639.237L228.836 587.449C241.636 582.893 247.226 568.003 240.572 556.062Z" fill="#04E061"/>
    </g>
</svg>
