<svg width="157" height="211" viewBox="0 0 157 211" fill="none" xmlns="http://www.w3.org/2000/svg">
    <g clip-path="url(#clip0_150_5872)">
        <path d="M140.68 5.19702H16.1534C9.52603 5.19702 4.15344 10.5696 4.15344 17.197V193.595C4.15344 200.222 9.52604 205.595 16.1535 205.595H140.68C147.308 205.595 152.68 200.222 152.68 193.595V17.197C152.68 10.5696 147.308 5.19702 140.68 5.19702Z" fill="white"/>
        <path d="M157 199C157 205.627 151.627 211 145 211H12C5.37258 211 0 205.627 0 199V12C0 5.37258 5.37258 0 12 0H145C151.627 0 157 5.37258 157 12V199ZM8.47302 188.398C8.47302 195.025 13.8456 200.398 20.473 200.398H136.693C143.321 200.398 148.693 195.025 148.693 188.398V22.602C148.693 15.9746 143.321 10.602 136.693 10.602H20.473C13.8456 10.602 8.47302 15.9746 8.47302 22.602V188.398Z" fill="#965EEB"/>
        <path d="M83.7045 32.0201C83.7045 32.5784 83.6093 33.1114 83.4189 33.619C83.2285 34.1267 82.9429 34.5708 82.562 34.9515C82.1812 35.3322 81.6924 35.6368 81.0957 35.8652C80.5118 36.081 79.8199 36.1888 79.0201 36.1888H72.8313V23.5493H75.8019V27.8132H79.0201C79.8199 27.8132 80.5118 27.9275 81.0957 28.1559C81.6924 28.3716 82.1812 28.6762 82.562 29.0696C82.9429 29.4503 83.2285 29.8944 83.4189 30.4021C83.6093 30.9097 83.7045 31.449 83.7045 32.0201ZM80.7339 32.0201C80.7339 31.5759 80.5625 31.2079 80.2198 30.916C79.877 30.6114 79.3819 30.4592 78.7345 30.4592H75.8019V33.5429H78.7345C79.3819 33.5429 79.877 33.397 80.2198 33.1051C80.5625 32.8132 80.7339 32.4515 80.7339 32.0201Z" fill="#965EEB"/>
        <path d="M64.9366 25.9479C64.4161 25.9479 63.9337 26.0494 63.4894 26.2525C63.0578 26.4428 62.6769 26.7157 62.3469 27.071C62.0295 27.4263 61.7819 27.8451 61.6042 28.3273C61.4265 28.7969 61.3376 29.3108 61.3376 29.8692C61.3376 30.4276 61.4265 30.9479 61.6042 31.4301C61.7819 31.8997 62.0295 32.3121 62.3469 32.6674C62.6769 33.0227 63.0578 33.3019 63.4894 33.505C63.9337 33.6953 64.4161 33.7905 64.9366 33.7905C65.5333 33.7905 66.0601 33.6763 66.5172 33.4479C66.9869 33.2068 67.3804 32.8832 67.6978 32.4771H70.8588C70.351 33.6826 69.5893 34.6471 68.5737 35.3704C67.5708 36.0811 66.3585 36.4364 64.9366 36.4364C63.9972 36.4364 63.1276 36.2715 62.3278 35.9415C61.5407 35.6116 60.8489 35.1547 60.2522 34.571C59.6682 33.9872 59.2112 33.2956 58.8812 32.4961C58.5511 31.6966 58.386 30.821 58.386 29.8692C58.386 28.9174 58.5511 28.0418 58.8812 27.2423C59.2112 26.4428 59.6682 25.7512 60.2522 25.1675C60.8489 24.5837 61.5407 24.1269 62.3278 23.7969C63.1276 23.467 63.9972 23.302 64.9366 23.302C66.3585 23.302 67.5708 23.6637 68.5737 24.387C69.5893 25.1104 70.351 26.0685 70.8588 27.2614H67.6978C67.3804 26.868 66.9869 26.5507 66.5172 26.3096C66.0601 26.0685 65.5333 25.9479 64.9366 25.9479Z" fill="#965EEB"/>
        <path d="M50.5112 26.1952V28.5366H56.4715V31.1635H50.5112V33.5429H56.6048V36.1888H47.5406V23.5493H56.6048V26.1952H50.5112Z" fill="#965EEB"/>
        <path d="M42.7083 38.987V36.1888H34.8057V38.987H31.9303V33.5429H33.13C33.5235 33.0607 33.8028 32.4262 33.9679 31.6394C34.1329 30.8526 34.2154 30.0404 34.2154 29.2028V23.5493H43.8509V33.5429H45.6028V38.987H42.7083ZM37.186 29.1838C37.186 29.8691 37.1479 30.5924 37.0718 31.3538C36.9956 32.1152 36.8179 32.8449 36.5386 33.5429H40.8993V26.1952H37.186V29.1838Z" fill="#965EEB"/>
        <path d="M27.777 32.42C27.777 32.0012 27.6183 31.6966 27.3009 31.5063C26.9962 31.3032 26.5773 31.2017 26.0441 31.2017H23.4544V28.5558H26.0441C26.5773 28.5558 27.0026 28.4669 27.32 28.2893C27.65 28.0989 27.8151 27.7944 27.8151 27.3756C27.8151 27.2233 27.7706 27.0647 27.6818 26.8997C27.5929 26.7347 27.4596 26.5824 27.2819 26.4428C27.1042 26.2906 26.8693 26.17 26.5773 26.0812C26.2853 25.9923 25.9426 25.9479 25.549 25.9479C25.2443 25.9479 24.9397 25.9733 24.635 26.0241C24.343 26.0748 24.0701 26.1573 23.8162 26.2715C23.5623 26.373 23.3401 26.5063 23.1497 26.6713C22.9593 26.8362 22.826 27.0329 22.7498 27.2614H19.7982C19.9379 26.7284 20.16 26.2208 20.4647 25.7385C20.7821 25.2563 21.1756 24.8375 21.6453 24.4822C22.1277 24.1142 22.6927 23.8286 23.3401 23.6256C23.9875 23.4099 24.7112 23.302 25.5109 23.302C26.3615 23.302 27.1105 23.4162 27.7579 23.6446C28.4181 23.8731 28.9703 24.1776 29.4146 24.5583C29.8716 24.9264 30.2144 25.3578 30.4429 25.8527C30.6714 26.335 30.7857 26.8299 30.7857 27.3375C30.7857 27.9466 30.6587 28.4669 30.4048 28.8984C30.1509 29.3299 29.8209 29.6535 29.4146 29.8692C29.7955 30.0849 30.1129 30.4086 30.3668 30.84C30.6207 31.2588 30.7476 31.7728 30.7476 32.3819C30.7476 32.826 30.646 33.2892 30.4429 33.7715C30.2525 34.2537 29.9415 34.6915 29.5098 35.0849C29.0782 35.4783 28.5196 35.8019 27.8341 36.0557C27.1486 36.3095 26.3234 36.4364 25.3586 36.4364C24.5334 36.4364 23.8035 36.3413 23.1687 36.1509C22.5467 35.9605 22.0008 35.694 21.5311 35.3514C21.0614 35.0088 20.6678 34.5963 20.3504 34.1141C20.0458 33.6192 19.8109 33.0672 19.6459 32.458H22.6165C22.8958 32.9656 23.2703 33.3146 23.74 33.505C24.2097 33.6953 24.7492 33.7905 25.3586 33.7905C26.133 33.7905 26.7297 33.6509 27.1486 33.3717C27.5675 33.0925 27.777 32.7753 27.777 32.42Z" fill="#965EEB"/>
        <path d="M131.632 73.804H124.679L130.964 44.2185H137.917L131.632 73.804ZM124.501 62.8876C124.501 64.5214 124.203 66.0066 123.609 67.3433C123.045 68.68 122.242 69.8384 121.202 70.8187C120.162 71.7692 118.914 72.5118 117.458 73.0465C116.032 73.5515 114.442 73.804 112.689 73.804H97.5786L103.863 44.2185H110.817L108.633 54.1991H114.427C116.151 54.1991 117.636 54.4516 118.884 54.9566C120.162 55.4616 121.217 56.1299 122.049 56.9616C122.881 57.7637 123.49 58.6845 123.877 59.7241C124.293 60.7638 124.501 61.8183 124.501 62.8876ZM117.592 63.6897C117.592 62.65 117.206 61.848 116.433 61.2836C115.69 60.6895 114.605 60.3925 113.179 60.3925H107.385L105.78 67.6106H112.555C113.209 67.6106 113.833 67.5364 114.427 67.3878C115.051 67.2096 115.586 66.9571 116.032 66.6304C116.507 66.3036 116.879 65.9026 117.146 65.4274C117.443 64.9224 117.592 64.3431 117.592 63.6897Z" fill="#965EEB"/>
        <path d="M99.6642 44.2185L98.3716 50.4118H89.1004L84.1528 73.804H77.1995L82.1471 50.4118H72.8313L74.1685 44.2185H99.6642Z" fill="#965EEB"/>
        <path d="M133.623 92.1605L131.342 94.8144H127.38L130.014 91.7665C129.351 91.4348 128.853 90.9786 128.521 90.398C128.203 89.8175 128.044 89.1747 128.044 88.4698C128.044 87.9721 128.127 87.5022 128.293 87.0598C128.459 86.6037 128.708 86.2097 129.039 85.878C129.385 85.5462 129.814 85.2836 130.325 85.0901C130.851 84.8827 131.473 84.7791 132.192 84.7791H137.917V94.8144H134.806V92.1605H133.623ZM132.275 87.4745C131.916 87.4745 131.639 87.5644 131.446 87.7441C131.252 87.9099 131.155 88.1518 131.155 88.4698C131.155 88.7739 131.252 89.0158 131.446 89.1955C131.639 89.3751 131.916 89.465 132.275 89.465H134.806V87.4745H132.275Z" fill="#965EEB"/>
        <path d="M125.804 84.7791V94.8144H122.693V87.4745H119.976V88.9259C119.976 89.5479 119.92 90.2045 119.81 90.8957C119.699 91.5868 119.492 92.2227 119.188 92.8032C118.897 93.3838 118.482 93.8676 117.943 94.2546C117.404 94.6278 116.699 94.8144 115.827 94.8144H114.562V91.9324H115.537C115.855 91.9324 116.104 91.8287 116.284 91.6214C116.463 91.4002 116.595 91.1376 116.678 90.8335C116.761 90.5155 116.809 90.1769 116.823 89.8175C116.851 89.4443 116.864 89.0987 116.864 88.7808V84.7791H125.804Z" fill="#965EEB"/>
        <path d="M105.807 84.7791L108.42 90.5639L111.013 84.7791H114.332L109.499 95.5194C109.167 96.252 108.87 96.8464 108.607 97.3026C108.344 97.7587 108.061 98.1181 107.757 98.3807C107.452 98.6434 107.086 98.8162 106.657 98.8991C106.243 98.9959 105.71 99.0442 105.06 99.0442H103.339V96.3488H104.77C105.046 96.3488 105.323 96.252 105.6 96.0585C105.89 95.865 106.132 95.5747 106.325 95.1877L106.699 94.3376L102.385 84.7791H105.807Z" fill="#965EEB"/>
        <path d="M101.434 89.8175C101.434 90.5086 101.31 91.1721 101.061 91.808C100.826 92.43 100.487 92.9898 100.045 93.4875C99.6021 93.9713 99.0628 94.3583 98.4267 94.6486C97.7907 94.9389 97.0716 95.084 96.2696 95.084C95.7994 95.084 95.3155 95.0149 94.8177 94.8767C94.3337 94.7384 93.9188 94.4689 93.5731 94.068V99.065H90.4619V84.7791H93.5731V85.5462C93.9188 85.1454 94.3337 84.8758 94.8177 84.7376C95.3155 84.5855 95.7994 84.5095 96.2696 84.5095C97.0716 84.5095 97.7907 84.6616 98.4267 84.9657C99.0628 85.256 99.6021 85.6499 100.045 86.1475C100.487 86.6313 100.826 87.1981 101.061 87.8477C101.31 88.4836 101.434 89.1402 101.434 89.8175ZM98.323 89.8175C98.323 89.4857 98.2608 89.1747 98.1364 88.8845C98.0257 88.5803 97.8667 88.3177 97.6593 88.0966C97.4519 87.8754 97.203 87.7026 96.9126 87.5782C96.636 87.44 96.3249 87.3709 95.9792 87.3709C95.675 87.3709 95.3708 87.4261 95.0666 87.5367C94.7623 87.6335 94.4927 87.7855 94.2576 87.9929C94.0225 88.1864 93.829 88.4352 93.6768 88.7393C93.5247 89.0434 93.4487 89.4028 93.4487 89.8175C93.4487 90.2184 93.5247 90.5708 93.6768 90.8749C93.829 91.179 94.0225 91.4348 94.2576 91.6421C94.4927 91.8356 94.7623 91.9808 95.0666 92.0775C95.3708 92.1743 95.675 92.2227 95.9792 92.2227C96.3249 92.2227 96.636 92.1605 96.9126 92.0361C97.203 91.8978 97.4519 91.725 97.6593 91.5177C97.8667 91.2965 98.0257 91.0408 98.1364 90.7505C98.2608 90.4603 98.323 90.1492 98.323 89.8175Z" fill="#965EEB"/>
        <path d="M76.2537 84.7791L78.8672 90.5639L81.46 84.7791H84.7787L79.9458 95.5194C79.6139 96.252 79.3166 96.8464 79.0539 97.3026C78.7912 97.7587 78.5077 98.1181 78.2035 98.3807C77.8993 98.6434 77.5328 98.8162 77.1042 98.8991C76.6893 98.9959 76.1569 99.0442 75.507 99.0442H73.7855V96.3488H75.2166C75.4932 96.3488 75.7698 96.252 76.0463 96.0585C76.3367 95.865 76.5787 95.5747 76.7723 95.1877L77.1456 94.3376L72.8313 84.7791H76.2537Z" fill="#965EEB"/>
        <path d="M56.6654 119.532L58.2801 119.228L68.5683 122.363C68.5683 122.363 66.6227 123.836 62.5374 125.865L58.7566 126.05L51.7949 123.766L56.6654 119.532Z" fill="#2C3335"/>
        <path d="M13.7128 173.498L15.901 171.628L12.5128 162.923L9.12455 154.217L6.2437 154.319C6.2437 154.319 -5.78269 153.732 -20.3326 159.479C-34.8825 165.225 -44.5265 185.119 -44.5265 185.119C-44.5265 185.119 -23.9634 193.256 -9.35619 187.659C5.25106 182.063 13.7128 173.498 13.7128 173.498Z" fill="#FF4053"/>
        <path d="M43.3596 150.918L27.4111 157.124C18.7597 146.513 2.71867 142.526 -12.193 148.33C-15.3827 149.573 -18.3077 151.179 -20.9282 153.071C-17.1694 145.084 -10.0621 138.239 -0.64307 134.575C17.4053 127.554 37.1081 134.87 43.3596 150.918Z" fill="#00AAFF"/>
        <path d="M43.3596 150.918L27.4112 157.123C28.2141 170.79 19.0906 184.568 4.17457 190.371C0.984883 191.615 -2.25774 192.404 -5.46948 192.784C2.70105 196.131 12.5701 196.369 21.9892 192.704C40.0376 185.679 49.6066 166.971 43.3596 150.918Z" fill="#00AAFF"/>
        <path d="M80.0476 155.673C71.7844 158.888 63.3536 161.622 55.408 163.906C54.2257 164.246 53.0522 164.577 51.8963 164.899C43.2978 167.276 35.4096 169.106 29.1185 170.438C28.5053 170.566 27.9053 170.693 27.3229 170.813C19.4348 172.444 14.476 173.207 14.476 173.207L7.0069 154.023C7.0069 154.023 11.176 151.236 18.0936 147.104C18.6053 146.799 19.1303 146.486 19.6686 146.169C25.2053 142.897 32.2553 138.919 40.1964 134.857C41.264 134.31 42.3537 133.763 43.4522 133.212C50.8463 129.525 58.9109 125.843 67.1741 122.628C74.7932 119.664 81.5873 117.891 87.5343 116.952C106.24 114.006 116.541 119.351 117.587 122.037C118.633 124.722 114.658 135.624 98.8812 146.094C93.8695 149.424 87.6622 152.709 80.0476 155.673Z" fill="#965EEB"/>
        <path d="M98.8857 146.094C95.7578 141.984 93.1417 137.371 91.174 132.317C89.2064 127.263 88.0108 122.098 87.5388 116.952C106.245 114.006 116.546 119.351 117.591 122.037C118.637 124.722 114.662 135.624 98.8857 146.094Z" fill="#00AAFF"/>
        <path d="M98.8857 146.667C98.7136 146.667 98.5416 146.588 98.4313 146.442C95.2107 142.208 92.5901 137.529 90.6401 132.524C88.6902 127.518 87.4549 122.297 86.9652 117.005C86.9343 116.692 87.1681 116.409 87.4813 116.383C87.7946 116.352 88.0769 116.586 88.1034 116.899C88.5843 122.085 89.7931 127.205 91.7034 132.109C93.6137 137.013 96.1813 141.604 99.3357 145.75C99.5254 146.001 99.4768 146.363 99.2254 146.552C99.1283 146.627 99.0048 146.667 98.8857 146.667Z" fill="#FF4053"/>
        <path d="M43.4567 133.212C42.3538 133.759 41.2685 134.31 40.2008 134.857C40.695 140.255 41.9523 145.556 43.9508 150.694C45.9493 155.831 48.614 160.585 51.9008 164.899C53.061 164.577 54.2301 164.25 55.4125 163.906C51.9978 159.655 49.1699 154.817 47.0875 149.472C45.0052 144.127 43.8184 138.65 43.4567 133.212Z" fill="#00AAFF"/>
        <path d="M19.6686 146.169C19.1304 146.486 18.6054 146.799 18.0936 147.104C18.7245 151.306 19.8274 155.439 21.398 159.465C22.9686 163.492 24.9494 167.284 27.3229 170.804C27.9053 170.684 28.5053 170.557 29.1185 170.429C26.67 166.896 24.5921 163.029 22.9642 158.852C21.3362 154.676 20.2509 150.424 19.6686 146.169Z" fill="white"/>
        <path d="M85.581 142.545C89.2232 138.904 89.2232 133.001 85.581 129.36C81.9389 125.719 76.0338 125.719 72.3916 129.36C68.7495 133.001 68.7495 138.904 72.3916 142.545C76.0338 146.185 81.9389 146.185 85.581 142.545Z" fill="white"/>
        <path d="M40.2891 153.728L39.742 152.325L39.1949 150.923C39.1949 150.923 29.1803 150.658 11.4804 157.547C-6.22385 164.436 -13.2032 172.929 -13.2032 172.929C-13.2032 172.929 -2.31506 174.469 15.3848 167.58C33.0847 160.691 40.2891 153.728 40.2891 153.728Z" fill="#00AAFF"/>
        <path d="M30.7287 114.985C30.7287 114.985 25.5626 126.165 27.1773 131.739C28.792 137.313 35.1449 138.725 35.1449 138.725L58.28 119.228L50.2418 116.908L30.7287 114.985Z" fill="#2C3335"/>
        <path d="M47.8683 85.4506L70.5667 81.5697L90.371 73.7373L91.9195 78.0945C91.9195 78.0945 75.2432 88.1231 72.1505 88.6611C69.0579 89.1991 52.0374 93.0315 52.0374 93.0315L47.8683 85.4506Z" fill="#FAC7C0"/>
        <path d="M42.4993 81.8079C42.4993 81.8079 47.5904 87.3778 47.6698 87.4307C47.7448 87.4881 51.3095 85.8299 51.3095 85.8299L50.8287 84.476L50.2419 83.3426L49.6331 83.1221L42.4993 81.8079Z" fill="#FAC7C0"/>
        <path d="M50.586 80.2599C50.1404 82.2665 50.2375 84.5289 50.2375 84.5289L40.8405 83.4749C40.8405 83.4749 43.0155 80.8773 43.4125 79.3955C43.7655 78.0857 43.7302 75.5191 43.7169 74.9413C43.7169 74.8664 43.7125 74.8223 43.7125 74.8223L51.6228 77.8697C51.1198 78.4474 50.7934 79.325 50.586 80.2599Z" fill="#FAC7C0"/>
        <path d="M40.6375 72.5642C40.6375 72.5642 37.4787 68.4628 37.139 64.7671C36.8037 61.0714 38.6125 58.2357 41.6743 56.851C44.5463 55.55 50.6433 56.8069 52.4521 58.8487C52.4521 58.8487 54.1551 57.9579 55.4124 58.6282C56.6697 59.2986 58.0065 61.0979 57.9447 63.5014C57.8786 66.1166 56.4889 68.6877 56.4889 68.6877L40.6375 72.5642Z" fill="#2C3335"/>
        <path d="M51.6227 77.8738C51.1198 78.4427 50.7933 79.3247 50.5859 80.2597C47.9257 79.4129 45.0228 77.6445 43.7169 74.9455C43.7169 74.8705 43.7125 74.8264 43.7125 74.8264L51.6227 77.8738Z" fill="#172D4C"/>
        <path d="M57.3801 72.4407C57.3404 75.003 56.8065 77.1419 55.2536 78.0328C54.4551 78.487 52.9286 78.6899 51.1772 78.5399C48.9272 78.3459 46.2978 77.5697 44.3434 76.0129C44.1272 75.8409 43.9199 75.6601 43.7257 75.4661C43.6243 75.3691 43.5272 75.272 43.4346 75.1706C43.1522 74.8663 42.8919 74.54 42.6625 74.1916C42.2743 73.605 41.9743 72.9655 41.7449 72.2952C41.7361 72.2732 41.7272 72.2511 41.7228 72.2291C41.6919 72.132 41.6611 72.0394 41.6302 71.9424C41.6081 71.8762 41.5905 71.8145 41.5728 71.7484C41.5066 71.5146 41.4449 71.2765 41.3963 71.0383C40.4919 66.9105 41.7096 62.2931 41.7096 62.2931C41.7096 62.2931 46.3507 59.1663 49.5757 59.3163C52.8051 59.4662 54.4683 60.3747 54.4683 60.3747C54.4683 60.3747 55.7786 61.6845 56.5771 64.9259C56.7051 65.4507 56.8198 66.024 56.9168 66.6547C56.9257 66.712 56.9345 66.7693 56.9433 66.8311C56.9521 66.9061 56.9654 66.981 56.9742 67.056C56.9962 67.2059 57.0139 67.3515 57.0359 67.5014C57.0404 67.5279 57.0448 67.5588 57.0492 67.5896C57.0536 67.6425 57.0624 67.6911 57.0712 67.744C57.0712 67.7528 57.0712 67.7572 57.0757 67.766C57.0801 67.8101 57.0889 67.8542 57.0933 67.8983C57.1065 68.013 57.1198 68.1277 57.133 68.2379C57.133 68.26 57.1374 68.2776 57.1418 68.2997C57.1418 68.2997 57.1418 68.3041 57.1418 68.3085C57.1418 68.3129 57.1418 68.3129 57.1418 68.3173C57.1551 68.4231 57.1683 68.5246 57.1771 68.6304C57.1815 68.6745 57.1859 68.7142 57.1904 68.7583C57.208 68.9082 57.2212 69.0538 57.2345 69.2037C57.2698 69.5609 57.3006 69.9182 57.3227 70.271C57.3668 71.0119 57.3933 71.7439 57.3801 72.4407Z" fill="#FAC7C0"/>
        <path d="M53.2021 62.1564C53.2021 62.1564 51.2874 61.0142 49.6374 61.2832C47.9874 61.5522 47.1139 62.6944 47.083 64.4761C47.0477 66.2578 47.7227 68.3085 46.4786 69.4507C45.2345 70.5929 42.239 71.4352 42.239 71.4352L41.2331 71.9071C41.2331 71.9071 40.6595 70.9678 40.3595 67.5367C40.0551 64.1101 40.1919 61.0847 42.0404 59.7396C43.8889 58.3946 49.2713 58.496 51.4551 58.8973C53.6389 59.2986 56.5197 60.0307 56.758 65.2699C56.7535 65.2655 54.2124 60.3571 53.2021 62.1564Z" fill="#2C3335"/>
        <path d="M44.4901 73.7289C44.7835 72.4868 44.0141 71.2422 42.7716 70.9489C41.529 70.6556 40.2839 71.4247 39.9905 72.6668C39.6971 73.9089 40.4666 75.1535 41.7091 75.4468C42.9516 75.7401 44.1967 74.971 44.4901 73.7289Z" fill="#FAC7C0"/>
        <path d="M36.4243 62.4252C36.8479 60.2466 33.4861 57.8078 28.2538 57.7108C23.0259 57.6182 18.2171 59.6689 18.0583 60.864C17.895 62.0636 23.4229 64.4847 27.6759 65.0095C31.9332 65.5343 35.9214 65.0051 36.4243 62.4252Z" fill="#2C3335"/>
        <path d="M15.658 60.5448C15.7981 59.5069 14.2851 58.4461 12.2785 58.1755C10.272 57.9049 8.53181 58.5269 8.39173 59.5648C8.25165 60.6027 9.76471 61.6635 11.7712 61.9341C13.7778 62.2047 15.518 61.5827 15.658 60.5448Z" fill="#2C3335"/>
        <path d="M52.9152 69.8829C52.9152 69.8829 51.777 70.5753 50.8153 70.465C49.8535 70.3548 48.9182 69.4242 48.9182 69.4242C48.9182 69.4242 49.4432 68.7539 50.2947 68.5422C50.5197 68.4849 50.7711 68.4628 51.0447 68.4937C51.3138 68.5246 51.552 68.604 51.7594 68.7098C52.5447 69.1067 52.9152 69.8829 52.9152 69.8829Z" fill="white"/>
        <path d="M52.9153 70.0284C52.8624 70.0284 52.8094 69.9976 52.7874 69.9446C52.783 69.9314 52.2139 68.7716 51.0271 68.6348C49.8448 68.4981 49.0374 69.5036 49.0286 69.5125C48.9801 69.5742 48.8918 69.5874 48.8301 69.5389C48.7683 69.4904 48.7551 69.4022 48.8036 69.3405C48.8389 69.292 49.7124 68.2027 51.058 68.357C52.4036 68.5114 53.0168 69.7727 53.0433 69.83C53.0786 69.9005 53.0477 69.9843 52.9771 70.0196C52.955 70.024 52.933 70.0284 52.9153 70.0284Z" fill="#172D4C"/>
        <path d="M51.9359 69.4019C51.8741 69.9444 51.38 70.3369 50.8373 70.2751C50.2903 70.2134 49.9021 69.7195 49.9638 69.177C49.9947 68.9256 50.1138 68.7051 50.2947 68.5464C50.5197 68.489 50.7712 68.467 51.0447 68.4979C51.3138 68.5287 51.5521 68.6081 51.7594 68.714C51.8962 68.9036 51.9668 69.1462 51.9359 69.4019Z" fill="#172D4C"/>
        <path d="M57.2212 69.1993C57.0757 69.3228 56.9124 69.4286 56.7404 69.4948C56.1801 69.6977 55.4213 69.4772 55.1168 69.3713C55.033 69.3404 54.9845 69.3228 54.9845 69.3228C54.9845 69.3228 55.0021 69.2081 55.0507 69.0406C55.1301 68.776 55.2933 68.3746 55.611 68.0747C55.7477 67.9469 55.9154 67.8322 56.1183 67.7616C56.3213 67.6867 56.5198 67.669 56.7095 67.6822C56.7889 67.6867 56.8683 67.6999 56.9433 67.7131C56.983 67.7219 57.0227 67.7308 57.0624 67.744C57.0624 67.7528 57.0624 67.7572 57.0668 67.766C57.0712 67.8101 57.0801 67.8542 57.0845 67.8983C57.0977 68.013 57.111 68.1233 57.1242 68.2379C57.1286 68.26 57.1286 68.282 57.133 68.3041C57.133 68.3041 57.133 68.3085 57.133 68.3129C57.133 68.3173 57.133 68.3173 57.133 68.3217C57.1462 68.4276 57.1595 68.5334 57.1683 68.6348C57.1727 68.6745 57.1771 68.7186 57.1815 68.7583C57.1948 68.9038 57.208 69.0538 57.2212 69.1993Z" fill="white"/>
        <path d="M57.0756 67.8981C56.8021 67.8099 56.4845 67.779 56.1624 67.8937C55.2977 68.2068 55.1301 69.3314 55.1256 69.3402C55.1168 69.4108 55.0551 69.4637 54.9845 69.4637C54.9801 69.4637 54.9712 69.4637 54.9624 69.4637C54.883 69.4505 54.8301 69.3799 54.8389 69.3005C54.8477 69.2476 55.033 67.9951 56.0609 67.6247C56.4051 67.5012 56.7403 67.5144 57.0315 67.585C57.0359 67.6379 57.0448 67.6864 57.0536 67.7394C57.0668 67.7923 57.0712 67.8452 57.0756 67.8981Z" fill="#172D4C"/>
        <path d="M57.1639 68.6302C57.1374 68.9521 56.9609 69.2211 56.6786 69.3226C56.3212 69.4505 55.9109 69.2564 55.6992 68.8772C55.6727 68.8286 55.6462 68.7757 55.6286 68.7228C55.5801 68.5905 55.5624 68.4582 55.5668 68.3303C55.5668 68.2377 55.5845 68.1539 55.6109 68.0701C55.7477 67.9422 55.9153 67.8276 56.1183 67.757C56.3212 67.682 56.5198 67.6644 56.7095 67.6776C56.7624 67.7129 56.8153 67.7526 56.8639 67.8011C56.8727 67.8099 56.8859 67.8231 56.8948 67.832C56.8992 67.8364 56.9036 67.8452 56.908 67.8496C56.9918 67.9466 57.0624 68.0613 57.1065 68.1892C57.1109 68.2024 57.1153 68.2201 57.1198 68.2333C57.1198 68.2553 57.1242 68.273 57.1286 68.295C57.1286 68.295 57.1286 68.2994 57.1286 68.3038C57.1286 68.3083 57.1286 68.3083 57.1286 68.3127C57.1418 68.4229 57.1506 68.5288 57.1639 68.6302Z" fill="#172D4C"/>
        <path d="M57.1286 68.3082L57.1021 68.3171L56.8816 67.8496V67.8452L56.8595 67.8011L56.8198 67.7173C56.8198 67.7173 56.8683 67.7261 56.9301 67.7393C56.9742 67.7482 57.0227 67.757 57.0624 67.7658C57.0669 67.8099 57.0757 67.854 57.0801 67.8981C57.0933 68.0128 57.1066 68.123 57.1198 68.2377C57.1242 68.2597 57.1242 68.2818 57.1286 68.3038V68.3082Z" fill="#172D4C"/>
        <path d="M48.2698 68.1939C48.2434 68.1939 48.2169 68.1851 48.1904 68.1718C48.1242 68.1277 48.1066 68.0395 48.1507 67.9734C48.186 67.916 49.0595 66.6195 50.5286 66.9017C50.608 66.9149 50.6566 66.9899 50.6433 67.0693C50.6301 67.1487 50.5551 67.1972 50.4757 67.184C49.2007 66.937 48.4242 68.0836 48.3934 68.1321C48.3625 68.1718 48.3184 68.1939 48.2698 68.1939Z" fill="#172D4C"/>
        <path d="M56.9654 67.0514C56.8198 66.9279 56.4183 66.628 55.9771 66.628C55.8183 66.628 55.6551 66.6677 55.4919 66.7647C55.4257 66.8044 55.3374 66.7868 55.2933 66.7162C55.2536 66.65 55.2713 66.5618 55.3419 66.5177C55.9419 66.1473 56.5507 66.4119 56.908 66.6456C56.9168 66.703 56.9257 66.7603 56.9345 66.822C56.9477 66.9014 56.9566 66.9764 56.9654 67.0514Z" fill="#172D4C"/>
        <path d="M54.6139 71.4395C54.5874 71.4395 54.5654 71.4351 54.5433 71.4219C54.4771 71.3822 54.4507 71.294 54.4904 71.2279C54.8566 70.5972 54.2742 70.1562 54.2477 70.1386C54.186 70.09 54.1683 70.0018 54.2169 69.9401C54.2654 69.8784 54.3536 69.8607 54.4154 69.9092C54.6977 70.1165 55.1301 70.6898 54.733 71.3734C54.711 71.4175 54.6624 71.4395 54.6139 71.4395Z" fill="#172D4C"/>
        <path d="M52.1566 73.0801C52.1566 73.0801 54.8566 73.2609 54.9271 73.1903C54.9977 73.1242 54.6801 74.7339 53.6301 74.7339C52.6066 74.7339 52.1566 73.0801 52.1566 73.0801Z" fill="white"/>
        <path d="M40.9993 73.5652C40.9948 73.5652 40.9904 73.5652 40.9904 73.5652C40.911 73.5607 40.8537 73.4902 40.8581 73.4108C40.8625 73.3623 40.9551 72.1627 41.9081 71.7923C42.7993 71.4439 43.5095 72.1142 43.536 72.1407C43.5934 72.1936 43.5934 72.2862 43.5404 72.3436C43.4875 72.4009 43.3948 72.4009 43.3375 72.348C43.311 72.3259 42.7287 71.7791 42.0096 72.0569C41.2287 72.3612 41.1404 73.4196 41.1404 73.4284C41.136 73.5078 41.0698 73.5652 40.9993 73.5652Z" fill="#172D4C"/>
        <path d="M55.858 100.608C55.4786 102.756 54.7595 105.216 53.9566 107.563C53.9213 107.664 53.886 107.766 53.8507 107.867C53.1669 109.851 52.4301 111.739 51.7992 113.274C51.7463 113.406 51.6933 113.534 51.6404 113.657C50.8331 115.62 50.2375 116.908 50.2375 116.908C48.5081 118.376 45.6625 118.813 42.4949 118.658C42.3934 118.654 42.2964 118.65 42.1949 118.641C41.4184 118.597 40.6243 118.513 39.8214 118.407C39.7155 118.394 39.6052 118.376 39.4949 118.363C39.0626 118.301 38.6302 118.231 38.1979 118.156C36.0758 117.781 34.3552 117.106 33.1023 116.475C32.9876 116.418 32.8773 116.361 32.7714 116.308C31.4347 115.598 30.72 114.989 30.72 114.989C30.72 114.989 31.3641 111.664 32.2597 107.457C32.2817 107.351 32.3038 107.245 32.3303 107.139C32.8067 104.908 33.3538 102.451 33.9097 100.123C33.9361 100.008 33.9626 99.8935 33.9935 99.7788C34.6994 96.8417 35.4185 94.1383 36.0361 92.3831C36.1905 91.942 36.3582 91.5099 36.5258 91.0821C36.5832 90.9409 36.6405 90.8042 36.6979 90.6675C37.3067 89.2122 37.9905 87.8539 38.6567 86.6543C38.7273 86.5308 38.7934 86.4118 38.8596 86.2927C39.9184 84.4272 40.9111 82.9939 41.4537 82.2442C41.5155 82.1604 41.5728 82.081 41.6214 82.0149C41.789 81.79 41.8817 81.6709 41.8817 81.6709C41.8817 81.6709 46.8669 84.7006 49.214 85.5165C49.364 85.5694 49.5051 85.6135 49.6331 85.6444C49.9728 85.7326 50.2198 85.7458 50.3345 85.6576C51.1551 85.0314 50.2728 83.4482 50.2287 83.3732C50.2816 83.457 51.6139 85.5474 52.9816 88.4228C53.0301 88.5242 53.0786 88.6212 53.1228 88.7227C54.8169 92.3125 56.4933 97.0313 55.858 100.608Z" fill="#00AAFF"/>
        <path opacity="0.25" d="M49.5289 72.8499C49.7027 72.1954 49.0684 71.4592 48.1122 71.2056C47.156 70.9519 46.24 71.2769 46.0663 71.9314C45.8925 72.5859 46.5268 73.3221 47.483 73.5757C48.4392 73.8294 49.3552 73.5044 49.5289 72.8499Z" fill="#FF4053"/>
        <path opacity="0.25" d="M57.38 72.4408C56.9697 72.3482 56.6477 72.1233 56.5286 71.7837C56.3433 71.2677 56.683 70.6591 57.3139 70.2666C57.3668 71.0119 57.3933 71.744 57.38 72.4408Z" fill="#FF4053"/>
        <path d="M90.371 73.7373L92.7092 69.045C92.7092 69.045 96.2916 65.5125 96.746 65.8124C97.2004 66.1122 96.746 67.2897 96.746 67.2897C96.746 67.2897 101.59 63.6073 102.38 63.6426C103.169 63.6779 102.6 64.4849 102.38 64.6525C102.159 64.8201 98.2592 68.7186 98.2592 68.7186C98.2592 68.7186 99.1327 68.6701 99.3842 69.2214C99.6356 69.777 99.1504 70.3327 99.1504 70.3327C99.1504 70.3327 99.6709 70.4827 99.8386 70.8884C100.006 71.2897 99.4371 71.9115 99.4371 71.9115C99.4371 71.9115 100.209 72.1982 100.178 72.6833C100.143 73.1728 99.5386 74.2136 98.7004 74.8354C97.8577 75.4573 91.9239 78.0901 91.9239 78.0901L91.3504 78.0107L90.0578 74.2798L90.371 73.7373Z" fill="#FAC7C0"/>
        <path d="M94.4298 69.5785C94.3901 69.5785 94.3548 69.5653 94.3239 69.5344C94.271 69.4771 94.2754 69.3844 94.3327 69.3315L96.6445 67.1882C96.7018 67.1353 96.7945 67.1397 96.8474 67.197C96.9004 67.2544 96.8959 67.347 96.8386 67.3999L94.5224 69.5432C94.5004 69.5653 94.4651 69.5785 94.4298 69.5785Z" fill="#172D4C"/>
        <path d="M97.7254 73.6977C97.1695 73.6977 97.0416 73.5698 97.0019 73.4199C96.9578 73.2479 97.0372 73.0053 97.871 72.5246C96.5695 72.8378 96.2872 72.6702 96.1857 72.4894C96.1504 72.4276 96.1195 72.3262 96.1636 72.1939C96.2828 71.8323 96.9622 71.356 97.6416 70.9635C97.0239 71.1222 96.4107 71.2192 96.1636 71.0693C96.0798 71.0208 96.0269 70.9414 96.0136 70.8532C95.921 70.2137 97.796 68.8731 98.1754 68.6085C98.2416 68.5644 98.3298 68.5776 98.3739 68.6437C98.418 68.7099 98.4048 68.7981 98.3386 68.8422C97.3239 69.5522 96.2519 70.5048 96.296 70.8091C96.296 70.8135 96.296 70.8135 96.3092 70.8223C96.6048 70.9987 98.118 70.5666 99.0974 70.2005C99.168 70.1741 99.2474 70.2093 99.2783 70.2799C99.3092 70.3505 99.2783 70.4298 99.2077 70.4651C98.2151 70.9282 96.5828 71.8323 96.4372 72.2821C96.4239 72.3262 96.4328 72.3438 96.4372 72.3526C96.4372 72.3526 96.5695 72.5599 97.9372 72.2159C98.6695 72.0307 99.3798 71.7837 99.3842 71.7837C99.4592 71.7573 99.5386 71.797 99.5651 71.8675C99.5915 71.9381 99.5607 72.0219 99.4857 72.0528C98.3254 72.5467 97.3063 73.1465 97.2754 73.3537C97.4342 73.5037 98.6519 73.3978 99.9621 73.12C100.037 73.1024 100.117 73.1509 100.13 73.2303C100.147 73.3096 100.099 73.3846 100.019 73.3978C100.011 73.3978 99.318 73.5478 98.621 73.636C98.2416 73.6757 97.9504 73.6977 97.7254 73.6977Z" fill="#172D4C"/>
        <path d="M86.5372 140.229C86.5372 140.233 86.5372 140.237 86.5372 140.242L72.0711 144.109L71.9035 144.154C71.9035 144.154 57.5212 142.606 53.7492 141.918L52.0463 140.458C52.0463 140.458 53.286 133.274 55.6374 131.686C57.9889 130.099 58.6727 126.928 58.6727 126.928L62.7579 126.121C62.7579 126.121 71.9123 128.357 76.2093 129.953C79.8534 131.307 85.2181 133.715 86.3696 137.843C86.471 138.213 86.5416 138.592 86.5725 138.989C86.5945 139.386 86.5901 139.801 86.5372 140.229Z" fill="#FAC7C0"/>
        <path d="M49.2183 122.337L69.2564 127.739C69.2564 127.739 62.3256 129.865 61.3682 142.95C61.3682 142.95 41.6875 140.559 35.1493 138.72L33.4861 136.101L49.2183 122.337Z" fill="#2C3335"/>
        <path d="M86.5372 140.228C86.4402 141.9 86.0652 144.22 84.8564 146.284C82.6549 150.041 61.7962 176.343 61.7962 176.343L54.433 171.527C54.433 171.527 65.4977 147.783 71.9079 144.153L72.0667 144.109L83.4049 136.374L86.3564 137.847C86.4578 138.217 86.5284 138.597 86.5593 138.994C86.5681 139.338 86.5637 139.757 86.5372 140.228Z" fill="#FAC7C0"/>
        <path d="M54.9713 169.445C54.9713 169.445 59.9433 173.847 63.1021 175.055L56.8683 183.39L50.4272 177.137L54.9713 169.445Z" fill="#F4F3FF"/>
        <path d="M61.4256 202.923C61.3241 204.687 59.6609 205.595 59.6609 205.595C59.6609 205.595 46.0948 190.72 43.1698 185.679C43.1698 185.679 43.8184 184.431 44.9169 182.773C46.1742 180.877 48.0272 178.442 50.1801 176.713C50.1801 176.713 53.8639 181.675 57.9447 182.191C57.9447 182.191 61.1873 199.364 61.4123 202.548C61.43 202.711 61.4344 202.839 61.4256 202.923Z" fill="#FF4053"/>
        <path d="M71.9123 144.29C71.8417 144.29 71.7755 144.237 71.7711 144.162C71.7623 144.083 71.8197 144.012 71.8991 144.008C71.9255 144.003 74.7799 143.721 76.5579 143.077C76.6329 143.051 76.7123 143.091 76.7387 143.161C76.7652 143.236 76.7255 143.315 76.6549 143.342C74.8417 143.995 71.9564 144.286 71.9255 144.286C71.9211 144.29 71.9167 144.29 71.9123 144.29Z" fill="#172D4C"/>
        <path d="M30.9714 81.5344C30.9141 81.5344 30.8567 81.4991 30.8391 81.4418C30.8126 81.3668 30.8523 81.2874 30.9229 81.2566C37.5934 78.8354 41.811 75.2103 41.8507 75.175C41.9125 75.1221 42.0008 75.1309 42.0537 75.1883C42.1066 75.2456 42.0978 75.3382 42.0405 75.3911C41.9963 75.4264 37.7434 79.0868 31.0199 81.5256C31.0067 81.53 30.9891 81.5344 30.9714 81.5344Z" fill="#172D4C"/>
        <path d="M30.9714 79.5012L33.0714 78.3987L32.6699 80.736L34.3684 82.3898L32.0214 82.7294L30.9714 84.8551L29.9214 82.7294L27.5744 82.3898L29.2729 80.736L28.8714 78.3987L30.9714 79.5012Z" fill="#FF4053"/>
        <path d="M42.6007 75.9349C42.9625 75.5732 42.9625 74.9868 42.6007 74.6252C42.2389 74.2635 41.6523 74.2635 41.2905 74.6252C40.9287 74.9868 40.9287 75.5732 41.2905 75.9349C41.6523 76.2966 42.2389 76.2966 42.6007 75.9349Z" fill="#2C3335"/>
        <path d="M42.6404 84.1009C42.3757 85.4416 39.8434 86.3104 38.6655 86.6455C38.7361 86.5221 38.8022 86.403 38.8684 86.2839C40.0728 85.9179 42.1463 85.1329 42.3581 84.0436C42.5257 83.2057 41.9787 82.6015 41.4581 82.2354C41.5199 82.1516 41.5772 82.0723 41.6257 82.0061C42.2125 82.4207 42.8345 83.113 42.6404 84.1009Z" fill="white"/>
        <path d="M53.136 88.7142C52.7963 88.6922 52.4566 88.6128 52.1213 88.4672C50.8639 87.9204 49.8713 86.6062 49.2228 85.5081C49.3728 85.561 49.514 85.6051 49.6419 85.6359C50.2684 86.6326 51.1595 87.7352 52.236 88.2026C52.4875 88.3129 52.7389 88.3834 52.9948 88.4143C53.0433 88.5158 53.0875 88.6128 53.136 88.7142Z" fill="white"/>
        <path d="M40.4213 96.4183C40.0595 97.4899 36.0934 99.2275 33.9184 100.114C33.9449 99.9993 33.9713 99.8846 34.0022 99.77C36.4022 98.7821 39.861 97.1945 40.1522 96.3301C40.5934 95.0291 39.3757 93.7061 37.9728 92.974C37.236 92.5903 36.7948 91.8009 36.5346 91.0776C36.5919 90.9365 36.6493 90.7998 36.7066 90.6631C36.9316 91.4128 37.3463 92.3257 38.1051 92.7226C39.614 93.5076 40.9154 94.9541 40.4213 96.4183Z" fill="white"/>
        <path d="M46.1036 99.5453C45.3845 99.5453 44.7404 99.413 44.436 99.0161C43.8846 98.2928 44.3654 97.0977 45.8566 95.4571C45.8919 95.4174 45.9184 95.391 45.9316 95.3733C45.9845 95.3116 46.0728 95.3072 46.1345 95.3557C46.1963 95.4086 46.2007 95.4968 46.1522 95.5586C46.1345 95.5762 46.1081 95.6071 46.0684 95.6512C44.2507 97.649 44.4051 98.5089 44.661 98.8441C45.2831 99.66 48.0228 99.0866 49.0242 98.7956C49.0992 98.7735 49.1786 98.8176 49.2007 98.8926C49.2228 98.9676 49.1786 99.047 49.1036 99.069C49.0066 99.0955 47.4316 99.5453 46.1036 99.5453Z" fill="white"/>
        <path d="M53.961 107.563C53.9257 107.664 53.8904 107.766 53.8551 107.867C53.4095 107.929 52.6286 107.995 52.0021 107.805C51.5124 107.655 51.4374 107.06 51.3536 106.368C51.2566 105.583 51.1418 104.687 50.4271 104.224C49.6022 103.691 48.7772 103.995 48.0448 104.264C47.5992 104.427 47.1801 104.582 46.8184 104.515C46.3419 104.423 45.7551 103.863 45.0757 103.21C44.4272 102.593 43.6948 101.891 42.989 101.547C41.6478 100.895 39.464 101.512 38.8684 102.438C38.7184 102.668 38.7537 103.034 38.9655 103.47C39.4022 104.379 40.5581 105.459 41.4537 105.547C41.639 105.565 41.8463 105.578 42.0669 105.587C43.4522 105.658 45.3448 105.759 45.314 107.977C45.3051 108.683 45.1022 109.212 44.7095 109.543C44.0125 110.138 42.8875 109.971 42.2125 109.869C42.1066 109.852 42.014 109.838 41.9346 109.83C41.6787 109.799 41.3787 109.922 41.0919 110.178C40.6022 110.615 40.0772 111.545 40.0728 112.851C40.0728 113.358 40.1699 113.887 40.2758 114.447C40.514 115.713 40.7787 117.111 39.8302 118.412C39.7243 118.398 39.614 118.381 39.5037 118.368C40.4875 117.133 40.2361 115.796 39.989 114.5C39.8831 113.922 39.7772 113.38 39.7816 112.846C39.7816 111.655 40.2008 110.579 40.8978 109.957C41.2463 109.649 41.6213 109.503 41.961 109.543C42.0449 109.552 42.1419 109.569 42.2522 109.583C42.8743 109.675 43.9198 109.83 44.5198 109.322C44.8463 109.045 45.014 108.59 45.0228 107.969C45.0492 106.024 43.3816 105.94 42.0449 105.869C41.8199 105.856 41.6125 105.847 41.4184 105.83C40.4081 105.728 39.1728 104.568 38.7052 103.594C38.4449 103.06 38.4184 102.606 38.6258 102.284C39.2919 101.248 41.6302 100.568 43.1125 101.292C43.8581 101.658 44.6081 102.372 45.2698 103.007C45.8919 103.603 46.4787 104.163 46.8713 104.238C47.1536 104.29 47.5198 104.158 47.9434 103.999C48.6978 103.722 49.633 103.378 50.5772 103.986C51.4066 104.524 51.5301 105.525 51.6316 106.332C51.7066 106.923 51.7683 107.439 52.0815 107.532C52.7257 107.726 53.586 107.62 53.961 107.563Z" fill="white"/>
        <path d="M51.8036 113.274C51.7507 113.406 51.6978 113.534 51.6448 113.658C51.3669 113.768 51.1022 113.821 50.8992 113.746C50.6345 113.644 50.5331 113.252 50.3919 112.705C50.1757 111.863 49.8801 110.707 48.861 110.31C47.8595 109.918 46.8051 110.271 46.4081 110.822C46.1346 111.201 46.1699 111.633 46.5096 112.048C47.1493 112.824 47.864 113.825 47.6787 114.65C47.586 115.06 47.2816 115.391 46.7699 115.629C46.5669 115.722 46.3199 115.832 46.0596 115.946C44.7228 116.529 42.7022 117.411 42.4861 118.324C42.4596 118.438 42.464 118.553 42.4993 118.663C42.3978 118.659 42.3008 118.654 42.1993 118.645C42.1728 118.518 42.1772 118.39 42.2081 118.257C42.4552 117.203 44.4713 116.326 45.9449 115.686C46.2052 115.572 46.4522 115.466 46.6507 115.373C47.0831 115.17 47.3301 114.915 47.4007 114.593C47.564 113.878 46.8449 112.904 46.289 112.233C45.8655 111.717 45.8213 111.144 46.1743 110.659C46.6463 110.01 47.8154 109.605 48.9625 110.05C50.1184 110.5 50.4316 111.739 50.6654 112.643C50.7625 113.018 50.8684 113.442 50.9963 113.49C51.1772 113.547 51.4948 113.428 51.8036 113.274Z" fill="white"/>
        <path d="M37.4081 113.644C37.4125 113.847 37.4302 114.473 34.5978 115.814C34.0816 116.061 33.5611 116.286 33.1111 116.471C32.9964 116.414 32.8861 116.356 32.7802 116.303C34.7787 115.492 37.139 114.315 37.1169 113.653C37.1037 113.124 36.6184 112.908 36.0537 112.665C35.5243 112.431 34.9772 112.193 34.8316 111.633C34.6949 111.1 35.3566 110.464 36.1243 109.728C37.0243 108.868 38.039 107.893 37.6993 107.1C37.386 106.372 35.3478 106.513 32.264 107.448C32.2861 107.342 32.3081 107.236 32.3346 107.13C34.6772 106.429 37.4787 105.869 37.964 106.989C38.3831 107.964 37.289 109.014 36.3228 109.94C35.6787 110.557 35.0169 111.192 35.1096 111.567C35.2199 111.99 35.6787 112.193 36.1684 112.405C36.7419 112.652 37.386 112.934 37.4081 113.644Z" fill="white"/>
        <path d="M64.2977 104.339C64.2977 104.339 56.8109 95.5321 54.3316 92.6434C51.8522 89.7548 49.2316 87.0647 47.1493 86.1915C45.0625 85.3183 40.3552 86.6281 42.0405 91.2984C43.7213 95.9687 58.2492 109.111 59.9609 110.963C61.6771 112.811 88.5401 116.599 88.5401 116.599L89.4887 112.238L64.2977 104.339Z" fill="#FAC7C0"/>
        <path d="M88.7122 112.29L89.493 112.237L93.8916 110.156C93.8916 110.156 98.8018 109.468 99.3709 109.754C99.9445 110.041 98.7136 110.764 98.2945 110.914C97.8753 111.064 94.9636 111.788 94.9636 111.788C94.9636 111.788 101.647 111.576 102.309 111.823C102.971 112.07 102.883 112.63 102.141 112.78C101.4 112.93 96.5915 113.468 96.5915 113.468C96.5915 113.468 103.686 113.688 104.021 114.023C104.356 114.359 104.422 114.998 103.566 115.166C102.711 115.333 96.9754 115.166 96.9754 115.166C96.9754 115.166 103.447 115.854 103.8 116.189C104.153 116.524 104.003 117.3 102.874 117.199C101.749 117.097 95.643 116.599 95.643 116.599C95.643 116.599 100.822 117.635 101.021 117.97C101.224 118.306 101.087 118.861 100.483 118.813C99.8783 118.764 95.1048 118.694 94.0945 118.425C93.0842 118.156 88.5313 116.599 88.5313 116.599L88.0107 116.021L88.7122 112.29Z" fill="#FAC7C0"/>
        <path d="M49.2581 122.2C49.1831 122.178 49.1036 122.226 49.0816 122.301C49.0595 122.376 49.1081 122.456 49.1831 122.478L60.2477 125.41L60.7109 125.238L49.2581 122.2Z" fill="#172D4C"/>
        <path d="M61.4256 202.923C61.3241 204.687 59.6609 205.595 59.6609 205.595C59.6609 205.595 46.0948 190.72 43.1698 185.679C43.1698 185.679 43.8184 184.431 44.9169 182.773L61.4168 202.548C61.43 202.711 61.4344 202.839 61.4256 202.923Z" fill="#2C3335"/>
        <path d="M55.8757 188.528C55.8183 188.528 55.7654 188.497 55.7433 188.44C55.7124 188.369 55.7477 188.286 55.8183 188.255L58.8051 187.002C58.8801 186.971 58.9595 187.007 58.9904 187.077C59.0212 187.148 58.986 187.232 58.9154 187.262L55.9286 188.515C55.9154 188.524 55.8933 188.528 55.8757 188.528Z" fill="#172D4C"/>
        <path d="M56.9521 191.298C56.8992 191.298 56.8462 191.267 56.8242 191.218C56.7889 191.148 56.8198 191.064 56.8903 191.029L59.3212 189.869C59.3918 189.833 59.4756 189.864 59.5109 189.935C59.5462 190.005 59.5153 190.089 59.4447 190.124L57.0139 191.284C56.9918 191.293 56.9742 191.298 56.9521 191.298Z" fill="#172D4C"/>
        <path d="M58.7652 185.794C58.7564 185.75 58.7476 185.706 58.7388 185.661C58.7255 185.6 58.7079 185.538 58.6902 185.481C58.6329 185.282 58.5535 185.097 58.4608 184.925C58.4432 184.894 58.4255 184.863 58.4079 184.828C58.0814 184.285 57.5829 183.88 56.9652 183.677C56.255 183.448 55.5403 183.54 55.1432 183.919C54.8564 184.193 54.7638 184.594 54.8829 185.044C54.9976 185.476 55.2535 185.798 55.6373 186.001C55.9991 186.195 56.4358 186.257 56.8638 186.257C57.7064 186.257 58.5138 186.005 58.6549 185.957C58.6638 185.953 58.6726 185.953 58.6726 185.953L58.6814 185.948L58.7873 185.913L58.7652 185.794ZM55.7652 185.75C55.452 185.582 55.2491 185.326 55.1564 184.969C55.0638 184.621 55.1255 184.33 55.3373 184.127C55.5358 183.937 55.8535 183.84 56.2064 183.84C56.4182 183.84 56.6476 183.875 56.8726 183.95C57.2388 184.069 58.077 184.453 58.4035 185.52C58.4255 185.586 58.4432 185.653 58.4564 185.723C58.4432 185.728 58.4299 185.732 58.4211 185.732C57.9579 185.864 56.5991 186.191 55.7652 185.75Z" fill="#172D4C"/>
        <path d="M60.6844 183.276C60.5035 182.989 60.1859 182.848 59.7933 182.874C59.4183 182.901 59.1094 183.059 58.88 183.342C58.5844 183.703 58.4609 184.224 58.4168 184.691C58.4124 184.735 58.408 184.784 58.408 184.828C58.3903 185.097 58.3947 185.339 58.408 185.52C58.4124 185.609 58.4212 185.679 58.4256 185.732C58.43 185.785 58.4344 185.82 58.4389 185.829L58.4565 185.952H58.58H58.6109C58.6286 185.952 58.6418 185.952 58.6594 185.952C58.6683 185.952 58.6815 185.952 58.6903 185.952C59.5109 185.926 60.2212 185.507 60.605 184.815C60.8962 184.268 60.9315 183.664 60.6844 183.276ZM60.3447 184.678C60.1859 184.965 59.7183 185.613 58.7389 185.666C58.7256 185.666 58.7168 185.666 58.7036 185.666C58.6991 185.617 58.6947 185.556 58.6903 185.481C58.6638 184.991 58.6771 184.047 59.1006 183.523C59.2815 183.298 59.5153 183.183 59.8109 183.161C59.8374 183.161 59.8638 183.156 59.8859 183.156C60.1374 183.156 60.3271 183.249 60.4418 183.426C60.6315 183.725 60.5918 184.228 60.3447 184.678Z" fill="#172D4C"/>
        <path d="M90.671 78.8355C90.6445 78.8532 90.6181 78.8664 90.5916 78.884C90.5563 78.9061 90.521 78.9237 90.4857 78.9458C90.4592 78.959 90.4328 78.9767 90.4063 78.9943C90.5254 79.6823 90.5563 80.2335 90.5166 80.6084C90.4813 80.9347 90.3975 81.1288 90.2784 81.1685C90.1637 81.2038 89.996 81.1112 89.7931 80.8951C89.5725 80.6657 89.3166 80.2909 89.0519 79.7925C89.0078 79.7131 88.9681 79.6294 88.924 79.5412C88.8093 79.3074 88.6902 79.0516 88.5754 78.7738C88.4343 78.4298 88.2931 78.0549 88.1607 77.6448C88.0681 77.3581 87.9843 77.0759 87.9093 76.7981C87.7857 76.3394 87.6931 75.894 87.6313 75.4839C87.596 75.2589 87.574 75.0473 87.5607 74.8488C87.5607 74.8312 87.5563 74.8179 87.5563 74.8003C87.5034 73.958 87.6534 73.6052 87.799 73.5566C87.8166 73.5522 87.8299 73.5478 87.8475 73.5478C88.0372 73.5478 88.3549 73.8389 88.7078 74.3901L88.9813 74.2799C88.5357 73.5743 88.0813 73.1553 87.7063 73.2788C87.274 73.4199 87.2254 74.1917 87.2652 74.8135C87.2696 74.862 87.2696 74.9061 87.274 74.9546C87.2916 75.1355 87.3137 75.3295 87.3446 75.528C87.4063 75.9469 87.5034 76.3967 87.6269 76.8642C87.7019 77.1465 87.7857 77.4375 87.8828 77.7286C88.0063 78.1123 88.1475 78.496 88.2975 78.8576C88.4166 79.1442 88.5401 79.4221 88.6681 79.6779C88.7122 79.7617 88.7519 79.8455 88.796 79.9292C89.0607 80.4276 89.3387 80.8421 89.6034 81.1112C89.8195 81.3272 90.0269 81.4507 90.221 81.4507C90.2651 81.4507 90.3137 81.4419 90.3578 81.4287C90.6048 81.3493 90.7416 81.0582 90.7901 80.6349C90.8034 80.5114 90.8122 80.3791 90.8122 80.238C90.8254 79.841 90.7681 79.3559 90.671 78.8355Z" fill="#2C3335"/>
        <path d="M91.2666 82.4077C91.6784 81.996 91.6784 81.3287 91.2666 80.9171C90.8549 80.5054 90.1872 80.5054 89.7755 80.9171C89.3637 81.3287 89.3637 81.996 89.7755 82.4076C90.1872 82.8193 90.8548 82.8193 91.2666 82.4077Z" fill="#FF4053"/>
        <path d="M88.9077 79.5657C89.0886 79.3849 89.0886 79.0917 88.9077 78.9109C88.7268 78.73 88.4335 78.73 88.2526 78.9109C88.0717 79.0917 88.0717 79.3849 88.2526 79.5657C88.4335 79.7465 88.7268 79.7465 88.9077 79.5657Z" fill="#172D4C"/>
        <path d="M87.6049 76.8684C87.9874 76.8684 88.2975 76.5584 88.2975 76.176C88.2975 75.7936 87.9874 75.4836 87.6049 75.4836C87.2223 75.4836 86.9122 75.7936 86.9122 76.176C86.9122 76.5584 87.2223 76.8684 87.6049 76.8684Z" fill="white"/>
    </g>
    <defs>
        <clipPath id="clip0_150_5872">
            <rect width="157" height="211" rx="12" fill="white"/>
        </clipPath>
    </defs>
</svg>
