<svg width="250" height="196" viewBox="0 0 250 196" fill="none" xmlns="http://www.w3.org/2000/svg">
    <path d="M290.21 73.1607C279.227 39.9716 243.306 21.9982 210.12 33.0714C161.622 49.1791 111.479 60.2411 60.5736 65.9514C25.7423 69.8254 0.670558 101.197 4.63041 135.935C8.50442 170.766 39.8761 195.838 74.7036 191.874C134.45 185.168 193.215 172.131 250.121 153.251C283.31 142.267 301.287 106.436 290.21 73.1607Z" fill="#04E061"/>
    <mask id="mask0_156_74053" style="mask-type:alpha" maskUnits="userSpaceOnUse" x="3" y="30" width="292" height="164">
        <path d="M290.811 73.5058C279.792 40.2082 243.753 22.1759 210.459 33.2853C161.802 49.4457 111.495 60.5439 60.4229 66.2729C25.4778 70.1595 0.323965 101.634 4.29677 136.485C8.18346 171.431 39.6578 196.584 74.5992 192.608C134.541 185.879 193.498 172.8 250.591 153.858C283.888 142.838 301.924 106.89 290.811 73.5058Z" fill="#FF4053"/>
    </mask>
    <g mask="url(#mask0_156_74053)">
        <path d="M187.179 147.594C187.179 147.594 199.117 164.815 203.343 175.433C207.939 186.948 208.414 199.838 207.675 209.346C206.882 218.908 198.747 261.432 198.747 261.432H75.2424C75.2424 261.432 99.9117 201 114.227 180.715C114.227 180.715 116.604 162.596 123.208 147.594" fill="#965EEB"/>
        <path d="M116.657 181.876C122.151 183.144 127.592 184.623 132.98 186.313" stroke="#303030" stroke-miterlimit="10" stroke-linecap="round" stroke-linejoin="round"/>
        <path d="M127.909 179.764C124.634 179.553 121.411 179.13 118.189 178.549" stroke="#303030" stroke-miterlimit="10" stroke-linecap="round" stroke-linejoin="round"/>
        <path d="M180.259 147.54C185.224 155.675 192.831 167.138 195.472 176.594C199.962 192.705 196.476 209.451 193.518 225.51C191.299 237.501 188.869 249.492 186.386 261.431" stroke="#7248B3" stroke-miterlimit="10" stroke-linecap="round" stroke-linejoin="round"/>
        <path d="M193.676 171.576C179.942 168.089 168.003 159.056 161.717 147.329" stroke="#7248B3" stroke-miterlimit="10" stroke-linecap="round" stroke-linejoin="round"/>
        <path d="M128.913 16.1123C125.796 17.9612 123.313 20.8137 121.887 24.1417C120.302 27.9979 119.88 32.5937 115.759 34.6011C111.956 36.4499 109.632 40.1477 111.269 44.6907C111.533 45.3774 111.85 46.1698 111.48 46.8037C111.216 47.2263 110.794 47.4376 110.371 47.596C104.983 50.1316 101.285 55.6783 100.282 61.5947C99.3307 67.5111 100.915 73.6388 103.979 78.7628C107.043 83.8868 111.533 88.06 116.499 91.388C121.887 94.9801 129.177 97.6213 133.403 102.587C137.576 107.5 142.066 109.93 148.405 111.409C157.755 113.627 167.475 114.05 176.983 112.782C182.055 112.095 187.126 111.197 191.88 109.349C196.846 107.394 200.755 104.224 205.086 101.213C208.731 98.6778 213.01 96.7761 216.18 93.501C220.194 89.4335 222.994 84.0453 223.364 78.3402C223.892 70.5221 219.719 65.6622 212.588 63.4435C207.358 61.806 201.125 60.9608 198.272 55.7311C195.789 51.241 199.487 45.6415 198.536 40.6231C197.849 36.9782 194.733 34.1785 191.352 32.5937C187.971 31.009 184.221 30.4279 180.681 29.3714C178.463 28.7375 176.35 27.9451 174.237 26.9943C173.18 26.5188 172.071 25.9378 171.226 25.1454C169.641 23.6135 169.113 21.2892 168.637 19.1762" fill="#441533"/>
        <path d="M167.052 25.5664C167.369 27.3625 168.637 28.8416 170.116 29.8981C175.135 33.3845 183.217 33.4902 186.915 38.7727C188.763 41.3611 188.763 44.7947 188.446 47.9114C188.077 51.0281 187.39 54.2504 188.024 57.3143C188.499 59.5857 189.661 61.7516 191.352 63.3891C197.057 68.9358 205.826 68.8301 209.312 76.9652C212.746 84.8361 208.626 94.5031 203.132 100.419" stroke="#704162" stroke-miterlimit="10" stroke-linecap="round"/>
        <path d="M168.69 22.5039C171.331 25.9375 175.557 26.2545 179.413 26.994C183.217 27.7336 187.179 28.0505 190.824 29.424C194.469 30.7974 197.955 33.3859 199.381 37.1893C201.389 42.6302 198.959 49.656 202.498 54.1461C203.502 55.4139 204.875 56.3119 206.301 57.0515C210.158 58.9532 214.384 59.7456 218.187 61.9114C223.945 65.1865 227.907 71.4199 227.379 78.4984C226.903 84.9431 222.73 90.2256 217.817 93.7649C217.183 94.1875 216.549 94.6101 215.915 94.9799C213.169 96.6174 210.263 97.9909 207.411 99.4172C206.09 100.104 204.769 100.949 203.396 101.583C201.811 102.323 200.068 102.692 198.43 103.326" stroke="#441533" stroke-miterlimit="10" stroke-linecap="round"/>
        <path d="M157.332 33.5439L158.547 42.3657L161.717 55.2022C161.717 55.2022 157.438 64.7635 144.549 64.7635C134.723 64.7635 133.086 57.2096 133.086 57.2096L133.033 42.3657" fill="#FFC1AA"/>
        <path d="M136.414 7.07815C133.72 7.44793 128.754 9.56093 126.219 14.1039C124.37 17.379 123.789 20.707 123.577 25.4613C123.366 29.5816 124 39.6712 125.426 43.7916C126.377 46.4328 129.494 49.9193 135.357 50.3419C142.911 50.8701 150.148 46.2215 153.371 41.1503C156.54 36.0263 158.019 27.5214 156.646 21.0768C154.691 11.8852 146.292 5.65188 136.414 7.07815Z" fill="#FFC1AA"/>
        <path d="M139.53 0.897266C145.764 -0.106409 152.367 1.63682 157.491 5.33457C159.604 6.8665 161.453 8.66255 162.985 10.7227C165.679 14.3677 167.422 18.6993 167.739 23.2423C168.056 27.7324 167 32.381 164.57 36.1844C163.724 37.5578 160.185 40.833 160.185 40.833L156.593 26.9928C149.514 25.9892 140.164 20.8651 136.519 11.1453C136.519 11.1453 127.222 10.8284 124.106 20.4954C122.574 8.29277 133.297 1.84812 139.53 0.897266Z" fill="#441533"/>
        <path d="M152.79 29.1058C153.318 27.0984 154.85 24.9326 157.016 24.5628C159.076 24.1931 161.083 25.6722 161.823 27.5739C162.826 30.1623 162.404 33.3318 161.136 35.7089C159.868 38.1917 157.016 40.516 154.11 39.0897C153.001 38.5615 152.156 37.5578 151.892 36.3957" fill="#FFC1AA"/>
        <path d="M158.759 28.9473C157.121 30.6377 155.589 32.4337 154.163 34.2826" stroke="#303030" stroke-miterlimit="10" stroke-linecap="round" stroke-linejoin="round"/>
        <path d="M157.491 39.1954C155.537 39.9878 153.265 39.1954 152.103 37.4521" stroke="#303030" stroke-miterlimit="10" stroke-linecap="round" stroke-linejoin="round"/>
        <path d="M130.286 32.3281C130.339 33.279 130.18 34.2826 129.758 35.1278C129.282 36.0259 127.803 36.5541 129.018 37.6106C129.547 38.0861 130.128 38.403 130.762 38.7199" stroke="#303030" stroke-miterlimit="10" stroke-linecap="round" stroke-linejoin="round"/>
        <path d="M137.783 30.1365C137.836 30.9817 138.311 31.6156 138.892 31.6156C139.42 31.5628 139.843 30.8761 139.79 30.0309C139.737 29.1857 139.262 28.5518 138.681 28.5518C138.1 28.5518 137.73 29.2913 137.783 30.1365Z" fill="#303030"/>
        <path d="M125.95 30.532C126.003 31.3772 126.478 32.0111 127.059 32.0111C127.588 31.9583 128.01 31.2716 127.957 30.4264C127.905 29.5812 127.429 28.9473 126.848 28.9473C126.267 28.9473 125.897 29.6868 125.95 30.532Z" fill="#303030"/>
        <path d="M131.448 41.0445L135.146 37.875C135.146 37.875 137.893 42.0482 135.621 43.5273C133.72 44.6894 131.448 41.0445 131.448 41.0445Z" fill="white"/>
        <path d="M148.775 44.9531C144.655 49.1263 139.372 51.028 133.086 50.3413" stroke="#303030" stroke-miterlimit="10" stroke-linecap="round" stroke-linejoin="round"/>
        <path d="M84.0642 105.652L80.7362 114.315L62.7757 99.0488L52.2635 118.171C60.557 135.392 75.0839 152.825 84.0642 154.621C92.9916 156.417 100.546 148.493 103.557 143.211C107.941 135.551 117.397 110.987 117.397 110.987" fill="#FFC1AA"/>
        <path d="M80.7362 114.367C80.789 114.367 95.5272 126.411 98.5382 133.648" stroke="#303030" stroke-miterlimit="10" stroke-linecap="round" stroke-linejoin="round"/>
        <path d="M127.011 60.2216C127.011 60.2216 117.819 57.1577 111.375 58.0029C102.87 59.1123 97.6402 66.2965 93.784 74.59C89.9278 82.8307 81.3173 106.76 81.3173 106.76L117.133 116.85L127.962 82.0383" fill="#F0E7FF"/>
        <path d="M120.144 107.288L84.6981 97.5156" stroke="#965EEB" stroke-miterlimit="10" stroke-linecap="round"/>
        <path d="M115.072 74.5891C112.431 79.132 109.737 83.7278 107.941 88.6934C106.145 93.6589 105.247 99.0471 106.304 104.224C107.307 109.401 111.058 114.63 115.231 118.17L123.208 147.54H187.179C187.179 147.54 187.548 107.816 183.534 78.6038L163.619 56.2588L142.436 61.2243L123.736 60.115" fill="#F0E7FF"/>
        <path d="M139.689 61.0664C138.263 86.6337 132.505 96.0366 138.263 114.314C139.847 119.385 143.228 147.541 143.228 147.541" stroke="#303030" stroke-miterlimit="10" stroke-linecap="round" stroke-linejoin="round"/>
        <path d="M139.9 112.783C139.9 113.575 140.534 114.156 141.274 114.156C142.066 114.156 142.647 113.522 142.647 112.783C142.647 112.043 142.013 111.409 141.274 111.409C140.534 111.409 139.9 112.043 139.9 112.783Z" fill="#965EEB"/>
        <path d="M144.126 135.814C144.126 136.606 144.76 137.187 145.5 137.187C146.239 137.187 146.873 136.553 146.873 135.814C146.873 135.074 146.239 134.44 145.5 134.44C144.76 134.44 144.126 135.022 144.126 135.814Z" fill="#965EEB"/>
        <path d="M138.157 91.1762C138.157 91.9686 138.791 92.5496 139.531 92.5496C140.27 92.5496 140.904 91.9157 140.904 91.1762C140.904 90.4366 140.27 89.8027 139.531 89.8027C138.791 89.8027 138.157 90.3838 138.157 91.1762Z" fill="#965EEB"/>
        <path d="M140.217 67.8276C140.217 68.6199 140.851 69.201 141.591 69.201C142.33 69.201 142.964 68.5671 142.964 67.8276C142.964 67.0352 142.33 66.4541 141.591 66.4541C140.851 66.4541 140.217 67.0352 140.217 67.8276Z" fill="#965EEB"/>
        <path d="M115.072 74.5889C112.431 79.1318 109.737 83.7276 107.941 88.6931C106.145 93.6587 105.247 99.0469 106.304 104.224C106.779 106.654 107.888 109.136 109.315 111.408" stroke="#303030" stroke-miterlimit="10" stroke-linecap="round" stroke-linejoin="round"/>
        <path d="M206.777 107.868C206.777 107.868 210.475 127.308 210.686 131.956C210.897 136.605 211.531 144.053 207.199 147.064C202.868 150.023 172.176 138.295 172.176 138.295L170.592 109.559" fill="#FFC1AA"/>
        <path d="M157.016 53.8291L166.101 57.2627C166.101 57.2627 173.18 56.3647 177.512 56.3647C181.843 56.3647 190.295 56.2062 195.789 65.5034C200.649 73.7441 201.389 78.7097 204.558 89.6973C207.728 100.685 209.999 110.986 209.999 110.986L169.218 117.272L166.101 79.0795" fill="#F0E7FF"/>
        <path d="M169.218 117.271L166.947 78.8672" stroke="#303030" stroke-miterlimit="10" stroke-linecap="round" stroke-linejoin="round"/>
        <path d="M161.717 48.4941L140.112 61.1193L149.99 74.3256L166.102 57.2631L161.717 48.4941Z" fill="#F0E7FF"/>
        <path d="M132.135 54.1465L140.112 61.1194L130.55 71.8957L127.011 60.2214L132.135 54.1465Z" fill="#F0E7FF"/>
        <path d="M140.112 61.1189L149.99 74.3252L166.102 57.2627" stroke="#303030" stroke-miterlimit="10" stroke-linecap="round" stroke-linejoin="round"/>
        <path d="M140.112 61.1197L130.55 71.896L127.011 60.2217" stroke="#303030" stroke-miterlimit="10" stroke-linecap="round" stroke-linejoin="round"/>
        <path d="M140.27 60.749L154.691 64.077L152.631 67.4578L139.9 62.4923L140.27 60.749Z" fill="#FF4053"/>
        <path d="M140.27 60.749L129.124 62.8092L130.18 66.4541L140.429 62.5451L140.27 60.749Z" fill="#FF4053"/>
        <path d="M140.798 60.9082C140.904 60.961 146.028 85.419 146.028 85.419C146.028 85.419 142.277 86.5812 142.119 86.4755C141.96 86.3699 139.795 62.7043 139.795 62.7043L140.798 60.9082Z" fill="#FF4053"/>
        <path d="M139.002 62.4922C138.897 62.545 129.388 89.9612 129.388 89.9612C129.388 89.9612 132.927 91.6516 133.139 91.5988C133.297 91.4931 140.693 62.862 140.693 62.862L139.002 62.4922Z" fill="#FF4053"/>
        <path d="M141.644 61.1723C141.591 61.4365 141.538 61.6478 141.432 61.8591C141.327 62.176 141.274 62.5458 141.274 62.9156C141.274 62.9684 141.274 62.9684 141.221 62.9684C141.221 63.0212 141.168 62.9684 141.168 62.9684C140.534 62.9684 139.9 63.0212 139.266 62.9684C139.002 62.3345 138.949 61.5949 139.108 60.9082" stroke="#B8434F" stroke-miterlimit="10" stroke-linecap="round"/>
        <path d="M207.939 102.217L168.69 107.869" stroke="#303030" stroke-miterlimit="10" stroke-linecap="round" stroke-linejoin="round"/>
        <path d="M125.939 71.4474L129.015 73.0889L109.492 109.672L106.416 108.03L125.939 71.4474Z" fill="#B8434F"/>
        <path d="M126.747 71.8936L107.202 108.448" stroke="#FF4053" stroke-miterlimit="10" stroke-linecap="round"/>
        <path d="M128.015 72.5283L108.469 109.136" stroke="#FF4053" stroke-miterlimit="10" stroke-linecap="round"/>
        <path d="M109.473 109.664L105.564 113.098L106.409 108.026" fill="#965EEB"/>
        <path d="M210.58 140.461C210.052 147.539 207.358 151.237 202.181 153.35C197.004 155.463 188.975 154.354 183.481 153.244C174.395 151.395 165.679 145.638 157.755 140.83C149.831 136.023 128.226 119.7 128.226 119.7L113.224 96.5102C116.921 95.3481 120.672 94.1859 124.581 94.0803C133.614 93.869 143.492 98.4647 151.786 101.634C160.608 105.015 169.218 108.871 177.723 112.833C185.33 116.425 192.989 119.965 200.596 123.557" fill="#FFC1AA"/>
        <path d="M146.715 100.155C141.485 98.0952 138.21 96.669 132.716 95.0314C130.022 94.239 125.479 93.0769 122.679 92.8656C120.725 92.7071 118.717 93.0769 116.763 93.4995C112.009 94.556 107.677 96.8803 104.877 101.318C103.557 103.431 102.606 105.755 101.655 108.079C101.127 109.4 100.598 110.72 100.229 112.147C99.9646 113.098 99.3307 114.894 99.8589 115.844C100.915 117.746 104.138 115.105 105.036 114.154C106.726 112.252 107.307 109.822 108.628 107.762C109.209 106.917 109.896 106.125 110.635 105.438C110.107 106.917 109.737 108.555 109.632 110.351C109.579 111.724 109.315 113.309 110.16 114.471C111.005 115.633 111.269 115.686 112.695 115.792C112.854 117.429 114.386 118.697 115.918 118.433C115.706 118.486 116.657 120.018 116.763 120.123C117.133 120.493 117.661 121.074 118.136 121.285C119.404 121.867 121.359 120.81 122.521 120.335C122.996 120.176 123.419 119.965 123.947 119.965C124.37 119.965 124.739 120.018 125.162 120.123C129.599 121.18 133.667 124.244 138.263 124.085L146.715 100.155Z" fill="#FFC1AA"/>
        <path d="M112.537 116.004C113.118 110.88 115.865 106.02 119.827 103.062" stroke="#303030" stroke-miterlimit="10" stroke-linecap="round" stroke-linejoin="round"/>
        <path d="M116.023 118.538C116.235 117.693 116.71 116.953 117.186 116.266C119.034 113.731 121.464 111.565 124.158 110.086" stroke="#303030" stroke-miterlimit="10" stroke-linecap="round" stroke-linejoin="round"/>
        <path d="M120.883 120.968C121.042 120.704 121.306 120.599 121.57 120.546C123.63 119.859 125.69 119.331 127.803 118.855" stroke="#303030" stroke-miterlimit="10" stroke-linecap="round" stroke-linejoin="round"/>
        <path d="M110.582 105.543C112.167 102.585 113.91 99.9439 116.446 97.9365" stroke="#303030" stroke-miterlimit="10" stroke-linecap="round" stroke-linejoin="round"/>
        <path d="M199.328 123.504C193.993 120.388 188.446 117.641 182.741 115.211" stroke="#303030" stroke-miterlimit="10" stroke-linecap="round" stroke-linejoin="round"/>
        <path d="M142.7 97.8311L147.718 99.8912C148.247 110.456 146.451 120.546 142.277 130.318L137.417 127.096C141.379 117.905 143.228 107.815 142.7 97.8311Z" fill="#7A4A44"/>
        <path d="M146.82 116.003C149.039 115.158 150.043 112.411 149.039 109.876C148.035 107.34 145.447 106.019 143.281 106.917C141.062 107.763 140.059 110.509 141.062 113.045C142.013 115.528 144.602 116.848 146.82 116.003Z" fill="#995F56"/>
        <path d="M146.186 116.266C144.549 116.636 142.277 115.738 141.485 114.206" stroke="#303030" stroke-miterlimit="10" stroke-linecap="round" stroke-linejoin="round"/>
        <path d="M147.666 107.656C146.609 106.81 145.236 106.388 143.862 106.493C143.387 106.546 142.911 106.652 142.542 106.916" stroke="#303030" stroke-miterlimit="10" stroke-linecap="round" stroke-linejoin="round"/>
        <path d="M143.07 108.448L145.13 111.565L142.858 113.097" stroke="#303030" stroke-miterlimit="10" stroke-linecap="round" stroke-linejoin="round"/>
        <path d="M42.4909 64.8154H99.3306L129.652 138.137H72.8125L42.4909 64.8154Z" fill="#04E061"/>
        <path d="M63.4096 59.6387C62.6701 57.1559 64.0964 55.307 66.6848 55.4655C69.2732 55.6768 71.9673 57.8427 72.7068 60.3254C73.4464 62.8082 72.0201 64.6571 69.4317 64.4986C66.8961 64.3401 64.202 62.1215 63.4096 59.6387ZM70.1184 60.167C69.8015 59.0576 68.5865 58.1068 67.4772 58.054C66.3678 57.9483 65.7339 58.7935 66.0509 59.85C66.3678 60.9593 67.5828 61.9102 68.6921 61.963C69.8015 62.0687 70.4354 61.2763 70.1184 60.167Z" fill="#D3A585"/>
        <path d="M64.0435 125.142C64.9944 120.916 65.417 116.954 63.5681 112.887C61.9833 109.453 60.1345 106.125 62.9342 102.744C63.8322 101.688 64.8359 100.262 65.9452 99.4692C67.9526 98.043 69.643 96.511 69.8543 94.0282C69.9071 93.6056 69.8543 93.1302 69.643 92.7604C69.2732 92.2322 68.4808 92.2322 67.8469 92.3378C67.213 92.4963 65.9452 93.0246 65.9452 93.0246C65.9452 93.0246 69.2204 90.6474 70.1184 89.0099C70.4882 88.3231 70.8051 87.5308 70.5938 86.7912C70.3825 86.0517 68.8506 85.7347 68.8506 85.7347C68.8506 85.7347 69.8543 85.1008 70.224 84.6254C70.5938 84.15 70.6995 83.4632 70.3825 82.9878C70.0656 82.4596 69.4317 82.3011 68.8506 82.1954C67.4243 81.9841 65.998 81.8785 64.6246 81.9841C66.1037 82.037 67.8469 80.1881 67.3187 79.1316C66.8433 78.1279 59.5534 79.5542 55.6443 80.822C53.6898 81.4559 51.6824 82.3011 50.2562 83.833C46.3999 88.059 45.8717 92.7076 45.8717 98.0429C45.8717 99.8918 46.4 102.956 46.7697 104.752C47.1395 106.548 47.7734 108.291 48.513 109.981C50.7316 115.422 53.4257 120.652 56.5952 125.618" fill="#FFC1AA"/>
        <path d="M66.1037 92.9189C62.7229 95.3489 58.2328 97.145 56.9122 101.477" stroke="#303030" stroke-miterlimit="10" stroke-linecap="round" stroke-linejoin="round"/>
        <path d="M69.2732 85.6289C66.2094 86.3685 63.2512 87.3721 60.4515 88.7984C57.863 90.119 54.0596 93.4998 52.2636 97.4617" stroke="#303030" stroke-miterlimit="10" stroke-linecap="round" stroke-linejoin="round"/>
        <path d="M64.7303 82.0371C59.078 82.8295 51.9466 85.6292 49.0941 91.123" stroke="#303030" stroke-miterlimit="10" stroke-linecap="round" stroke-linejoin="round"/>
        <path d="M64.9944 119.12C65.2057 120.652 64.5718 124.191 64.3605 125.406" stroke="#303030" stroke-miterlimit="10" stroke-linecap="round" stroke-linejoin="round"/>
    </g>
    <path d="M174.078 5.12351C178.41 3.43311 183.798 4.33114 186.386 8.45149C188.024 11.0399 188.13 14.5264 186.756 17.2204C184.96 20.8654 181.051 22.4501 177.248 22.8727C172.705 23.401 168.32 21.7634 165.256 18.3298C164.781 10.9871 169.377 6.97239 174.078 5.12351Z" fill="#441533"/>
    <path d="M186.281 10.5645C187.76 12.519 187.76 16.6922 186.439 18.9636C184.802 21.7634 181.896 23.8235 178.727 24.3518C175.24 24.9329 171.595 24.0877 168.69 22.0275" stroke="#441533" stroke-miterlimit="10" stroke-linecap="round"/>
    <path d="M185.119 7.60742C185.752 11.4108 183.534 15.0029 180.153 16.6405C175.927 18.6479 170.539 18.3309 166.154 17.1159" stroke="#704162" stroke-miterlimit="10" stroke-linecap="round"/>
    <path d="M128.913 16.1123C125.796 17.9612 123.313 20.8137 121.887 24.1417C120.302 27.9979 119.88 32.5937 115.759 34.6011C111.956 36.4499 109.632 40.1477 111.269 44.6907C111.533 45.3774 111.85 46.1698 111.48 46.8037C111.216 47.2263 110.794 47.4376 110.371 47.596C104.983 50.1316 101.285 55.6783 100.282 61.5947C99.3307 67.5111 100.915 73.6388 103.979 78.7628C107.043 83.8868 111.533 88.06 116.499 91.388C121.887 94.9801 129.177 97.6213 133.403 102.587C137.576 107.5 142.066 109.93 148.405 111.409C157.755 113.627 167.475 114.05 176.983 112.782C182.055 112.095 187.126 111.197 191.88 109.349C196.846 107.394 200.755 104.224 205.086 101.213C208.731 98.6778 213.01 96.7761 216.18 93.501C220.194 89.4335 222.994 84.0453 223.364 78.3402C223.892 70.5221 219.719 65.6622 212.588 63.4435C207.358 61.806 201.125 60.9608 198.272 55.7311C195.789 51.241 199.487 45.6415 198.536 40.6231C197.849 36.9782 194.733 34.1785 191.352 32.5937C187.971 31.009 184.221 30.4279 180.681 29.3714C178.463 28.7375 176.35 27.9451 174.237 26.9943C173.18 26.5188 172.071 25.9378 171.226 25.1454C169.641 23.6135 169.113 21.2892 168.637 19.1762" fill="#441533"/>
    <path d="M167.052 25.5664C167.369 27.3625 168.637 28.8416 170.116 29.8981C175.135 33.3845 183.217 33.4902 186.915 38.7727C188.763 41.3611 188.763 44.7947 188.446 47.9114C188.077 51.0281 187.39 54.2504 188.024 57.3143C188.499 59.5857 189.661 61.7516 191.352 63.3891C197.057 68.9358 205.826 68.8301 209.312 76.9652C212.746 84.8361 208.626 94.5031 203.132 100.419" stroke="#704162" stroke-miterlimit="10" stroke-linecap="round"/>
    <path d="M168.69 22.5039C171.331 25.9375 175.557 26.2545 179.413 26.994C183.217 27.7336 187.179 28.0505 190.824 29.424C194.469 30.7974 197.955 33.3859 199.381 37.1893C201.389 42.6302 198.959 49.656 202.498 54.1461C203.502 55.4139 204.875 56.3119 206.301 57.0515C210.158 58.9532 214.384 59.7456 218.187 61.9114C223.945 65.1865 227.907 71.4199 227.379 78.4984C226.903 84.9431 222.73 90.2256 217.817 93.7649C217.183 94.1875 216.549 94.6101 215.915 94.9799C213.169 96.6174 210.263 97.9909 207.411 99.4172C206.09 100.104 204.769 100.949 203.396 101.583C201.811 102.323 200.068 102.692 198.43 103.326" stroke="#441533" stroke-miterlimit="10" stroke-linecap="round"/>
    <path d="M157.332 33.5439L158.547 42.3657L161.717 55.2022C161.717 55.2022 157.438 64.7635 144.549 64.7635C134.723 64.7635 133.086 57.2096 133.086 57.2096L133.033 42.3657" fill="#FFC1AA"/>
    <path d="M136.414 7.07815C133.72 7.44793 128.754 9.56093 126.219 14.1039C124.37 17.379 123.789 20.707 123.577 25.4613C123.366 29.5816 124 39.6712 125.426 43.7916C126.377 46.4328 129.494 49.9193 135.357 50.3419C142.911 50.8701 150.148 46.2215 153.371 41.1503C156.54 36.0263 158.019 27.5214 156.646 21.0768C154.691 11.8852 146.292 5.65188 136.414 7.07815Z" fill="#FFC1AA"/>
    <path d="M139.53 0.897266C145.764 -0.106409 152.367 1.63682 157.491 5.33457C159.604 6.8665 161.453 8.66255 162.985 10.7227C165.679 14.3677 167.422 18.6993 167.739 23.2423C168.056 27.7324 167 32.381 164.57 36.1844C163.724 37.5578 160.185 40.833 160.185 40.833L156.593 26.9928C149.514 25.9892 140.164 20.8651 136.519 11.1453C136.519 11.1453 127.222 10.8284 124.106 20.4954C122.574 8.29277 133.297 1.84812 139.53 0.897266Z" fill="#441533"/>
    <path d="M168.162 20.1249C166.894 21.0758 165.256 21.4456 163.672 21.6041C159.604 21.9738 155.431 20.9173 151.786 19.1213C148.141 17.2724 144.919 14.6311 142.119 11.6201" stroke="#704162" stroke-miterlimit="10" stroke-linecap="round"/>
    <path d="M167.845 22.4502C164.57 26.3592 158.706 27.8384 153.952 26.0423" stroke="#704162" stroke-miterlimit="10" stroke-linecap="round"/>
    <path d="M152.79 29.1058C153.318 27.0984 154.85 24.9326 157.016 24.5628C159.076 24.1931 161.083 25.6722 161.823 27.5739C162.826 30.1623 162.404 33.3318 161.136 35.7089C159.868 38.1917 157.016 40.516 154.11 39.0897C153.001 38.5615 152.156 37.5578 151.892 36.3957" fill="#FFC1AA"/>
    <path d="M158.759 28.9473C157.121 30.6377 155.589 32.4337 154.163 34.2826" stroke="#303030" stroke-miterlimit="10" stroke-linecap="round" stroke-linejoin="round"/>
    <path d="M154.48 25.9365C153.635 26.993 153.054 28.1552 152.684 29.423" stroke="#303030" stroke-miterlimit="10" stroke-linecap="round" stroke-linejoin="round"/>
    <path d="M157.491 39.1954C155.537 39.9878 153.265 39.1954 152.103 37.4521" stroke="#303030" stroke-miterlimit="10" stroke-linecap="round" stroke-linejoin="round"/>
    <path d="M130.286 32.3281C130.339 33.279 130.18 34.2826 129.758 35.1278C129.282 36.0259 127.803 36.5541 129.018 37.6106C129.547 38.0861 130.128 38.403 130.762 38.7199" stroke="#303030" stroke-miterlimit="10" stroke-linecap="round" stroke-linejoin="round"/>
    <path d="M137.783 30.1365C137.836 30.9817 138.311 31.6156 138.892 31.6156C139.42 31.5628 139.843 30.8761 139.79 30.0309C139.737 29.1857 139.262 28.5518 138.681 28.5518C138.1 28.5518 137.73 29.2913 137.783 30.1365Z" fill="#303030"/>
    <path d="M125.95 30.532C126.003 31.3772 126.478 32.0111 127.059 32.0111C127.588 31.9583 128.01 31.2716 127.957 30.4264C127.905 29.5812 127.429 28.9473 126.848 28.9473C126.267 28.9473 125.897 29.6868 125.95 30.532Z" fill="#303030"/>
    <path d="M131.448 41.0445L135.146 37.875C135.146 37.875 137.893 42.0482 135.621 43.5273C133.72 44.6894 131.448 41.0445 131.448 41.0445Z" fill="white"/>
    <path d="M139.795 20.7598C138.051 19.9146 135.621 20.1259 133.984 21.1824" stroke="#303030" stroke-miterlimit="10" stroke-linecap="round" stroke-linejoin="round"/>
    <path d="M127.117 22.7152C125.321 21.553 123.63 21.6059 122.415 22.7152" stroke="#303030" stroke-miterlimit="10" stroke-linecap="round" stroke-linejoin="round"/>
    <path d="M148.775 44.9531C144.655 49.1263 139.372 51.028 133.086 50.3413" stroke="#303030" stroke-miterlimit="10" stroke-linecap="round" stroke-linejoin="round"/>
    <path d="M84.0642 105.652L80.7362 114.315L62.7757 99.0488L52.2635 118.171C60.557 135.392 75.0839 152.825 84.0642 154.621C92.9916 156.417 100.546 148.493 103.557 143.211C107.941 135.551 117.397 110.987 117.397 110.987" fill="#FFC1AA"/>
    <path d="M80.7362 114.367C80.789 114.367 95.5272 126.411 98.5382 133.648" stroke="#303030" stroke-miterlimit="10" stroke-linecap="round" stroke-linejoin="round"/>
    <path d="M127.011 60.2216C127.011 60.2216 117.819 57.1577 111.375 58.0029C102.87 59.1123 97.6402 66.2965 93.784 74.59C89.9278 82.8307 81.3173 106.76 81.3173 106.76L117.133 116.85L127.962 82.0383" fill="#F0E7FF"/>
    <path d="M120.144 107.288L84.6981 97.5156" stroke="#965EEB" stroke-miterlimit="10" stroke-linecap="round"/>
    <path d="M115.072 74.5891C112.431 79.132 109.737 83.7278 107.941 88.6934C106.145 93.6589 105.247 99.0471 106.304 104.224C107.307 109.401 111.058 114.63 115.231 118.17L123.208 147.54H187.179C187.179 147.54 187.548 107.816 183.534 78.6038L163.619 56.2588L142.436 61.2243L123.736 60.115" fill="#F0E7FF"/>
    <path d="M139.689 61.0664C138.263 86.6337 132.505 96.0366 138.263 114.314C139.847 119.385 143.228 147.541 143.228 147.541" stroke="#303030" stroke-miterlimit="10" stroke-linecap="round" stroke-linejoin="round"/>
    <path d="M139.9 112.783C139.9 113.575 140.534 114.156 141.274 114.156C142.066 114.156 142.647 113.522 142.647 112.783C142.647 112.043 142.013 111.409 141.274 111.409C140.534 111.409 139.9 112.043 139.9 112.783Z" fill="#965EEB"/>
    <path d="M144.126 135.814C144.126 136.606 144.76 137.187 145.5 137.187C146.239 137.187 146.873 136.553 146.873 135.814C146.873 135.074 146.239 134.44 145.5 134.44C144.76 134.44 144.126 135.022 144.126 135.814Z" fill="#965EEB"/>
    <path d="M138.157 91.1762C138.157 91.9686 138.791 92.5496 139.531 92.5496C140.27 92.5496 140.904 91.9157 140.904 91.1762C140.904 90.4366 140.27 89.8027 139.531 89.8027C138.791 89.8027 138.157 90.3838 138.157 91.1762Z" fill="#965EEB"/>
    <path d="M140.217 67.8276C140.217 68.6199 140.851 69.201 141.591 69.201C142.33 69.201 142.964 68.5671 142.964 67.8276C142.964 67.0352 142.33 66.4541 141.591 66.4541C140.851 66.4541 140.217 67.0352 140.217 67.8276Z" fill="#965EEB"/>
    <path d="M115.072 74.5889C112.431 79.1318 109.737 83.7276 107.941 88.6931C106.145 93.6587 105.247 99.0469 106.304 104.224C106.779 106.654 107.888 109.136 109.315 111.408" stroke="#303030" stroke-miterlimit="10" stroke-linecap="round" stroke-linejoin="round"/>
    <path d="M206.777 107.868C206.777 107.868 210.475 127.308 210.686 131.956C210.897 136.605 211.531 144.053 207.199 147.064C202.868 150.023 172.176 138.295 172.176 138.295L170.592 109.559" fill="#FFC1AA"/>
    <path d="M157.016 53.8291L166.101 57.2627C166.101 57.2627 173.18 56.3647 177.512 56.3647C181.843 56.3647 190.295 56.2062 195.789 65.5034C200.649 73.7441 201.389 78.7097 204.558 89.6973C207.728 100.685 209.999 110.986 209.999 110.986L169.218 117.272L166.101 79.0795" fill="#F0E7FF"/>
    <path d="M169.218 117.271L166.947 78.8672" stroke="#303030" stroke-miterlimit="10" stroke-linecap="round" stroke-linejoin="round"/>
    <path d="M161.717 48.4941L140.112 61.1193L149.99 74.3256L166.102 57.2631L161.717 48.4941Z" fill="#F0E7FF"/>
    <path d="M132.135 54.1465L140.112 61.1194L130.55 71.8957L127.011 60.2214L132.135 54.1465Z" fill="#F0E7FF"/>
    <path d="M140.112 61.1189L149.99 74.3252L166.102 57.2627" stroke="#303030" stroke-miterlimit="10" stroke-linecap="round" stroke-linejoin="round"/>
    <path d="M140.112 61.1197L130.55 71.896L127.011 60.2217" stroke="#303030" stroke-miterlimit="10" stroke-linecap="round" stroke-linejoin="round"/>
    <path d="M140.27 60.749L154.691 64.077L152.631 67.4578L139.9 62.4923L140.27 60.749Z" fill="#FF4053"/>
    <path d="M140.27 60.749L129.124 62.8092L130.18 66.4541L140.429 62.5451L140.27 60.749Z" fill="#FF4053"/>
    <path d="M140.798 60.9082C140.904 60.961 146.028 85.419 146.028 85.419C146.028 85.419 142.277 86.5812 142.119 86.4755C141.96 86.3699 139.795 62.7043 139.795 62.7043L140.798 60.9082Z" fill="#FF4053"/>
    <path d="M139.002 62.4922C138.897 62.545 129.388 89.9612 129.388 89.9612C129.388 89.9612 132.927 91.6516 133.139 91.5988C133.297 91.4931 140.693 62.862 140.693 62.862L139.002 62.4922Z" fill="#FF4053"/>
    <path d="M141.644 61.1723C141.591 61.4365 141.538 61.6478 141.432 61.8591C141.327 62.176 141.274 62.5458 141.274 62.9156C141.274 62.9684 141.274 62.9684 141.221 62.9684C141.221 63.0212 141.168 62.9684 141.168 62.9684C140.534 62.9684 139.9 63.0212 139.266 62.9684C139.002 62.3345 138.949 61.5949 139.108 60.9082" stroke="#B8434F" stroke-miterlimit="10" stroke-linecap="round"/>
    <path d="M207.939 102.217L168.69 107.869" stroke="#303030" stroke-miterlimit="10" stroke-linecap="round" stroke-linejoin="round"/>
    <path d="M210.58 140.461C210.052 147.539 207.358 151.237 202.181 153.35C197.004 155.463 188.975 154.354 183.481 153.244C174.395 151.395 165.679 145.638 157.755 140.83C149.831 136.023 128.226 119.7 128.226 119.7L113.224 96.5102C116.921 95.3481 120.672 94.1859 124.581 94.0803C133.614 93.869 143.492 98.4647 151.786 101.634C160.608 105.015 169.218 108.871 177.723 112.833C185.33 116.425 192.989 119.965 200.596 123.557" fill="#FFC1AA"/>
    <path d="M146.715 100.155C141.485 98.0952 138.21 96.669 132.716 95.0314C130.022 94.239 125.479 93.0769 122.679 92.8656C120.725 92.7071 118.717 93.0769 116.763 93.4995C112.009 94.556 107.677 96.8803 104.877 101.318C103.557 103.431 102.606 105.755 101.655 108.079C101.127 109.4 100.598 110.72 100.229 112.147C99.9646 113.098 99.3307 114.894 99.8589 115.844C100.915 117.746 104.138 115.105 105.036 114.154C106.726 112.252 107.307 109.822 108.628 107.762C109.209 106.917 109.896 106.125 110.635 105.438C110.107 106.917 109.737 108.555 109.632 110.351C109.579 111.724 109.315 113.309 110.16 114.471C111.005 115.633 111.269 115.686 112.695 115.792C112.854 117.429 114.386 118.697 115.918 118.433C115.706 118.486 116.657 120.018 116.763 120.123C117.133 120.493 117.661 121.074 118.136 121.285C119.404 121.867 121.359 120.81 122.521 120.335C122.996 120.176 123.419 119.965 123.947 119.965C124.37 119.965 124.739 120.018 125.162 120.123C129.599 121.18 133.667 124.244 138.263 124.085L146.715 100.155Z" fill="#FFC1AA"/>
    <path d="M112.537 116.004C113.118 110.88 115.865 106.02 119.827 103.062" stroke="#303030" stroke-miterlimit="10" stroke-linecap="round" stroke-linejoin="round"/>
    <path d="M116.023 118.538C116.235 117.693 116.71 116.953 117.186 116.266C119.034 113.731 121.464 111.565 124.158 110.086" stroke="#303030" stroke-miterlimit="10" stroke-linecap="round" stroke-linejoin="round"/>
    <path d="M120.883 120.968C121.042 120.704 121.306 120.599 121.57 120.546C123.63 119.859 125.69 119.331 127.803 118.855" stroke="#303030" stroke-miterlimit="10" stroke-linecap="round" stroke-linejoin="round"/>
    <path d="M110.582 105.543C112.167 102.585 113.91 99.9439 116.446 97.9365" stroke="#303030" stroke-miterlimit="10" stroke-linecap="round" stroke-linejoin="round"/>
    <path d="M199.328 123.504C193.993 120.388 188.446 117.641 182.741 115.211" stroke="#303030" stroke-miterlimit="10" stroke-linecap="round" stroke-linejoin="round"/>
    <path d="M142.7 97.8311L147.718 99.8912C148.247 110.456 146.451 120.546 142.277 130.318L137.417 127.096C141.379 117.905 143.228 107.815 142.7 97.8311Z" fill="#7A4A44"/>
    <path d="M146.82 116.003C149.039 115.158 150.043 112.411 149.039 109.876C148.035 107.34 145.447 106.019 143.281 106.917C141.062 107.763 140.059 110.509 141.062 113.045C142.013 115.528 144.602 116.848 146.82 116.003Z" fill="#995F56"/>
    <path d="M146.186 116.266C144.549 116.636 142.277 115.738 141.485 114.206" stroke="#303030" stroke-miterlimit="10" stroke-linecap="round" stroke-linejoin="round"/>
    <path d="M147.666 107.656C146.609 106.81 145.236 106.388 143.862 106.493C143.387 106.546 142.911 106.652 142.542 106.916" stroke="#303030" stroke-miterlimit="10" stroke-linecap="round" stroke-linejoin="round"/>
    <path d="M143.07 108.448L145.13 111.565L142.858 113.097" stroke="#303030" stroke-miterlimit="10" stroke-linecap="round" stroke-linejoin="round"/>
</svg>
