<svg width="257" height="198" viewBox="0 0 257 198" fill="none" xmlns="http://www.w3.org/2000/svg">
    <path d="M297.21 74.6593C286.227 41.4702 250.306 23.4968 217.12 34.5699C168.622 50.6776 118.479 61.7396 67.5736 67.4499C32.7423 71.3239 7.67056 102.696 11.6304 137.434C15.5044 172.265 46.8761 197.337 81.7036 193.373C141.45 186.666 200.215 173.63 257.121 154.749C290.31 143.766 308.287 107.934 297.21 74.6593Z" fill="#04E061"/>
    <path d="M156.293 41.2568L167.44 47.7023L165.848 54.6785L170.397 66.3561L183.591 70.5267C183.591 70.5267 158.568 87.7398 151.895 88.953C143.326 90.4696 131.194 75.3039 131.194 75.3039L138.246 72.2707L133.999 56.3467" fill="#FFC1AA"/>
    <path d="M128.995 42.5461C131.042 36.7073 133.317 28.7453 135.668 24.4989C137.639 20.8591 141.127 15.7028 144.995 14.0346C149.999 11.9872 155.535 14.7928 160.388 16.6886C168.426 19.8734 170.094 29.5036 168.956 37.1623C168.047 43.0011 166.227 48.6124 161.98 52.8588C155.004 59.7592 140.748 63.2473 132.635 56.0436C128.767 52.6313 126.72 48.9916 128.995 42.5461Z" fill="#FFC1AA"/>
    <path d="M146.208 33.7499C145.753 34.6598 145.98 35.7214 146.663 36.0248C147.345 36.4039 148.331 35.8731 148.786 34.9632C149.241 34.0532 149.014 32.9916 148.331 32.6883C147.573 32.385 146.663 32.84 146.208 33.7499Z" fill="#303030"/>
    <path d="M133.544 30.0341C133.09 30.944 133.317 32.0056 133.999 32.3089C134.682 32.6881 135.668 32.1573 136.123 31.2473C136.578 30.3374 136.35 29.2758 135.668 28.9725C134.985 28.6692 133.999 29.1241 133.544 30.0341Z" fill="#303030"/>
    <path d="M140.976 30.1108C139.611 32.4615 137.791 34.5089 136.35 36.8596C136.047 37.3146 135.895 37.7695 135.895 38.3003C135.895 39.8169 138.018 40.4994 139.08 41.0302" stroke="#303030" stroke-miterlimit="10" stroke-linecap="round"/>
    <path d="M167.061 57.9398C167.061 57.9398 161.07 52.0252 160.464 49.0679C159.25 43.0016 161.525 33.2955 160.388 27.1534C154.397 25.0302 150.303 23.5894 144.236 21.4662C141.961 20.6321 139.687 19.8738 137.563 18.7364C136.047 17.9781 134.606 17.0682 133.544 15.7791C132.559 14.6417 131.952 13.2767 131.497 11.836C130.966 10.3194 130.587 8.72703 130.663 7.21046C130.966 3.64652 134.303 0.537541 138.094 0.234227C140.672 0.0825697 143.251 1.22 144.995 2.96406C145.98 3.94983 147.497 4.25314 148.786 3.72234C148.938 3.64651 149.165 3.57069 149.317 3.57069C150.682 3.3432 152.047 3.64651 153.26 4.10149C156.066 5.08726 157.961 8.42372 160.009 10.4711C161.449 11.9118 162.814 9.94029 165.999 11.0019C175.857 14.1867 180.71 21.6179 182.075 30.1865C183.591 39.4376 178.966 49.3712 171.686 55.1341C170.246 56.2716 167.061 57.9398 167.061 57.9398Z" fill="#441533"/>
    <path d="M154.094 57.1826C151.288 59.685 142.796 62.339 135.137 58.0926" stroke="#303030" stroke-miterlimit="10" stroke-linecap="round"/>
    <path d="M155.156 31.3993C154.625 30.1102 154.094 28.8211 153.184 27.8353C151.743 26.3946 150.075 26.4704 148.331 27.0771" stroke="#303030" stroke-miterlimit="10" stroke-linecap="round"/>
    <path d="M139.232 24.5759C139.08 23.8935 138.777 23.1352 138.246 22.5285C136.957 21.0878 135.213 22.3011 134.227 23.4385" stroke="#303030" stroke-miterlimit="10" stroke-linecap="round"/>
    <path d="M156.521 42.7733C157.582 40.0435 162.056 39.2852 164.179 41.0292C169.26 45.2756 163.497 55.0575 157.658 54.0717C155.99 53.7684 154.018 52.4035 154.094 50.432" fill="#FFC1AA"/>
    <path d="M162.89 45.8062L156.217 48.536" stroke="#303030" stroke-miterlimit="10" stroke-linecap="round"/>
    <path d="M160.312 40.3462C158.795 40.6495 157.43 41.4078 156.369 42.5452" stroke="#303030" stroke-miterlimit="10" stroke-linecap="round"/>
    <path d="M164.331 50.8863C162.738 52.8578 160.388 54.6777 157.734 54.1469C155.914 53.8436 154.246 52.327 154.246 50.3555" stroke="#303030" stroke-miterlimit="10" stroke-linecap="round"/>
    <path d="M142.341 42.8496C142.113 44.2904 141.507 47.1718 138.625 46.1102C137.715 45.8069 136.957 45.1245 136.578 44.442" stroke="#303030" stroke-miterlimit="10" stroke-linecap="round"/>
    <mask id="mask0_340_8959" style="mask-type:alpha" maskUnits="userSpaceOnUse" x="4" y="24" width="304" height="171">
        <path d="M303.699 70.0735C292.211 35.3609 254.642 16.5625 219.933 28.1439C169.209 44.991 116.763 56.5608 63.5213 62.5332C27.0912 66.585 0.868572 99.3968 5.01019 135.729C9.06203 172.159 41.8738 198.382 78.3 194.237C140.789 187.222 202.251 173.587 261.77 153.84C296.482 142.352 315.285 104.876 303.699 70.0735Z" fill="#FF4053"/>
    </mask>
    <g mask="url(#mask0_340_8959)">
        <path d="M111.706 193.598C111.706 193.598 107.232 208.763 106.019 211.493C104.881 214.223 78.2655 268.896 78.2655 268.896H134.151C134.151 268.896 156.445 236.668 161.677 224.232C166.909 211.721 167.44 184.119 167.44 184.119" fill="#00AAFF"/>
        <path d="M192.994 182.527L198.757 201.56C198.757 201.56 203.989 225.673 201.411 240.991C198.833 256.308 197.392 268.896 197.392 268.896H141.962L148.71 226.507L146.435 191.93" fill="#00AAFF"/>
        <path d="M184.046 182.527L189.809 201.56C189.809 201.56 195.042 225.673 192.463 240.991C189.809 256.308 188.444 268.896 188.444 268.896" stroke="#1F7CAB" stroke-miterlimit="10" stroke-linecap="round"/>
        <path d="M156.293 41.2578L167.44 47.7032L165.848 54.6795L170.397 66.3571L183.591 70.5277C183.591 70.5277 158.568 87.7408 151.895 88.954C143.326 90.4706 131.194 75.3049 131.194 75.3049L138.246 72.2717L134 56.3477" fill="#FFC1AA"/>
        <path d="M128.995 42.5466C131.042 36.7078 133.317 28.7458 135.668 24.4994C137.639 20.8596 141.127 15.7033 144.995 14.035C149.999 11.9877 155.535 14.7933 160.388 16.689C168.426 19.8739 170.094 29.5041 168.957 37.1628C168.047 43.0016 166.227 48.6129 161.98 52.8593C155.004 59.7597 140.748 63.2478 132.635 56.0441C128.767 52.6318 126.72 48.992 128.995 42.5466Z" fill="#FFC1AA"/>
        <path d="M146.208 33.7504C145.753 34.6603 145.98 35.7219 146.663 36.0253C147.345 36.4044 148.331 35.8736 148.786 34.9637C149.241 34.0537 149.014 32.9921 148.331 32.6888C147.573 32.3855 146.663 32.8404 146.208 33.7504Z" fill="#303030"/>
        <path d="M133.545 30.0346C133.09 30.9445 133.317 32.0061 134 32.3094C134.682 32.6886 135.668 32.1578 136.123 31.2478C136.578 30.3379 136.35 29.2763 135.668 28.973C134.985 28.6697 134 29.1246 133.545 30.0346Z" fill="#303030"/>
        <path d="M140.976 30.1113C139.611 32.462 137.791 34.5094 136.35 36.8601C136.047 37.315 135.895 37.77 135.895 38.3008C135.895 39.8174 138.018 40.4998 139.08 41.0307" stroke="#303030" stroke-miterlimit="10" stroke-linecap="round"/>
        <path d="M167.061 57.9403C167.061 57.9403 161.07 52.0257 160.464 49.0683C159.25 43.0021 161.525 33.296 160.388 27.1539C154.397 25.0307 150.303 23.5899 144.236 21.4667C141.962 20.6326 139.687 19.8743 137.563 18.7369C136.047 17.9786 134.606 17.0687 133.545 15.7796C132.559 14.6422 131.952 13.2772 131.497 11.8365C130.966 10.3199 130.587 8.72752 130.663 7.21095C130.966 3.647 134.303 0.53803 138.094 0.234715C140.672 0.0830579 143.251 1.22049 144.995 2.96455C145.98 3.95032 147.497 4.25363 148.786 3.72283C148.938 3.647 149.165 3.57117 149.317 3.57117C150.682 3.34369 152.047 3.647 153.26 4.10197C156.066 5.08775 157.961 8.42421 160.009 10.4716C161.449 11.9123 162.814 9.94078 165.999 11.0024C175.857 14.1872 180.71 21.6184 182.075 30.187C183.591 39.4381 178.966 49.3717 171.686 55.1346C170.246 56.2721 167.061 57.9403 167.061 57.9403Z" fill="#441533"/>
        <path d="M154.094 57.1831C151.288 59.6854 142.796 62.3394 135.137 58.093" stroke="#303030" stroke-miterlimit="10" stroke-linecap="round"/>
        <path d="M155.156 31.3998C154.625 30.1107 154.094 28.8216 153.184 27.8358C151.743 26.3951 150.075 26.4709 148.331 27.0775" stroke="#303030" stroke-miterlimit="10" stroke-linecap="round"/>
        <path d="M139.232 24.5764C139.08 23.894 138.777 23.1357 138.246 22.529C136.957 21.0883 135.213 22.3016 134.227 23.439" stroke="#303030" stroke-miterlimit="10" stroke-linecap="round"/>
        <path d="M156.521 42.7738C157.582 40.0439 162.056 39.2857 164.179 41.0297C169.26 45.2761 163.497 55.058 157.658 54.0722C155.99 53.7689 154.018 52.404 154.094 50.4325" fill="#FFC1AA"/>
        <path d="M162.89 45.8066L156.217 48.5365" stroke="#303030" stroke-miterlimit="10" stroke-linecap="round"/>
        <path d="M160.312 40.3467C158.795 40.65 157.431 41.4083 156.369 42.5457" stroke="#303030" stroke-miterlimit="10" stroke-linecap="round"/>
        <path d="M164.331 50.8868C162.739 52.8583 160.388 54.6782 157.734 54.1474C155.914 53.8441 154.246 52.3275 154.246 50.356" stroke="#303030" stroke-miterlimit="10" stroke-linecap="round"/>
        <path d="M142.341 42.8501C142.113 44.2908 141.507 47.1723 138.625 46.1107C137.715 45.8074 136.957 45.125 136.578 44.4425" stroke="#303030" stroke-miterlimit="10" stroke-linecap="round"/>
        <path d="M176.312 67.4956C176.312 67.4956 160.085 87.3627 148.104 86.8319C140.142 86.4528 134.075 74.0169 134.075 74.0169C134.075 74.0169 118.91 76.0642 113.905 78.7182C108.9 81.3722 116.331 120.272 114.436 133.467C112.54 146.737 107.535 201.485 107.535 201.485H199.895C199.895 201.485 211.421 135.362 209.222 110.49C207.023 85.6945 199.743 73.941 194.511 70.9837C189.279 68.1022 176.312 67.4956 176.312 67.4956Z" fill="#965EEB"/>
        <path d="M183.516 69.5435C177.222 78.3396 166.075 89.0314 156.369 93.7328C151.137 96.2351 142.492 95.7802 137.488 92.8987C131.27 89.2589 125.355 75.8372 125.355 75.8372" stroke="#6D41B0" stroke-miterlimit="10" stroke-linecap="round"/>
        <path d="M115.346 78.187C110.569 80.0069 106.019 82.8126 102.986 86.9831C99.8767 91.3054 98.6634 96.765 97.8293 101.997C96.0094 112.992 95.1753 124.215 95.327 135.362C95.4786 146.281 96.0094 159.172 98.3601 169.864C101.166 182.603 109.355 190.489 122.701 190.717C135.289 190.944 148.104 186.243 159.705 181.769C166.227 179.267 172.672 176.613 179.042 173.655L165.62 140.594L130.132 146.964C130.132 146.964 123.535 112.841 117.241 102.149" fill="#965EEB"/>
        <path d="M119.592 107.457C113.678 102.68 106.019 99.7981 98.3601 100.253" stroke="#6D41B0" stroke-miterlimit="10" stroke-linecap="round"/>
        <path d="M165.62 140.671L130.132 147.04C130.132 147.04 123.535 112.917 117.241 102.226" stroke="#303030" stroke-miterlimit="10" stroke-linecap="round"/>
        <path d="M109.128 186.926C112.843 189.353 117.317 190.642 122.701 190.793C135.289 191.021 148.104 186.319 159.705 181.846C166.227 179.343 172.672 176.689 179.042 173.732" stroke="#303030" stroke-miterlimit="10" stroke-linecap="round"/>
        <path d="M130.891 146.889C124.218 148.026 117.772 150.073 111.706 152.955" stroke="#303030" stroke-miterlimit="10" stroke-linecap="round"/>
        <path d="M163.118 77.3548C159.781 73.0326 156.748 68.4828 153.108 64.4639C150.53 61.5824 147.573 59.0801 144.312 57.0327C141.052 55.0612 137.26 53.1655 133.469 52.8621C130.966 52.6347 128.919 54.2271 127.175 55.7436C126.113 56.6536 125.128 57.5635 124.066 58.4735C123.839 58.6251 123.687 58.8526 123.611 59.0801C123.535 59.6109 124.142 59.99 124.673 60.1417C125.507 60.3692 125.962 60.0659 126.872 59.99C126.189 60.3692 125.658 61.2033 125.431 61.7341C125.052 62.5682 125.128 62.9473 125.583 63.7815C124.748 64.0089 124.066 64.6156 123.839 65.5255C123.611 66.3596 123.839 67.2696 124.142 68.1037C124.218 68.3312 124.369 68.5587 124.293 68.7862C124.218 69.0895 123.99 69.2411 123.839 69.4686C120.047 73.6392 126.341 78.7197 129.829 80.3121C130.056 80.3879 130.36 80.5396 130.587 80.5396C131.042 80.5396 131.421 80.0846 131.573 79.5538C131.649 79.0988 131.573 78.568 131.421 78.1131C136.502 83.4211 136.426 89.7907 143.099 92.8238" fill="#FFC1AA"/>
        <path d="M163.118 77.3537C159.781 73.0315 156.748 68.4818 153.108 64.4629C150.53 61.5814 147.573 59.079 144.312 57.0317C141.052 55.0601 137.26 53.1644 133.469 52.8611C130.966 52.6336 130.284 53.4677 130.284 53.4677" stroke="#303030" stroke-miterlimit="10" stroke-linecap="round"/>
        <path d="M126.493 60.2163C128.616 59.003 129.374 58.3964 131.801 57.9414C134.227 57.4864 137.412 58.3205 139.459 59.5338" stroke="#303030" stroke-miterlimit="10" stroke-linecap="round"/>
        <path d="M125.583 63.8558C125.583 63.8558 128.237 62.9459 131.725 63.4008C133.772 63.6283 136.502 64.7657 136.502 64.7657" stroke="#303030" stroke-miterlimit="10" stroke-linecap="round"/>
        <path d="M124.293 68.7845C126.038 68.4812 127.782 68.4054 129.526 68.7087C131.118 69.012 132.559 69.7703 134.075 70.5286" stroke="#303030" stroke-miterlimit="10" stroke-linecap="round"/>
        <path d="M131.421 78.1126L126.038 73.3354" stroke="#303030" stroke-miterlimit="10" stroke-linecap="round"/>
        <path d="M190.189 69.543C197.089 71.1354 213.999 76.7467 219.079 95.4005C223.856 112.765 221.506 130.433 218.624 144.537C215.667 158.642 206.795 186.016 193.904 188.897C175.857 192.84 167.137 187.001 152.35 149.011C137.564 111.021 133.014 91.0025 133.014 91.0025L164.862 75.3059C164.862 75.3059 197.392 124.215 200.729 140.974" fill="#965EEB"/>
        <path d="M174.568 90.4712L138.777 108.139" stroke="#6D41B0" stroke-miterlimit="10" stroke-linecap="round"/>
        <path d="M164.786 75.3057C164.786 75.3057 197.316 124.215 200.653 140.973" stroke="#303030" stroke-miterlimit="10" stroke-linecap="round"/>
        <path d="M203.383 181.997C200.501 185.561 197.316 188.063 193.904 188.822C175.857 192.765 167.137 186.926 152.35 148.936C137.563 110.946 133.014 90.9268 133.014 90.9268" stroke="#303030" stroke-miterlimit="10" stroke-linecap="round"/>
        <path d="M214.605 85.9979C209.373 85.6188 204.141 87.2112 199.591 89.8652C195.042 92.4433 191.023 96.0831 187.307 99.9504" stroke="#6D41B0" stroke-miterlimit="10" stroke-linecap="round"/>
        <path d="M188.672 95.4004C187.307 99.7226 185.791 108.746 185.791 108.746" stroke="#303030" stroke-miterlimit="10" stroke-linecap="round"/>
    </g>
</svg>
