<svg width="376" height="310" viewBox="0 0 376 310" fill="none" xmlns="http://www.w3.org/2000/svg">
    <path d="M495.662 161.013L468.718 111.913C462.315 100.286 451.842 91.3501 439.168 86.8871L274.746 28.9868C262.072 24.5239 248.311 24.9259 235.925 29.9362L184.16 51.319C169.409 57.3704 163.589 75.3144 171.935 88.8745L266.313 242.068C275.856 257.549 294.977 264.283 312.115 258.197L481.658 197.942C496.77 192.642 503.439 175.122 495.662 161.013Z" fill="#965EEB"/>
    <path d="M201.392 208.533L115.305 202.877C91.4117 201.335 68.1058 207.675 48.3907 221.081L-22.9666 269.57C-54.1277 290.792 -39.4288 344.822 -1.81145 347.332L84.276 352.988C108.169 354.53 131.475 348.19 151.19 334.784L222.547 286.295C253.74 265.188 239.01 211.043 201.392 208.533Z" fill="#00E166"/>
    <path d="M-78.0914 175.57C-70.2939 202.898 -41.7272 218.712 -14.3994 210.841C25.5356 199.4 66.6367 192.113 108.175 189.198C136.596 187.23 158.021 162.599 155.98 134.251C154.013 105.83 129.381 84.4048 100.96 86.4453C52.2076 89.8704 4.03776 98.4695 -42.8203 111.878C-70.1482 119.676 -85.9619 148.17 -78.0914 175.57Z" fill="#FF4053"/>
    <path d="M267.26 291.758L253.297 381.281C251.818 390.505 262.315 396.894 269.849 391.397L380.439 310.717C387.974 305.221 385.095 293.275 375.859 291.868L286.378 277.874C277.256 276.448 268.717 282.678 267.26 291.758Z" fill="#00AAFF"/>
    <mask id="mask0_90_2" style="mask-type:alpha" maskUnits="userSpaceOnUse" x="-81" y="86" width="238" height="127">
        <path d="M-78.0915 175.57C-70.2939 202.898 -41.7273 218.712 -14.3994 210.841C25.5356 199.4 66.6367 192.113 108.175 189.198C136.596 187.23 158.021 162.599 155.98 134.251C154.013 105.83 129.381 84.4048 100.96 86.4453C52.2076 89.8704 4.03773 98.4695 -42.8204 111.878C-70.1482 119.676 -85.9619 148.17 -78.0915 175.57Z" fill="#FF4053"/>
    </mask>
    <g mask="url(#mask0_90_2)">
        <path d="M179.658 155.391H-61.0018V211.363H179.658V155.391Z" fill="#F5F5F5"/>
        <path d="M-61.0018 170.84H19.0484" stroke="#B5B5B5" stroke-width="0.5" stroke-miterlimit="10" stroke-linecap="round" stroke-linejoin="round"/>
        <path d="M29.6879 186.523H68.7368" stroke="#B5B5B5" stroke-width="0.5" stroke-miterlimit="10" stroke-linecap="round" stroke-linejoin="round"/>
        <path d="M-33.9789 186.523H23.3777" stroke="#B5B5B5" stroke-width="0.5" stroke-miterlimit="10" stroke-linecap="round" stroke-linejoin="round"/>
        <path d="M108.691 168.304H179.687" stroke="#B5B5B5" stroke-width="0.5" stroke-miterlimit="10" stroke-linecap="round" stroke-linejoin="round"/>
        <path d="M114.492 202.159H157.276" stroke="#B5B5B5" stroke-width="0.5" stroke-miterlimit="10" stroke-linecap="round" stroke-linejoin="round"/>
    </g>
    <mask id="mask1_90_2" style="mask-type:alpha" maskUnits="userSpaceOnUse" x="168" y="25" width="331" height="236">
        <path d="M495.662 161.013L468.717 111.913C462.315 100.286 451.842 91.3501 439.168 86.8871L274.746 28.9868C262.072 24.5239 248.31 24.9259 235.925 29.9362L184.16 51.319C169.409 57.3704 163.589 75.3144 171.935 88.8745L266.313 242.068C275.856 257.549 294.977 264.283 312.115 258.197L481.658 197.942C496.77 192.642 503.439 175.122 495.662 161.013Z" fill="#965EEB"/>
    </mask>
    <g mask="url(#mask1_90_2)">
        <path d="M309.008 209.391C309.008 209.391 339.93 239.274 386.491 214.619L385.238 207.133L309.963 202.558L309.008 209.391Z" fill="#1285BE"/>
        <path d="M376.284 186.339L392.282 248.304H317.783C317.783 248.304 310.918 207.905 314.559 186.399H376.284V186.339Z" fill="#04E061"/>
        <path d="M314.141 189.31C314.261 188.3 314.38 187.29 314.559 186.399H376.284L379.209 197.687L314.141 189.31Z" fill="#21B05E"/>
        <path d="M349.66 248.304L340.646 207.311L334.915 205.47" stroke="#21B05E" stroke-miterlimit="10" stroke-linecap="round" stroke-linejoin="round"/>
        <path d="M370.672 119.316C370.672 119.316 377.716 113.494 376.045 103.394C374.373 93.2942 366.613 91.6307 366.613 91.6307C366.613 91.6307 375.687 82.2438 365.121 70.1241C365.121 70.1241 361.837 66.9754 357.838 66.5595C357.838 66.5595 356.059 57.8498 338.747 59.4539C331.763 60.1011 326.138 70.1241 330.14 73.6888C330.14 73.6888 327.215 81.5309 331.632 85.452V90.6801C331.632 90.6801 319.812 93.6506 318.32 106.127C316.828 118.603 330.14 123.059 330.14 123.059C330.14 123.059 364.225 125.792 370.672 119.316Z" fill="#5C3023"/>
        <path d="M356.465 106.432L381.656 113.205C383.208 113.621 384.462 114.69 385.118 116.116C388.581 123.602 399.565 147.723 401.654 160.021C401.654 160.021 406.012 175.051 396.281 180.695C393.655 182.181 390.61 182.656 387.626 182.24L380.94 181.289L386.491 214.559C386.491 214.559 362.494 217.649 357.719 200.895L354.734 186.339H324.887C324.887 186.339 326.976 203.093 309.067 209.391L314.142 172.437L311.515 158.119L301.964 166.437C299.098 168.932 295.696 170.833 292.055 171.724C286.145 173.269 278.146 172.794 273.43 162.278C265.192 143.98 260.595 119.978 260.595 119.978L271.46 108.809L292.831 139.821L311.396 114.393C312.172 113.383 313.246 112.611 314.5 112.314L338.974 106.432H356.465Z" fill="#00AAFF"/>
        <path d="M321.962 142.732C322.917 132.038 334.08 113.205 338.855 106.432H356.465C356.465 106.432 347.391 156.099 354.674 186.339H324.827C324.827 186.339 321.245 150.456 321.962 142.732Z" fill="#FCFBFF"/>
        <path d="M322.32 156.159C331.692 159.129 343.213 160.674 351.928 161.387C352.107 170.18 352.883 178.854 354.674 186.339H324.827C324.827 186.339 323.155 169.289 322.32 156.159Z" fill="white"/>
        <path d="M338.855 106.432L339.333 99.7785C338.198 99.7785 337.124 99.6003 336.049 99.2438C327.991 96.5704 330.08 86.7676 331.274 81.4207C331.811 78.9849 332.527 76.252 333.662 73.8162C339.989 76.1926 346.496 72.8062 346.496 72.8062C348.884 77.8561 353.361 78.6284 353.361 78.6284C353.182 82.4307 354.435 84.7477 355.271 85.8765C354.973 86.8865 356.465 106.432 356.465 106.432C356.465 106.432 354.614 118.017 353.779 125.681C351.331 125.86 348.824 125.978 346.198 125.978C339.87 125.978 333.841 125.325 328.409 124.196C332.05 116.889 336.348 109.997 338.855 106.432Z" fill="#FEC9B6"/>
        <path d="M344.347 76.3114C344.347 76.3114 337.005 78.6284 333.244 74.7667C333.363 74.4697 333.483 74.1726 333.602 73.8756C339.93 76.252 346.436 72.8656 346.436 72.8656C348.824 77.9155 353.301 78.6878 353.301 78.6878C353.241 79.2819 353.301 79.876 353.301 80.4107C350.794 80.4701 346.317 80.0543 344.347 76.3114Z" fill="#F48B6E"/>
        <path d="M354.018 83.8566C352.227 85.8171 352.167 88.7282 353.898 90.3323C355.629 91.9364 358.554 91.6393 360.345 89.6788C362.136 87.7182 362.196 84.8071 360.465 83.203C358.674 81.599 355.808 81.896 354.018 83.8566Z" fill="#FEC9B6"/>
        <path d="M393.476 164.061C393.476 164.061 391.386 155.03 379.149 153.485C366.912 151.941 353.48 153.01 348.287 151.406L347.212 166.556C347.212 166.556 369.24 180.339 380.94 181.23L393.476 164.061Z" fill="#00AAFF"/>
        <path d="M378.791 153.426C378.791 153.426 377.358 149.861 374.612 138.276L375.09 153.188L378.791 153.426Z" fill="#1285BE"/>
        <path d="M339.333 99.8379C339.333 99.8379 345.959 99.5409 349.66 93.184C349.66 93.184 349.063 101.383 339.034 104.175L339.333 99.8379Z" fill="#F48B6E"/>
        <path d="M359.032 84.8071L354.674 87.7776" stroke="#F48B6E" stroke-miterlimit="10" stroke-linecap="round" stroke-linejoin="round"/>
        <path d="M311.455 158.119C311.455 158.119 309.067 149.386 309.008 142.732C309.008 138.336 313.306 132.93 314.619 127.761" stroke="#1285BE" stroke-miterlimit="10" stroke-linecap="round" stroke-linejoin="round"/>
        <path d="M307.396 170.774H338.557L332.886 130.197H301.725L307.396 170.774Z" fill="#FF4053"/>
        <path d="M348.167 152.713C348.167 152.713 343.272 150.515 341.661 148.495C340.049 146.475 334.736 143.683 334.736 143.683L335.273 148.079C335.273 148.079 318.798 142.97 316.708 143.802C314.619 144.633 318.619 147.069 318.619 147.069C318.619 147.069 314.738 145.703 314.559 146.475C314.38 147.247 315.753 149.446 316.589 150.04C316.589 150.04 315.514 149.743 315.455 150.753C315.395 151.763 320.827 156.159 325.304 157.882C325.304 157.882 320.29 156.812 318.857 157.882C318.857 157.882 326.14 161.506 328.886 162.338C331.572 163.169 347.272 164.952 347.272 164.952L348.167 152.713Z" fill="#FEC9B6"/>
        <path d="M318.619 147.01L332.169 151.465" stroke="#F48B6E" stroke-miterlimit="10" stroke-linecap="round" stroke-linejoin="round"/>
        <path d="M316.649 149.98C316.649 149.98 325.722 153.545 330.737 154.852" stroke="#F48B6E" stroke-miterlimit="10" stroke-linecap="round" stroke-linejoin="round"/>
        <path d="M325.364 157.822L329.841 159.07" stroke="#F48B6E" stroke-miterlimit="10" stroke-linecap="round" stroke-linejoin="round"/>
        <path d="M348.466 167.387C348.466 167.387 356.883 172.675 366.852 177.071" stroke="#1285BE" stroke-miterlimit="10" stroke-linecap="round" stroke-linejoin="round"/>
        <path d="M393.476 164.061C393.476 164.061 391.386 155.03 379.149 153.485C366.912 151.941 353.48 153.01 348.287 151.406" stroke="#1285BE" stroke-miterlimit="10" stroke-linecap="round" stroke-linejoin="round"/>
        <path d="M292.771 139.88C292.771 139.88 296.83 143.564 298.442 149.98" stroke="#1285BE" stroke-miterlimit="10" stroke-linecap="round" stroke-linejoin="round"/>
        <path d="M348.167 152.713L347.332 164.892L344.526 164.536L348.167 152.713Z" fill="#F48B6E"/>
        <path d="M270.684 109.581L262.327 98.4715C262.327 98.4715 259.043 94.8474 254.507 92.6493C248.895 90.0352 241.613 85.0447 241.613 85.0447C241.613 85.0447 239.165 86.5894 241.613 88.9064L248.239 95.3227L244.12 98.3527C242.508 99.4815 242.389 101.917 244 102.987C244.06 103.046 244.179 103.105 244.299 103.165C244.299 103.165 243.403 105.838 246.09 107.086C246.09 107.086 246.03 108.987 247.94 109.819C249.85 110.651 253.193 109.344 253.193 109.344C253.193 109.344 253.91 113.324 259.76 114.453L262.327 118.077L270.684 109.581Z" fill="#FEC9B6"/>
        <path d="M256.238 97.2239L244.299 96.0951C244.299 96.0951 243.165 99.3627 246.209 100.135C249.253 100.907 252.417 102.036 252.417 102.036C252.417 102.036 251.94 106.73 256.596 107.977L256.238 97.2239Z" fill="#FEC9B6"/>
        <path d="M254.148 97.0456L244.299 96.1545C244.299 96.1545 243.165 99.4221 246.209 100.194C249.253 100.967 252.417 102.096 252.417 102.096C252.417 102.096 251.94 106.789 256.596 108.037" stroke="#F48B6E" stroke-miterlimit="10" stroke-linecap="round" stroke-linejoin="round"/>
        <path d="M252.417 102.036C252.417 102.036 246.388 103.937 244.179 103.224" stroke="#F48B6E" stroke-miterlimit="10" stroke-linecap="round" stroke-linejoin="round"/>
        <path d="M253.134 105.363C253.134 105.363 249.612 107.561 246.03 107.145" stroke="#F48B6E" stroke-miterlimit="10" stroke-linecap="round" stroke-linejoin="round"/>
        <path d="M253.134 109.462C253.134 109.462 255.044 108.037 254.865 107.205" stroke="#F48B6E" stroke-miterlimit="10" stroke-linecap="round" stroke-linejoin="round"/>
        <path d="M270.684 109.581L260.237 115.522L262.267 118.196L270.684 109.581Z" fill="#F48B6E"/>
        <path d="M340.407 83.0842C340.347 83.7377 340.706 84.2724 341.123 84.2724C341.601 84.3318 341.959 83.7972 342.019 83.203C342.079 82.5495 341.72 82.0148 341.303 82.0148C340.825 81.9554 340.407 82.4307 340.407 83.0842Z" fill="#5C3023"/>
        <path d="M332.05 82.2524C331.99 82.906 332.348 83.4406 332.766 83.4406C333.244 83.5001 333.602 82.9654 333.662 82.3713C333.721 81.7177 333.363 81.1831 332.945 81.1831C332.527 81.1236 332.11 81.5989 332.05 82.2524Z" fill="#5C3023"/>
        <path d="M344.765 79.8166C344.765 79.8166 343.153 77.7372 340.527 78.7472" stroke="#5C3023" stroke-miterlimit="10" stroke-linecap="round" stroke-linejoin="round"/>
        <path d="M335.333 78.2126C335.333 78.2126 334.259 76.8461 332.468 76.8461" stroke="#5C3023" stroke-miterlimit="10" stroke-linecap="round" stroke-linejoin="round"/>
        <path d="M335.935 83.0842C335.935 83.0842 333.649 85.6716 333.38 86.9207C333.111 88.1699 335.441 87.9914 335.441 87.9914" stroke="#F48B6E" stroke-miterlimit="10" stroke-linecap="round" stroke-linejoin="round"/>
        <path d="M338.489 89.0621L335.172 89.5082C335.172 89.5082 335.262 90.9804 337.1 90.7574C338.938 90.5343 338.489 89.0621 338.489 89.0621Z" fill="#FCFBFF"/>
        <path d="M321.006 130.197L321.484 133.405H310.44L310.023 130.197" stroke="#5C3023" stroke-miterlimit="10" stroke-linecap="round" stroke-linejoin="round"/>
        <path d="M353.301 28.6643H383.745C385.596 28.6643 387.088 30.1496 387.088 31.9913V43.1604C387.088 45.0022 385.596 46.4874 383.745 46.4874H364.046L357.778 53.4978V46.4874H353.241C351.391 46.4874 349.899 45.0022 349.899 43.1604V31.9913C349.899 30.1496 351.391 28.6643 353.301 28.6643Z" fill="#FCFBFF"/>
        <path d="M376.403 38.9423C375.414 38.9423 374.612 38.1443 374.612 37.16C374.612 36.1757 375.414 35.3777 376.403 35.3777C377.392 35.3777 378.194 36.1757 378.194 37.16C378.194 38.1443 377.392 38.9423 376.403 38.9423Z" fill="#FF4053"/>
        <path d="M366.135 37.16C366.135 38.1106 366.912 38.9423 367.926 38.9423C368.881 38.9423 369.717 38.17 369.717 37.16C369.717 36.15 368.941 35.3777 367.926 35.3777C366.912 35.3777 366.135 36.2094 366.135 37.16Z" fill="#FF4053"/>
        <path d="M358.435 37.16C358.435 38.1106 359.211 38.9423 360.226 38.9423C361.241 38.9423 362.017 38.17 362.017 37.16C362.017 36.15 361.241 35.3777 360.226 35.3777C359.211 35.3777 358.435 36.2094 358.435 37.16Z" fill="#FF4053"/>
        <path d="M248.537 172.437L269.311 180.458C269.311 180.458 284.354 185.923 286.443 198.756C288.532 211.648 292.234 231.907 292.234 231.907L319.872 237.135V248.245H194.991L196.006 220.797L180.784 219.787C184.127 198.697 187.828 181.943 210.333 176.596L230.688 171.427L248.537 172.437Z" fill="#04E061"/>
        <path d="M253.014 174.279C253.014 174.279 253.969 189.013 239.643 188.3C225.316 187.587 226.152 172.556 226.152 172.556" stroke="#21B05E" stroke-miterlimit="10" stroke-linecap="round" stroke-linejoin="round"/>
        <path d="M268.654 222.877L290.383 221.867C291.398 227.689 292.174 231.967 292.174 231.967L319.812 237.195V248.304H268.714L268.654 222.877Z" fill="#FEC9B6"/>
        <path d="M290.383 221.867L268.654 222.877V228.164L290.383 221.867Z" fill="#F48B6E"/>
        <path d="M222.51 137.504C223.465 132.454 228.42 132.157 228.42 132.157C227.823 128.295 231.644 125.384 237.494 125.978C243.344 126.573 244.896 123.364 251.582 122.533C258.267 121.701 261.252 128.177 259.7 133.761C258.148 139.346 251.582 139.821 251.582 139.821L251.044 158.298L234.688 158.773C230.45 158.773 226.987 155.565 226.987 151.584C226.987 150.99 227.107 150.396 227.226 149.802C224.062 146.594 221.854 140.95 222.51 137.504Z" fill="#00184C"/>
        <path d="M229.972 144.633C231.942 144.633 233.613 145.822 234.33 147.544C235.762 146.237 237.076 143.98 237.135 140.118C237.135 140.118 242.687 142.495 244.776 140.475C246.925 138.336 246.806 135.603 246.806 135.603C246.806 135.603 248.776 139.702 253.492 138.395L255.402 155.565C255.402 155.565 256.954 163.229 247.881 164.892L248.776 174.517C248.776 174.517 249.373 183.25 241.732 183.547C230.569 184.022 230.569 174.517 230.569 174.517L232.181 153.485C231.524 153.783 230.808 154.02 230.032 154.02C227.465 154.02 225.316 151.941 225.316 149.327C225.316 146.713 227.405 144.633 229.972 144.633Z" fill="#FEC9B6"/>
        <path d="M237.135 140.059C237.135 140.059 242.687 142.435 244.776 140.415C246.925 138.276 246.806 135.544 246.806 135.544C246.806 135.544 248.776 139.643 253.492 138.336C253.492 138.336 250.567 140.534 247.164 139.643C247.164 139.643 244.896 144.277 240.419 143.683C240.419 143.683 237.852 148.079 234.39 147.485C235.762 146.237 237.076 143.98 237.135 140.059Z" fill="#F48B6E"/>
        <path d="M247.821 164.833C247.821 164.833 239.762 166.08 236.718 158.773C236.718 158.773 237.374 168.279 248.239 169.11L247.821 164.833Z" fill="#F48B6E"/>
        <path d="M232.599 150.099L227.763 147.604" stroke="#F48B6E" stroke-miterlimit="10" stroke-linecap="round" stroke-linejoin="round"/>
        <path d="M249.061 145.406L251.508 149.357C251.831 149.862 251.6 150.505 251.046 150.689L249.061 151.424" stroke="#F48B6E" stroke-miterlimit="10" stroke-linecap="round" stroke-linejoin="round"/>
        <path d="M250.354 153.216C250.354 153.216 247.538 154.089 245.968 152.389" stroke="#F48B6E" stroke-miterlimit="10" stroke-linecap="round" stroke-linejoin="round"/>
        <path d="M252.178 145.703C251.717 145.703 251.343 145.197 251.343 144.574C251.343 143.951 251.717 143.445 252.178 143.445C252.64 143.445 253.014 143.951 253.014 144.574C253.014 145.197 252.64 145.703 252.178 145.703Z" fill="#00184C"/>
        <path d="M244.12 146.95C243.658 146.95 243.284 146.445 243.284 145.822C243.284 145.198 243.658 144.693 244.12 144.693C244.581 144.693 244.955 145.198 244.955 145.822C244.955 146.445 244.581 146.95 244.12 146.95Z" fill="#00184C"/>
        <path d="M245.314 142.198C245.314 142.198 242.806 141.485 241.254 143.742" stroke="#00184C" stroke-miterlimit="10" stroke-linecap="round" stroke-linejoin="round"/>
        <path d="M254.089 141.544C254.089 141.544 252.596 140.95 250.806 141.544" stroke="#00184C" stroke-miterlimit="10" stroke-linecap="round" stroke-linejoin="round"/>
        <path d="M268.893 247.71L268.415 208.024" stroke="#21B05E" stroke-miterlimit="10" stroke-linecap="round" stroke-linejoin="round"/>
        <path d="M289.607 217.352L268.535 218.421" stroke="#21B05E" stroke-miterlimit="10" stroke-linecap="round" stroke-linejoin="round"/>
        <path d="M239.464 236.304L253.611 229.293C253.611 229.293 255.82 227.808 258.805 230.065C261.789 232.323 270.564 240.581 274.504 240.938C274.504 240.938 275.997 244.205 271.34 244.205C271.34 244.205 269.43 246.403 265.789 244.799C265.789 244.799 263.401 246.581 259.998 244.502C259.998 244.502 257.79 245.987 254.208 245.096L249.433 243.611C249.433 243.611 245.97 247.77 239.464 248.245H193.379C193.379 248.245 176.247 247.057 178.456 232.798C180.306 220.857 180.784 219.728 180.784 219.728L206.632 221.51L205.796 229.234L239.464 236.304Z" fill="#FEC9B6"/>
        <path d="M206.632 221.57L180.784 219.787L179.948 223.768L206.632 221.57Z" fill="#F48B6E"/>
        <path d="M205.796 229.234C205.796 229.234 200.244 228.343 196.006 231.551" stroke="#F48B6E" stroke-miterlimit="10" stroke-linecap="round" stroke-linejoin="round"/>
        <path d="M239.464 236.304L235.762 238.026" stroke="#F48B6E" stroke-miterlimit="10" stroke-linecap="round" stroke-linejoin="round"/>
        <path d="M249.433 243.611L245.672 242.126C245.672 242.126 242.389 246.403 238.15 245.631" stroke="#F48B6E" stroke-miterlimit="10" stroke-linecap="round" stroke-linejoin="round"/>
        <path d="M259.939 244.502L250.865 238.977" stroke="#F48B6E" stroke-miterlimit="10" stroke-linecap="round" stroke-linejoin="round"/>
        <path d="M265.729 244.799L255.402 236.601" stroke="#F48B6E" stroke-miterlimit="10" stroke-linecap="round" stroke-linejoin="round"/>
        <path d="M271.281 244.205L259.461 235.115" stroke="#F48B6E" stroke-miterlimit="10" stroke-linecap="round" stroke-linejoin="round"/>
        <path d="M206.632 221.57L209.019 205.648" stroke="#21B05E" stroke-miterlimit="10" stroke-linecap="round" stroke-linejoin="round"/>
        <path d="M207.288 217.352L181.619 214.797" stroke="#21B05E" stroke-miterlimit="10" stroke-linecap="round" stroke-linejoin="round"/>
        <path d="M249.791 243.611H305.426V248.304H249.791V243.611Z" fill="#E23647"/>
        <path d="M278.683 248.304H338.079L350.018 201.727H290.622L278.683 248.304Z" fill="#FF4053"/>
        <path d="M290.622 201.727H294.8L282.862 248.304H278.683L290.622 201.727Z" fill="#E23647"/>
        <path d="M318.222 228.685C316.303 228.208 315.246 225.834 315.861 223.383C316.476 220.932 318.53 219.331 320.449 219.808C322.369 220.285 323.426 222.659 322.811 225.11C322.196 227.562 320.141 229.162 318.222 228.685Z" fill="#FCFBFF"/>
    </g>
    <path fill-rule="evenodd" clip-rule="evenodd" d="M205.792 233.212C204.305 241.233 193.54 251.404 193.54 251.404L198.575 254.961L199.1 268.988C199.1 268.988 208.833 259.089 211.78 250.615C214.727 242.14 215.7 229.5 214.11 221.412C209.536 198.255 186.061 189.064 164.987 186.979C143.621 184.888 131.234 189.37 122.894 192.351C114.553 195.332 108.12 198.989 108.12 198.989L109.027 201.438C105.581 203.776 98.3901 207.961 96.0777 210.825L93.158 209.391L86.0604 217.936L82.5614 222.29C82.5614 222.29 80.3468 220.783 73.4355 224.93C66.48 229.09 64.9463 236.491 64.9958 237.744C65.0453 238.996 65.1476 239.013 65.1476 239.013C65.1476 239.013 66.6492 238.693 68.3058 237.935C69.105 237.54 72.1199 233.97 75.8316 230.769C79.8116 227.338 84.1537 224.136 84.1537 224.136C84.1537 224.136 91.0954 219.931 95.2377 220.303C99.3799 220.674 101.744 222.036 101.761 221.934C101.763 221.787 102.347 221.166 101.902 219.11C103.332 217.154 112.564 211.263 112.564 211.263C112.564 211.263 114.09 211.959 115.268 211.69C116.433 211.378 129.691 204.235 140.619 202.401C151.606 200.597 157.319 200.87 157.319 200.87C171.17 201.103 209.092 215.412 205.792 233.212Z" fill="#FF4053"/>
    <path fill-rule="evenodd" clip-rule="evenodd" d="M88.1085 222.03C92.4945 220.375 94.9666 220.679 100.057 221.292C99.1262 217.827 96.3204 213.48 95.1506 214.088C93.967 214.65 90.8109 218.703 88.1085 222.03Z" fill="#CA2D3D"/>
    <path fill-rule="evenodd" clip-rule="evenodd" d="M198.561 254.916L199.086 268.944C199.086 268.944 208.819 259.044 211.766 250.57C214.218 243.469 215.332 233.467 214.703 225.665C212.926 235.093 208.731 246.734 198.561 254.916Z" fill="#FF98A2"/>
    <path fill-rule="evenodd" clip-rule="evenodd" d="M205.792 233.212C205.451 234.927 204.713 236.766 203.725 238.585C203.725 238.585 212.316 228.601 205.656 211.847C198.995 195.092 166.118 186.872 144.513 189.634C122.849 192.365 112.425 201.601 112.425 201.601C114.086 204.45 116.126 208.205 115.282 211.735C116.446 211.422 129.705 204.28 140.633 202.445C151.62 200.641 157.333 200.915 157.333 200.915C171.17 201.103 209.092 215.412 205.792 233.212Z" fill="#CA2D3D"/>
    <path fill-rule="evenodd" clip-rule="evenodd" d="M58.8405 261.503C58.5757 270.802 69.1767 286.966 82.5443 284.862C95.912 282.757 127.002 255.397 118.268 236.653C109.535 217.909 92.1516 220.676 90.7081 221.027C71.4112 225.754 59.3478 244.082 58.8405 261.503Z" fill="#FF98A2"/>
    <path fill-rule="evenodd" clip-rule="evenodd" d="M69.6065 281.322C73.3667 284.055 77.8239 285.597 82.5443 284.862C95.9119 282.757 127.002 255.397 118.268 236.653C113.365 226.18 105.717 223.582 94.2988 226.495C73.0689 231.871 56.0088 261.602 69.6065 281.322Z" fill="#FF4053"/>
    <path fill-rule="evenodd" clip-rule="evenodd" d="M70.8369 282.159C74.3289 284.342 78.3382 285.534 82.5885 284.848C94.9413 282.912 122.35 259.475 119.606 241.114C115.69 241.16 110.613 242.152 104.092 245.056C84.9434 253.54 70.9393 269.838 70.8369 282.159Z" fill="#E83648"/>
    <path fill-rule="evenodd" clip-rule="evenodd" d="M97.1993 239.736C103.745 236.288 111.227 242.254 108.678 250.605C105.518 261.047 91.7931 276.527 83.2551 272.157C72.3917 266.705 83.5569 246.266 97.1993 239.736Z" fill="#CA2D3D"/>
    <path fill-rule="evenodd" clip-rule="evenodd" d="M99.9869 238.87C105.661 238.082 110.837 243.497 108.692 250.649C105.532 261.091 91.807 276.571 83.2689 272.201C82.1796 271.662 81.328 270.951 80.6397 270.141C93.7611 268.649 105.603 250.39 103.915 243.55C103.319 241.005 101.762 239.586 99.9869 238.87Z" fill="#FF98A2"/>
    <path fill-rule="evenodd" clip-rule="evenodd" d="M148.793 253.699C132.722 249.133 92.8763 280.482 85.9513 296.141C85.9513 296.141 80.2538 288.889 78.0847 281.907C75.9018 274.88 88.9758 262.772 100.321 254.469C110.595 246.937 123.099 239.395 135.404 239.961C141.791 240.22 145.337 248.823 148.793 253.699Z" fill="#FF4053"/>
    <path fill-rule="evenodd" clip-rule="evenodd" d="M85.9956 296.127C85.9956 296.127 88.6992 299.676 99.4127 295.275C110.126 290.874 153.214 265.59 148.837 253.685C144.542 242.048 78.6281 275.691 85.9956 296.127Z" fill="#FF98A2"/>
    <path fill-rule="evenodd" clip-rule="evenodd" d="M94.4658 294.813C94.4658 294.813 96.5944 285.422 113.537 274.99C130.479 264.558 137.865 263.19 139.192 263.558C140.155 263.844 143.546 271.324 145.174 275.159C148.587 283.023 131.382 293.39 126.213 296.118C109.122 305.133 106.182 305.51 104.573 303.767C102.906 301.993 94.4658 294.813 94.4658 294.813Z" fill="#FF4053"/>
    <path fill-rule="evenodd" clip-rule="evenodd" d="M145.188 275.203C145.707 276.407 145.757 277.66 145.38 278.947C144.116 281.437 140.868 286.444 133.216 291.797C130.616 293.579 128.185 294.969 126.614 295.847C126.451 295.946 126.318 295.987 126.155 296.087C109.064 305.103 106.124 305.479 104.515 303.736L104.502 303.691C104.43 303.616 104.358 303.541 104.3 303.51L104.228 303.435L104.214 303.391C106.947 298.445 117.538 285.841 145.188 275.203Z" fill="#FF4053"/>
    <path fill-rule="evenodd" clip-rule="evenodd" d="M145.188 275.203C148.573 282.978 131.236 293.387 126.199 296.073C109.108 305.089 106.169 305.466 104.56 303.722C104.402 303.527 104.142 303.315 103.855 303.015C106.947 298.445 117.538 285.841 145.188 275.203Z" fill="#FF98A2"/>
    <path fill-rule="evenodd" clip-rule="evenodd" d="M193.527 251.36C193.527 251.36 192.838 253.671 193.58 257.78C194.31 261.845 194.682 266.167 194.682 266.167L199.028 268.913L198.503 254.885L193.527 251.36Z" fill="#CA2D3D"/>
    <path fill-rule="evenodd" clip-rule="evenodd" d="M197.388 256.451C197.034 256.561 194.122 260.148 188.541 263.735C182.96 267.322 180.33 268.382 180.33 268.382L182.175 277.758C182.175 277.758 190.046 272.484 193.348 269.995C196.695 267.492 197.95 266.225 197.95 266.225L197.388 256.451Z" fill="#FF98A2"/>
    <path fill-rule="evenodd" clip-rule="evenodd" d="M194.662 254.079L197.402 256.495C190.642 263.472 185.723 265.439 180.424 268.841L178.668 265.534C178.624 265.547 184.523 262.983 194.662 254.079Z" fill="#FF4053"/>
    <path fill-rule="evenodd" clip-rule="evenodd" d="M108.076 199.002L108.982 201.452L108.106 202.065C109.073 205.179 110.454 209.626 111.256 212.205C112.058 211.664 112.534 211.321 112.534 211.321C112.534 211.321 114.06 212.017 115.238 211.749C115.282 211.735 115.326 211.721 115.371 211.707C116.276 207.281 113.064 199.598 108.076 199.002Z" fill="#FF98A2"/>
    <path fill-rule="evenodd" clip-rule="evenodd" d="M108.982 201.452C108.982 201.452 104.333 204.603 100.874 206.897C97.5326 209.105 96.1386 210.708 96.0777 210.825C96.5865 211.057 97.9357 211.808 99.1825 213.323C100.744 215.227 101.902 219.11 101.902 219.11C103.537 217.188 112.948 211.094 114.37 210.36C114.37 210.36 113.715 207.004 112.817 204.893C111.905 202.738 111.319 201.945 111.319 201.945L108.982 201.452Z" fill="#CA2D3D"/>
    <path fill-rule="evenodd" clip-rule="evenodd" d="M108.982 201.452C108.982 201.452 104.333 204.603 100.874 206.897C97.5326 209.105 96.1386 210.708 96.0777 210.825C96.368 210.979 96.9348 211.241 97.6426 211.802C98.807 210.709 100.267 209.475 102.095 208.175C103.254 207.376 109.419 203.169 111.363 201.931L108.982 201.452Z" fill="#FF4053"/>
    <path fill-rule="evenodd" clip-rule="evenodd" d="M164.166 271.014C164.166 271.014 151.315 274.47 136.502 276.292C121.688 278.115 112.142 278.154 112.142 278.154C112.142 278.154 108.592 278.282 108.428 281.502C108.22 284.737 109.223 288.278 110.403 289.423C111.628 290.554 119.503 289.668 122.966 289.568C126.428 289.468 148.926 285.989 157.308 283.922C165.69 281.854 166.73 281.141 166.73 281.141L164.166 271.014Z" fill="#E83648"/>
    <path fill-rule="evenodd" clip-rule="evenodd" d="M163.845 272.479C163.845 272.479 150.994 275.935 136.181 277.758C121.367 279.58 111.821 279.619 111.821 279.619C111.821 279.619 108.271 279.747 108.107 282.968C107.899 286.202 108.901 289.743 110.082 290.888C111.307 292.019 119.182 291.133 122.644 291.033C126.107 290.933 148.605 287.455 156.987 285.387C165.369 283.32 166.409 282.606 166.409 282.606L163.845 272.479Z" fill="#FF4053"/>
    <path fill-rule="evenodd" clip-rule="evenodd" d="M179.349 262.884L181.868 266.929L164.296 274.241L163.365 269.215L179.349 262.884Z" fill="#FF4053"/>
    <path fill-rule="evenodd" clip-rule="evenodd" d="M183.62 280.381C183.526 279.922 181.823 266.943 181.823 266.943L164.296 274.241L167.301 286.572L183.62 280.381Z" fill="#FF98A2"/>
    <path d="M29.8675 163.539C27.758 160.489 27.587 156.356 27.587 156.356H21.8574H19.3204H13.5907C13.5907 156.356 13.3912 160.489 11.3103 163.539C9.20085 166.589 4.81097 168.499 4.81097 168.499H19.3204H21.8574H36.3668C36.3383 168.528 31.9484 166.618 29.8675 163.539Z" fill="#E2E2E2"/>
    <path opacity="0.7" d="M20.7171 162.912C24.3089 162.827 27.701 163.454 30.8652 164.765C30.4946 164.394 30.1525 163.967 29.8675 163.539C27.7581 160.489 27.587 156.356 27.587 156.356H13.5907C13.5907 156.356 13.3912 160.489 11.3103 163.539C10.9682 164.052 10.5406 164.537 10.0845 164.993C13.3057 163.425 17.382 162.998 20.7171 162.912Z" fill="#E2E2E2"/>
    <path d="M92.0099 154.132C92.0099 156.669 89.9574 158.722 87.4204 158.722H-41.9669C-44.5039 158.722 -46.5563 156.669 -46.5563 154.132V68.9003C-46.5563 66.3633 -44.5039 64.3109 -41.9669 64.3109H87.4204C89.9574 64.3109 92.0099 66.3633 92.0099 68.9003V154.132Z" fill="#2C3335"/>
    <path opacity="0.8" d="M-37.9761 122.434C-15.9697 101.596 8.20314 83.2672 31.8344 64.3394H3.52821C-13.6322 78.6493 -29.9375 93.9568 -46.5563 108.865V130.786C-43.7342 127.964 -40.8836 125.171 -37.9761 122.434Z" fill="#364041"/>
    <path d="M45.6596 64.3394H36.3382C32.1764 67.6746 28.0146 70.9812 23.8528 74.2879C-0.405579 93.5007 -24.892 112.685 -46.5563 134.862V138.796C-32.5885 126.482 28.8413 78.2787 45.6596 64.3394Z" fill="#364041"/>
    <path d="M91.6393 74.972C91.7818 75.1145 91.8958 75.2856 91.9814 75.4851V74.5729C91.8673 74.7155 91.7533 74.8295 91.6393 74.972Z" fill="#364041"/>
    <path d="M25.3921 150.569C23.1401 153.277 20.8882 155.985 18.6362 158.693H19.6054C21.5438 156.014 23.4537 153.306 25.3921 150.569Z" fill="#364041"/>
    <path d="M-46.5563 145.638V154.161C-46.5563 156.698 -44.5039 158.75 -41.9669 158.75H87.4204C89.9574 158.75 92.0099 156.698 92.0099 154.161V145.638H-46.5563Z" fill="#E2E2E2"/>
    <path d="M-19.2764 167.701H60.9957L74.0513 174.001H-34.0708L-19.2764 167.701Z" fill="#F4F4F4"/>
    <path d="M74.0513 174.001H-34.0708V175.711H74.0513V174.001Z" fill="#E2E2E2"/>
    <path d="M0.0504994 170.038H-4.08282L-2.20145 168.841H1.58981L0.0504994 170.038Z" fill="#E2E2E2"/>
    <path d="M10.1985 170.038H6.06519L7.1199 168.841H10.9112L10.1985 170.038Z" fill="#E2E2E2"/>
    <path d="M5.18148 170.038H1.04816L2.50195 168.841H6.29321L5.18148 170.038Z" fill="#E2E2E2"/>
    <path d="M20.2895 170.038H16.1562L16.3842 168.841H20.1755L20.2895 170.038Z" fill="#E2E2E2"/>
    <path d="M15.244 170.038H11.1107L11.7663 168.841H15.5576L15.244 170.038Z" fill="#E2E2E2"/>
    <path d="M30.3805 170.067H26.2472L25.6771 168.841H29.4683L30.3805 170.067Z" fill="#E2E2E2"/>
    <path d="M25.3635 170.067H21.2302L21.0591 168.841H24.8504L25.3635 170.067Z" fill="#E2E2E2"/>
    <path d="M40.4715 170.067H36.3382L34.9414 168.841H38.7327L40.4715 170.067Z" fill="#E2E2E2"/>
    <path d="M35.426 170.067H31.2927L30.295 168.841H34.1147L35.426 170.067Z" fill="#E2E2E2"/>
    <path d="M50.6195 170.067H46.4862L44.2628 168.841H48.0825L50.6195 170.067Z" fill="#E2E2E2"/>
    <path d="M45.574 170.067H41.4407L39.6448 168.841H43.4361L45.574 170.067Z" fill="#E2E2E2"/>
    <path d="M60.682 170.095H56.5487L53.5271 168.841H57.3184L60.682 170.095Z" fill="#E2E2E2"/>
    <path d="M55.665 170.095L51.5317 170.067L48.9092 168.841H52.7004L55.665 170.095Z" fill="#E2E2E2"/>
    <path d="M9.48589 171.464H4.95349L6.0082 170.267L10.1985 170.295L9.48589 171.464Z" fill="#E2E2E2"/>
    <path d="M3.98431 171.464H-0.548096L0.877188 170.267H5.06752L3.98431 171.464Z" fill="#E2E2E2"/>
    <path d="M20.5461 171.492H16.0137L16.2417 170.295H20.4321L20.5461 171.492Z" fill="#E2E2E2"/>
    <path d="M15.016 171.492H10.4836L11.1107 170.295H15.3295L15.016 171.492Z" fill="#E2E2E2"/>
    <path d="M31.6349 171.521H27.1025L26.5038 170.295H30.7227L31.6349 171.521Z" fill="#E2E2E2"/>
    <path d="M26.1047 171.521L21.5723 171.492L21.4013 170.295H25.5916L26.1047 171.521Z" fill="#E2E2E2"/>
    <path d="M42.695 171.549L38.1626 171.521L36.7659 170.324H40.9562L42.695 171.549Z" fill="#E2E2E2"/>
    <path d="M37.1649 171.521H32.6325L31.6348 170.295L35.8252 170.324L37.1649 171.521Z" fill="#E2E2E2"/>
    <path d="M53.8408 171.549H49.3083L47.0849 170.324H51.2752L53.8408 171.549Z" fill="#E2E2E2"/>
    <path d="M48.3107 171.549H43.7783L41.9539 170.324H46.1443L48.3107 171.549Z" fill="#E2E2E2"/>
    <path d="M64.8725 171.578H60.3401L57.3185 170.324L61.5088 170.352L64.8725 171.578Z" fill="#E2E2E2"/>
    <path d="M59.3424 171.578L54.81 171.549L52.1874 170.324H56.3778L59.3424 171.578Z" fill="#E2E2E2"/>
    <path d="M20.5176 172.918L3.75623 172.861L4.78243 171.663L20.4036 171.692L20.5176 172.918Z" fill="#E2E2E2"/>
    <path d="M2.67306 172.861H-2.25842L-0.80464 171.663H3.78478L2.67306 172.861Z" fill="#E2E2E2"/>
    <path d="M32.718 172.946L27.815 172.918L27.2164 171.72H31.8058L32.718 172.946Z" fill="#E2E2E2"/>
    <path d="M26.7318 172.918H21.8003L21.6293 171.692L26.1902 171.72L26.7318 172.918Z" fill="#E2E2E2"/>
    <path d="M44.7189 172.975L39.8159 172.946L38.3906 171.749H42.98L44.7189 172.975Z" fill="#E2E2E2"/>
    <path d="M38.7327 172.946H33.8012L32.8035 171.72H37.3929L38.7327 172.946Z" fill="#E2E2E2"/>
    <path d="M56.8338 173.003L51.9023 172.975L49.6788 171.749L54.2682 171.777L56.8338 173.003Z" fill="#E2E2E2"/>
    <path d="M50.8191 172.975H45.9161L44.0917 171.749H48.6812L50.8191 172.975Z" fill="#E2E2E2"/>
    <path d="M68.8347 173.032L63.9032 173.003L60.8816 171.777H65.4425L68.8347 173.032Z" fill="#E2E2E2"/>
    <path d="M62.82 173.003H57.917L55.266 171.777H59.8554L62.82 173.003Z" fill="#E2E2E2"/>
    <g style="mix-blend-mode:multiply" clip-path="url(#clip0_90_2)">
        <path d="M17.4672 150.756L16.4366 153.2H16.9902L17.2021 152.689H18.2955L18.5083 153.2H19.0578L18.0336 150.756H17.4672ZM17.3921 152.241L17.752 151.381L18.1106 152.241H17.3921ZM19.7193 152.57L19.2724 151.483H18.7443L19.4642 153.2H19.9877L20.6948 151.483H20.1667L19.7193 152.57ZM21.3591 151.483H20.8565V153.2H21.3591V151.483ZM21.1076 151.359C21.3099 151.359 21.4739 151.21 21.4739 151.027C21.4739 150.843 21.3099 150.694 21.1076 150.694C20.9052 150.694 20.7412 150.843 20.7412 151.027C20.7412 151.21 20.9052 151.359 21.1076 151.359ZM22.355 151.025H21.8539V151.48H21.56V151.894H21.8539V152.624C21.8539 153.038 22.1049 153.215 22.4585 153.215C22.5778 153.217 22.6961 153.196 22.8061 153.154V152.728C22.7461 152.748 22.6827 152.759 22.6188 152.759C22.4653 152.759 22.3546 152.705 22.3546 152.519V151.894H22.8061V151.484H22.355V151.025ZM23.8626 151.452C23.6688 151.452 23.4794 151.504 23.3182 151.602C23.1571 151.7 23.0315 151.839 22.9573 152.001C22.8831 152.164 22.8636 152.343 22.9014 152.515C22.9392 152.688 23.0325 152.847 23.1695 152.971C23.3065 153.095 23.4811 153.18 23.6712 153.215C23.8612 153.249 24.0582 153.231 24.2372 153.164C24.4162 153.096 24.5693 152.982 24.6768 152.836C24.7844 152.69 24.8419 152.517 24.8417 152.341C24.8416 152.106 24.7384 151.879 24.5548 151.713C24.3712 151.546 24.1223 151.452 23.8626 151.452ZM23.8626 152.776C23.7683 152.776 23.676 152.751 23.5975 152.704C23.519 152.656 23.4578 152.588 23.4216 152.509C23.3854 152.43 23.3759 152.343 23.3943 152.259C23.4126 152.175 23.458 152.097 23.5247 152.037C23.5914 151.976 23.6764 151.935 23.7689 151.918C23.8615 151.901 23.9574 151.91 24.0446 151.943C24.1318 151.976 24.2063 152.031 24.2588 152.102C24.3112 152.174 24.3392 152.257 24.3392 152.343C24.339 152.458 24.2886 152.568 24.1992 152.648C24.1099 152.729 23.9889 152.775 23.8626 152.775V152.776Z" fill="#303030"/>
        <path d="M13.8862 153.444C14.4272 153.444 14.8657 153.046 14.8657 152.554C14.8657 152.063 14.4272 151.664 13.8862 151.664C13.3452 151.664 12.9066 152.063 12.9066 152.554C12.9066 153.046 13.3452 153.444 13.8862 153.444Z" fill="#04E061"/>
        <path d="M15.5851 153.332C15.912 153.332 16.177 153.091 16.177 152.794C16.177 152.497 15.912 152.257 15.5851 152.257C15.2583 152.257 14.9933 152.497 14.9933 152.794C14.9933 153.091 15.2583 153.332 15.5851 153.332Z" fill="#FF4053"/>
        <path d="M14.0735 151.549C14.2758 151.549 14.4398 151.4 14.4398 151.216C14.4398 151.032 14.2758 150.883 14.0735 150.883C13.8712 150.883 13.7072 151.032 13.7072 151.216C13.7072 151.4 13.8712 151.549 14.0735 151.549Z" fill="#965EEB"/>
        <path d="M15.3551 152.141C15.7949 152.141 16.1515 151.817 16.1515 151.417C16.1515 151.018 15.7949 150.694 15.3551 150.694C14.9152 150.694 14.5587 151.018 14.5587 151.417C14.5587 151.817 14.9152 152.141 15.3551 152.141Z" fill="#00AAFF"/>
    </g>
    <path d="M80.44 152.8H71.8105V162.512H80.44V152.8Z" fill="#7E51C4"/>
    <path d="M83.0259 152.199H72.4119V161.911H83.0259V152.199Z" fill="#965EEB"/>
    <path d="M77.7339 152.921C78.1491 152.921 78.4856 152.584 78.4856 152.169C78.4856 151.754 78.1491 151.417 77.7339 151.417C77.3188 151.417 76.9822 151.754 76.9822 152.169C76.9822 152.584 77.3188 152.921 77.7339 152.921Z" fill="white"/>
    <path d="M74.2761 154.514H81.3421" stroke="white" stroke-miterlimit="10" stroke-linecap="round" stroke-linejoin="round"/>
    <path d="M74.2761 156.108H81.3421" stroke="white" stroke-miterlimit="10" stroke-linecap="round" stroke-linejoin="round"/>
    <path d="M74.2761 157.972H78.4856" stroke="white" stroke-miterlimit="10" stroke-linecap="round" stroke-linejoin="round"/>
    <path d="M74.2761 159.566H80.0792" stroke="white" stroke-miterlimit="10" stroke-linecap="round" stroke-linejoin="round"/>
    <path d="M104.994 145.113L108.579 174.862C108.579 174.862 111.823 175.83 115.303 175.699C118.783 175.568 121.687 174.862 121.687 174.862L124.408 145.113H104.994Z" fill="#965EEB"/>
    <path d="M124.408 145.27C124.408 145.845 120.065 146.316 114.701 146.316C109.337 146.316 104.994 145.845 104.994 145.27C104.994 144.694 109.337 144.223 114.701 144.223C120.065 144.223 124.408 144.694 124.408 145.27Z" fill="#FFFDEE"/>
    <path d="M124.408 145.27C124.408 145.845 120.065 146.316 114.701 146.316C109.337 146.316 104.994 145.845 104.994 145.27C104.994 144.694 109.337 144.223 114.701 144.223C120.065 144.223 124.408 144.694 124.408 145.27Z" fill="#8949D8"/>
    <path opacity="0.5" d="M122.55 146.839L120.013 174.208L117.422 174.6L119.201 147.467L122.55 146.839Z" fill="white"/>
    <mask id="mask2_90_2" style="mask-type:luminance" maskUnits="userSpaceOnUse" x="101" y="113" width="30" height="34">
        <path d="M130.138 113.637H101.724V144.746H105.046C104.759 144.851 104.602 144.982 104.602 145.113C104.602 145.819 109.259 146.369 114.989 146.369C120.719 146.369 125.376 145.793 125.376 145.113C125.376 144.982 125.219 144.851 124.931 144.746H130.19V113.637H130.138Z" fill="white"/>
    </mask>
    <g mask="url(#mask2_90_2)">
        <path d="M111.588 159.791L108.814 129.388C108.736 129.414 108.657 129.414 108.579 129.388L108.291 129.545L111.117 160.105L111.588 159.791Z" fill="#FBD568"/>
        <path d="M106.983 129.728L109.887 159.896L111.117 160.105L108.317 129.545L106.983 129.728Z" fill="#FFE9AB"/>
        <path d="M106.145 129.388L108.997 159.686L109.992 160.131L106.983 129.728L106.145 129.388Z" fill="#E7C051"/>
        <path d="M107.061 122.82L108.788 129.388C108.788 129.388 108.631 129.806 107.794 129.99C106.956 130.173 106.119 129.519 106.119 129.519L107.061 122.82Z" fill="#EDDBBC"/>
        <path d="M107.768 125.463L107.061 122.82L106.721 125.228C107.035 125.437 107.401 125.463 107.768 125.463Z" fill="#444444"/>
        <path d="M121.53 121.591C121.609 121.12 121.295 120.701 120.824 120.623L120.483 120.57C120.012 120.492 119.594 120.806 119.515 121.277L119.018 124.364C118.94 124.835 119.254 125.254 119.725 125.332L120.065 125.385C120.536 125.463 120.954 125.149 121.033 124.678L121.53 121.591Z" fill="#CACCCE"/>
        <path opacity="0.8" d="M119.698 125.071C119.672 125.201 119.542 125.306 119.411 125.28C119.28 125.254 119.175 125.123 119.201 124.992L119.803 121.251C119.829 121.12 119.96 121.015 120.091 121.041C120.222 121.067 120.326 121.198 120.3 121.329L119.698 125.071Z" fill="white"/>
        <path d="M121.582 124.6L118.547 124.129L118.469 124.626L118.73 124.652L118.443 126.405L120.954 126.797L121.242 125.044L121.504 125.097L121.582 124.6Z" fill="#DDB683"/>
        <path d="M121.242 126.588C121.059 126.562 120.588 126.353 120.013 126.248C119.437 126.143 118.914 126.222 118.73 126.196H118.652L117.972 126.274L117.396 129.99L117.972 131.245L113.236 160.994L115.748 161.387L121.242 126.588Z" fill="#3C4B59"/>
        <path d="M116.559 138.205C116.637 137.682 116.48 137.211 116.245 137.054L117.946 126.353C117.972 126.248 117.893 126.039 117.789 126.013H117.762C117.658 125.986 117.475 126.17 117.448 126.274L115.381 139.304C115.355 139.409 115.46 139.749 115.565 139.775H115.591C115.695 139.801 115.852 139.487 115.879 139.383L115.905 139.173C116.166 139.147 116.48 138.755 116.559 138.205Z" fill="#CACCCE"/>
        <path opacity="0.4" d="M115.826 138.048L115.591 138.022L117.37 126.745L117.632 126.797L115.826 138.048Z" fill="white"/>
        <path opacity="0.8" d="M116.899 150.843C116.847 151.078 116.637 151.261 116.376 151.209L116.271 151.183C116.009 151.13 115.852 150.921 115.879 150.66L119.542 127.53C119.594 127.295 119.803 127.111 120.065 127.164L120.169 127.19C120.431 127.242 120.588 127.452 120.562 127.713L116.899 150.843Z" fill="#4F5F6D"/>
        <path d="M113.027 129.152H112.503V159.765H113.027V129.152Z" fill="white"/>
        <path d="M113.027 129.152H112.503V145.898H113.027V129.152Z" fill="#3D4372"/>
        <path opacity="0.8" d="M111.457 129.152V162.12H111.745C111.902 162.12 112.32 162.25 112.791 162.25C113.262 162.25 113.655 162.12 113.838 162.12H113.812V129.152H111.457Z" fill="#C5E6ED"/>
        <path d="M114.806 129.414H114.753C114.701 128.106 114.518 124.233 114.413 122.899C114.309 121.879 113.942 119.21 113.655 118.686H112.739C112.739 118.686 111.823 121.251 111.666 122.794C111.535 124.129 111.404 128.132 111.352 129.231C111.247 129.257 111.195 129.309 111.195 129.44V129.519C111.195 129.649 111.221 129.702 111.352 129.702H114.073V135.955C114.073 135.955 114.178 136.478 114.335 136.426C114.492 136.374 114.596 135.824 114.596 135.824L114.675 129.78C114.806 129.78 114.858 129.676 114.858 129.545V129.466C114.858 129.309 114.937 129.414 114.806 129.414Z" fill="#717691"/>
        <path d="M114.596 129.152H111.457V129.414H114.596V129.152Z" fill="#979CB2"/>
        <path d="M112.87 119.236C112.87 119.236 112.216 121.015 112.242 122.873C112.268 124.73 112.242 128.629 112.242 128.629H112.817L112.87 119.236Z" fill="#979CB2"/>
        <path opacity="0.4" d="M111.98 129.676H111.718V161.858H111.98V129.676Z" fill="white"/>
        <path d="M126.083 122.323C125.743 122.245 125.429 122.297 125.088 122.297C125.062 122.323 125.062 122.349 125.062 122.402L124.801 123.788C124.748 124.024 124.905 124.233 125.141 124.286L126.24 124.495C126.475 124.547 126.684 124.39 126.737 124.155L126.998 122.768C126.998 122.716 126.998 122.663 126.998 122.611C126.684 122.533 126.397 122.402 126.083 122.323Z" fill="#3D4372"/>
        <path d="M126.109 122.506C126.527 122.585 126.92 122.742 127.155 122.873C127.129 122.611 126.684 122.323 126.109 122.219C125.507 122.088 124.984 122.219 124.879 122.454C125.193 122.402 125.612 122.428 126.109 122.506Z" fill="#3D4372"/>
        <path d="M125.245 124.914L125.743 125.018L119.751 155.081L119.254 154.977L125.245 124.914Z" fill="white"/>
        <path d="M122.524 138.571L123.021 138.676L119.751 155.081L119.254 154.977L122.524 138.571Z" fill="#3D4372"/>
        <path opacity="0.8" d="M120.745 155.291L127.182 122.977L126.998 122.951C126.841 122.925 126.475 122.716 126.004 122.611C125.533 122.533 125.115 122.585 124.958 122.533H124.931L118.495 154.846L120.745 155.291Z" fill="#C5E6ED"/>
        <path opacity="0.4" d="M126.637 123.12L120.362 154.684L120.618 154.735L126.894 123.171L126.637 123.12Z" fill="white"/>
    </g>
    <defs>
        <clipPath id="clip0_90_2">
            <rect width="12" height="3" fill="white" transform="translate(12.9066 150.694)"/>
        </clipPath>
    </defs>
</svg>
