<svg width="37" height="37" viewBox="0 0 37 37" fill="none" xmlns="http://www.w3.org/2000/svg">
    <circle cx="18.082" cy="18.4639" r="18" fill="#00AAFF"/>
    <mask id="mask0_153_59662" style="mask-type:alpha" maskUnits="userSpaceOnUse" x="0" y="0" width="37" height="37">
        <circle cx="18.082" cy="18.4639" r="18" fill="#FF4053"/>
    </mask>
    <g mask="url(#mask0_153_59662)">
        <path d="M22.0117 33.8973C22.0117 33.8973 29.4571 49.3884 33.7653 48.2549C42.5073 45.9039 48.0286 38.5153 48.0286 38.5153L46.3973 36.6681C46.3973 36.6681 37.9899 40.9922 37.1534 40.9082C36.3168 40.8242 28.0768 26.0469 28.0768 26.0469L22.0117 33.8973Z" fill="#04E061"/>
        <path d="M33.6398 42.1257L44.9334 41.8739C45.6444 41.8739 46.3555 41.3281 46.5228 40.6564L50.0363 25.7951C50.2037 25.1234 49.7436 24.6196 49.0325 24.6196L37.739 24.8715C37.0279 24.8715 36.3168 25.4173 36.1495 26.089L32.636 40.9503C32.4687 41.622 32.9288 42.1677 33.6398 42.1257Z" fill="#231F20"/>
        <path d="M34.811 42.1257L46.1045 41.8739C46.8156 41.8739 47.5266 41.3281 47.6939 40.6564L51.2075 25.7951C51.3748 25.1234 50.9147 24.6196 50.2036 24.6196L38.9101 24.8715C38.199 24.8715 37.488 25.4173 37.3207 26.089L33.8071 40.9503C33.6398 41.622 34.0999 42.1257 34.811 42.1257Z" fill="#1C2F35"/>
        <path d="M24.8979 16.3913C24.8979 17.021 24.3959 17.5248 23.7685 17.5248C23.1411 17.5248 22.6392 17.021 22.6392 16.3913C22.6392 15.7616 23.1411 15.2578 23.7685 15.2578C24.3959 15.2578 24.8979 15.7616 24.8979 16.3913Z" fill="white"/>
        <path d="M19.2928 38.5991C18.7491 37.1718 18.6236 35.6605 18.8746 34.1911C18.9164 34.0232 18.6236 33.9812 18.5818 34.1491C18.3308 35.7024 18.4563 37.2557 19.0419 38.7251C19.0837 38.851 19.3347 38.7671 19.2928 38.5991Z" fill="#1C2F35"/>
        <path d="M8.7104 54.0063C23.392 58.5403 31.632 50.8997 31.632 50.8997C28.3276 48.087 26.8218 37.8016 27.3238 33.4356C27.8257 29.0696 27.1565 26.1309 27.1565 26.1309C26.1526 25.7111 24.9814 25.1653 23.9357 24.7035C21.9698 23.8219 20.2967 23.0243 20.2967 23.0243L15.3192 22.5625C15.3192 22.5625 14.1062 22.9823 12.5586 23.612C9.83975 24.7455 5.99159 26.5507 5.57331 28.062C5.07138 29.9512 8.7104 36.7101 10.0071 43.0493C11.2619 49.4304 8.7104 54.0063 8.7104 54.0063Z" fill="white"/>
        <path d="M27.3236 27.2224C24.312 28.9857 20.7985 30.2031 17.3268 29.1956C14.7335 28.4819 12.5584 26.3828 12.1401 23.78C12.2656 23.738 12.3493 23.696 12.4748 23.6541C12.893 26.2989 15.1936 28.3559 17.8287 28.9857C21.1331 29.7413 24.4793 28.5658 27.2818 26.8446C27.2818 26.9706 27.3236 27.0965 27.3236 27.2224Z" fill="white"/>
        <path d="M28.0768 43.0913C25.3998 42.7134 22.9738 40.6564 22.3464 37.9276C21.6771 35.0309 23.183 31.8823 25.7763 30.4969C25.9854 30.371 26.1109 30.7068 25.9436 30.7908C23.5176 32.1342 22.0954 35.1149 22.7228 37.8856C23.3084 40.4045 25.5253 42.3356 28.035 42.7134C28.035 42.8394 28.0768 42.9653 28.0768 43.0913Z" fill="white"/>
        <path d="M9.0869 33.8134C9.54701 31.5884 12.2658 31.0426 14.0644 31.9242C16.1558 32.9738 17.3688 35.2827 18.2054 37.3818C19.8366 41.412 20.5059 46.3657 24.1031 49.2624C25.8598 50.6478 28.2022 51.4035 30.3773 50.6898C30.5864 50.6058 30.5027 50.27 30.2936 50.354C27.9931 51.1096 25.4834 50.186 23.7685 48.5488C22.0535 46.9115 21.0497 44.6445 20.2549 42.4195C19.4184 40.0266 18.791 37.5497 17.5779 35.2827C16.6159 33.5195 15.1938 31.7563 13.1442 31.2525C11.3456 30.8327 9.12873 31.7563 8.71045 33.6875C8.75228 33.9393 9.04507 34.0653 9.0869 33.8134Z" fill="white"/>
        <path d="M9.50511 34.6528C10.6345 36.6679 11.2201 38.9768 11.6383 41.2438C12.0148 43.3429 12.2657 45.5679 12.0148 47.7089C11.973 47.8768 11.722 47.8768 11.7638 47.7089C12.0566 45.6099 11.7638 43.3849 11.3874 41.2858C10.9691 39.0608 10.4253 36.7518 9.29597 34.7787C9.17049 34.6108 9.42146 34.4849 9.50511 34.6528Z" fill="#25252B"/>
        <path d="M27.5328 30.5388C27.5328 30.5388 27.1982 32.302 29.2059 34.8209C31.632 37.8435 27.742 40.9082 26.9054 41.7898C26.0689 42.6714 27.5328 30.5388 27.5328 30.5388Z" fill="white"/>
        <path d="M16.6996 56.735C15.4448 56.777 14.1899 56.735 12.9769 56.651C11.9312 56.5671 10.8856 56.4831 9.88168 56.3152C8.37588 55.7694 7.03739 55.0977 5.74073 54.7199C5.82439 54.3001 5.94987 53.8803 6.11718 53.3765C6.15901 53.2926 6.15901 53.2506 6.20084 53.1666C6.53546 52.243 6.99557 51.1935 7.45567 49.976C7.79029 49.1784 7.99943 48.2548 8.12492 47.2893C8.66868 42.9232 7.4975 37.2138 5.74073 35.1987C3.56569 32.7218 4.06762 28.1039 5.57342 26.2987C6.61912 25.0812 10.0908 24.0317 12.2659 23.444H12.3077C12.3914 23.402 12.5168 23.402 12.6005 23.36C13.437 23.1501 14.0226 23.0242 14.0226 23.0242C12.3077 24.8713 13.3116 30.4128 15.6539 34.0232C18.2054 37.9694 15.152 41.6638 16.3232 45.568C17.2852 48.7166 17.578 54.552 16.6996 56.735Z" fill="#04E061"/>
        <path d="M16.1977 54.5518C15.9885 54.9716 15.5703 55.1815 14.7337 55.3914C14.6082 55.4334 14.4827 55.4334 14.3572 55.4334C13.4789 55.4334 11.9731 54.9716 10.3 54.4678C8.91963 54.048 7.45566 53.5862 6.11717 53.3344C5.15513 53.1664 4.27675 53.0405 3.56567 53.1664C3.64933 53.0825 3.73298 52.9985 3.85847 52.9145C4.52771 52.8726 5.36427 52.9565 6.20083 53.1245C7.53932 53.3763 9.00329 53.8381 10.3836 54.2579C12.224 54.8037 13.9808 55.3494 14.7337 55.1815C15.6539 54.9716 16.0304 54.7617 16.114 54.132C16.1977 53.6702 16.1558 53.0405 16.0722 51.991C16.0304 51.7391 16.0304 51.4872 15.9885 51.1933C15.9049 50.1438 15.7794 49.1782 15.6121 48.2546C15.3193 46.3235 15.0265 44.4763 15.3193 42.2094C15.8212 38.0113 15.3611 36.2061 14.3154 34.233C12.0149 30.0348 11.7221 27.0962 11.8894 25.3749C11.9731 24.5353 12.1822 23.8636 12.3495 23.4018C12.4332 23.3599 12.5587 23.3599 12.6423 23.3179C12.4332 23.7377 12.1822 24.4514 12.0985 25.4169C11.9312 27.0962 12.224 29.9929 14.4827 34.107C15.5703 36.0801 16.0722 37.9693 15.5284 42.2094C15.2356 44.4763 15.5284 46.2815 15.8212 48.2127C15.9467 49.1362 16.114 50.1438 16.1977 51.1513C16.2395 51.4452 16.2395 51.6971 16.2813 51.949C16.365 53.2924 16.4068 54.09 16.1977 54.5518Z" fill="#231F20"/>
        <path d="M33.7237 51.2356C33.3891 53.0827 27.1149 55.2658 25.4 55.5176C25.4 55.5176 25.7764 45.862 25.1909 42.7554C24.438 38.8931 25.0235 37.2978 23.936 34.3592C22.8067 31.4205 25.8601 27.5582 21.3845 23.4021C21.4263 23.4021 22.3047 23.7799 23.4759 24.1997C23.6014 24.2417 23.6851 24.2837 23.8105 24.3257C23.8524 24.3257 23.8942 24.3677 23.936 24.3677C24.9817 24.7455 26.1529 25.1233 26.9894 25.3332C28.9972 25.795 28.5789 27.6842 28.6626 30.1611C28.7044 32.6379 32.3016 34.779 31.465 37.3398C30.6285 39.9007 28.9554 39.9846 29.2063 41.9577C29.3736 43.3431 31.7578 46.4917 33.0545 48.8846C33.0963 48.9686 33.1381 49.0526 33.18 49.0945C33.5564 49.9342 33.8074 50.6898 33.7237 51.2356Z" fill="#04E061"/>
        <path d="M33.096 49.0525C31.4229 51.4035 27.7839 53.0407 27.3656 53.2087C27.3237 53.2087 27.2819 53.2506 27.2401 53.2506C27.1564 53.2506 27.0728 53.2087 27.031 53.1667C26.9473 53.0827 26.8636 52.9568 26.9055 52.8308C27.1146 51.3195 26.78 47.6252 26.4454 44.3926C26.1944 41.8738 25.9853 39.5228 26.0689 38.4733C26.1107 37.4238 25.8179 36.3322 25.4833 35.2407C25.065 33.6874 24.5631 31.9662 24.9814 29.9511C25.316 28.2299 24.3121 25.795 23.4756 24.1997C23.6011 24.2417 23.6847 24.2837 23.8102 24.3257C24.5213 25.669 25.6088 28.1459 25.2324 29.9931C24.8141 31.9242 25.316 33.5615 25.7343 35.1568C26.0689 36.2903 26.3617 37.3818 26.3199 38.4733C26.278 39.5228 26.4872 41.8738 26.6963 44.3506C26.9891 47.5832 27.3656 51.2775 27.1564 52.8308C27.1564 52.9148 27.1983 52.9148 27.1983 52.9568C27.1983 52.9568 27.2819 52.9988 27.3237 52.9568C27.742 52.7888 31.4229 51.1096 33.0123 48.7587C33.0123 48.8846 33.0542 48.9686 33.096 49.0525Z" fill="#231F20"/>
        <path d="M28.3279 30.0769C28.4534 31.966 30.0428 33.1415 30.8375 34.7368C31.9251 36.8358 30.6284 38.767 29.3317 40.4042C29.2481 40.5302 29.4154 40.6981 29.4991 40.5721C30.6702 39.1028 31.9669 37.2976 31.3395 35.3245C30.7539 33.3934 28.6625 32.1759 28.537 30.0769C28.5788 29.9089 28.3279 29.9089 28.3279 30.0769Z" fill="#231F20"/>
        <path d="M10.4254 12.6548C10.4254 12.6548 12.0986 18.2383 9.96533 20.2114L26.4455 20.5473C26.4455 20.5473 23.8103 14.8378 24.856 11.2694C25.9017 7.74302 10.7182 10.3458 10.4254 12.6548Z" fill="#FF4053"/>
        <path d="M15.1937 20.2954C15.1937 20.2954 14.9428 17.7765 12.0566 15.3836C9.17052 12.9907 9.75611 7.44916 13.6879 5.3501C14.6918 4.80435 15.612 4.80435 16.1558 4.42652C19.6275 1.99161 23.1828 4.72038 24.7723 6.60953C26.6545 8.83453 24.9814 10.6817 24.3958 12.5709C23.7684 14.418 15.1937 20.2954 15.1937 20.2954Z" fill="#FF4053"/>
        <path d="M14.0225 24.0316C15.1518 25.7528 21.5515 30.2868 21.2587 24.1156L20.8404 22.0165L20.4221 19.7076L20.1293 18.0703L15.1518 15.2156L14.0225 24.0316Z" fill="#FFCAB7"/>
        <path d="M16.2395 17.9026C18.3727 21.9328 20.3805 23.3182 21.0497 23.2342L20.4223 19.6658L16.2395 17.9026Z" fill="#1C2F35"/>
        <path d="M13.5624 14.082C14.0225 15.7193 14.4827 16.2231 15.6957 17.8184C16.7832 19.2457 18.5818 19.9174 19.5438 20.0014C22.9319 20.2533 24.5213 18.8679 24.103 14.25C23.8521 11.3953 24.6468 9.75799 23.8939 8.66648C23.8521 8.6245 23.8103 8.58252 23.7266 8.49856C22.5554 7.32309 20.9241 6.69337 19.251 6.69337C11.0109 6.65139 12.8932 11.7731 13.5624 14.082Z" fill="#FFCAB7"/>
        <path d="M19.9622 15.4675L22.681 15.5935C22.681 15.5935 22.3045 16.9788 21.3843 17.0208C20.3804 17.0208 19.9622 15.4675 19.9622 15.4675Z" fill="white"/>
        <path d="M22.0954 11.9415C22.43 11.6476 22.932 11.7315 23.1829 12.1094C23.3502 12.3613 23.7685 12.1514 23.6012 11.8995C23.1829 11.2698 22.3882 11.1018 21.7608 11.6056C21.5517 11.7735 21.8863 12.1514 22.0954 11.9415Z" fill="#1C2F35"/>
        <path d="M20.2133 11.8991C19.8368 11.6472 19.3349 11.7312 19.1257 12.109C18.9584 12.3609 18.5402 12.151 18.7075 11.8991C19.0839 11.2274 19.9205 11.0595 20.5061 11.5213C20.757 11.7312 20.4642 12.0671 20.2133 11.8991Z" fill="#1C2F35"/>
        <path d="M19.6274 13.1168C19.6274 13.3267 19.7948 13.5366 19.9621 13.5366C20.1294 13.5366 20.2549 13.3267 20.2549 13.1168C20.2549 12.9069 20.0875 12.697 19.9202 12.697C19.7529 12.697 19.6274 12.8649 19.6274 13.1168Z" fill="#1C2F35"/>
        <path d="M22.4302 13.1168C22.4302 13.3267 22.5975 13.5366 22.7648 13.5366C22.9321 13.5366 23.0576 13.3267 23.0576 13.1168C23.0576 12.9069 22.8903 12.697 22.723 12.697C22.5557 12.697 22.4302 12.8649 22.4302 13.1168Z" fill="#1C2F35"/>
        <path d="M21.677 14.9637C21.8861 14.9217 22.2626 14.7957 22.2626 14.4179C22.2626 14.0401 21.928 13.8721 21.7188 13.8302L21.5515 13.3264C21.5097 13.2844 21.4678 13.2424 21.3842 13.2424C21.3424 13.2844 21.3005 13.3264 21.3005 13.4104L21.5097 13.9561C21.5097 13.9981 21.5515 14.0401 21.5933 14.0401C21.5933 14.0401 22.0116 14.0821 22.0116 14.4179C22.0116 14.7118 21.6352 14.7538 21.6352 14.7538C21.5933 14.7538 21.5097 14.8377 21.5515 14.8797C21.5933 14.9217 21.6352 14.9637 21.677 14.9637Z" fill="#1C2F35"/>
        <path d="M23.3501 7.15564C23.3501 7.15564 25.5251 8.87687 24.6467 9.38064C23.8102 9.88441 20.464 5.93819 17.2432 10.2622C16.4485 11.3538 17.1177 12.6552 15.0263 13.075C12.9349 13.4948 12.5585 13.2849 12.182 11.4797C11.8056 9.67451 14.0225 5.77026 18.3307 5.77026C22.639 5.85423 23.3501 7.15564 23.3501 7.15564Z" fill="#FF4053"/>
        <path d="M16.4484 5.14047C17.8705 5.56029 19.2508 6.23198 20.1711 7.40745C20.2547 7.5334 20.422 7.36547 20.3384 7.23953C19.3763 6.02208 17.9542 5.35038 16.532 4.93057C16.3647 4.88859 16.2811 5.09849 16.4484 5.14047Z" fill="#231F20"/>
        <path d="M20.8405 7.82701C20.8405 7.82701 20.3385 11.9831 15.9884 12.0251C11.5965 12.0251 15.2355 6.02182 20.8405 7.82701Z" fill="#FF4053"/>
        <path d="M14.3572 8.83468C14.8591 8.91865 15.7375 9.25449 16.1558 9.63232C16.1976 10.8918 17.0341 14.1663 15.6538 14.5021C13.5624 14.9219 13.5624 16.3913 12.6422 12.8649C12.2658 11.5215 12.3912 9.71629 13.0605 8.70874C13.4369 8.75072 13.897 8.7927 14.3572 8.83468Z" fill="#FF4053"/>
        <path d="M16.8671 15.2995C17.0344 14.7118 16.9089 14.0401 16.5743 13.5363C16.1142 12.8646 15.2358 11.8151 14.4829 11.983C13.3117 12.1929 13.2281 13.2005 13.3536 14.292C13.479 15.3415 14.2319 16.7269 15.6541 16.433C16.3652 16.2651 16.6998 15.8033 16.8671 15.2995Z" fill="#FFCAB7"/>
        <path d="M15.4867 16.3073C15.4867 16.937 14.9848 17.4408 14.3574 17.4408C13.73 17.4408 13.228 16.937 13.228 16.3073C13.228 15.6776 13.73 15.1738 14.3574 15.1738C14.9848 15.2158 15.4867 15.7196 15.4867 16.3073Z" fill="#965EEB"/>
        <path d="M15.3192 15.1317C15.361 14.7119 15.4028 14.2501 15.2355 13.8303C15.11 13.4525 14.6917 12.9067 14.1898 13.0747C14.0225 13.1166 13.9388 12.9067 14.0643 12.8228C14.5244 12.6549 14.9427 12.9487 15.2355 13.3266C15.612 13.8723 15.6538 14.544 15.5701 15.1737C15.5701 15.3416 15.2773 15.2997 15.3192 15.1317Z" fill="#1C2F35"/>
        <path d="M19.1674 10.4719C19.1674 10.4719 18.8328 11.2696 17.7453 12.613C16.6996 13.8724 17.1597 14.8799 17.4107 16.2233C17.8289 18.2804 15.6121 18.2804 15.6121 18.2804C15.6121 18.2804 17.1179 17.1889 16.114 15.0479C15.3611 13.4106 15.7794 11.1016 16.7414 10.8078C17.7453 10.5559 19.1674 10.4719 19.1674 10.4719Z" fill="#FF4053"/>
        <path d="M4.86232 27.5163C4.86232 27.5163 -1.11906 43.3012 -0.11519 48.9687C1.55792 58.3305 22.5555 45.7781 22.9319 44.0149L21.0497 41.3281C21.0497 41.3281 9.75617 44.6026 9.00327 44.1408C8.25037 43.6791 12.6841 33.0159 12.6841 33.0159C12.6841 33.0159 9.88166 25.5432 4.86232 27.5163Z" fill="#04E061"/>
        <path d="M20.2132 41.4118C15.654 42.7552 9.83993 44.3085 9.17069 44.0986C9.21251 43.301 10.9693 37.4236 12.1823 33.5613C12.2241 33.4774 12.1823 33.3934 12.0568 33.3514C11.9731 33.3095 11.8895 33.3514 11.8477 33.4774C11.5549 34.4849 8.75241 43.3429 8.83606 44.1826C8.83606 44.2665 8.87789 44.3085 8.96155 44.3505C9.00338 44.3925 9.0452 44.3925 9.17069 44.4344C9.58896 44.4764 10.9693 44.3505 16.0304 42.9651C17.5781 42.5453 19.1257 42.0835 20.2969 41.7477C20.3805 41.7477 20.4224 41.6637 20.4224 41.5797C20.4224 41.4538 20.2969 41.4118 20.2132 41.4118Z" fill="#231F20"/>
        <path d="M5.90784 27.3064C7.99923 26.9286 10.2998 28.1461 11.0108 30.2031C11.0945 30.413 11.3873 30.2451 11.3036 30.0352C10.5507 27.8522 8.04106 26.5928 5.82419 26.9706C5.65687 27.0126 5.6987 27.3064 5.90784 27.3064Z" fill="#231F20"/>
        <path d="M20.5057 41.8737C20.5057 41.8737 22.4716 36.71 22.9317 36.2482C23.3918 35.8284 28.5366 35.8284 29.0386 35.7025C29.5823 35.5765 29.2895 36.5421 28.3275 36.668C27.4073 36.794 25.6923 37.2558 25.6923 37.2558C25.6923 37.2558 27.2818 37.1298 27.5746 37.5076C27.8674 37.8855 29.2059 40.4883 28.8294 41.7058C28.453 42.9652 26.989 43.0072 26.5289 43.0911C26.0688 43.1751 26.5289 41.9157 26.5289 41.9157C26.5289 41.9157 26.027 42.1256 25.2741 42.2095C24.563 42.2935 23.601 43.7209 22.8481 44.0147C21.5096 44.6864 19.8783 42.2515 20.5057 41.8737Z" fill="#FFCAB7"/>
    </g>
</svg>
