<svg width="37" height="37" viewBox="0 0 37 37" fill="none" xmlns="http://www.w3.org/2000/svg">
    <circle cx="18.3097" cy="18.4637" r="18.0001" fill="#04E061"/>
    <mask id="mask0_153_56522" style="mask-type:alpha" maskUnits="userSpaceOnUse" x="0" y="0" width="37" height="37">
        <circle cx="18.3097" cy="18.4637" r="18.0001" fill="#FF4053"/>
    </mask>
    <g mask="url(#mask0_153_56522)">
        <path d="M-2.7643 32.186L-2.82979 32.605L-2.89528 32.9917C-2.92802 33.2495 -2.96077 33.5073 -2.99351 33.7651C-3.02625 34.2808 -3.09174 34.7964 -3.12448 35.312C-3.15723 35.8276 -3.15723 36.3755 -3.15723 36.9233C-3.15723 37.4712 -3.12448 38.0513 -3.02625 38.6313C-2.92802 39.2437 -2.82979 39.8882 -2.5351 40.5972C-2.40413 40.9517 -2.20766 41.3706 -1.91297 41.7895C-1.782 42.0151 -1.58554 42.2407 -1.38908 42.4341C-1.19261 42.6597 -0.930665 42.8852 -0.60323 43.0786C-0.308538 43.272 0.051641 43.4653 0.41182 43.5942C0.771999 43.7231 1.16492 43.8198 1.5251 43.852C2.2782 43.9165 2.93307 43.8198 3.45697 43.6587C3.71892 43.5942 3.94812 43.4976 4.17733 43.4009L4.43928 43.272L4.70122 43.1431C5.02866 42.9497 5.3561 42.7563 5.65079 42.5308C5.94548 42.3374 6.20743 42.1118 6.43663 41.8862C6.69858 41.6606 6.92778 41.4673 7.12425 41.2417C7.54991 40.8228 7.94283 40.3716 8.30301 39.9204C9.02337 39.0503 9.6455 38.148 10.2349 37.2456C10.7915 36.3433 11.3154 35.4409 11.8066 34.5386C12.0358 34.0874 12.2977 33.6362 12.4942 33.1528C12.5924 32.9273 12.7234 32.7017 12.8216 32.4439L12.9853 32.0894L13.1491 31.7026C13.8694 30.0591 13.1163 28.1577 11.4464 27.4165C9.77647 26.7075 7.8446 27.4488 7.0915 29.0923L7.05876 29.1568L6.92778 29.4146L6.79681 29.7046C6.69858 29.898 6.60035 30.0913 6.50212 30.2847C6.30566 30.6714 6.1092 31.0903 5.91273 31.4771C5.48707 32.2505 5.0614 33.0239 4.60299 33.7329C4.14458 34.4419 3.65343 35.1509 3.16228 35.7632C2.90033 36.0532 2.67112 36.3433 2.40918 36.6011C2.34369 36.6655 2.2782 36.73 2.21272 36.7944C2.14723 36.6011 2.11448 36.4077 2.049 36.2144C1.95077 35.8276 1.88528 35.4087 1.78705 34.9575C1.72156 34.5386 1.65607 34.0874 1.62333 33.6362C1.59059 33.4107 1.59059 33.1851 1.55784 32.9595L1.5251 32.315V32.1538C1.42687 30.9614 0.379076 30.0913 -0.799691 30.1558C-1.81474 30.4458 -2.63333 31.2193 -2.7643 32.186Z" fill="#F5C0AF"/>
        <path d="M9.18703 26.9011L8.69588 39.7273C8.69588 39.7273 7.74632 41.4675 6.17463 42.8855C6.10914 42.9499 6.04365 42.9821 5.97817 43.0466C5.58524 43.4011 5.12683 43.7234 4.63568 43.9812C3.91532 44.3679 3.09674 44.6257 2.17992 44.5935C1.32858 44.5612 0.640969 44.3679 0.0515854 44.1101C-0.603286 43.7878 -1.12718 43.3689 -1.52011 42.9499C-1.58559 42.8855 -1.61834 42.821 -1.68382 42.7566C-2.53515 41.7575 -2.7971 40.7263 -2.7971 40.7263C-2.7971 40.7263 -3.22277 40.6618 -3.61569 39.7917C-4.04136 38.9216 -3.02631 38.4704 -3.02631 38.4704L-2.89533 39.3083C-1.97851 39.2761 1.88522 35.0867 1.88522 35.0867C1.88522 35.0867 2.04894 34.9255 2.14717 35.0544C2.2454 35.2156 2.14717 35.6345 2.14717 35.6345L2.2454 35.9245L2.50735 36.698C2.50735 36.698 2.96576 36.0212 3.55514 35.0544C3.62063 34.9577 3.65337 34.8933 3.71886 34.7966C4.40648 33.6687 5.25781 32.2185 5.84719 31.0583C5.91268 30.9617 5.94542 30.865 5.97817 30.7683C6.20737 30.2849 6.37109 29.8337 6.46932 29.5115C6.89499 27.6423 8.20473 23.9041 8.20473 23.9041L9.18703 26.9011Z" fill="#00AAFF"/>
        <path d="M7.32071 37.9546C6.96053 38.8569 5.97823 38.9536 5.3561 38.2768C4.96318 37.8579 4.66848 37.3423 4.40654 36.8267C4.0791 36.2788 3.81715 35.6987 3.5552 35.1186C3.5552 35.1186 3.5552 35.0864 3.52246 35.0864C3.58795 34.9897 3.62069 34.9253 3.68618 34.8286C3.78441 35.0542 3.88264 35.2476 3.98087 35.4731C4.27556 36.0854 4.603 36.6977 4.96318 37.2778C5.29061 37.7934 5.84725 38.8247 6.6331 38.4058C7.35346 38.019 7.25522 36.9878 7.22248 36.311C7.18974 35.5698 7.05876 34.8286 6.8623 34.1196C6.60035 33.0884 6.20743 32.0571 5.81451 31.0903C5.88 30.9937 5.91274 30.897 5.94548 30.8003C6.43664 31.9604 6.8623 33.1528 7.15699 34.3774C7.28797 34.9897 7.41894 35.6343 7.45169 36.2788C7.51717 36.7944 7.54992 37.439 7.32071 37.9546Z" fill="#00AAFF"/>
        <path d="M2.21293 35.9565C1.23063 37.7934 -2.82957 40.6938 -2.82957 40.6938C-2.82957 40.6938 -3.25524 40.6293 -3.64816 39.7592C-4.07383 38.8891 -3.05878 38.4379 -3.05878 38.4379L-2.9278 39.2758C-2.01099 39.2436 1.85275 35.0541 1.85275 35.0541C1.85275 35.0541 2.01647 34.893 2.1147 35.0219C2.21293 35.183 2.1147 35.602 2.1147 35.602L2.21293 35.9565Z" fill="white"/>
        <path d="M0.542572 27.7066C0.542572 27.7066 0.477086 27.7066 0.70629 27.2876C1.09921 26.6109 0.739034 25.3541 1.19744 24.9996C1.78683 24.5484 2.04878 25.7085 2.34347 27.9644C2.40895 28.5767 2.01603 30.607 1.75408 31.2193C1.55762 31.7027 1.52488 32.3472 1.19744 32.605C0.215137 33.3462 -2.20788 33.314 -2.53532 32.7662C-3.09196 31.9927 -3.22293 30.1558 -3.51763 29.5113C-3.81232 28.8345 -5.1548 24.355 -4.63091 24.4517C-4.10701 24.5484 -3.28842 26.6109 -3.28842 26.6109C-3.28842 26.6109 -4.10701 23.0982 -3.55037 22.9693C-2.99373 22.8404 -2.27337 26.1275 -2.27337 26.1275C-2.27337 26.1275 -2.8955 21.7125 -2.10965 21.938C-1.71673 22.0347 -1.02912 25.9986 -1.02912 25.9986C-1.02912 25.9986 -1.29107 23.4205 -0.210529 23.4527C0.935495 23.5171 1.36116 24.774 1.36116 24.774C1.36116 24.774 1.23019 25.5474 0.346112 24.774C-0.40699 24.065 0.542572 27.7066 0.542572 27.7066Z" fill="#F5C0AF"/>
        <path d="M-1.06163 33.4428C-1.65101 33.4428 -2.30588 33.3461 -3.02624 33.0883C-3.25545 33.0239 -3.35368 32.7661 -3.28819 32.5727C-3.2227 32.3471 -2.96075 32.2504 -2.76429 32.3149C-0.34127 33.1528 1.32865 31.9282 1.36139 31.8959C1.55786 31.767 1.8198 31.7993 1.95078 31.9604C2.08175 32.1538 2.04901 32.4116 1.88529 32.5405C1.8198 32.6049 0.706523 33.4428 -1.06163 33.4428Z" fill="#303030"/>
        <path d="M29.6844 39.0503C29.6844 39.1792 29.6844 39.4692 29.6516 39.5981C29.4224 41.0805 29.2259 41.5317 29.1605 42.5952C29.1277 43.0786 28.9967 43.6587 28.9313 44.1421C28.8985 44.561 28.8003 45.0766 28.702 45.6889C28.6038 46.3335 28.4728 47.0747 28.3419 47.9126C28.3091 48.2026 28.2436 48.4926 28.2109 48.7827C28.2109 48.8793 28.1782 48.9438 28.1782 49.0405C28.1454 49.2016 28.1454 49.3627 28.1127 49.5239V50.4907C27.8835 52.1665 27.7525 53.7778 27.6215 55.0346C27.6215 55.1313 27.5888 55.1957 27.5888 55.2924C27.4905 56.0014 27.3923 56.5815 27.2286 56.9682C27.2286 56.9682 27.2286 56.9682 27.1958 56.9682H27.1631H27.1304H27.0976C27.0976 56.9682 27.0976 56.9682 27.0649 56.9682C27.0321 56.9682 27.0321 56.9682 27.0321 56.9682C27.0321 56.9682 27.0321 56.9682 26.9994 56.9682C26.9339 57.0004 26.8029 57.0649 26.7374 57.0971C26.7374 57.0971 26.7374 57.0971 26.7047 57.0971C26.0171 57.3871 25.3295 57.6127 24.6418 57.8383C23.8233 58.0639 23.0047 58.2573 22.1861 58.3862C22.0224 58.4184 21.8914 58.4184 21.7277 58.4506H21.6949C21.171 58.5151 20.6799 58.5795 20.156 58.6118C19.9595 58.6118 19.7631 58.644 19.5993 58.644C18.9117 58.6762 18.2241 58.6762 17.5692 58.644C17.5038 58.644 17.4055 58.644 17.34 58.644C16.5869 58.6118 15.8338 58.5151 15.1135 58.4184C15.048 58.4184 14.9498 58.3862 14.8843 58.3862H14.8515C14.7206 58.3539 14.6223 58.3539 14.4913 58.3217C14.0984 58.2573 13.7055 58.1606 13.3126 58.0961C13.1816 58.0639 13.0506 58.0317 12.9197 57.9995C11.4789 57.645 10.1365 57.1616 8.92495 56.5815C8.82672 56.5493 8.76123 56.4848 8.663 56.4526C8.59751 56.4204 8.53202 56.3881 8.46654 56.3559C8.46654 56.3559 8.43379 56.3559 8.43379 56.3237C8.04087 56.1303 7.68069 55.9047 7.32051 55.6791C7.28777 55.6791 7.28777 55.6469 7.25502 55.6469C6.79662 55.3569 6.37095 55.0346 5.97803 54.6801C6.07626 54.0678 6.20723 53.3911 6.30546 52.7465C6.33821 52.6176 6.37095 52.4565 6.37095 52.3276C6.43644 51.9409 6.50192 51.5541 6.56741 51.1997C6.73113 50.4584 6.8621 49.6528 7.02582 48.8793V48.8471C7.05856 48.5893 7.12405 48.3315 7.15679 48.0737C7.18954 47.9126 7.22228 47.7514 7.25502 47.5903C7.51697 46.1079 7.74618 44.6899 7.94264 43.562C7.97538 43.4331 7.97538 43.3042 8.00813 43.1753C8.04087 42.9174 8.07361 42.6596 8.10636 42.434C8.17184 41.9506 8.23733 41.4673 8.30282 41.0161C8.36831 40.5649 8.40105 40.1137 8.46654 39.6948C8.53202 39.2114 8.56477 38.728 8.59751 38.2768C8.63025 38.019 8.63025 37.7934 8.663 37.5356C8.663 37.4389 8.663 37.31 8.69574 37.2134C8.69574 37.1167 8.69574 37.02 8.69574 36.9233C8.69574 36.8911 8.69574 36.8589 8.69574 36.8589C8.69574 36.73 8.69574 36.6333 8.69574 36.5044C8.72849 36.1177 8.72848 35.7632 8.72848 35.4087C8.72848 34.603 8.72848 33.8618 8.72848 33.1528C8.72848 33.0239 8.72848 32.895 8.72848 32.7983C8.69574 31.5737 8.59751 30.5102 8.49928 29.5757C8.49928 29.479 8.46654 29.3501 8.46654 29.2534C8.23733 27.2231 7.94264 25.8696 7.97538 24.9351C7.97538 24.7739 8.00813 24.6128 8.04087 24.4839C8.07361 24.2261 8.17184 24.0327 8.23733 23.8393C8.33556 23.646 8.43379 23.4849 8.53202 23.3237C8.95769 22.7759 9.54707 22.4858 10.2019 22.2603C10.2674 22.228 10.3657 22.1958 10.4311 22.1958C10.6604 22.1313 10.8568 22.0669 11.086 22.0024C11.1515 21.9702 11.2497 21.9702 11.3152 21.938C11.5772 21.8735 11.8064 21.8091 12.0683 21.7124C12.2648 21.6479 12.4612 21.5835 12.625 21.519C12.6905 21.4868 12.7887 21.4546 12.8542 21.4224C12.9197 21.3901 13.0179 21.3579 13.0834 21.3257C13.1816 21.2935 13.2798 21.229 13.3781 21.1968C13.8692 20.939 14.3276 20.5845 14.7206 20.0688C14.7533 20.0044 14.8188 19.9399 14.8515 19.8755H20.5489C20.5489 19.8755 20.8763 20.1333 21.4985 20.4878C21.564 20.52 21.6294 20.5522 21.7277 20.6167C21.7604 20.6489 21.8259 20.6489 21.8586 20.6812C21.9241 20.7134 21.9569 20.7456 22.0224 20.7456C22.0551 20.7456 22.0879 20.7778 22.1206 20.7778C22.3171 20.8745 22.5135 20.9712 22.7427 21.0356C22.9392 21.1001 23.1684 21.1968 23.3976 21.2612C23.4631 21.2935 23.5286 21.2935 23.6268 21.3257C23.7905 21.3579 23.9215 21.4224 24.0852 21.4546C24.1834 21.4868 24.2489 21.4868 24.3472 21.519C24.5436 21.5513 24.7401 21.5835 24.9693 21.6157C25.3622 21.6802 25.7551 21.8091 26.1153 21.9702C26.1808 22.0024 26.279 22.0347 26.3445 22.0991C26.5737 22.228 26.8357 22.4214 27.0321 22.6147C27.1631 22.7114 27.2613 22.8403 27.3596 22.9692C27.4905 23.1304 27.6215 23.2915 27.7525 23.4526C27.9162 23.6782 28.0472 23.936 28.1782 24.1938C28.2109 24.2905 28.2764 24.3872 28.3091 24.4517C28.833 25.644 29.1605 27.1909 29.2914 29.0278C29.3569 30.0268 29.4224 30.9936 29.4879 31.9604C29.4879 32.0571 29.4879 32.186 29.5206 32.2827C29.5534 32.6372 29.5534 32.9917 29.5861 33.3462C29.6189 33.9907 29.6516 34.6352 29.6844 35.2798C29.6844 35.4087 29.6844 35.5376 29.7171 35.6665C29.7171 35.9565 29.7498 36.2143 29.7498 36.4721C29.7498 37.1167 29.7498 37.6645 29.7498 38.4057C29.6844 38.5346 29.6844 38.9858 29.6844 39.0503Z" fill="#00AAFF"/>
        <path d="M26.3118 22.1311C25.9516 22.5823 25.5914 23.0012 25.1657 23.4202C24.7401 23.8391 24.2817 24.2258 23.7578 24.5803C23.2994 24.9026 22.71 25.2248 22.1206 25.1282C21.0401 24.9348 20.9091 23.6135 20.9418 22.7434C20.9746 21.97 21.2038 21.2288 21.4985 20.5198C21.5639 20.552 21.6294 20.5842 21.7277 20.6487C21.433 21.261 21.2693 21.9377 21.2038 22.6145C21.1383 23.5813 21.3347 25.2571 22.7755 24.8059C23.3321 24.6125 23.856 24.1936 24.3144 23.8069C24.7073 23.4846 25.1002 23.0979 25.4604 22.7112C25.6896 22.4856 25.8861 22.2278 26.0826 21.97C26.148 22.0344 26.2135 22.0666 26.3118 22.1311Z" fill="#00AAFF"/>
        <path d="M25.8202 56.6455C25.8857 56.6455 25.9185 56.6132 25.9512 56.5488C29.7495 42.917 27.4247 28.8018 27.3919 28.6406C27.3919 28.5762 27.3264 28.5439 27.2609 28.5439C27.1955 28.5439 27.1627 28.6084 27.1627 28.6729C27.1955 28.8018 29.5202 42.8847 25.722 56.4843C25.6893 56.5488 25.722 56.6132 25.8202 56.6455Z" fill="#303030"/>
        <path d="M12.1012 13.5588C12.1012 13.5588 10.8897 13.72 10.595 12.8498C10.3003 11.9475 11.3481 11.2707 10.1366 10.3362C8.92511 9.4016 7.84457 7.37133 9.31803 6.27563C10.7587 5.17993 11.2826 6.98461 12.4942 5.56665C13.6729 4.18091 14.557 3.98755 15.6703 3.98755C16.8163 3.98755 17.7659 5.37329 19.3703 5.27661C21.0075 5.21216 22.1535 7.24243 21.4986 8.3059C20.7128 9.65941 20.9747 9.30492 21.0402 10.5295C21.1057 11.7541 20.1889 12.6565 19.2066 12.5276C18.257 12.4309 12.1012 13.5588 12.1012 13.5588Z" fill="#303030"/>
        <path d="M20.6472 19.5207C20.4507 20.5198 18.9117 21.7121 18.0604 22.0022C16.7507 22.4211 15.3754 22.3245 14.3277 21.7766L14.1312 19.7786L14.0984 19.3918L14.033 18.6184L18.6171 15.0735L18.879 14.8801L19.0427 14.7512L19.1082 14.9124L19.2064 15.1057L19.1737 15.2024C19.7303 17.0715 19.7958 18.1995 20.6472 19.5207Z" fill="#F5C0AF"/>
        <path d="M14.2294 21.1318C16.1285 20.5195 17.0781 18.9727 17.471 17.9736C16.5869 18.8115 15.4736 19.3916 14.4258 19.3916C14.3276 19.3916 14.1966 19.3916 14.0984 19.3594L14.2294 21.1318Z" fill="#303030"/>
        <path d="M11.348 13.0757C11.348 13.0757 10.7587 13.1724 10.7259 13.9136C10.6932 14.6548 11.1843 15.8794 11.9047 15.6538C12.6578 15.4604 11.348 13.0757 11.348 13.0757Z" fill="#B6665E"/>
        <path d="M19.3372 15.3636C19.3045 15.3958 19.3045 15.3958 19.3372 15.3636C19.3045 15.4281 19.2718 15.4925 19.2718 15.557C19.2718 15.5892 19.2718 15.6214 19.239 15.6537C19.2063 15.7826 19.1735 15.8792 19.108 16.0081C18.4204 17.8773 16.1611 19.8431 14.2292 19.7464C14.0983 19.7464 14 19.7142 13.9018 19.7142C12.0027 19.4242 11.3806 17.3617 11.4788 15.7826C11.4788 15.7181 11.4788 15.6537 11.4788 15.5892C11.4788 15.5892 11.4788 15.4925 11.446 15.2992C11.4133 15.138 11.4133 14.9447 11.3806 14.7191C11.2823 14.0101 11.1186 12.9466 10.8894 11.8831C10.4965 10.0462 11.5443 7.24253 15.3098 6.34019C18.3222 5.63121 19.9594 7.17808 20.516 8.82163C20.647 9.24057 20.7125 9.65952 20.7452 10.0462C20.7452 10.5296 20.6797 11.1097 20.5488 11.6898C20.9089 11.6898 21.3019 11.8509 21.5638 12.4632C21.9895 13.6234 20.6797 15.138 19.3372 15.3636Z" fill="#F5C0AF"/>
        <path d="M20.5161 11.6898C19.8284 12.1409 19.4028 12.2376 19.4028 12.2376L18.6497 13.2366L17.7656 12.721C17.7656 12.721 18.1258 11.5931 17.5037 11.2386C16.9143 10.9163 17.1435 10.1751 17.1435 10.1751C17.1435 10.1751 19.5665 8.78937 20.5161 8.8216C20.647 9.24054 20.7125 9.65949 20.7453 10.0462C20.7453 10.5618 20.647 11.1097 20.5161 11.6898Z" fill="#303030"/>
        <path d="M10.7913 9.75639C10.7913 9.75639 13.3453 7.8228 14.9497 8.40288C16.5214 8.98296 17.1763 10.1753 17.1763 10.1753C17.1763 10.1753 20.1559 10.5621 20.778 9.78862C21.4329 9.01519 20.3524 6.1148 18.0603 5.69585C15.7683 5.24468 12.4612 6.1148 10.7913 9.75639Z" fill="#303030"/>
        <path d="M12.1012 13.6234C12.1667 13.8812 12.2976 14.0746 12.4286 14.0423C12.5596 14.0101 12.6251 13.7845 12.5923 13.5267C12.5268 13.2689 12.3959 13.0755 12.2649 13.1078C12.1339 13.1078 12.0357 13.3333 12.1012 13.6234Z" fill="#303030"/>
        <path d="M12.8868 13.301C12.9196 13.2688 12.9196 13.2688 12.8868 13.301C12.9523 13.2365 12.9196 13.2043 12.8868 13.1721C12.8541 13.1721 12.1665 12.7854 11.6426 13.2365C11.6426 13.2688 11.6426 13.301 11.6426 13.3332C11.6753 13.3654 11.7081 13.3654 11.7408 13.3332C12.1992 12.9465 12.8213 13.2688 12.8213 13.2688C12.8541 13.301 12.8868 13.301 12.8868 13.301Z" fill="#303030"/>
        <path d="M18.3226 15.2988C18.4208 15.4277 18.519 15.4921 18.65 15.5566C18.8464 15.6532 19.0757 15.6855 19.2394 15.6855C19.2394 15.6532 19.2394 15.621 19.2721 15.5888C19.3049 15.5243 19.3049 15.4599 19.3049 15.3954H19.3376C19.3049 15.3954 19.2394 15.3954 19.1739 15.3954C19.1084 15.3954 19.0102 15.3954 18.9119 15.3632C18.781 15.331 18.65 15.2665 18.519 15.1376C18.4535 15.0732 18.388 15.0732 18.3226 15.1054C18.2571 15.1376 18.2571 15.2343 18.3226 15.2988Z" fill="#B6665E"/>
        <path d="M13.9019 19.7143C14.0001 19.7466 14.1311 19.7466 14.2293 19.7466C16.1939 19.8433 18.4205 17.8774 19.1081 16.0083C19.0426 15.7827 18.9117 15.5894 18.617 15.5249V13.2046L17.7329 12.689C17.7329 12.689 17.209 14.8159 16.4886 14.977C15.7683 15.1382 14.0656 15.0415 13.4107 15.5249C13.4107 15.5249 12.1992 15.2349 11.4789 15.7505C11.3806 17.3618 12.0028 19.4243 13.9019 19.7143Z" fill="#303030"/>
        <path d="M14.8516 15.5247C14.8516 15.5247 14.9825 16.7815 13.9347 16.9749C12.8869 17.2004 12.625 16.2014 12.625 16.2014L14.8516 15.5247Z" fill="white"/>
        <path d="M14.1966 17.4259C14.3931 17.3615 14.4913 17.2004 14.4913 17.2004C14.524 17.1681 14.4913 17.1037 14.4586 17.0715C14.4258 17.0392 14.3603 17.0715 14.3276 17.1037C14.3276 17.1037 14.1966 17.297 13.9347 17.2648C13.8692 17.2648 13.8364 17.297 13.8364 17.3615C13.8364 17.4259 13.8692 17.4582 13.9347 17.4582C14.0329 17.4582 14.1311 17.4582 14.1966 17.4259Z" fill="#5F5F75"/>
        <path d="M19.5339 14.3967C19.5994 14.3644 19.6321 14.3322 19.6321 14.2678C19.6648 13.2687 20.7781 12.6887 20.7781 12.6564C20.8436 12.6242 20.8763 12.5275 20.8436 12.4631C20.8109 12.3986 20.7126 12.3664 20.6471 12.3986C20.5817 12.4309 19.3701 13.0754 19.3374 14.2355C19.3374 14.3 19.4029 14.3644 19.4684 14.3967C19.5011 14.3967 19.5339 14.3967 19.5339 14.3967Z" fill="#B6665E"/>
        <path d="M20.6797 13.6558C20.7125 13.6558 20.7125 13.6558 20.7125 13.6236C20.7779 13.5591 20.7779 13.4947 20.7452 13.4302C20.7452 13.398 20.385 13.0435 19.8284 13.1402C19.7629 13.1402 19.6974 13.2369 19.7301 13.3013C19.7301 13.3658 19.8284 13.4302 19.8939 13.398C20.2868 13.3335 20.5487 13.5914 20.5487 13.5914C20.5487 13.6558 20.6142 13.688 20.6797 13.6558Z" fill="#B6665E"/>
        <path d="M13.3127 15.2346C13.3454 15.2346 13.3782 15.2024 13.3782 15.1702C13.4109 15.1057 13.3782 15.0091 13.3127 14.9768L12.4941 14.5257L13.149 14.2356C13.1817 14.2034 13.2144 14.1712 13.2144 14.1389L13.7383 12.4309C13.7711 12.3665 13.7056 12.2698 13.6401 12.2698C13.5746 12.2376 13.4764 12.302 13.4764 12.3665L12.9525 14.01L12.1012 14.3968C12.0357 14.429 12.0357 14.4612 12.0029 14.5257C12.0029 14.5901 12.0357 14.6223 12.0684 14.6546L13.149 15.2669C13.2144 15.2346 13.2472 15.2346 13.3127 15.2346Z" fill="#B6665E"/>
        <path d="M15.6045 12.0765C15.67 12.0442 15.7027 12.012 15.7682 11.9798C15.9319 11.8187 15.8992 11.5931 15.7682 11.4319C15.7355 11.3997 14.8514 10.5618 13.8036 11.0775C13.6071 11.1741 13.5089 11.3997 13.6071 11.5931C13.7054 11.7864 13.9346 11.8831 14.131 11.7864C14.6877 11.5286 15.2116 12.012 15.2116 12.012C15.3098 12.0765 15.4735 12.1087 15.6045 12.0765Z" fill="#303030"/>
        <path d="M11.5443 12.5601C11.6425 12.5278 11.7408 12.4312 11.7735 12.3345C11.9045 12.0444 12.4284 11.9478 12.5594 11.9478C12.7886 11.9478 12.9523 11.7544 12.9523 11.561C12.9523 11.3354 12.7558 11.1743 12.5594 11.1743C12.1337 11.1743 11.3151 11.3677 11.0532 12.0444C10.9877 12.2378 11.0859 12.4634 11.2824 12.5278C11.3806 12.5923 11.4788 12.5923 11.5443 12.5601Z" fill="#303030"/>
        <path d="M14.4257 13.2042C14.4912 13.462 14.6222 13.6554 14.7532 13.6231C14.8841 13.5909 14.9496 13.3653 14.9169 13.1075C14.8514 12.8497 14.7204 12.6563 14.5894 12.6886C14.4257 12.7208 14.3602 12.9464 14.4257 13.2042Z" fill="#303030"/>
        <path d="M15.4081 12.9786C15.4081 12.9786 15.4408 12.9786 15.4408 12.9463C15.4736 12.9141 15.4408 12.8819 15.4408 12.8497C15.4081 12.8174 14.7859 12.3985 14.1966 12.7852C14.1638 12.8174 14.1638 12.8497 14.1638 12.8819C14.1966 12.9141 14.2293 12.9141 14.262 12.9141C14.7532 12.5919 15.3426 12.9786 15.3426 12.9786C15.3426 12.9786 15.3753 12.9786 15.4081 12.9786Z" fill="#303030"/>
        <path d="M40.6534 41.2092C40.6207 41.5637 40.5224 41.8537 40.457 42.1115C40.326 42.4983 40.195 42.8205 40.064 43.1106C40.0313 43.2072 39.9658 43.3039 39.9331 43.4006C39.8348 43.594 39.7366 43.7551 39.6384 43.9485C39.6056 44.0129 39.5401 44.0774 39.5074 44.174C39.4747 44.2385 39.4092 44.3352 39.3764 44.3996C38.9835 44.9797 38.6233 45.4953 38.1977 46.0109C37.8047 46.4943 37.4118 46.9777 36.9861 47.4289C36.7897 47.6545 36.5605 47.8801 36.364 48.0734C36.1676 48.299 35.9384 48.4924 35.7091 48.718C35.4799 48.9436 35.2835 49.1369 35.0543 49.3303C34.956 49.427 34.8251 49.5236 34.7268 49.6203L34.3667 49.9426C33.6463 50.5549 32.5985 50.7482 31.6817 50.3293C30.4374 49.7815 29.9135 48.3313 30.4702 47.1067L30.6339 46.7522C30.6339 46.7199 30.6666 46.6877 30.6666 46.6877L30.7321 46.591L30.8304 46.4299L31.0268 46.0754L31.4525 45.3986C31.5835 45.1731 31.7144 44.9475 31.8782 44.7219C32.0091 44.4963 32.1401 44.2707 32.2711 44.0451C32.533 43.594 32.795 43.1428 33.0242 42.6916C33.2534 42.2404 33.4498 41.8215 33.6136 41.4026C33.6463 41.3703 33.6463 41.3059 33.679 41.2737C33.6136 41.2092 33.5481 41.1125 33.4826 41.0158C33.3516 40.8225 33.1879 40.6291 33.0242 40.4358C32.7622 40.1135 32.4675 39.7912 32.1728 39.4367C32.1074 39.3723 32.0419 39.3078 31.9764 39.2112L31.9436 39.1789C31.6162 38.7922 31.256 38.3733 30.8958 37.9865C30.5357 37.5676 30.1755 37.1809 29.7826 36.7619C29.7171 36.6975 29.6843 36.633 29.6189 36.5686C28.9312 35.7951 28.2436 35.0539 27.5233 34.2805L25.264 31.8313V31.7991L25.1002 31.6057L24.1179 30.5422L23.8232 30.1877C23.8887 29.9621 23.987 29.7043 24.0524 29.4787C24.0852 29.3821 24.1179 29.2532 24.1507 29.1565C24.3144 28.6731 24.5109 28.1897 24.6746 27.7385C24.7073 27.6741 24.7073 27.6418 24.7401 27.5774C24.7728 27.5129 24.8055 27.4485 24.8055 27.384C25.1657 26.4495 25.5259 25.5149 25.8861 24.6125C26.0825 24.0969 26.279 23.6135 26.4755 23.0979C26.5082 23.0012 26.541 22.9045 26.5737 22.8079C26.8029 22.8401 27.0321 22.9045 27.2286 22.969C27.6215 23.0979 28.0144 23.2913 28.3419 23.5813C28.4073 23.6457 28.4728 23.678 28.5383 23.7424C28.6365 23.8391 28.7675 23.9358 28.8657 24.0647C29.0622 24.2903 29.2587 24.4836 29.4551 24.7092C29.6516 24.9348 29.8481 25.1282 30.0118 25.3538L30.5684 25.9983L31.0923 26.6106L31.1251 26.6428C31.1905 26.7073 31.2233 26.7717 31.2888 26.8362C31.9764 27.6418 32.664 28.4475 33.3516 29.2854C34.072 30.1555 34.7923 31.0578 35.5127 31.9602C35.6109 32.0891 35.7091 32.1858 35.7746 32.3147C35.8401 32.3791 35.9056 32.4758 35.9711 32.5403C36.1676 32.7981 36.364 33.0559 36.5932 33.3137C36.8552 33.6682 37.1499 34.0227 37.4118 34.3772C37.4773 34.4416 37.51 34.5061 37.5755 34.6028C37.6083 34.635 37.641 34.6672 37.6738 34.7317C38.0339 35.2151 38.3614 35.6985 38.7216 36.2141C38.8853 36.4719 39.0817 36.7297 39.2455 37.0198C39.4092 37.3098 39.6056 37.5998 39.8021 37.9543L39.8676 38.0832L39.9331 38.2121L39.9986 38.3733C40.0313 38.4377 40.064 38.5022 40.0968 38.5666C40.1295 38.6311 40.1623 38.6955 40.195 38.7922C40.2278 38.8889 40.2605 38.9533 40.2932 39.05L40.326 39.1145L40.3587 39.2112L40.3915 39.3078L40.4242 39.4045C40.457 39.5334 40.4897 39.6946 40.5224 39.8557C40.7517 40.4035 40.7189 40.8547 40.6534 41.2092Z" fill="#00AAFF"/>
        <path d="M10.2345 26.8684C9.84157 27.8996 9.21944 28.8342 8.46634 29.6399C8.46634 29.5432 8.43359 29.4143 8.43359 29.3176C9.05572 28.6086 9.57962 27.8352 9.9398 26.9651C10.5619 25.5149 10.6929 23.8069 10.169 22.3245C10.2345 22.2922 10.3327 22.26 10.3982 22.26C10.9221 23.7102 10.8239 25.386 10.2345 26.8684Z" fill="#00AAFF"/>
        <path d="M28.6691 23.7747C28.6036 23.9358 28.5053 24.0969 28.4399 24.2581C28.3744 24.3547 28.3416 24.4192 28.2761 24.5159C27.4248 25.9016 26.2133 27.0295 24.7726 27.7707C24.5434 27.8674 24.3469 27.9963 24.1177 28.0608C21.9894 28.9631 19.5991 28.9631 17.3398 29.1565C15.0477 29.3498 12.8867 29.8655 10.9875 31.1545C10.1362 31.7346 9.38311 32.4114 8.76099 33.1848C8.76099 33.0559 8.76099 32.927 8.76099 32.8303C9.35037 32.1536 10.038 31.5412 10.7911 31.0256C12.4938 29.8332 14.4256 29.2532 16.4885 28.9954C18.846 28.7053 21.3018 28.802 23.5611 28.0286C24.0522 27.8674 24.5106 27.6418 24.9363 27.4163C26.2788 26.675 27.3921 25.5471 28.1779 24.2258C28.2107 24.1614 28.2761 24.0647 28.3089 24.0002C28.3744 23.8713 28.4399 23.7424 28.5053 23.6135C28.5381 23.6458 28.6036 23.7102 28.6691 23.7747Z" fill="#00AAFF"/>
        <path d="M8.49922 27.6096C8.49922 27.7063 8.56471 28.3508 8.66294 29.2532C8.66294 29.3821 8.69569 29.5432 8.69569 29.6721C8.79392 31.1223 8.92489 33.0881 8.89215 34.5705C8.89215 34.6995 8.69569 34.7639 8.6302 34.635C8.66294 33.1526 8.56471 31.1545 8.43374 29.6721V29.6399C8.33551 28.4797 8.27002 27.6418 8.27002 27.6418C8.27002 27.5774 8.30276 27.5129 8.36825 27.5129C8.43374 27.5129 8.46648 27.5452 8.49922 27.6096Z" fill="#303030"/>
        <path d="M17.4382 26.9328C17.4382 26.9328 17.1763 25.0637 17.2745 23.6457C17.3727 22.2278 17.7001 21.2932 17.7001 21.2932C17.7001 21.2932 19.6975 20.4231 20.3524 19.0696C20.3524 19.0696 22.5135 19.5852 22.7754 21.0676C22.7427 21.0676 20.0577 25.9016 17.4382 26.9328Z" fill="white"/>
        <path d="M14.1641 20.1653C14.1641 20.1653 12.8216 20.0042 12.8216 21.8089C12.7889 25.3538 15.1464 26.3528 15.1464 26.3528L15.6376 24.5159C15.9323 23.2591 15.965 22.5179 15.965 21.7444C15.9978 21.7444 14.1969 21.6477 14.1641 20.1653Z" fill="white"/>
        <path d="M16.8164 24.2581C16.8164 24.4514 16.6526 24.6448 16.4234 24.6448C16.227 24.6448 16.0305 24.4836 16.0305 24.2581C16.0305 24.0647 16.1942 23.8713 16.4234 23.8713C16.6526 23.9036 16.8164 24.0647 16.8164 24.2581Z" fill="white"/>
        <path d="M16.6853 25.7727C16.6853 25.9661 16.5215 26.1594 16.2923 26.1594C16.0959 26.1594 15.8994 25.9983 15.8994 25.7727C15.8994 25.5793 16.0631 25.386 16.2923 25.386C16.5215 25.386 16.6853 25.5793 16.6853 25.7727Z" fill="white"/>
        <path d="M16.6198 27.1265C16.6198 27.3198 16.4561 27.5132 16.2269 27.5132C16.0304 27.5132 15.834 27.3521 15.834 27.1265C15.834 26.9331 15.9977 26.7397 16.2269 26.7397C16.4561 26.7397 16.6198 26.9331 16.6198 27.1265Z" fill="white"/>
        <path d="M16.6522 35.7953C16.5212 36.7299 15.4407 37.3744 14.7858 37.9223C12.4937 39.8237 10.2344 41.7572 7.94238 43.6586C7.97513 43.5297 7.97513 43.4008 8.00787 43.2719C8.40079 42.9174 8.82646 42.5951 9.21938 42.2406C10.8566 40.8871 12.461 39.5014 14.0982 38.1479C14.5238 37.7934 14.9495 37.4389 15.3752 37.0844C15.7026 36.7944 16.0628 36.5043 16.2592 36.1176C16.5539 35.5698 16.3575 34.9897 15.7353 34.8608C15.3424 34.7641 14.9495 34.8285 14.5566 34.893C12.461 35.3119 10.4636 36.1176 8.66274 37.2455C8.66274 37.1489 8.66274 37.0522 8.66274 36.9555C9.25212 36.601 9.84151 36.2787 10.4636 35.9887C11.2822 35.602 12.1663 35.2797 13.0176 35.0219C13.8362 34.7963 14.7858 34.4741 15.6371 34.603C16.292 34.6996 16.7831 35.1508 16.6522 35.7953Z" fill="#00AAFF"/>
        <path d="M25.4278 28.7051C23.6924 29.3497 21.9243 30.1875 20.7783 31.67C19.7305 32.9913 19.2066 34.7637 19.8942 36.375C20.1561 37.0196 20.6145 37.5996 21.2039 38.0186C21.8261 38.4698 22.5137 38.5664 23.2668 38.6309C24.1181 38.6953 25.2969 38.8565 25.3296 39.92C25.3624 40.7901 24.7075 41.5635 24.6093 42.4336C24.4455 43.9483 26.1155 45.2373 27.5889 44.7862C27.7526 44.7539 27.6872 44.4961 27.5234 44.5606C26.7376 44.8184 25.919 44.5283 25.3951 43.9483C24.8057 43.336 24.773 42.5948 25.0349 41.8213C25.2641 41.1768 25.6898 40.4678 25.5588 39.7266C25.4606 39.211 25.1004 38.8242 24.6093 38.6309C23.9544 38.3731 23.2013 38.4375 22.5137 38.3086C21.7278 38.1797 21.073 37.7285 20.5818 37.084C19.5013 35.6661 19.6977 33.8291 20.5818 32.3789C21.6623 30.6065 23.5942 29.6397 25.4933 28.9307C25.6571 28.8985 25.5916 28.6407 25.4278 28.7051Z" fill="#00AAFF"/>
        <path d="M36.102 32.5723C34.4976 32.6367 32.9259 32.3144 31.8126 31.0898C30.6011 29.7685 30.6993 28.1572 31.2232 26.6426L31.256 26.6748C31.3214 26.7393 31.3542 26.8037 31.4197 26.8682C30.9613 28.3184 30.8958 29.8008 32.0745 30.9932C33.1223 32.0566 34.4976 32.3789 35.9383 32.3467C35.971 32.4111 36.0365 32.4756 36.102 32.5723Z" fill="#00AAFF"/>
        <path d="M32.3036 36.0853C31.9434 34.3773 30.9283 32.8304 29.4221 31.9925C29.0947 31.7992 28.7018 31.6381 28.3089 31.5414C27.2938 31.2513 26.2133 31.2513 25.231 31.6058C25.2964 31.6703 25.3619 31.7347 25.4274 31.7992C26.8026 31.348 28.2434 31.6058 29.4221 32.347C30.339 32.9271 31.0921 33.765 31.5832 34.764C32.2381 36.182 32.3036 37.7289 31.9761 39.1791L32.0089 39.2113C32.0744 39.2757 32.1398 39.3402 32.2053 39.4369C32.5 38.3089 32.5328 37.181 32.3036 36.0853Z" fill="#00AAFF"/>
        <path d="M39.6385 43.9162C39.6057 43.9807 39.5402 44.0451 39.5075 44.1418C38.1323 43.1106 37.0845 41.6604 36.6588 39.9846C36.1676 38.1155 36.5278 36.0852 37.5101 34.4417C37.5756 34.5061 37.6084 34.5706 37.6738 34.6672C36.757 36.2463 36.4623 38.1477 36.9207 39.9202C37.3137 41.4993 38.3287 42.9172 39.6385 43.9162Z" fill="#00AAFF"/>
        <path d="M27.8507 34.7642C27.8834 34.7642 27.9162 34.7642 27.9489 34.7319C28.0144 34.6675 28.0144 34.603 27.9489 34.5386C27.9489 34.5386 26.5737 32.9595 25.1985 31.4771C25.133 31.4126 25.0347 31.4126 25.002 31.4771C24.9365 31.5415 24.9365 31.6382 25.002 31.6704C26.3445 33.1528 27.7197 34.6997 27.7525 34.6997C27.7852 34.7642 27.8179 34.7642 27.8507 34.7642Z" fill="#303030"/>
        <path d="M25.0023 32.6692H25.9846C26.0501 32.6692 26.1483 32.6047 26.1483 32.5403C26.1483 32.4758 26.0828 32.3792 26.0173 32.3792H25.035C24.9695 32.3792 24.8713 32.4436 24.8713 32.5081C24.8386 32.6047 24.9041 32.6692 25.0023 32.6692Z" fill="#303030"/>
    </g>
</svg>
