<svg width="160" height="139" viewBox="0 0 160 139" fill="none" xmlns="http://www.w3.org/2000/svg">
    <g clip-path="url(#clip0_152_5884)">
        <path d="M88.7208 138.2L3.42083 65.9001L3.22083 65.6001L88.5208 137.9L88.7208 138.2Z" fill="#C7B299"/>
        <path d="M89.7208 135.2L4.42078 62.7999L73.7208 21.7L159.021 94L89.7208 135.2Z" fill="#661C1E"/>
        <path d="M89.9209 113.9L4.52087 41.6L74.6209 0L159.921 72.3L89.9209 113.9Z" fill="#FF4053"/>
        <path d="M89.6208 114.2L89.8208 113.8L4.52083 41.6001L4.32083 41.9001C2.42083 44.8001 1.02083 48.6001 0.520826 52.5001C-0.179174 57.9001 0.820826 62.8001 3.12083 65.6001L88.4208 137.9C86.0208 135.1 85.1208 130.3 85.8208 124.8C86.4208 120.9 87.7208 117.1 89.6208 114.2Z" fill="#661C1E"/>
        <path d="M87.7208 124C87.3208 126.8 87.5208 129.4 88.0208 131.6C88.4208 132.9 88.9208 134.2 89.7208 135.1L159.021 94L158.921 96.5L88.7208 138.1L88.4208 137.8C87.3208 136.5 86.5208 134.8 86.1208 132.8C85.5208 130.4 85.5208 127.6 85.8208 124.7C85.9208 123.9 86.1208 123.2 86.2208 122.4C86.9208 119.4 88.1208 116.5 89.6208 114.2L89.8208 113.9L92.4208 112.4L153.621 76L159.921 72.3L159.821 74.9L153.521 78.6L94.1208 113.7L90.4208 115.9C89.2208 118 88.2208 120.8 87.8208 123.6L87.7208 124Z" fill="#FF4053"/>
        <path d="M152.621 79.1001L94.1209 113.8L93.5209 128.5L152.021 93.8001L152.621 79.1001Z" fill="#00AAFF"/>
        <path d="M94.1208 113.7L93.5208 128.5L87.8208 123.6C88.2208 120.8 89.2208 118 90.4208 115.9L94.1208 113.7Z" fill="#C3DDFF"/>
        <path d="M98.1208 36.3999L55.6208 61.5999L33.6208 43.0999L76.1209 17.8999L98.1208 36.3999Z" fill="white"/>
        <path d="M78.5049 120.733C80.6414 120.098 81.5077 117.478 80.4398 114.879C79.3718 112.281 76.774 110.689 74.6376 111.323C72.5011 111.957 71.6349 114.578 72.7029 117.176C73.7708 119.775 76.3685 121.367 78.5049 120.733Z" fill="#CFE8FF"/>
        <path d="M79.5071 117.867C78.967 119.462 77.2049 120.081 75.5048 119.053C73.9208 118.069 72.9519 115.904 73.5057 114.186C74.0458 112.591 75.8078 111.971 77.5079 112.999C79.1943 114.15 80.0472 116.271 79.5071 117.867Z" fill="#BB3542"/>
        <path d="M10.4002 65.2388C12.5367 64.6045 13.403 61.9838 12.335 59.3854C11.2671 56.7869 8.66931 55.1946 6.53282 55.8289C4.39634 56.4631 3.53017 59.0838 4.59812 61.6822C5.66606 64.2807 8.26372 65.873 10.4002 65.2388Z" fill="#CFE8FF"/>
        <path d="M11.4023 62.3726C10.8623 63.9676 9.10017 64.587 7.40008 63.5592C5.81608 62.5753 4.84715 60.4102 5.40094 58.6918C5.94102 57.0968 7.7031 56.4774 9.40319 57.5052C11.0896 58.6563 11.9424 60.7776 11.4023 62.3726Z" fill="#BB3542"/>
        <path d="M75.9132 26.1547C75.8004 25.6315 75.5862 25.255 75.2916 25.022C75.2205 25.0376 75.1031 25.0991 75.0026 25.1239C74.8434 25.1917 74.6715 25.2809 74.5119 25.3974L74.2935 25.5569C74.1087 25.6918 74.0075 25.8141 73.961 25.8844C73.7828 26.2325 73.7133 26.5739 73.7394 26.9787C73.7454 27.265 73.7967 27.6514 73.9015 28.132C74.0139 28.704 73.9961 28.8381 74.2929 29.3238C74.3916 29.5182 74.5038 29.5937 74.6249 29.5901C74.8338 29.5829 75.127 29.4657 75.5172 29.2415L75.5256 29.2353C76.012 28.9771 76.2605 28.7109 76.3163 28.5127C76.3511 28.342 76.3503 27.9187 76.2926 27.2947C76.2349 26.6708 75.9615 26.3859 75.9132 26.1547ZM73.3708 26.061C73.5333 25.579 73.6981 25.3254 74.135 25.0065L74.3954 24.8164C74.4794 24.7551 74.6136 24.6813 74.7687 24.6044C74.8164 24.3879 74.9594 24.2593 75.1012 24.2769L75.2137 24.3037C75.2888 24.3216 75.3472 24.3274 75.3681 24.3243L75.4437 24.2691C75.5025 24.2261 75.5695 24.2014 75.6236 24.2225C75.6946 24.2313 75.7274 24.3042 75.7477 24.3741C75.7598 24.4258 75.7634 24.508 75.7505 24.5538C75.8665 24.6628 75.9369 24.7447 76.0891 25.0332C76.4266 25.6588 76.6599 26.2514 76.7257 26.918C76.7918 27.5358 76.7965 27.9926 76.7145 28.331C76.6069 28.7366 76.3873 29.0422 75.8542 29.3951L75.5018 29.6039C75.0905 29.8557 74.7555 29.9792 74.4587 30.0142L74.4546 30.0051L74.4462 30.0112C74.1873 30.0064 73.9757 29.8339 73.786 29.5365C73.6087 29.242 73.5061 29.0141 73.4785 28.8041C73.4506 28.6429 73.4185 28.4725 73.3865 28.3021C73.1978 27.3378 73.1745 26.5918 73.3708 26.061Z" fill="#26303D"/>
        <path d="M68.7453 28.1539C68.8713 28.0619 68.9924 28.0583 69.0168 28.1373L69.0413 28.2164L69.1578 28.7974L69.2188 29.0072C69.3202 29.3813 69.4643 30.1723 69.5529 30.5921C69.595 30.537 69.6202 30.5186 69.6624 30.4636C69.8689 30.2281 70.6128 29.6244 71.0376 29.2538C71.4363 28.9991 71.5916 28.8978 71.8309 28.7352L71.2912 26.7433C71.2668 26.6643 71.3473 26.5207 71.4733 26.4287C71.6077 26.3306 71.7288 26.327 71.7533 26.406L72.2808 28.3462C72.3932 28.3974 72.4211 28.5586 72.3825 28.6958L72.6961 29.69L73.1508 31.3443C73.1547 31.3778 73.2708 31.4868 73.2192 31.6698C73.1723 31.7888 73.0586 31.9081 72.9289 31.9423C72.7951 31.9673 72.7292 31.8459 72.6888 31.6816L72.2339 30.0517L71.957 29.1639C71.7847 29.3018 71.5956 29.452 71.4442 29.5867C71.0447 29.9389 70.7167 30.2268 70.4393 30.4536C70.1744 30.6833 69.9978 30.8365 69.9261 30.9251C69.8292 31.0322 69.7534 31.1118 69.6946 31.1547C69.6651 31.1883 69.851 31.9731 69.8588 32.04C69.9847 32.4931 70.0394 32.9618 70.1616 33.357C70.1901 33.4452 70.2145 33.5243 70.2267 33.576L70.247 33.6459C70.2755 33.7341 70.1825 33.8746 70.0565 33.9666C69.9305 34.0586 69.8135 34.0714 69.785 33.9832L69.7646 33.9133C69.7566 33.8707 69.7363 33.8007 69.7037 33.7035L69.3886 32.3591C69.3483 32.1705 69.2488 31.5528 69.196 31.3612C69.163 31.3127 69.1548 31.2945 69.1342 31.2489C69.1221 31.1972 69.1311 31.118 69.1356 31.0783L68.7608 29.3536L68.6999 29.1438C68.6141 28.9037 68.632 28.7452 68.571 28.5354L68.5548 28.4746C68.5304 28.3956 68.6193 28.2459 68.7453 28.1539Z" fill="#26303D"/>
        <path d="M65.2952 30.8424L66.4209 30.0206C66.7233 29.7998 66.8417 30.1372 66.9066 30.3805L67.8728 33.8898L67.9787 34.2242C68.2811 34.0034 68.4908 33.8988 68.6856 34.0836C68.7643 34.1593 68.822 34.2626 68.8462 34.366L68.9607 34.6699C68.9854 34.7246 69.0016 34.7854 69.0221 34.831L69.1234 35.2294C69.1437 35.2994 69.1556 35.3754 69.1214 35.473C69.0957 35.5645 69.0367 35.6318 68.9779 35.6748C68.9191 35.7177 68.852 35.7424 68.7895 35.7275C68.7229 35.7034 68.6817 35.6367 68.6613 35.5667L68.5601 35.1683C68.5478 35.141 68.5357 35.0893 68.511 35.0346L68.3842 34.7033L68.3801 34.6942C68.3559 34.5908 68.3015 34.5941 68.3015 34.5941L68.0663 34.7658C68.0194 34.8848 67.9732 34.9307 67.9143 34.9736C67.8555 35.0166 67.7594 35.0262 67.7094 35.0143L67.2229 35.2725C66.9963 35.4137 66.7869 35.494 66.5814 35.6077C66.4136 35.706 65.9396 35.9672 65.8052 36.0653L65.0492 36.6173C65.0324 36.6295 65.0072 36.6479 65.0072 36.6479C65.0152 36.6905 65.0273 36.7422 65.0474 36.8365L65.3398 37.8826C65.3803 38.0468 65.3119 38.2421 65.1859 38.3341C65.0599 38.4261 64.9183 38.3841 64.8778 38.2199L64.6059 37.2194C64.4963 36.8271 64.495 36.4526 64.9151 36.146L65.0159 36.0724C65.0333 35.987 65.0629 35.929 65.1012 35.8405C65.2243 35.5932 65.2 35.4898 65.2531 35.1119C65.3012 34.8468 65.2871 34.518 65.2808 34.2561C65.2902 34.1282 65.2696 34.0826 65.2417 33.9213C65.2339 33.8544 65.2139 33.7357 65.1692 33.5867L64.7227 31.9507C64.6617 31.7409 64.6978 31.3996 64.9082 31.1976C65.085 31.0201 65.2112 30.9037 65.2952 30.8424ZM67.4426 34.4218L66.4155 30.7027L65.6595 31.2547C65.4495 31.408 65.2898 31.5245 65.2267 31.5827L65.7668 33.5258C65.8069 33.7388 65.843 33.9183 65.8454 34.1467L65.8591 34.5242C65.8725 34.9505 65.8297 35.0786 65.7807 35.4656C65.7674 35.56 65.7415 35.6759 65.7241 35.7612C66.0685 35.5098 66.4498 35.3404 66.7142 35.1837C66.9365 35.0578 67.0537 35.0206 67.2047 34.9346C67.3264 34.8578 67.4605 34.8084 67.5527 34.7653L67.4426 34.4218Z" fill="#26303D"/>
        <path d="M62.5823 35.8869C62.4695 35.3637 62.2553 34.9872 61.9607 34.7542C61.8895 34.7698 61.7721 34.8312 61.6717 34.8561C61.5125 34.9239 61.3406 35.0131 61.1809 35.1296L60.9625 35.2891C60.7777 35.424 60.6765 35.5463 60.63 35.6166C60.4519 35.9646 60.3824 36.306 60.4084 36.7109C60.4145 36.9971 60.4657 37.3836 60.5705 37.8642C60.6829 38.4362 60.6652 38.5702 60.962 39.056C61.0607 39.2504 61.1728 39.3259 61.294 39.3223C61.5028 39.3151 61.7961 39.1979 62.1862 38.9736L62.1946 38.9675C62.6811 38.7093 62.9296 38.4431 62.9854 38.2449C63.0202 38.0742 63.0193 37.6509 62.9616 37.0269C62.9039 36.4029 62.6306 36.1181 62.5823 35.8869ZM60.0398 35.7931C60.2023 35.3112 60.3672 35.0576 60.804 34.7387L61.0644 34.5486C61.1484 34.4872 61.2827 34.4135 61.4378 34.3366C61.4854 34.1201 61.6284 33.9915 61.7703 34.0091L61.8828 34.0359C61.9578 34.0538 62.0163 34.0596 62.0372 34.0564L62.1128 34.0012C62.1716 33.9583 62.2386 33.9336 62.2927 33.9547C62.3636 33.9634 62.3964 34.0364 62.4168 34.1063C62.4289 34.158 62.4324 34.2402 62.4195 34.2859C62.5356 34.395 62.6059 34.4768 62.7582 34.7654C63.0957 35.391 63.329 35.9836 63.3947 36.6502C63.4608 37.268 63.4656 37.7248 63.3836 38.0632C63.276 38.4687 63.0564 38.7744 62.5233 39.1272L62.1708 39.3361C61.7596 39.5879 61.4245 39.7114 61.1278 39.7464L61.1237 39.7373L61.1153 39.7434C60.8564 39.7386 60.6448 39.5661 60.455 39.2686C60.2778 38.9741 60.1752 38.7463 60.1476 38.5363C60.1197 38.375 60.0876 38.2047 60.0555 38.0343C59.8669 37.0699 59.8435 36.324 60.0398 35.7931Z" fill="#26303D"/>
        <path d="M57.7738 42.5218C57.8186 42.6708 57.7502 42.866 57.6242 42.958C57.4898 43.0561 57.3566 43.0081 57.3118 42.8591L57.2023 42.4424L57.0254 41.5785L56.8955 41.1163C56.6926 40.3682 56.597 39.784 56.4361 39.0053C56.3194 38.4486 56.2873 38.2782 56.2365 37.843C56.1973 37.5082 56.4085 37.2087 56.6605 37.0248L56.7697 36.945C57.1729 36.6507 57.6881 36.4562 58.0447 36.2565L58.1873 36.1766L58.2418 36.1489C58.393 36.0385 58.4964 36.1689 58.5163 36.2876C58.5445 36.4245 58.4843 36.6379 58.3333 36.724L58.2745 36.7669C57.9348 36.9544 57.5786 37.1054 57.243 37.302C57.1213 37.3787 57.0122 37.4341 56.9282 37.4954L56.819 37.5751C56.777 37.6058 56.7475 37.6394 56.7223 37.6578C56.7341 37.7583 56.7622 37.8952 56.7739 37.9956C56.8805 38.7777 57.1078 39.6048 57.2687 40.3836C57.2928 40.5113 57.3209 40.6482 57.3616 40.7881L57.463 41.1621L57.6685 42.1143L57.7738 42.5218Z" fill="#26303D"/>
        <path d="M56.5099 43.6749C56.5506 43.8148 56.4947 44.013 56.3603 44.1111C56.2343 44.2031 56.0968 44.1703 56.0479 44.0122L55.8208 43.1607L55.537 42.0842L54.77 39.2652C54.7211 39.1071 54.7979 38.9057 54.9239 38.8137C55.0583 38.7156 55.1914 38.788 55.232 38.9279L56.1046 42.13L56.1087 42.1391C56.1693 42.3977 56.2259 42.6227 56.2828 42.8234L56.5099 43.6749ZM52.4989 43.9388L52.2301 44.1351L52.6523 45.6677C52.9127 45.4776 53.1315 45.2694 53.3423 45.0186C53.5867 44.7433 53.7341 44.5751 53.7931 44.5078C53.949 44.3334 54.1059 44.0373 54.2428 43.6224C54.299 43.3755 54.3125 43.2567 54.3086 43.2232C54.2507 43.1443 54.1216 43.1054 53.8536 43.2042C53.6566 43.2874 53.4806 43.3674 53.296 43.478L52.8681 43.7177C52.713 43.7946 52.5913 43.8713 52.4989 43.9388ZM51.0658 41.921C51.0294 41.7659 51.0978 41.5706 51.2238 41.4787C51.3498 41.3867 51.4914 41.4286 51.5278 41.5837L52.08 43.5785L52.29 43.4252C52.5588 43.229 52.8397 43.0844 53.0789 42.9462C53.5571 42.6697 53.8882 42.5127 54.0932 42.4721C54.5992 42.3813 54.873 42.6174 54.8058 43.1872C54.7396 43.6352 54.5607 44.0807 54.29 44.5205C54.1462 44.7466 53.9442 44.9425 53.7883 45.1169C53.5564 45.3952 53.064 45.8879 52.7279 46.1332C52.4927 46.3049 52.2755 46.3182 52.2024 46.0567L51.0658 41.921Z" fill="#26303D"/>
        <path d="M48.4797 47.0665C48.274 47.2046 48.0431 47.361 47.8594 47.3498C47.9392 47.8244 48.0241 48.1864 48.1014 48.4327L48.1056 48.4418L48.1869 48.7215C48.2072 48.7914 48.2318 48.8461 48.2564 48.9008C48.336 48.8791 48.3864 48.8423 48.4452 48.7994L49.26 48.2045C49.4196 48.088 49.5415 47.9869 49.588 47.9166C49.8453 47.5956 50.0016 47.3725 50.0609 47.2565C50.1754 47.0397 50.3104 46.8685 50.4036 46.7035L50.5264 46.4806C50.5985 46.3432 50.6538 46.2181 50.671 46.1571C50.6755 46.1175 50.7049 46.0839 50.5713 46.0845C50.3752 46.0703 49.9524 46.1973 49.6335 46.3816C49.1846 46.6488 48.975 46.7534 48.4797 47.0665ZM47.6014 45.661C47.641 45.9227 47.7452 46.4764 47.7969 46.8142C47.8521 46.689 47.9367 46.5546 48.034 46.3988C48.279 46.0504 49.0072 44.7921 49.1048 44.5876C49.2023 44.4075 49.2828 44.2639 49.359 44.1356C49.4436 44.0012 49.4654 43.8763 49.4031 43.837C49.2411 43.7251 48.599 44.1334 48.1375 44.3976C47.8607 44.5513 47.6593 44.6741 47.4535 44.8122C47.5057 45.0768 47.566 45.3841 47.6014 45.661ZM46.8991 44.6962C46.892 44.5318 46.96 44.3853 47.0692 44.3056C47.1784 44.2258 47.295 44.2618 47.3568 44.3741C47.8061 44.0582 48.1793 43.8706 48.6618 43.5789C49.031 43.3577 49.4878 43.1575 49.7119 43.333C49.8614 43.4419 49.9607 43.5632 49.9412 43.9165C49.9219 44.2455 49.715 44.5297 49.6003 44.7709C49.5326 44.893 49.4648 45.0152 49.397 45.1373L49.1684 45.5222C48.9018 45.9712 48.6946 46.3041 48.5299 46.5333C48.7565 46.3921 48.9579 46.2693 49.1425 46.1587C49.26 46.0972 49.3942 46.0235 49.5411 45.9283C50.2542 45.5289 50.7437 45.4015 51.005 45.6347C51.2703 45.877 51.1917 46.322 50.8996 46.8137C50.7215 47.1618 50.6289 47.2536 50.4806 47.5193C50.1845 48.0019 49.9186 48.3534 49.6791 48.5404C49.5613 48.6506 49.4269 48.7487 49.2505 48.8775L48.7381 49.2516C48.2425 49.6135 47.9156 49.7552 47.7409 49.144L47.6598 48.8399C47.5415 48.4781 47.5345 48.3137 47.4541 47.9122C47.3618 47.4345 47.3307 47.1423 47.2471 46.6342C47.1669 46.2083 47.1444 45.8856 47.0764 45.5114C47.0562 45.4171 47.0443 45.341 47.024 45.2711L46.9316 45.3386C46.8056 45.4306 46.6723 45.3825 46.6275 45.2335C46.5912 45.0784 46.6554 44.8741 46.7815 44.7821L46.8991 44.6962Z" fill="#26303D"/>
        <path d="M58.7579 47.5193C65.905 45.5416 71.0208 39.7448 77.2737 36.1008C78.9987 35.0904 80.8181 34.2613 82.7411 33.7041C83.0352 33.6171 83.1285 34.0896 82.8344 34.1766C75.711 36.2345 70.6075 42.0335 64.3344 45.6486C62.6066 46.6395 60.7821 47.4613 58.8562 47.9991C58.552 48.0716 58.4587 47.599 58.7579 47.5193Z" fill="#496374"/>
        <path d="M82.875 35.9758C78.1318 39.179 73.2949 42.2325 68.3642 45.1364C68.096 45.2913 67.8813 44.8605 68.1496 44.7055C73.0802 41.8017 77.9243 38.7431 82.6603 35.5449C82.9184 35.3755 83.1331 35.8064 82.875 35.9758Z" fill="#496374"/>
        <path d="M78.4775 41.2924C72.7542 44.8785 67.031 48.4647 61.3027 52.0437C61.0395 52.2058 60.8248 51.775 61.088 51.6128C66.8112 48.0267 72.5345 44.4405 78.2628 40.8615C78.526 40.6993 78.7335 41.1352 78.4775 41.2924Z" fill="#496374"/>
    </g>
    <defs>
        <clipPath id="clip0_152_5884">
            <rect width="159.6" height="138.2" fill="white" transform="translate(0.320801)"/>
        </clipPath>
    </defs>
</svg>
