<svg width="42" height="43" viewBox="0 0 42 43" fill="none" xmlns="http://www.w3.org/2000/svg">
    <circle cx="21" cy="21.2306" r="21" fill="#04E061"/>
    <mask id="mask0_97_4086" style="mask-type:alpha" maskUnits="userSpaceOnUse" x="0" y="0" width="42" height="43">
        <circle cx="21" cy="21.2306" r="21" fill="#FF4053"/>
    </mask>
    <g mask="url(#mask0_97_4086)">
        <path d="M25.8481 16.5827L26.546 18.2944L34.3733 20.4548C35.5864 20.7871 36.6832 21.4519 37.5308 22.3825C38.4282 23.3796 39.4918 24.9085 40.1897 27.1021C41.6522 31.6888 50.892 48.3405 39.2591 50.9163C39.2591 50.9163 37.1319 51.4149 34.0908 49.9192L34.2237 50.8332C34.3068 51.365 33.8914 51.8469 33.3596 51.8469H9.0967C8.61477 51.8469 8.21592 51.4481 8.21592 50.9662V49.4207C8.21592 49.4207 1.73475 50.1186 -0.375782 44.7841C-2.48632 39.433 4.3106 34.0985 5.3077 31.506C6.30481 28.9302 5.97244 24.3435 9.11332 22.3991C12.2542 20.4548 16.4254 18.6434 16.4254 18.6434L16.6082 17.1976C16.6581 16.7821 17.0071 16.4497 17.4391 16.4331L25.0171 16.0343C25.3495 16.0177 25.6985 16.2337 25.8481 16.5827Z" fill="#FF4053"/>
        <path d="M31.8639 30.9908C31.8639 30.9908 30.3184 34.9626 28.5569 35.1288C26.7953 35.295 25.7151 35.2784 25.1667 35.6108C25.1667 35.6108 29.6703 36.9402 30.9499 37.256C32.2461 37.5883 33.1768 37.6548 33.1768 37.6548L31.8639 30.9908Z" fill="#E72E40"/>
        <path d="M-0.409039 44.7841C-0.608459 44.2689 -0.724787 43.7538 -0.79126 43.2386C4.12779 49.0717 8.51505 40.3969 8.51505 40.3969L8.18268 49.4206C8.18268 49.4206 1.7015 50.1352 -0.409039 44.7841Z" fill="#E72E40"/>
        <path d="M19.9485 25.4071C19.9485 25.4071 16.9406 22.233 16.3922 18.66L16.575 17.2142C16.6248 16.7988 16.9738 16.4664 17.4059 16.4498L24.9839 16.0509C25.3661 16.0343 25.7151 16.2504 25.848 16.5994L26.546 18.311C26.5294 18.2944 23.5049 23.8782 19.9485 25.4071Z" fill="white"/>
        <path d="M24.6515 16.8652L23.9203 12.3949H18.3199L17.9045 17.3472C17.9045 17.3472 19.0511 19.4577 20.5634 19.6405C20.58 19.6239 24.2527 19.0423 24.6515 16.8652Z" fill="#FEC9B6"/>
        <path d="M16.3424 12.0625L16.791 9.22076C17.1068 7.29302 18.9348 5.96355 20.8626 6.26268C22.7903 6.57843 24.1198 8.40646 23.8206 10.3342L23.7542 10.7497C23.8539 10.7497 23.937 10.7497 24.0367 10.7663C24.7513 10.8826 25.2332 11.5473 25.1169 12.2453C25.0005 12.9599 24.3358 13.4418 23.6378 13.3255C23.5381 13.3089 23.4384 13.2756 23.3553 13.2424C23.0063 15.1369 21.2115 16.4331 19.3004 16.1174C17.3727 15.8349 16.0432 14.0069 16.3424 12.0625Z" fill="#FEC9B6"/>
        <path d="M18.5858 9.07117C18.5858 9.07117 18.536 9.42015 18.4363 9.56972C18.3199 9.78576 18.187 9.93532 17.9543 10.035C17.7715 10.1181 17.6053 10.1846 17.5721 10.4006C17.5056 10.733 17.7383 11.082 18.054 11.1817" stroke="#5C3023" stroke-width="0.3" stroke-miterlimit="10" stroke-linecap="round" stroke-linejoin="round"/>
        <path d="M18.8185 9.38695C18.7686 10.0018 19.2007 10.5502 19.7989 10.6001C20.3806 10.65 20.8958 10.1846 20.9456 9.55314C20.9955 8.93825 20.5634 8.38985 19.9651 8.33999C19.3835 8.30676 18.8683 8.77207 18.8185 9.38695Z" stroke="white" stroke-width="0.3" stroke-miterlimit="10" stroke-linecap="round" stroke-linejoin="round"/>
        <path d="M16.9537 10.3807C16.3681 10.3347 15.9331 9.79305 15.9819 9.17088C16.0308 8.5487 16.5452 8.08162 17.1307 8.12763C17.7163 8.17364 18.1514 8.71531 18.1025 9.33749C18.0536 9.95966 17.5393 10.4267 16.9537 10.3807Z" stroke="white" stroke-width="0.3" stroke-miterlimit="10" stroke-linecap="round" stroke-linejoin="round"/>
        <path d="M18.8185 9.38694C18.8185 9.38694 18.3864 9.05458 18.1039 9.33709" stroke="white" stroke-width="0.3" stroke-miterlimit="10" stroke-linecap="round" stroke-linejoin="round"/>
        <path d="M20.0482 9.86888C19.9565 9.86888 19.8821 9.76471 19.8821 9.63622C19.8821 9.50773 19.9565 9.40356 20.0482 9.40356C20.14 9.40356 20.2144 9.50773 20.2144 9.63622C20.2144 9.76471 20.14 9.86888 20.0482 9.86888Z" fill="#3B1610"/>
        <path d="M17.5222 9.63622C17.5222 9.76917 17.5887 9.86888 17.6884 9.86888C17.7715 9.86888 17.8546 9.76917 17.8546 9.63622C17.8546 9.50327 17.7881 9.40356 17.6884 9.40356C17.5887 9.40356 17.5222 9.50327 17.5222 9.63622Z" fill="#3B1610"/>
        <path d="M16.442 11.4476L16.3922 12.2287C16.3922 12.2287 16.7578 10.9989 18.2202 11.0986C19.666 11.1983 20.6133 11.78 20.7961 13.2424C20.929 14.3891 23.2722 12.694 22.7072 11.215C22.7072 11.215 21.0952 10.6167 21.627 8.68897C21.627 8.68897 19.8156 8.6225 19.2173 7.74172C18.6191 6.86094 17.4724 7.45921 17.1899 8.10732C17.1899 8.10732 16.1928 7.59215 16.575 6.59505C16.7744 6.07988 17.1068 6.01341 17.1068 6.01341C17.1068 6.01341 16.8243 4.35157 18.1371 4.21862C19.45 4.08567 20.3141 4.91659 21.3777 5.09939C22.4413 5.2822 25.283 5.66442 25.632 6.89418C25.981 8.12394 25.765 8.73882 25.765 8.73882C25.765 8.73882 26.7288 9.25399 26.4962 10.5835C26.2635 11.9129 25.7317 12.5444 25.0005 13.3255C24.6848 13.6745 24.4023 14.0235 24.1862 14.3226L23.9369 12.3949C23.9369 12.3949 23.2057 17.0646 18.1205 16.2836C13.9825 15.6521 15.6111 11.5141 16.442 11.4476Z" fill="#3B1610"/>
        <path d="M18.968 12.1622C18.968 12.1622 18.1039 12.4115 17.6884 12.0126" stroke="#FEC9B6" stroke-width="0.3" stroke-miterlimit="10" stroke-linecap="round" stroke-linejoin="round"/>
        <path d="M23.8372 12.7937C24.0699 13.0097 24.4023 13.1427 24.7513 13.1427C25.4825 13.1427 26.0974 12.5444 26.0974 11.7966C26.0974 11.0654 25.4991 10.4505 24.7513 10.4505C24.1198 10.4837 23.8372 12.7937 23.8372 12.7937Z" fill="#FEC9B6"/>
        <path d="M24.3026 11.9295L24.9174 11.7135L25.549 11.4808" stroke="#5C3023" stroke-width="0.3" stroke-miterlimit="10" stroke-linecap="round" stroke-linejoin="round"/>
        <path d="M25.2664 12.2785L24.9174 11.7135" stroke="#5C3023" stroke-width="0.3" stroke-miterlimit="10" stroke-linecap="round" stroke-linejoin="round"/>
        <path d="M24.9008 8.33996C24.5352 8.1073 24.0865 8.02421 23.6544 8.00759C23.1891 7.99097 22.2419 7.95774 21.976 8.45629" stroke="#5C3023" stroke-width="0.3" stroke-miterlimit="10" stroke-linecap="round" stroke-linejoin="round"/>
        <path d="M18.8351 7.19333C18.6689 6.97729 18.3864 6.8942 18.1371 6.76126C17.8546 6.62831 17.2564 6.3458 17.14 6.01343" stroke="#5C3023" stroke-width="0.3" stroke-miterlimit="10" stroke-linecap="round" stroke-linejoin="round"/>
        <path d="M19.2173 14.3392C19.0511 14.4223 18.9348 14.7713 18.8683 14.9541C18.752 15.3031 18.7686 15.6521 18.7686 16.0177" stroke="#5C3023" stroke-width="0.3" stroke-miterlimit="10" stroke-linecap="round" stroke-linejoin="round"/>
        <path d="M17.8712 14.0235C17.4724 14.3891 17.3395 15.1369 17.3395 15.6521" stroke="#5C3023" stroke-width="0.3" stroke-miterlimit="10" stroke-linecap="round" stroke-linejoin="round"/>
        <path d="M16.9406 13.7908C16.5916 14.2229 16.4919 14.7048 16.3922 15.2366" stroke="#5C3023" stroke-width="0.3" stroke-miterlimit="10" stroke-linecap="round" stroke-linejoin="round"/>
        <path d="M24.1696 10.6499L20.8958 9.78577" stroke="white" stroke-width="0.3" stroke-miterlimit="10" stroke-linecap="round" stroke-linejoin="round"/>
        <path d="M34.0575 49.9192L20.4803 40.8456C20.2643 40.696 20.1812 40.3969 20.2975 40.1642L22.7903 35.295C22.9066 35.0624 23.1725 34.9461 23.4218 35.0292C24.934 35.5443 30.0027 37.2062 32.5287 37.5551C35.52 37.9706 39.0929 38.6187 40.6218 40.7293" stroke="#393842" stroke-width="0.3" stroke-miterlimit="10" stroke-linecap="round" stroke-linejoin="round"/>
        <path d="M33.1768 37.6549L31.598 29.6282" stroke="#393842" stroke-width="0.3" stroke-miterlimit="10" stroke-linecap="round" stroke-linejoin="round"/>
        <path d="M28.5402 18.8594C28.5402 18.8594 26.5959 25.9887 19.8654 27.9331C19.8654 27.9331 15.1957 25.2741 14.5642 19.4909" stroke="#393842" stroke-width="0.3" stroke-miterlimit="10" stroke-linecap="round" stroke-linejoin="round"/>
        <path d="M27.9918 20.3551L25.8979 19.3746" stroke="#393842" stroke-width="0.3" stroke-miterlimit="10" stroke-linecap="round" stroke-linejoin="round"/>
        <path d="M27.0446 22.1831L24.8177 20.9534" stroke="#393842" stroke-width="0.3" stroke-miterlimit="10" stroke-linecap="round" stroke-linejoin="round"/>
        <path d="M25.5157 24.2936L23.322 22.798" stroke="#393842" stroke-width="0.3" stroke-miterlimit="10" stroke-linecap="round" stroke-linejoin="round"/>
        <path d="M23.6212 26.0552L21.7599 24.2936" stroke="#393842" stroke-width="0.3" stroke-miterlimit="10" stroke-linecap="round" stroke-linejoin="round"/>
        <path d="M19.9485 25.4071L19.882 27.9331" stroke="#393842" stroke-width="0.3" stroke-miterlimit="10" stroke-linecap="round" stroke-linejoin="round"/>
        <path d="M18.968 24.2936L17.4724 25.889" stroke="#393842" stroke-width="0.3" stroke-miterlimit="10" stroke-linecap="round" stroke-linejoin="round"/>
        <path d="M17.9211 22.6318L16.01 23.8782" stroke="#393842" stroke-width="0.3" stroke-miterlimit="10" stroke-linecap="round" stroke-linejoin="round"/>
        <path d="M16.9738 20.7207L15.0627 21.7344" stroke="#393842" stroke-width="0.3" stroke-miterlimit="10" stroke-linecap="round" stroke-linejoin="round"/>
        <path d="M19.9485 25.4071C19.9485 25.4071 19.4167 24.842 18.752 23.928L19.6992 21.8673C19.6992 21.8673 19.0012 21.5184 19.0179 20.7207C19.0179 20.7207 20.0814 19.9396 20.58 19.79C20.58 19.79 21.5771 20.1058 22.1089 20.6043C22.1089 20.6043 22.0258 21.6513 21.2946 21.8507L21.7433 24.2936C21.1616 24.7589 20.5634 25.1412 19.9485 25.4071Z" fill="#A6DFFC"/>
        <path d="M21.278 21.8507C21.278 21.8507 20.4637 21.402 19.6992 21.8507" stroke="#00AAFF" stroke-width="0.3" stroke-miterlimit="10" stroke-linecap="round" stroke-linejoin="round"/>
        <path d="M23.7375 22.3327C23.7375 22.3327 22.4413 20.3551 20.58 19.8067C20.58 19.8067 18.7187 20.621 17.6053 22.0834" stroke="#393842" stroke-width="0.3" stroke-miterlimit="10" stroke-linecap="round" stroke-linejoin="round"/>
        <path d="M13.7332 33.0183L14.8134 33.4172L17.1732 27.0025C17.273 26.7199 17.14 26.4042 16.8409 26.3045L16.7744 26.2879C16.4919 26.1882 16.1761 26.3211 16.0764 26.6202L13.7332 33.0183Z" fill="white"/>
        <path d="M20.58 34.2481L17.1234 30.8247C16.8409 30.5422 16.442 30.4258 16.0432 30.5089L13.4341 31.074C13.4341 31.074 12.9023 31.3731 12.9023 32.0212C12.9023 32.0212 12.0215 32.1375 11.9551 32.6361C11.8886 33.1346 12.2542 33.6498 12.2542 33.6498C12.2542 33.6498 11.6892 34.1982 11.9551 34.8131C11.9551 34.8131 11.872 35.3283 11.9551 35.4945C12.2542 36.1592 13.0685 36.4251 13.351 36.4417C13.7332 36.4749 14.2982 36.3586 14.2982 36.3586C14.2982 36.3586 15.4449 38.2365 17.4557 37.2726L18.7354 38.0371L20.58 34.2481Z" fill="#FEC9B6"/>
        <path d="M22.7736 35.295L20.58 34.248L18.5526 38.4359L20.4304 39.9149L22.7736 35.295Z" stroke="#393842" stroke-width="0.3" stroke-miterlimit="10" stroke-linecap="round" stroke-linejoin="round"/>
        <path d="M22.2419 36.3586L20.6631 35.4778" stroke="#393842" stroke-width="0.3" stroke-miterlimit="10" stroke-linecap="round" stroke-linejoin="round"/>
        <path d="M21.5771 37.6548L19.4832 36.5082" stroke="#393842" stroke-width="0.3" stroke-miterlimit="10" stroke-linecap="round" stroke-linejoin="round"/>
        <path d="M20.9789 38.8181L18.9348 37.6548" stroke="#393842" stroke-width="0.3" stroke-miterlimit="10" stroke-linecap="round" stroke-linejoin="round"/>
        <path d="M12.9189 32.0212L15.2289 31.5559" stroke="#5C3023" stroke-width="0.3" stroke-miterlimit="10" stroke-linecap="round" stroke-linejoin="round"/>
        <path d="M12.2708 33.6498L14.6805 33.2011" stroke="#5C3023" stroke-width="0.3" stroke-miterlimit="10" stroke-linecap="round" stroke-linejoin="round"/>
        <path d="M14.2983 34.5638L11.9717 34.7965" stroke="#5C3023" stroke-width="0.3" stroke-miterlimit="10" stroke-linecap="round" stroke-linejoin="round"/>
        <path d="M14.3315 36.3586L13.7166 35.6606H13.135" stroke="#5C3023" stroke-width="0.3" stroke-miterlimit="10" stroke-linecap="round" stroke-linejoin="round"/>
        <path d="M2.88142 26.6036H10.7918C12.1213 26.6036 13.2014 27.6838 13.2014 29.0133C13.2014 30.3428 12.1213 31.423 10.7918 31.423H2.88142V26.6036Z" fill="#DCC9AB"/>
        <path d="M4.04471 44.3853H15.2123C15.661 44.3853 15.9933 43.9698 15.8936 43.5211L12.7195 29.329C12.6364 28.9302 12.2708 28.6476 11.8554 28.6476H0.704413C0.255716 28.6476 -0.0766582 29.0631 0.0230522 29.5118L3.19717 43.7039C3.28027 44.1028 3.64587 44.3853 4.04471 44.3853Z" fill="#A6DFFC"/>
        <path d="M15.0129 43.5211L11.8387 29.329C11.7557 28.9302 11.39 28.6476 10.9746 28.6476H11.8554C12.2708 28.6476 12.6198 28.9302 12.7195 29.329L15.8936 43.5211C15.9933 43.9532 15.661 44.3853 15.2123 44.3853H14.3315C14.7802 44.3853 15.1126 43.9698 15.0129 43.5211Z" fill="#00AAFF"/>
        <path d="M-0.641685 26.6036H10.7918C9.46231 26.6036 8.38211 27.6838 8.38211 29.0133L8.51506 30.8247L-3.05135 30.9743V29.0133C-3.05135 27.6838 -1.97116 26.6036 -0.641685 26.6036Z" fill="white"/>
        <path d="M7.25204 27.4844H-1.0073" stroke="#DCC9AB" stroke-width="0.3" stroke-miterlimit="10" stroke-linecap="round" stroke-linejoin="round"/>
        <path d="M6.55408 28.6643H-1.70527" stroke="#DCC9AB" stroke-width="0.3" stroke-miterlimit="10" stroke-linecap="round" stroke-linejoin="round"/>
        <path d="M24.6515 16.8652L24.8177 16.2836" stroke="#393842" stroke-width="0.3" stroke-miterlimit="10" stroke-linecap="round" stroke-linejoin="round"/>
        <path d="M17.9211 17.3306L17.6053 16.7323" stroke="#393842" stroke-width="0.3" stroke-miterlimit="10" stroke-linecap="round" stroke-linejoin="round"/>
        <path d="M5.40741 44.136C5.07505 44.485 4.60973 44.6512 4.1278 44.7343C3.46306 44.834 2.56567 44.7177 1.78461 43.7372C0.322186 41.8925 1.13649 39.6823 1.31929 38.8348C1.50209 37.9872 1.16972 37.4222 1.71813 37.1065L2.26653 39.5494C2.26653 39.5494 5.1249 36.9569 6.18848 37.1065C7.25206 37.256 6.55408 37.821 6.55408 37.821C6.55408 37.821 7.40162 37.5718 7.63428 38.0537C7.86694 38.5356 7.40162 38.8514 7.40162 38.8514C7.40162 38.8514 7.85032 39.5826 7.21882 40.4135L5.92259 41.9424C5.92259 41.9424 7.50133 40.9619 7.95003 41.1447C8.59815 41.394 6.30481 43.2054 5.40741 44.136Z" fill="#FEC9B6"/>
        <path d="M7.40161 38.8181L4.11117 41.9922" stroke="#5C3023" stroke-width="0.3" stroke-miterlimit="10" stroke-linecap="round" stroke-linejoin="round"/>
        <path d="M6.55408 37.8044L3.19716 40.4135" stroke="#5C3023" stroke-width="0.3" stroke-miterlimit="10" stroke-linecap="round" stroke-linejoin="round"/>
        <path d="M5.92259 41.9092L5.10829 42.7069" stroke="#5C3023" stroke-width="0.3" stroke-miterlimit="10" stroke-linecap="round" stroke-linejoin="round"/>
        <path d="M21.7932 41.7263C21.7932 41.7263 25.7483 45.9972 24.153 47.9582C22.5576 49.9192 15.7108 50.9828 15.5446 51.8469H33.3263C33.8747 51.8469 34.3068 51.3484 34.2071 50.8L34.0575 49.9192L33.3596 49.4539L21.7932 41.7263Z" fill="#E72E40"/>
    </g>
</svg>
