<svg width="42" height="42" viewBox="0 0 42 42" fill="none" xmlns="http://www.w3.org/2000/svg">
    <circle cx="21" cy="21" r="21" fill="#04E061"/>
    <mask id="mask0_153_49146" style="mask-type:alpha" maskUnits="userSpaceOnUse" x="0" y="0" width="42" height="42">
        <circle cx="21" cy="21" r="21" fill="#FF4053"/>
    </mask>
    <g mask="url(#mask0_153_49146)">
        <path d="M9.30203 32.3376C9.30203 32.3376 5.39684 42.8265 5.19751 45.363C4.99818 47.8996 9.06892 51.1278 9.06892 51.1278L12.3002 50.9561C12.3002 50.9561 11.5537 46.4229 10.5761 44.9952L14.0899 35.8029L9.30203 32.3376Z" fill="#FFB79D"/>
        <path d="M14.1914 36.4837C13.8237 36.5148 13.4903 36.5212 13.1369 36.464C13.0485 36.4496 12.9896 36.4401 12.9013 36.4258C11.5856 36.1522 10.4338 35.2403 9.57651 34.3762C9.52238 34.3372 9.47303 34.2687 9.42367 34.2003C8.49708 33.204 7.91911 32.2944 7.91911 32.2944C8.07506 32.0779 8.23579 31.8319 8.36707 31.5812C8.40606 31.5271 8.44982 31.4435 8.48881 31.3894C9.23354 30.1501 10.0013 28.582 10.6863 27.1517C10.7301 27.0681 10.7738 26.9845 10.8176 26.901C11.7938 24.7925 12.5018 23.0334 12.5018 23.0334L14.1914 36.4837Z" fill="#965EEB"/>
        <path d="M31.7846 52.8732C31.7798 52.9027 31.7798 52.9027 31.7846 52.8732C31.7409 52.9568 31.6676 53.0356 31.5698 53.0802C30.7923 53.5889 28.454 53.8448 25.6095 53.8676C25.4869 53.8779 25.3986 53.8636 25.276 53.874C24.2461 53.8885 23.1374 53.8298 22.0582 53.7759C21.9699 53.7616 21.8767 53.7767 21.7884 53.7624C17.005 53.4409 12.2972 52.4667 12.4561 50.7396C12.4895 50.5335 12.4886 50.352 12.522 50.1459C12.5363 50.0575 12.526 49.935 12.5403 49.8466C12.5863 49.1892 12.6618 48.5366 12.727 47.7614C12.7413 47.673 12.7603 47.5552 12.75 47.4327C12.8533 46.4219 12.9557 45.2296 13.1107 43.7134C13.1297 43.5956 13.1441 43.5073 13.1337 43.3847C13.1519 43.0854 13.2044 42.7615 13.2274 42.4328C13.2608 42.2267 13.2648 42.0157 13.2982 41.8096C13.3125 41.7213 13.3268 41.6329 13.3116 41.5398C13.3307 41.422 13.3498 41.3042 13.3394 41.1816C13.4197 40.4995 13.4657 39.8421 13.5118 39.1847C13.5309 39.0669 13.5205 38.9444 13.5396 38.8266C13.6642 37.1241 13.6815 35.5252 13.5189 34.29C13.499 34.2263 13.5038 34.1969 13.4839 34.1332C13.4639 34.0695 13.4687 34.0401 13.4488 33.9764C13.3173 33.1089 13.1469 32.2956 13.0011 31.5164C12.966 31.3596 12.9557 31.2371 12.9206 31.0803C12.4889 28.8948 12.0882 27.0771 11.959 25.6358C11.9439 25.5427 11.9335 25.4201 11.9478 25.3317C11.9008 24.6895 11.9325 24.1204 12.0725 23.6293C12.0868 23.541 12.1353 23.4279 12.1791 23.3444C12.4417 22.8429 13.0671 22.3398 13.8057 21.8852C13.8741 21.8359 13.972 21.7913 14.0404 21.7419C15.7132 20.7436 17.8039 19.964 17.8039 19.964L23.2459 18.4581C23.2459 18.4581 25.2588 18.905 27.2383 19.5581C27.3266 19.5724 27.4102 19.6162 27.4938 19.6599C28.3534 19.9503 29.174 20.2947 29.8378 20.6743C29.9214 20.718 30.005 20.7618 30.0591 20.8008C30.1968 20.8835 30.3051 20.9615 30.4133 21.0395C31.9193 22.1901 32.1572 25.9458 32.1746 29.7565C32.1754 29.938 32.1762 30.1195 32.177 30.3009C32.1598 31.8999 32.1426 33.4988 32.1293 34.8869C32.1397 35.0094 32.1206 35.1272 32.1309 35.2498C32.1247 36.0345 32.1622 36.7357 32.2141 37.3485C32.2811 38.0545 32.3385 38.8193 32.4158 39.6478C32.4262 39.7704 32.4366 39.893 32.4469 40.0155C32.7045 42.7167 32.9398 45.9281 32.7413 48.6461C32.7175 48.7933 32.7231 48.9453 32.6992 49.0926C32.6326 50.6231 32.3296 51.934 31.7846 52.8732Z" fill="#965EEB"/>
        <path d="M16.6649 7.781C16.6649 7.781 14.8401 8.78494 14.939 10.04C15.038 11.2951 16.1485 12.835 16.1485 12.835C16.1485 12.835 17.0131 9.92268 16.6649 7.781Z" fill="#121D27"/>
        <path d="M16.1546 12.0505C16.1546 12.0505 15.6054 12.0824 15.4862 12.8186C15.3717 13.5254 15.7205 14.7303 16.4408 14.575C17.161 14.4197 16.1546 12.0505 16.1546 12.0505Z" fill="#7D351D"/>
        <path d="M17.8695 20.3068C18.1751 20.6585 18.5787 20.9656 18.9918 21.2139C19.4344 21.4669 19.8713 21.5679 20.3521 21.5853L20.5924 21.594L20.8375 21.5733C21.0827 21.5526 21.3668 21.4777 21.6215 21.3981C22.4149 21.164 23.0356 20.6903 23.533 20.0455C23.8306 19.7009 24.113 19.2631 24.3024 18.8404C24.2427 18.6494 24.1582 18.4242 24.0985 18.2332C23.8293 17.2829 23.5992 16.2786 23.3737 15.2448L23.4175 15.1612L23.3578 14.9702L23.2933 14.8086L23.0927 14.9272L22.8238 15.0952L18.0155 17.9127L17.9846 18.6632L17.9815 19.0556L17.9649 19.7178L17.8695 20.3068Z" fill="#FFB79D"/>
        <path d="M23.4509 14.9548C23.4119 15.009 23.4024 15.0679 23.3586 15.1515C23.3538 15.1809 23.3491 15.2103 23.3148 15.235C23.2663 15.348 23.2178 15.4611 23.1693 15.5741C22.3482 17.2846 20.0508 18.9675 18.2496 18.706C18.1318 18.6869 18.0435 18.6726 17.9257 18.6535C16.1874 18.1906 15.7859 16.1914 16.034 14.6601C16.0435 14.6012 16.053 14.5423 16.0626 14.4834C16.0626 14.4834 16.0474 14.3903 16.0466 14.2088C16.041 14.0568 16.0402 13.8753 16.0194 13.6302C15.9819 12.929 15.938 11.8944 15.8256 10.9091C15.6311 9.12473 16.865 6.54424 20.4823 6.0422C24.1043 5.51071 25.3869 8.22686 25.209 10.0718C25.1621 10.5477 25.0468 11.073 24.8678 11.6182C25.1965 11.6413 25.5555 11.8505 25.7593 12.4577C26.1026 13.5106 24.7355 14.8607 23.4509 14.9548Z" fill="#FFB79D"/>
        <path d="M16.8343 12.7041C16.8551 12.9492 16.9737 13.1498 17.1257 13.1442C17.2483 13.1338 17.3453 12.9078 17.3246 12.6626C17.3038 12.4175 17.1852 12.217 17.0332 12.2226C16.9106 12.2329 16.8136 12.459 16.8343 12.7041Z" fill="#2B2B39"/>
        <path d="M17.642 12.3821L17.6762 12.3574C17.7104 12.3327 17.6857 12.2985 17.6611 12.2643C17.6316 12.2595 17.0362 11.8306 16.4887 12.2255C16.4545 12.2501 16.4497 12.2796 16.4744 12.3138C16.4991 12.348 16.5285 12.3528 16.5627 12.3281C17.0076 12.0073 17.5831 12.3725 17.5831 12.3725C17.6125 12.3773 17.642 12.3821 17.642 12.3821Z" fill="#2B2B39"/>
        <path d="M19.0308 12.5769C19.0516 12.822 19.1702 13.0226 19.3222 13.017C19.4448 13.0066 19.5418 12.7806 19.5211 12.5354C19.5004 12.2903 19.3817 12.0898 19.2297 12.0954C19.1072 12.1057 19.0149 12.3023 19.0308 12.5769Z" fill="#2B2B39"/>
        <path d="M19.868 12.259L19.9023 12.2343C19.9365 12.2096 19.9118 12.1754 19.8871 12.1412C19.8577 12.1364 19.2623 11.7076 18.7148 12.1024C18.6806 12.1271 18.6758 12.1565 18.7005 12.1908C18.7251 12.225 18.7546 12.2297 18.7888 12.2051C19.2337 11.8843 19.8092 12.2495 19.8092 12.2495C19.8092 12.2495 19.8386 12.2542 19.868 12.259Z" fill="#2B2B39"/>
        <path d="M17.2762 13.8945C17.2468 13.8897 17.2221 13.8555 17.1974 13.8213L17.168 13.8165C17.0216 13.9741 16.821 14.0927 16.5711 14.1429C15.8803 14.303 15.1624 13.8845 15.0023 13.1937C14.8422 12.5029 15.2607 11.7849 15.9515 11.6248C16.6423 11.4647 17.3603 11.8832 17.5204 12.574C17.5753 12.7945 17.5666 13.0348 17.499 13.2657C17.5284 13.2704 17.5626 13.2458 17.5921 13.2505C17.6558 13.2306 17.7194 13.2107 17.7783 13.2203C17.8117 13.0141 17.8204 12.7738 17.7655 12.5533C17.5656 11.7352 16.7441 11.2092 15.8965 11.4044C15.0784 11.6043 14.5525 12.4257 14.7476 13.2733C14.9475 14.0914 15.769 14.6174 16.6165 14.4222C16.9007 14.3474 17.1649 14.2089 17.3797 14.0019C17.3304 13.9334 17.3057 13.8992 17.2762 13.8945Z" fill="white"/>
        <path d="M19.9944 14.093C19.1763 14.2929 18.3206 13.7916 18.1255 12.944C17.9256 12.1259 18.4268 11.2702 19.2744 11.0751C20.0926 10.8752 20.9482 11.3764 21.1434 12.224C21.3433 13.0422 20.8126 13.893 19.9944 14.093ZM19.3246 11.325C18.6338 11.4851 18.2153 12.203 18.3754 12.8938C18.5355 13.5846 19.2535 14.0032 19.9443 13.8431C20.6351 13.683 21.0536 12.965 20.8935 12.2742C20.7334 11.5834 20.0154 11.1649 19.3246 11.325Z" fill="white"/>
        <path d="M15.0764 13.2961C15.0421 13.3208 14.988 13.2818 14.9586 13.277C14.9044 13.238 14.9187 13.1497 14.9577 13.0955C14.9577 13.0955 15.2506 12.7803 15.8093 12.6895C15.8729 12.6696 15.9271 12.7086 15.947 12.7722C15.9669 12.8359 15.9279 12.89 15.8642 12.9099C15.3939 13.0151 15.1448 13.2467 15.1448 13.2467C15.1106 13.2714 15.1058 13.3009 15.0764 13.2961Z" fill="white"/>
        <path d="M20.8368 11.6904C21.8546 11.1904 22.6099 11.1919 23.0469 11.2929L23.0382 11.5332C22.6307 11.437 21.939 11.4156 20.9506 11.9204C20.887 11.9403 20.8281 11.9308 20.7787 11.8623C20.7588 11.7987 20.8025 11.7151 20.8368 11.6904Z" fill="white"/>
        <path d="M17.8696 20.3069C19.7709 19.95 20.8387 18.5817 21.3153 17.6918C20.3572 18.3828 19.2311 18.8048 18.2545 18.6769C18.1367 18.6578 18.0484 18.6435 17.9306 18.6244L17.8696 20.3069Z" fill="#2B2B39"/>
        <path d="M18.2805 8.25446C19.6748 7.483 21.0636 7.67775 21.6781 7.98884C22.0418 8.16865 22.6294 9.01935 22.304 9.72218C21.9786 10.425 22.6853 10.5395 22.8438 10.8674C23.0022 11.1952 22.193 12.273 22.193 12.273L22.9802 12.8236C22.9802 12.8236 23.1553 12.4893 23.4329 12.081C23.7106 11.6727 24.8822 11.53 24.8822 11.53C24.8822 11.53 25.4272 10.5907 25.5639 9.37381C25.73 8.16164 23.7995 5.34055 20.1901 5.42076C20.1901 5.42076 19.4998 3.52587 18.4357 3.56505C17.3763 3.57479 17.2731 4.58559 17.2731 4.58559C17.2731 4.58559 16.1403 3.5559 15.4281 4.40763C14.716 5.25935 15.6139 6.43234 15.6139 6.43234C15.6139 6.43234 14.0476 6.0275 13.9785 7.01362C13.9094 7.99974 15.8404 8.76585 15.8404 8.76585C15.8404 8.76585 16.6857 9.14454 18.2805 8.25446Z" fill="#121D27"/>
        <path d="M24.2314 7.52601C24.2314 7.52601 25.5118 6.52455 26.1176 7.076C26.6692 7.58846 25.5582 8.10359 25.5582 8.10359C25.5582 8.10359 26.5682 8.02542 26.6248 8.6088C26.7013 9.25584 25.2942 9.36035 25.2942 9.36035L24.2314 7.52601Z" fill="#121D27"/>
        <path d="M22.5133 14.7729C22.5825 14.905 22.6908 14.983 22.7991 15.061C22.9909 15.1827 23.197 15.2161 23.3443 15.24C23.349 15.2105 23.3538 15.1811 23.3586 15.1516C23.3681 15.0927 23.4071 15.0386 23.4167 14.9797L23.4461 14.9845C23.4167 14.9797 23.3578 14.9702 23.2989 14.9606C23.24 14.9511 23.1516 14.9368 23.068 14.893C22.955 14.8445 22.8173 14.7617 22.7186 14.6249C22.6692 14.5564 22.5809 14.5421 22.5419 14.5963C22.4735 14.6456 22.4592 14.734 22.5133 14.7729Z" fill="#7D351D"/>
        <path d="M19.2026 14.69C19.2026 14.69 19.1885 15.8966 18.2032 16.0089C17.2179 16.1213 17.0419 15.156 17.0419 15.156L19.2026 14.69Z" fill="white"/>
        <path d="M23.7216 14.0317C23.7853 14.0118 23.8195 13.9871 23.8291 13.9282C23.9523 12.981 25.0537 12.5248 25.0585 12.4954C25.1221 12.4755 25.1659 12.3919 25.1165 12.3234C25.0966 12.2598 25.0131 12.216 24.9446 12.2654C24.881 12.2853 23.6816 12.7861 23.5593 13.9147C23.5497 13.9736 23.5991 14.042 23.6874 14.0563C23.6874 14.0563 23.7169 14.0611 23.7216 14.0317Z" fill="#7D351D"/>
        <path d="M24.8713 13.4624C24.9007 13.4672 24.9055 13.4378 24.9055 13.4378C24.9739 13.3884 24.9882 13.3001 24.9341 13.2611C24.9341 13.2611 24.638 12.8504 24.084 12.9118C24.0204 12.9317 23.9519 12.9811 23.967 13.0742C23.987 13.1379 24.0363 13.2063 24.1294 13.1912C24.5266 13.1648 24.724 13.4386 24.724 13.4386C24.7535 13.4434 24.8076 13.4824 24.8713 13.4624Z" fill="#7D351D"/>
        <path d="M17.9012 14.3281C17.9354 14.3034 17.9648 14.3082 17.9696 14.2787C18.0086 14.2246 17.9935 14.1315 17.9099 14.0877L17.133 13.6597L17.7498 13.3969C17.784 13.3722 17.8182 13.3476 17.823 13.3181L18.301 11.6729C18.3106 11.614 18.2954 11.5209 18.2071 11.5066C18.1482 11.4971 18.0551 11.5122 18.0408 11.6005L17.5723 13.1868L16.7597 13.5388C16.7255 13.5634 16.6865 13.6176 16.6817 13.647C16.6722 13.7059 16.6969 13.7401 16.751 13.7791L17.7786 14.3384C17.8375 14.348 17.8669 14.3528 17.9012 14.3281Z" fill="#7D351D"/>
        <path d="M18.2692 12.242C18.235 12.2667 18.1809 12.2277 18.1514 12.2229C18.1268 12.1887 17.9102 12.0327 17.6954 12.2397C17.6564 12.2938 17.5681 12.2795 17.5139 12.2405C17.4598 12.2016 17.4741 12.1132 17.5131 12.0591C17.8059 11.7439 18.1745 11.8942 18.3026 12.0359C18.3568 12.0749 18.3424 12.1632 18.3035 12.2173C18.3329 12.2221 18.3035 12.2173 18.2692 12.242Z" fill="white"/>
        <path d="M20.7063 11.0046C20.7405 10.9799 20.809 10.9306 20.8185 10.8717C20.906 10.7045 20.8558 10.4546 20.6887 10.3671C20.6346 10.3281 19.6364 9.77354 18.7961 10.4836C18.6544 10.6118 18.6163 10.8474 18.7397 11.0185C18.8678 11.1601 19.1034 11.1983 19.2745 11.0749C19.7289 10.6952 20.3092 11.0309 20.3092 11.0309C20.4516 11.0842 20.5742 11.0739 20.7063 11.0046Z" fill="#2B2B39"/>
        <path d="M16.2389 11.1574C16.3614 11.1471 16.4593 11.1025 16.5325 11.0237C16.7227 10.7825 17.2528 10.8684 17.3658 10.9169C17.5672 10.9797 17.7677 10.8611 17.8306 10.6597C17.8934 10.4584 17.7748 10.2578 17.5734 10.195C17.1707 10.0693 16.3955 10.0042 15.9467 10.5359C15.8297 10.6983 15.8504 10.9434 16.0128 11.0604C16.0622 11.1288 16.1505 11.1431 16.2389 11.1574Z" fill="#2B2B39"/>
        <path d="M27.0742 26.5428L27.321 26.885L27.563 27.2566C27.7358 27.4961 27.9038 27.7651 28.0471 27.9999C28.3584 28.5036 28.6991 29.0121 29.0104 29.5159C29.6282 30.5528 30.2459 31.5897 30.8048 32.6171C31.359 33.674 31.8884 34.6966 32.2905 35.7591C32.5087 36.2779 32.6974 36.7921 32.8567 37.3014C33.0159 37.8107 33.1211 38.2811 33.2015 38.7172C33.2214 38.7809 33.2119 38.8398 33.2366 38.874L33.2461 38.8151L33.2557 38.7562C33.2747 38.6384 33.2795 38.609 33.2795 38.609C33.309 38.6137 33.2557 38.7562 33.1976 38.9281C33.1395 39.1001 33.0178 39.2919 32.8913 39.5132C32.7648 39.7344 32.6136 39.9215 32.4823 40.1722C32.1704 40.6052 31.8243 41.0629 31.4487 41.5159C31.2633 41.7276 31.0731 41.9688 30.8877 42.1805C30.7023 42.3923 30.4827 42.6287 30.2972 42.8404C29.8922 43.2886 29.4872 43.7367 29.0527 44.1801C28.6182 44.6235 28.2132 45.0717 27.7493 45.5103C27.3148 45.9537 26.8803 46.3971 26.4212 46.8062L25.7424 47.4518L25.4201 47.7623L25.0978 48.0727L25.0636 48.0974C24.3116 48.8218 24.268 50.0236 24.9924 50.7756C25.638 51.4544 26.6783 51.5624 27.4263 51.0489L27.8322 50.7822L28.238 50.5156C28.5118 50.3181 28.7808 50.1501 29.0251 49.9479C29.5678 49.5825 30.0859 49.1829 30.6039 48.7833C31.122 48.3837 31.64 47.984 32.1581 47.5844C32.6761 47.1848 33.1695 46.7509 33.6629 46.3171C33.9119 46.0854 34.1562 45.8832 34.4053 45.6516C34.6544 45.4199 34.9035 45.1883 35.1525 44.9566C35.6555 44.4639 36.1289 43.9664 36.6119 43.41C36.8363 43.1441 37.0949 42.8536 37.3289 42.5288C37.5628 42.204 37.7967 41.8793 38.0108 41.4908C38.2248 41.1024 38.4484 40.6551 38.6369 40.051C38.7188 39.7318 38.8055 39.3832 38.8134 38.9614C38.8229 38.9025 38.8325 38.8436 38.8126 38.7799C38.8221 38.721 38.8022 38.6573 38.8117 38.5984L38.7966 38.5053L38.8061 38.4464L38.791 38.3533C38.7759 38.2602 38.7655 38.1376 38.7798 38.0493C38.7025 37.2208 38.5519 36.4711 38.3966 35.7508C38.2118 35.0258 38.0223 34.3302 37.7643 33.684C37.2873 32.3375 36.7618 31.1039 36.1726 29.8903C35.5835 28.6767 34.9259 27.5124 34.2683 26.3481C33.9371 25.7807 33.5764 25.2085 33.211 24.6658C33.043 24.3968 32.8456 24.1231 32.653 23.8199L32.3568 23.4092L32.036 22.9644C31.0783 21.6004 29.1689 21.2609 27.8049 22.2186C26.4409 23.1763 26.1062 25.0562 27.0344 26.4154L27.0742 26.5428Z" fill="#FFB79D"/>
        <path d="M34.4326 37.647C34.1883 37.8492 33.944 38.0514 33.7538 38.2926C33.6464 38.3961 33.8335 38.5473 33.9409 38.4438C34.1311 38.2026 34.3412 38.0251 34.5855 37.8229C34.6881 37.7488 34.5647 37.5777 34.4326 37.647Z" fill="#7D351D"/>
        <path d="M33.2404 38.663C33.8221 38.2434 34.4882 38.0491 35.1997 38.1342C35.347 38.158 35.3136 38.3641 35.1616 38.3697C34.5089 38.2942 33.877 38.4639 33.359 38.8635C33.2563 38.9375 33.1329 38.7664 33.2404 38.663Z" fill="#7D351D"/>
        <path d="M25.5604 25.8136C25.641 27.368 28.0355 29.7504 29.1922 31.7511C29.2368 31.849 29.607 32.3623 29.6516 32.4602C30.22 33.4287 30.3689 33.8154 30.3689 33.8154C32.9976 32.6999 34.3234 31.9778 35.6212 30.4957C35.6944 30.4169 35.7382 30.3333 35.8066 30.2839C36.226 29.7474 36.557 29.1966 36.7702 28.6267C35.5074 25.9742 33.8898 24.0198 32.5501 22.7753C32.4713 22.7021 32.3925 22.6289 32.3137 22.5557C31.1611 21.4623 30.3054 20.961 30.3054 20.961C29.4379 21.0925 28.6397 21.3561 27.9744 21.7319C27.8765 21.7765 27.8081 21.8258 27.7396 21.8752C26.2968 22.7597 25.4892 24.2004 25.5604 25.8136Z" fill="#965EEB"/>
        <path d="M26.6654 27.2019C27.8086 29.4723 28.9909 31.6887 30.2711 33.8604C30.3404 33.9925 30.5162 33.8397 30.4422 33.737C29.1915 31.5701 28.0092 29.3537 26.8906 27.1175C26.8165 27.0148 26.5961 27.0697 26.6654 27.2019Z" fill="#322380"/>
        <path d="M26.7912 29.0355C27.229 29.3179 27.6421 29.5662 28.0799 29.8486C28.1881 29.9266 28.3393 29.7395 28.2263 29.691C27.7885 29.4086 27.3754 29.1603 26.9376 28.8778C26.8293 28.7999 26.6781 28.9869 26.7912 29.0355Z" fill="#322380"/>
        <path d="M13.8022 36.0881C13.8136 33.2189 13.3101 30.3569 12.3267 27.6591C12.2869 27.5317 12.0617 27.6161 12.1309 27.7482C13.0849 30.4414 13.5637 33.2691 13.5865 36.1136C13.5921 36.2656 13.8078 36.2401 13.8022 36.0881Z" fill="#322380"/>
    </g>
</svg>
