<svg width="162" height="162" viewBox="0 0 162 162" fill="none" xmlns="http://www.w3.org/2000/svg">
    <g clip-path="url(#clip0_317_66)">
        <path d="M123.037 137.213C123.037 137.213 132.648 151.076 136.05 159.623C139.749 168.893 140.132 179.269 139.537 186.924C138.899 194.621 132.35 228.853 132.35 228.853H32.9286C32.9286 228.853 52.7874 180.205 64.3115 163.876C64.3115 163.876 66.2251 149.29 71.5406 137.213" fill="#965EEB"/>
        <path d="M75.3252 163.11C72.6887 162.94 70.0947 162.6 67.5008 162.132" stroke="#303030" stroke-miterlimit="10" stroke-linecap="round" stroke-linejoin="round"/>
        <path d="M117.467 137.17C121.464 143.719 127.588 152.947 129.714 160.559C133.328 173.529 130.522 187.009 128.14 199.936C126.354 209.589 124.398 219.242 122.4 228.853" stroke="#7248B3" stroke-miterlimit="10" stroke-linecap="round" stroke-linejoin="round"/>
        <path d="M128.268 156.519C117.212 153.712 107.601 146.441 102.541 137" stroke="#7248B3" stroke-miterlimit="10" stroke-linecap="round" stroke-linejoin="round"/>
        <path d="M112.491 22.525C115.978 21.1642 120.316 21.8871 122.4 25.204C123.718 27.2877 123.803 30.0943 122.697 32.263C121.251 35.1972 118.105 36.4729 115.043 36.8131C111.386 37.2383 107.856 35.9201 105.39 33.156C105.007 27.2452 108.707 24.0133 112.491 22.525Z" fill="#441533"/>
        <path d="M122.315 26.905C123.505 28.4784 123.505 31.8378 122.442 33.6664C121.124 35.9202 118.785 37.5786 116.234 38.0039C113.427 38.4716 110.493 37.7912 108.154 36.1328" stroke="#441533" stroke-miterlimit="10" stroke-linecap="round"/>
        <path d="M121.379 24.5236C121.889 27.5853 120.103 30.4769 117.382 31.7952C113.98 33.4111 109.642 33.156 106.113 32.1779" stroke="#704162" stroke-miterlimit="10" stroke-linecap="round"/>
        <path d="M76.1332 31.37C73.6243 32.8583 71.6257 35.1547 70.4775 37.8337C69.2018 40.938 68.8616 44.6376 65.5447 46.2535C62.483 47.7418 60.6119 50.7185 61.9301 54.3756C62.1428 54.9284 62.3979 55.5663 62.1002 56.0766C61.8876 56.4168 61.5474 56.5869 61.2072 56.7144C56.8697 58.7556 53.8931 63.2206 53.0851 67.9834C52.3197 72.7461 53.5954 77.6789 56.0618 81.8037C58.5282 85.9286 62.1428 89.288 66.14 91.967C70.4775 94.8587 76.3458 96.9849 79.7478 100.982C83.1072 104.937 86.7218 106.893 91.8247 108.084C99.3515 109.87 107.176 110.21 114.83 109.189C118.913 108.637 122.995 107.914 126.822 106.425C130.819 104.852 133.966 102.3 137.453 99.8765C140.387 97.8354 143.832 96.3045 146.383 93.668C149.615 90.3936 151.869 86.0561 152.167 81.4635C152.592 75.1699 149.232 71.2577 143.492 69.4717C139.282 68.1535 134.264 67.4731 131.968 63.2632C129.969 59.6486 132.946 55.141 132.18 51.1012C131.627 48.1671 129.118 45.9133 126.397 44.6376C123.675 43.3618 120.656 42.8941 117.807 42.0436C116.021 41.5333 114.32 40.8954 112.619 40.13C111.769 39.7473 110.876 39.2795 110.195 38.6416C108.919 37.4084 108.494 35.5374 108.111 33.8364" fill="#441533"/>
        <path d="M106.836 38.9818C107.091 40.4276 108.111 41.6183 109.302 42.4688C113.342 45.2754 119.848 45.3604 122.825 49.6129C124.313 51.6966 124.313 54.4606 124.058 56.9696C123.76 59.4785 123.208 62.0725 123.718 64.5389C124.101 66.3674 125.036 68.1109 126.397 69.4292C130.989 73.8942 138.048 73.8092 140.855 80.3579C143.619 86.694 140.302 94.4759 135.88 99.2386" stroke="#704162" stroke-miterlimit="10" stroke-linecap="round"/>
        <path d="M108.154 36.5155C110.28 39.2796 113.682 39.5347 116.786 40.1301C119.848 40.7254 123.037 40.9805 125.972 42.0862C128.906 43.1918 131.712 45.2755 132.861 48.3372C134.476 52.7172 132.52 58.373 135.369 61.9875C136.177 63.0081 137.283 63.731 138.431 64.3263C141.535 65.8572 144.937 66.4951 147.999 68.2386C152.634 70.8751 155.824 75.8929 155.398 81.5912C155.016 86.7791 151.656 91.0316 147.701 93.8807C147.191 94.2209 146.681 94.5611 146.171 94.8587C143.959 96.177 141.621 97.2826 139.324 98.4308C138.261 98.9836 137.198 99.664 136.092 100.174C134.817 100.77 133.413 101.067 132.095 101.578" stroke="#441533" stroke-miterlimit="10" stroke-linecap="round"/>
        <path d="M99.0112 45.4031L99.9893 52.5046L102.541 62.838C102.541 62.838 99.0963 70.5349 88.7204 70.5349C80.8109 70.5349 79.4926 64.4539 79.4926 64.4539L79.4501 52.5046" fill="#FFC1AA"/>
        <path d="M82.1716 24.0984C80.0029 24.396 76.0056 26.097 73.9645 29.7541C72.4761 32.3906 72.0084 35.0696 71.8383 38.8968C71.6682 42.2137 72.1784 50.3358 73.3266 53.6527C74.092 55.7789 76.601 58.5855 81.3212 58.9257C87.4021 59.3509 93.2279 55.6088 95.8219 51.5265C98.3734 47.4016 99.5641 40.5552 98.4584 35.3673C96.885 27.9681 90.1237 22.9502 82.1716 24.0984Z" fill="#FFC1AA"/>
        <path d="M84.6806 19.123C89.6984 18.3151 95.014 19.7184 99.1388 22.6951C100.84 23.9283 102.328 25.3741 103.561 27.0326C105.73 29.9667 107.133 33.4537 107.389 37.1108C107.644 40.7253 106.793 44.4675 104.837 47.5292C104.157 48.6349 101.308 51.2714 101.308 51.2714L98.4159 40.13C92.7177 39.3221 85.1909 35.1972 82.2567 27.3727C82.2567 27.3727 74.7724 27.1176 72.2635 34.8995C71.0303 25.0764 79.6627 19.8885 84.6806 19.123Z" fill="#441533"/>
        <path d="M107.729 34.6019C106.708 35.3673 105.39 35.665 104.114 35.7926C100.84 36.0902 97.4804 35.2398 94.5462 33.7939C91.612 32.3056 89.018 30.1794 86.7643 27.7555" stroke="#704162" stroke-miterlimit="10" stroke-linecap="round"/>
        <path d="M107.474 36.4729C104.837 39.6197 100.117 40.8104 96.2897 39.3645" stroke="#704162" stroke-miterlimit="10" stroke-linecap="round"/>
        <path d="M95.3542 41.831C95.7794 40.2151 97.0126 38.4716 98.7561 38.1739C100.415 37.8763 102.03 39.0669 102.626 40.5978C103.434 42.6815 103.094 45.2329 102.073 47.1465C101.052 49.1452 98.7561 51.0162 96.4173 49.8681C95.5243 49.4428 94.8439 48.6349 94.6312 47.6994" fill="#FFC1AA"/>
        <path d="M100.159 41.7034C98.8411 43.0641 97.6079 44.51 96.4598 45.9983" stroke="#303030" stroke-miterlimit="10" stroke-linecap="round" stroke-linejoin="round"/>
        <path d="M96.7149 39.2795C96.0345 40.13 95.5668 41.0656 95.2691 42.0861" stroke="#303030" stroke-miterlimit="10" stroke-linecap="round" stroke-linejoin="round"/>
        <path d="M99.1388 49.9531C97.5654 50.591 95.7369 49.9531 94.8013 48.5498" stroke="#303030" stroke-miterlimit="10" stroke-linecap="round" stroke-linejoin="round"/>
        <path d="M77.2388 44.4249C77.2814 45.1904 77.1538 45.9983 76.8136 46.6787C76.4309 47.4016 75.2402 47.8269 76.2183 48.6773C76.6435 49.0601 77.1113 49.3152 77.6216 49.5704" stroke="#303030" stroke-miterlimit="10" stroke-linecap="round" stroke-linejoin="round"/>
        <path d="M83.2737 42.6602C83.3162 43.3406 83.6989 43.8509 84.1667 43.8509C84.5919 43.8084 84.9321 43.2556 84.8896 42.5752C84.8471 41.8948 84.4643 41.3845 83.9966 41.3845C83.5288 41.3845 83.2312 41.9799 83.2737 42.6602Z" fill="#303030"/>
        <path d="M73.7482 42.9791C73.7908 43.6595 74.1735 44.1698 74.6413 44.1698C75.0665 44.1272 75.4067 43.5744 75.3642 42.894C75.3216 42.2137 74.9389 41.7034 74.4712 41.7034C74.0034 41.7034 73.7057 42.2987 73.7482 42.9791Z" fill="#303030"/>
        <path d="M78.1744 51.4415L81.1511 48.89C81.1511 48.89 83.3623 52.2494 81.5338 53.4401C80.0029 54.3756 78.1744 51.4415 78.1744 51.4415Z" fill="white"/>
        <path d="M84.8932 35.1122C83.4899 34.4318 81.5338 34.6019 80.2155 35.4524" stroke="#303030" stroke-miterlimit="10" stroke-linecap="round" stroke-linejoin="round"/>
        <path d="M74.6874 36.6856C73.2416 35.75 71.8808 35.7925 70.9027 36.6856" stroke="#303030" stroke-miterlimit="10" stroke-linecap="round" stroke-linejoin="round"/>
        <path d="M92.1223 54.5883C88.8054 57.9477 84.553 59.4785 79.4926 58.9257" stroke="#303030" stroke-miterlimit="10" stroke-linecap="round" stroke-linejoin="round"/>
        <path d="M40.0301 103.449L37.3511 110.423L22.8929 98.1331L14.4306 113.527C21.1069 127.39 32.801 141.423 40.0301 142.869C47.2167 144.314 53.2977 137.936 55.7216 133.683C59.2511 127.517 66.8629 107.744 66.8629 107.744" fill="#FFC1AA"/>
        <path d="M37.3511 110.465C37.3936 110.465 49.2579 120.161 51.6818 125.986" stroke="#303030" stroke-miterlimit="10" stroke-linecap="round" stroke-linejoin="round"/>
        <path d="M74.6023 66.8777C74.6023 66.8777 67.2031 64.4113 62.0151 65.0917C55.1687 65.9847 50.9589 71.768 47.8546 78.4443C44.7503 85.0781 37.8189 104.342 37.8189 104.342L66.6503 112.464L75.3678 84.4403" fill="#F0E7FF"/>
        <path d="M69.0742 104.767L40.5404 96.8999" stroke="#965EEB" stroke-miterlimit="10" stroke-linecap="round"/>
        <path d="M64.9919 78.4444C62.8656 82.1015 60.6969 85.8011 59.2511 89.7983C57.8053 93.7956 57.0824 98.1331 57.9328 102.3C58.7408 106.468 61.76 110.678 65.1194 113.527L71.5406 137.17H123.037C123.037 137.17 123.335 105.192 120.103 81.6762L104.072 63.6885L87.0194 67.6858L71.9658 66.7927" fill="#F0E7FF"/>
        <path d="M84.8081 67.5581C83.66 88.1398 79.0249 95.7091 83.66 110.423C84.9357 114.505 87.6573 137.17 87.6573 137.17" stroke="#303030" stroke-miterlimit="10" stroke-linecap="round" stroke-linejoin="round"/>
        <path d="M84.9782 109.189C84.9782 109.827 85.4885 110.295 86.0839 110.295C86.7217 110.295 87.1895 109.785 87.1895 109.189C87.1895 108.594 86.6792 108.084 86.0839 108.084C85.4885 108.084 84.9782 108.594 84.9782 109.189Z" fill="#965EEB"/>
        <path d="M88.3802 127.73C88.3802 128.368 88.8905 128.836 89.4858 128.836C90.0812 128.836 90.5914 128.325 90.5914 127.73C90.5914 127.135 90.0812 126.624 89.4858 126.624C88.8905 126.624 88.3802 127.092 88.3802 127.73Z" fill="#965EEB"/>
        <path d="M83.5749 91.7969C83.5749 92.4348 84.0852 92.9025 84.6806 92.9025C85.2759 92.9025 85.7862 92.3923 85.7862 91.7969C85.7862 91.2016 85.2759 90.6913 84.6806 90.6913C84.0852 90.6913 83.5749 91.1591 83.5749 91.7969Z" fill="#965EEB"/>
        <path d="M85.2334 73.0013C85.2334 73.6391 85.7437 74.1069 86.339 74.1069C86.9344 74.1069 87.4447 73.5966 87.4447 73.0013C87.4447 72.3634 86.9344 71.8956 86.339 71.8956C85.7437 71.8956 85.2334 72.3634 85.2334 73.0013Z" fill="#965EEB"/>
        <path d="M64.9919 78.4443C62.8656 82.1014 60.6969 85.801 59.2511 89.7983C57.8053 93.7956 57.0824 98.1331 57.9328 102.3C58.3156 104.257 59.2086 106.255 60.3567 108.084" stroke="#303030" stroke-miterlimit="10" stroke-linecap="round" stroke-linejoin="round"/>
        <path d="M138.814 105.235C138.814 105.235 141.791 120.884 141.961 124.626C142.131 128.368 142.641 134.364 139.154 136.788C135.667 139.169 110.961 129.729 110.961 129.729L109.685 106.595" fill="#FFC1AA"/>
        <path d="M98.7561 61.7323L106.07 64.4964C106.07 64.4964 111.769 63.7735 115.256 63.7735C118.742 63.7735 125.546 63.6459 129.969 71.1301C133.881 77.7639 134.476 81.7612 137.028 90.6063C139.579 99.4513 141.408 107.744 141.408 107.744L108.579 112.804L106.07 82.0589" fill="#F0E7FF"/>
        <path d="M108.579 112.804L106.751 81.8888" stroke="#303030" stroke-miterlimit="10" stroke-linecap="round" stroke-linejoin="round"/>
        <path d="M102.541 57.4374L85.1483 67.6007L93.1004 78.2317L106.07 64.4964L102.541 57.4374Z" fill="#F0E7FF"/>
        <path d="M78.7272 61.9874L85.1483 67.6006L77.4515 76.2756L74.6023 66.8777L78.7272 61.9874Z" fill="#F0E7FF"/>
        <path d="M85.1483 67.6007L93.1004 78.2318L106.07 64.4965" stroke="#303030" stroke-miterlimit="10" stroke-linecap="round" stroke-linejoin="round"/>
        <path d="M85.1483 67.6007L77.4515 76.2757L74.6023 66.8778" stroke="#303030" stroke-miterlimit="10" stroke-linecap="round" stroke-linejoin="round"/>
        <path d="M85.2759 67.303L96.885 69.982L95.2266 72.7036L84.9782 68.7063L85.2759 67.303Z" fill="#FF4053"/>
        <path d="M85.2759 67.303L76.3033 68.9614L77.1538 71.8956L85.4035 68.7488L85.2759 67.303Z" fill="#FF4053"/>
        <path d="M85.7012 67.4305C85.7862 67.4731 89.9111 87.1618 89.9111 87.1618C89.9111 87.1618 86.8918 88.0973 86.7643 88.0123C86.6367 87.9272 84.8932 68.8764 84.8932 68.8764L85.7012 67.4305Z" fill="#FF4053"/>
        <path d="M84.2553 68.7063C84.1703 68.7488 76.5159 90.8189 76.5159 90.8189C76.5159 90.8189 79.365 92.1797 79.5351 92.1371C79.6627 92.0521 85.6161 69.004 85.6161 69.004L84.2553 68.7063Z" fill="#FF4053"/>
        <path d="M86.3815 67.6432C86.339 67.8558 86.2965 68.0259 86.2115 68.196C86.1264 68.4511 86.0839 68.7488 86.0839 69.0465C86.0839 69.089 86.0839 69.089 86.0413 69.089C86.0413 69.1315 85.9988 69.089 85.9988 69.089C85.4885 69.089 84.9782 69.1315 84.468 69.089C84.2553 68.5787 84.2128 67.9834 84.3404 67.4305" stroke="#B8434F" stroke-miterlimit="10" stroke-linecap="round"/>
        <path d="M139.749 100.685L108.154 105.235" stroke="#303030" stroke-miterlimit="10" stroke-linecap="round" stroke-linejoin="round"/>
        <path d="M73.7394 75.9158L76.2154 77.2372L60.4994 106.686L58.0234 105.365L73.7394 75.9158Z" fill="#B8434F"/>
        <path d="M74.3897 76.2756L58.6557 105.702" stroke="#FF4053" stroke-miterlimit="10" stroke-linecap="round"/>
        <path d="M75.4103 76.7859L59.6763 106.255" stroke="#FF4053" stroke-miterlimit="10" stroke-linecap="round"/>
        <path d="M60.4843 106.68L57.3375 109.445L58.0179 105.362" fill="#965EEB"/>
        <path d="M141.876 131.472C141.45 137.17 139.282 140.147 135.114 141.848C130.947 143.549 124.483 142.656 120.061 141.763C112.747 140.275 105.73 135.639 99.3514 131.77C92.9728 127.9 75.5804 114.76 75.5804 114.76L63.5035 96.0919C66.4802 95.1564 69.4994 94.2208 72.6462 94.1358C79.9179 93.9657 87.8699 97.6653 94.5462 100.217C101.648 102.938 108.579 106.043 115.426 109.232C121.549 112.124 127.715 114.973 133.839 117.864" fill="#FFC1AA"/>
        <path d="M90.4639 99.026C86.254 97.3676 83.6175 96.2194 79.1949 94.9012C77.0262 94.2633 73.3691 93.3278 71.1153 93.1577C69.5419 93.0301 67.926 93.3278 66.3526 93.668C62.5254 94.5185 59.0385 96.3896 56.7847 99.9616C55.7216 101.663 54.9561 103.534 54.1907 105.405C53.7655 106.468 53.3402 107.531 53.0425 108.679C52.8299 109.444 52.3196 110.89 52.7449 111.656C53.5954 113.187 56.1893 111.06 56.9122 110.295C58.273 108.764 58.7408 106.808 59.8039 105.15C60.2717 104.469 60.8245 103.831 61.4198 103.278C60.9946 104.469 60.6969 105.787 60.6119 107.233C60.5693 108.339 60.3567 109.615 61.0371 110.55C61.7175 111.486 61.9301 111.528 63.0783 111.613C63.2058 112.931 64.439 113.952 65.6722 113.739C65.5021 113.782 66.2676 115.015 66.3526 115.1C66.6503 115.398 67.0755 115.866 67.4583 116.036C68.4788 116.504 70.0522 115.653 70.9878 115.27C71.3705 115.143 71.7107 114.973 72.1359 114.973C72.4761 114.973 72.7738 115.015 73.114 115.1C76.686 115.951 79.9604 118.417 83.66 118.29L90.4639 99.026Z" fill="#FFC1AA"/>
        <path d="M62.9507 111.783C63.4185 107.658 65.6297 103.746 68.819 101.365" stroke="#303030" stroke-miterlimit="10" stroke-linecap="round" stroke-linejoin="round"/>
        <path d="M65.7573 113.825C65.9274 113.144 66.3101 112.549 66.6928 111.996C68.1812 109.955 70.1373 108.211 72.306 107.021" stroke="#303030" stroke-miterlimit="10" stroke-linecap="round" stroke-linejoin="round"/>
        <path d="M69.6695 115.781C69.7971 115.568 70.0097 115.483 70.2223 115.44C71.8808 114.888 73.5392 114.462 75.2402 114.08" stroke="#303030" stroke-miterlimit="10" stroke-linecap="round" stroke-linejoin="round"/>
        <path d="M61.3773 103.363C62.653 100.982 64.0563 98.8559 66.0975 97.24" stroke="#303030" stroke-miterlimit="10" stroke-linecap="round" stroke-linejoin="round"/>
        <path d="M132.818 117.822C128.523 115.313 124.058 113.102 119.465 111.146" stroke="#303030" stroke-miterlimit="10" stroke-linecap="round" stroke-linejoin="round"/>
        <path d="M87.232 97.155L91.2718 98.8135C91.6971 107.318 90.2512 115.44 86.8918 123.307L82.9796 120.713C86.1689 113.314 87.6573 105.192 87.232 97.155Z" fill="#7A4A44"/>
        <path d="M90.5489 111.783C92.3349 111.103 93.1429 108.892 92.3349 106.851C91.527 104.809 89.4433 103.746 87.6998 104.469C85.9138 105.15 85.1058 107.361 85.9138 109.402C86.6792 111.401 88.7629 112.464 90.5489 111.783Z" fill="#995F56"/>
        <path d="M90.0386 111.996C88.7204 112.294 86.8918 111.571 86.254 110.338" stroke="#303030" stroke-miterlimit="10" stroke-linecap="round" stroke-linejoin="round"/>
        <path d="M91.2293 105.064C90.3788 104.384 89.2732 104.044 88.1676 104.129C87.7848 104.171 87.4021 104.256 87.1045 104.469" stroke="#303030" stroke-miterlimit="10" stroke-linecap="round" stroke-linejoin="round"/>
        <path d="M87.5297 105.702L89.1882 108.211L87.3596 109.445" stroke="#303030" stroke-miterlimit="10" stroke-linecap="round" stroke-linejoin="round"/>
        <path d="M6.56358 70.5774H52.3196L76.7285 129.601H30.9725L6.56358 70.5774Z" fill="#04E061"/>
        <mask id="mask0_317_66" style="mask-type:luminance" maskUnits="userSpaceOnUse" x="6" y="70" width="71" height="60">
            <path d="M6.56358 70.5774H52.3196L76.7285 129.601H30.9725L6.56358 70.5774Z" fill="white"/>
        </mask>
        <g mask="url(#mask0_317_66)">
            <path d="M48.7476 69.089L74.5598 131.557" stroke="#10B957" stroke-miterlimit="10" stroke-linecap="round"/>
            <path d="M38.5843 69.089L64.3965 131.557" stroke="#10B957" stroke-miterlimit="10" stroke-linecap="round"/>
            <path d="M28.421 69.089L54.2332 131.557" stroke="#10B957" stroke-miterlimit="10" stroke-linecap="round"/>
            <path d="M76.3458 126.582H27.4004" stroke="#10B957" stroke-miterlimit="10" stroke-linecap="round"/>
            <path d="M18.2577 69.089L44.0699 131.557" stroke="#10B957" stroke-miterlimit="10" stroke-linecap="round"/>
            <path d="M8.09444 69.089L33.9492 131.557" stroke="#10B957" stroke-miterlimit="10" stroke-linecap="round"/>
            <path d="M71.4555 113.314H22.5102" stroke="#10B957" stroke-miterlimit="10" stroke-linecap="round"/>
            <path d="M66.5652 100.047H17.6199" stroke="#10B957" stroke-miterlimit="10" stroke-linecap="round"/>
            <path d="M60.8245 86.7791H11.8791" stroke="#10B957" stroke-miterlimit="10" stroke-linecap="round"/>
            <path d="M55.9342 73.5541H6.98882" stroke="#10B957" stroke-miterlimit="10" stroke-linecap="round"/>
        </g>
        <path d="M12.8572 69.1741H43.2195L45.3457 74.362H14.9834L12.8572 69.1741Z" fill="#D3A585"/>
        <path d="M23.4032 66.41C22.8078 64.4114 23.956 62.923 26.0397 63.0506C28.1234 63.2207 30.2921 64.9642 30.8874 66.9628C31.4828 68.9615 30.3346 70.4498 28.2509 70.3222C26.2098 70.1947 24.041 68.4086 23.4032 66.41ZM28.8037 66.8353C28.5486 65.9422 27.5705 65.1768 26.6775 65.1343C25.7845 65.0492 25.2742 65.7296 25.5294 66.5801C25.7845 67.4731 26.7626 68.2385 27.6556 68.2811C28.5486 68.3661 29.0589 67.7283 28.8037 66.8353Z" fill="#D3A585"/>
        <path d="M23.9135 119.14C24.6789 115.738 25.0191 112.549 23.5307 109.274C22.255 106.51 20.7667 103.831 23.0204 101.11C23.7433 100.259 24.5513 99.1111 25.4443 98.4733C27.0602 97.3251 28.421 96.0919 28.5911 94.0933C28.6336 93.7531 28.5911 93.3704 28.421 93.0727C28.1233 92.6474 27.4855 92.6475 26.9752 92.7325C26.4649 92.8601 25.4443 93.2853 25.4443 93.2853C25.4443 93.2853 28.0808 91.3717 28.8037 90.0535C29.1014 89.5007 29.3566 88.8628 29.1865 88.2675C29.0164 87.6721 27.7832 87.417 27.7832 87.417C27.7832 87.417 28.5911 86.9067 28.8888 86.524C29.1865 86.1412 29.2715 85.5884 29.0164 85.2057C28.7612 84.7805 28.2509 84.6529 27.7832 84.5678C26.635 84.3977 25.4868 84.3127 24.3812 84.3978C25.5719 84.4403 26.9752 82.9519 26.55 82.1014C26.1672 81.2935 20.2989 82.4416 17.1521 83.4622C15.5787 83.9725 13.9628 84.6529 12.8146 85.8861C9.71035 89.288 9.28512 93.0302 9.28512 97.3251C9.28512 98.8135 9.71036 101.28 10.008 102.726C10.3057 104.172 10.816 105.575 11.4113 106.936C13.1973 111.316 15.3661 115.525 17.9175 119.523" fill="#FFC1AA"/>
        <path d="M25.5719 93.2003C22.8503 95.1564 19.2358 96.6023 18.1727 100.089" stroke="#303030" stroke-miterlimit="10" stroke-linecap="round" stroke-linejoin="round"/>
        <path d="M28.1234 87.3319C25.657 87.9272 23.2756 88.7352 21.0218 89.8834C18.9381 90.9465 15.8764 93.668 14.4306 96.8573" stroke="#303030" stroke-miterlimit="10" stroke-linecap="round" stroke-linejoin="round"/>
        <path d="M24.4663 84.4403C19.9162 85.0782 14.1754 87.3319 11.8791 91.7545" stroke="#303030" stroke-miterlimit="10" stroke-linecap="round" stroke-linejoin="round"/>
        <path d="M24.6789 114.292C24.849 115.525 24.3387 118.375 24.1686 119.353" stroke="#303030" stroke-miterlimit="10" stroke-linecap="round" stroke-linejoin="round"/>
        <path d="M41.6461 70.875H16.089" stroke="#303030" stroke-miterlimit="10" stroke-linecap="round" stroke-linejoin="round"/>
    </g>
    <defs>
        <clipPath id="clip0_317_66">
            <rect width="162" height="162" rx="12" fill="white"/>
        </clipPath>
    </defs>
</svg>
