<svg width="376" height="668" viewBox="0 0 376 668" fill="none" xmlns="http://www.w3.org/2000/svg">
<g clip-path="url(#clip0_601_2)">
<path d="M500.698 494.511L463.211 452.899C454.313 443.051 442.07 436.754 428.71 435.317L255.392 416.667C242.033 415.229 228.73 418.777 217.823 426.494L172.342 459.178C159.371 468.451 157.822 487.251 169.055 498.536L296.05 626.003C308.889 638.883 329.045 641.052 344.33 631.198L495.536 533.667C509.03 525.043 511.503 506.461 500.698 494.511Z" fill="#965EEB"/>
<path d="M161.354 591.534L77.07 609.951C53.6851 615.089 33.0481 627.638 17.819 645.981L-37.3105 712.342C-61.3722 741.366 -32.2793 789.209 4.56088 781.198L88.8454 762.782C112.23 757.644 132.867 745.095 148.096 726.751L203.226 660.39C227.35 631.468 198.195 583.524 161.354 591.534Z" fill="#00E166"/>
<path d="M128.878 560.327C147.8 531.141 139.388 492.073 110.135 473.209C67.4419 445.596 27.6405 413.563 -8.48111 377.608C-33.1712 352.986 -73.1278 353.057 -97.6243 377.755C-122.247 402.445 -122.176 442.402 -97.4189 466.965C-55.02 509.162 -8.3195 546.656 41.7601 579.07C70.9459 597.992 109.947 589.639 128.878 560.327Z" fill="#FF4053"/>
<path d="M239.62 655.962L220.621 777.777C218.608 790.329 232.891 799.021 243.143 791.542L393.624 681.761C403.877 674.281 399.96 658.026 387.392 656.112L265.634 637.071C253.222 635.13 241.603 643.607 239.62 655.962Z" fill="#00AAFF"/>
</g>
<defs>
<clipPath id="clip0_601_2">
<rect width="375" height="667" fill="white" transform="translate(0.12085 0.894531)"/>
</clipPath>
</defs>
</svg>
