<svg width="43" height="43" viewBox="0 0 43 43" fill="none" xmlns="http://www.w3.org/2000/svg">
    <circle cx="21.1208" cy="21.8721" r="21" fill="#965EEB"/>
    <mask id="mask0_122_48234" style="mask-type:alpha" maskUnits="userSpaceOnUse" x="0" y="0" width="43" height="43">
        <circle cx="21.1208" cy="21.8721" r="21" fill="#FF4053"/>
    </mask>
    <g mask="url(#mask0_122_48234)">
        <path d="M21.0735 9.73572C22.3081 12.1145 24.8976 12.0241 26.373 11.0606C26.7343 10.8197 27.0053 10.5186 27.186 10.2175C28.1495 8.5313 26.644 5.00836 23.3017 4.88791C21.4048 4.82769 20.923 6.39345 20.8929 7.77853C20.8628 8.8023 21.0735 9.73572 21.0735 9.73572Z" fill="#121633"/>
        <path d="M21.0736 9.73596C22.3081 12.1147 24.8976 12.0244 26.373 11.0608C24.6869 7.92932 22.0973 7.68843 20.8929 7.77877C20.8628 8.80253 21.0736 9.73596 21.0736 9.73596Z" fill="#00AAFF"/>
        <path d="M18.7852 8.35044C18.7852 8.35044 25.5902 7.29657 27.2764 14.1016C28.541 19.1903 28.812 21.569 28.812 21.569C30.1068 29.9398 23.2416 33.5229 14.2084 28.0729C14.2084 28.0729 11.3178 18.0762 12.7028 13.3488C14.118 8.59133 18.7852 8.35044 18.7852 8.35044Z" fill="#121633"/>
        <path d="M7.25281 57.762C8.09591 57.762 8.9089 57.3405 9.42078 56.5877C9.45089 56.5275 10.4746 55.022 11.5285 53.1852C13.6062 49.6322 14.0578 48.1568 14.2385 47.3739C14.9009 44.2123 16.6774 32.1379 16.7377 31.626C16.9484 30.2108 15.9548 28.886 14.5396 28.6752C13.1244 28.4644 11.7995 29.4581 11.5887 30.8733C11.5586 30.9937 9.75199 43.3089 9.14978 46.32C8.9089 47.404 6.86137 51.0474 5.08485 53.7272C4.30197 54.9316 4.63319 56.5275 5.8075 57.3405C6.25916 57.6416 6.77104 57.762 7.25281 57.762Z" fill="#FF4053"/>
        <path d="M12.7931 39.0937C12.8233 39.4551 12.8534 39.8766 12.8835 40.3584C12.8835 40.539 12.8835 40.7197 12.9136 40.9004C12.9738 42.436 13.0039 44.4534 13.0942 46.5612C13.0942 46.7418 13.1244 46.9526 13.1244 47.1333C13.3652 51.6499 12.9437 53.3662 12.5523 55.1126C11.6791 59.0571 27.5172 57.9731 29.9261 56.9794C31.7628 56.2267 32.3048 46.9225 31.8833 41.1412C31.8833 40.9606 31.8532 40.7498 31.8532 40.5691C31.7327 39.0034 31.6424 37.7086 31.6725 36.9559C31.7327 33.463 31.3714 29.7293 30.8896 28.1033C30.4079 26.5075 24.5965 25.0923 24.5965 25.0923L17.8818 25.7848C17.8818 25.7848 15.1719 26.3569 12.7931 28.7056C10.4144 31.0542 12.4619 35.4202 12.7931 39.0937Z" fill="#FF4053"/>
        <path d="M21.3448 32.1984L24.5667 39.5153L20.9233 39.3948L23.4827 44.7545L14.9915 36.7451L19.6285 36.4741L15.6539 32.0479L21.3448 32.1984Z" fill="#303030"/>
        <path d="M20.1099 29.338C22.6392 29.3982 25.0781 26.5076 25.1685 26.3872C25.2287 26.2969 25.2287 26.1764 25.1384 26.1162C25.048 26.056 24.9276 26.056 24.8674 26.1463C24.8373 26.1764 22.4585 29.0068 20.1099 28.9466C18.4538 28.9165 17.8516 27.1701 17.8215 27.1098C17.7914 27.0195 17.6709 26.9593 17.5806 26.9894C17.4903 27.0195 17.43 27.1399 17.4602 27.2303C17.4602 27.3206 18.1527 29.3079 20.1099 29.338Z" fill="#303030"/>
        <path d="M14.8709 18.3471C14.8709 18.3471 13.7568 17.3535 13.3654 18.5579C12.974 19.7623 13.7267 21.9905 15.1118 21.4184L14.8709 18.3471Z" fill="#E0693E"/>
        <path d="M18.0926 23.8275L18.3937 26.9289C18.3937 26.9289 20.5617 29.428 25.0181 25.4836C23.9341 24.5802 23.633 22.5929 23.8438 21.3584C23.8438 21.3584 23.5125 21.5391 22.9705 21.9606C22.8501 22.0509 22.7297 22.1112 22.6092 22.1714C21.4349 22.8639 19.6584 23.7371 18.0926 23.8275Z" fill="#F5C7B8"/>
        <path d="M18.0925 23.8273L18.2431 25.3027C19.5378 24.821 21.8564 23.7671 22.9705 21.9604C22.85 22.0207 22.7296 22.111 22.6091 22.1712C21.4348 22.8638 19.6583 23.737 18.0925 23.8273Z" fill="#121633"/>
        <path d="M13.9072 18.4678C13.9674 18.799 13.9975 19.1001 14.0276 19.3711C14.3588 21.5391 14.6599 22.6833 15.2621 23.165C18.2732 25.5137 23.6329 21.4788 23.8136 21.3283C23.8437 21.0874 23.8437 20.8164 23.8738 20.5755C23.9641 18.4979 23.7232 16.631 23.2716 14.8545C23.121 12.9575 21.7359 11.3617 19.8992 10.9702C17.9721 10.5487 16.4365 11.6026 15.503 12.0241C14.0878 12.6865 13.3953 14.7341 13.7867 17.5042C13.8168 17.8656 13.8771 18.1667 13.9072 18.4678Z" fill="#F5C7B8"/>
        <path d="M16.2257 18.5581C16.0451 18.5882 15.9547 18.5581 15.9246 18.5581C15.8945 18.5581 15.8343 18.528 15.8343 18.4979C15.8042 18.4678 15.8042 18.4377 15.8042 18.3774L16.1354 16.7816C16.1655 16.6912 16.2257 16.6611 16.3161 16.6611C16.4064 16.6912 16.4365 16.7515 16.4365 16.8418L16.1655 18.257C16.3161 18.257 16.5268 18.1968 16.7376 18.0462C16.7978 17.986 16.8882 18.0161 16.9484 18.0763C17.0086 18.1366 16.9785 18.2269 16.9183 18.2871C16.6473 18.4678 16.4064 18.528 16.2257 18.5581Z" fill="#121633"/>
        <path d="M18.3637 18.3175C18.3938 18.5584 18.9659 18.7089 19.5983 18.6186C20.2306 18.5283 20.7425 18.2573 20.7124 17.9863C20.6822 17.7454 20.1101 17.5949 19.4778 17.6852C18.8154 17.8056 18.3035 18.0766 18.3637 18.3175Z" fill="#E0693E"/>
        <g opacity="0.8">
            <path d="M13.9073 18.468C13.9676 18.7992 13.9977 19.1003 14.0278 19.3713C14.63 19.281 15.0515 19.01 15.0214 18.7691C14.9913 18.5583 14.5096 18.4077 13.9073 18.468Z" fill="#E0693E"/>
        </g>
        <path d="M17.7616 14.463C17.6411 14.463 17.5207 14.4931 17.4303 14.5533C17.3099 14.6436 17.2196 14.7942 17.3701 15.0652C17.611 15.5469 18.6348 14.8243 19.5381 15.6373C19.5381 15.6373 19.7188 14.4328 17.7616 14.463Z" fill="#121633"/>
        <path d="M15.1721 14.7942C15.1721 14.7942 15.7141 14.7641 15.5936 15.3061C15.4732 15.818 14.2989 15.4266 13.6364 16.4503C13.6364 16.4503 13.1547 15.3061 15.1721 14.7942Z" fill="#121633"/>
        <path d="M23.7231 16.5707C23.7231 16.5707 22.5187 17.5643 22.4886 18.558C22.4886 18.558 21.8563 16.8116 21.9466 15.6373C22.0068 14.4629 20.6519 12.7768 18.4237 12.9273C16.1654 13.0779 16.617 11.9939 16.617 11.9939C16.617 11.9939 15.1717 14.5232 13.4253 14.6135C13.4253 14.6135 13.1844 11.9035 15.9847 10.8798C18.785 9.91624 23.5726 9.94635 23.7231 16.5707Z" fill="#121633"/>
        <path d="M19.1163 19.1002C19.1464 19.1002 19.2067 19.0701 19.2368 19.0701C20.2906 18.6787 20.8025 17.5044 20.4111 16.4505C20.2304 15.9386 19.839 15.5472 19.3572 15.3063C18.8754 15.0955 18.3033 15.0654 17.7915 15.2461C16.7376 15.6375 16.2257 16.8118 16.6171 17.8657C16.9785 18.8895 18.0926 19.4314 19.1163 19.1002ZM18.0022 15.5171C18.8453 15.2461 19.7788 15.6977 20.11 16.5408C20.4412 17.414 19.9895 18.4077 19.1163 18.7389C18.2431 19.0701 17.2495 18.6185 16.9183 17.7452C16.587 16.872 17.0387 15.8784 17.9119 15.5472C17.942 15.5472 17.9721 15.5472 18.0022 15.5171Z" fill="#F2F7F9"/>
        <path d="M14.4496 19.8829C14.4797 19.8829 14.5399 19.8528 14.57 19.8528C15.0819 19.6722 15.4733 19.2807 15.7142 18.799C15.925 18.3172 15.9551 17.7451 15.7744 17.2332C15.383 16.1793 14.2087 15.6675 13.1548 16.0589C12.1009 16.4503 11.5891 17.6246 11.9805 18.6785C12.1612 19.1904 12.5526 19.5818 13.0344 19.8227C13.486 20.0034 13.9678 20.0335 14.4496 19.8829ZM13.3355 16.3299C14.1786 16.0589 15.112 16.5105 15.4432 17.3536C15.5938 17.7752 15.5938 18.257 15.4131 18.6484C15.2324 19.07 14.9012 19.3711 14.4496 19.5517C13.5764 19.8829 12.5827 19.4313 12.2515 18.5581C11.9203 17.6849 12.3719 16.6912 13.2451 16.36C13.2753 16.3299 13.3054 16.3299 13.3355 16.3299Z" fill="#F2F7F9"/>
        <path d="M16.6776 17.474C16.7077 17.474 16.7378 17.4439 16.7378 17.4138C16.798 17.3536 16.798 17.2331 16.7378 17.1729C16.7378 17.1729 16.4367 16.9019 16.1055 16.932C15.9248 16.932 15.7441 17.0224 15.5936 17.203C15.5334 17.2632 15.5334 17.3837 15.6237 17.4439C15.6839 17.5041 15.8044 17.5041 15.8646 17.4138C15.9549 17.3235 16.0452 17.2632 16.1356 17.2632C16.3464 17.2331 16.527 17.4138 16.527 17.4138C16.5872 17.474 16.6174 17.474 16.6776 17.474Z" fill="#F2F7F9"/>
        <path d="M24.2655 16.5406C24.2957 16.5406 24.3258 16.5105 24.3559 16.4804C24.4161 16.4202 24.386 16.2998 24.2957 16.2697C22.5191 15.0953 20.3211 16.1492 20.2307 16.2094C20.1404 16.2395 20.1103 16.36 20.1705 16.4202C20.2006 16.5105 20.3211 16.5406 20.3813 16.4804C20.4114 16.4804 22.5191 15.4567 24.1451 16.5406C24.1752 16.5406 24.2053 16.5406 24.2655 16.5406Z" fill="#F2F7F9"/>
        <path d="M15.5031 17.8654C15.4128 17.8955 15.3526 17.8353 15.3224 17.775C15.3224 17.775 15.202 17.4137 14.931 17.4438C14.5998 17.4739 14.4492 17.8654 14.4492 17.8654C14.4191 17.9256 14.3288 17.9858 14.2686 17.9557C14.2084 17.9256 14.1481 17.8353 14.1782 17.775C14.1782 17.7449 14.389 17.2331 14.9009 17.2029C15.3224 17.1728 15.5332 17.5342 15.5934 17.7449C15.6236 17.775 15.5934 17.8353 15.5031 17.8654Z" fill="#121633"/>
        <path d="M17.7314 17.3235C17.8217 17.3235 17.912 17.2633 17.912 17.173C17.912 17.1428 17.9722 16.7514 18.3035 16.7213C18.6648 16.6912 18.9057 17.0826 18.9057 17.0826C18.9659 17.1428 19.0562 17.173 19.1164 17.1428C19.1767 17.0826 19.2068 16.9923 19.1767 16.9321C19.1767 16.902 18.8153 16.36 18.2733 16.4202C17.8217 16.4804 17.641 16.9321 17.6109 17.1428C17.5808 17.2633 17.641 17.3235 17.7314 17.3235Z" fill="#121633"/>
        <path d="M19.1768 19.1304C19.1768 19.1304 18.9058 20.8467 17.5809 21.2983C16.1055 21.8102 15.4732 19.9434 15.4732 19.9434L19.1768 19.1304Z" fill="#F2F7F9"/>
        <path d="M22.519 20.0938C22.5491 20.1239 23.1513 21.1175 23.8438 21.3584C23.8739 21.1175 23.8739 20.8465 23.9041 20.6056C23.8739 20.6056 23.1814 20.5755 22.519 20.0938Z" fill="#121633"/>
        <path d="M22.82 17.5643C22.82 17.5643 23.9642 15.4867 25.1987 16.8416C26.2225 17.9256 25.0482 21.3281 23.2416 20.485L22.82 17.5643Z" fill="#F5C7B8"/>
        <path d="M23.3319 19.8827C23.2416 19.8827 23.1814 19.8225 23.1814 19.7322C23.1212 18.1062 24.4159 17.3836 24.446 17.3535C24.5062 17.3233 24.5966 17.3233 24.6568 17.4137C24.6869 17.4739 24.6869 17.5642 24.5966 17.6245C24.5364 17.6546 23.4223 18.317 23.4825 19.7623C23.4524 19.8225 23.3921 19.8827 23.3319 19.8827Z" fill="#121633"/>
        <path d="M24.5364 18.8291C24.5063 18.8291 24.4761 18.8291 24.446 18.799C24.2955 18.7086 23.904 18.528 23.6632 18.6183C23.6029 18.6484 23.5126 18.6183 23.4825 18.528C23.4524 18.4677 23.4825 18.3774 23.5728 18.3473C23.9944 18.1666 24.5665 18.4978 24.6267 18.5581C24.6869 18.5882 24.717 18.6785 24.6869 18.7688C24.6267 18.799 24.5966 18.8291 24.5364 18.8291Z" fill="#121633"/>
        <path d="M27.3066 51.8006L28.3303 50.3252C28.6616 49.8434 29.0229 49.3315 29.3541 48.8196C30.0165 47.826 30.679 46.8323 31.2812 45.8387C31.5823 45.3569 31.8834 44.845 32.1243 44.3633C32.2447 44.1224 32.3953 43.8815 32.4856 43.6406C32.6061 43.3997 32.6964 43.1889 32.7867 42.9481C32.8469 42.7975 32.9072 42.6469 32.9373 42.4964C32.9072 42.4362 32.877 42.4061 32.877 42.3458C32.8168 42.2555 32.7867 42.1652 32.7265 42.0447C32.6061 41.834 32.4856 41.5931 32.3351 41.3823C32.1845 41.1414 32.0339 40.9005 31.8834 40.6596C31.5823 40.1779 31.2511 39.6961 30.9199 39.2143C30.5886 38.7326 30.2273 38.2508 29.8961 37.7389C29.5348 37.2571 29.2036 36.7754 28.8422 36.2635L27.7582 34.7881L26.7947 33.4933C27.2162 32.8309 27.6378 32.1986 28.0593 31.5662C28.9024 30.3016 29.8058 29.0972 30.5585 27.7422C30.6187 27.8024 30.6489 27.8626 30.7091 27.953C31.1005 28.4347 31.4618 28.9466 31.8533 29.4585C32.2447 29.9704 32.6061 30.4823 32.9674 30.9941L33.5094 31.777L34.0815 32.59C34.8041 33.6439 35.4967 34.6977 36.1892 35.7817C36.5204 36.3237 36.8818 36.8958 37.213 37.4679C37.3635 37.769 37.5442 38.04 37.6947 38.3712C37.8453 38.6723 38.026 39.0036 38.1765 39.3348C38.2668 39.5154 38.3271 39.6961 38.4174 39.8768C38.5077 40.0574 38.568 40.2682 38.6583 40.5091C38.7486 40.75 38.8088 40.9909 38.8992 41.3522C38.9293 41.5329 38.9594 41.7436 38.9895 42.0146V42.0748V42.1351V42.2555C38.9895 42.3157 38.9895 42.3157 38.9895 42.3458V42.4061V42.5566V42.6168V42.6771C38.9895 42.7674 38.9594 42.8577 38.9594 42.9481C38.9594 43.0384 38.9293 43.0986 38.9293 43.1889C38.9293 43.2793 38.8992 43.3395 38.8691 43.3997L38.8389 43.49V43.5503V43.6105L38.7787 43.7911C38.7486 43.8514 38.7486 43.9116 38.7185 43.9718C38.6884 44.0923 38.6282 44.2127 38.5981 44.303C38.4475 44.7246 38.2668 45.0859 38.0862 45.4472C37.7249 46.1398 37.3635 46.7119 36.9721 47.284C36.5807 47.8561 36.1892 48.3981 35.7978 48.91C34.9848 49.9337 34.1417 50.9274 33.2685 51.8608C32.8469 52.3426 32.3953 52.7942 31.9436 53.2459C31.7328 53.4868 31.492 53.6975 31.2511 53.9083C31.1306 54.0288 31.0102 54.1191 30.8897 54.2395L30.7091 54.4202L30.5284 54.6009C29.6552 55.4139 28.3002 55.3536 27.5174 54.5105C26.8248 53.7578 26.7646 52.6437 27.3066 51.8307V51.8006Z" fill="#FF4053"/>
        <path d="M26.825 34.7884H27.4874C27.5777 34.7884 27.6379 34.7282 27.6379 34.6379C27.6379 34.5475 27.5777 34.4873 27.4874 34.4873H26.825C26.7346 34.4873 26.6744 34.5475 26.6744 34.6379C26.6744 34.6981 26.7647 34.7884 26.825 34.7884Z" fill="#303030"/>
        <path d="M31.7933 40.7802C31.8234 40.7802 31.8535 40.7802 31.8836 40.7501C31.9438 40.6899 31.9739 40.5995 31.9137 40.5393L26.6443 32.9213C26.5841 32.8611 26.4938 32.831 26.4336 32.8912C26.3734 32.9514 26.3432 33.0418 26.4035 33.102L31.6728 40.72C31.6728 40.7501 31.733 40.7802 31.7933 40.7802Z" fill="#303030"/>
        <path d="M33.1179 42.4967C33.0577 42.4967 33.0276 42.4666 32.9975 42.4365C32.9373 42.3763 32.9674 42.2559 33.0276 42.2257C33.0878 42.1956 34.2019 41.3525 35.4666 41.1719C35.5569 41.1719 35.6171 41.2321 35.6472 41.3224C35.6472 41.4128 35.587 41.473 35.4967 41.5031C34.2922 41.6536 33.2083 42.4666 33.2083 42.4967C33.1781 42.4666 33.148 42.4967 33.1179 42.4967Z" fill="#303030"/>
        <path d="M33.2686 42.3459C33.2384 42.3459 33.2384 42.3459 33.2083 42.3459C33.118 42.3158 33.0879 42.2255 33.118 42.1352C33.3288 41.5028 33.931 40.9006 33.9611 40.9006C34.0213 40.8404 34.1117 40.8404 34.1719 40.9006C34.2321 40.9609 34.2321 41.0512 34.1719 41.1114C34.1719 41.1114 33.5998 41.6835 33.4191 42.2255C33.389 42.3158 33.3288 42.3459 33.2686 42.3459Z" fill="#303030"/>
    </g>
</svg>
