<svg width="88" height="26" viewBox="0 0 88 26" fill="none" xmlns="http://www.w3.org/2000/svg">
    <g clip-path="url(#clip0_90_973)">
        <path d="M33.4447 1.32822L25.8871 21.6963H29.9465L31.5002 17.4406H39.5189L41.0792 21.6963H45.1087L37.5978 1.32822H33.4447ZM32.8935 13.7022L35.5329 6.53577L38.1624 13.7022H32.8935ZM49.9599 16.4439L46.6823 7.38763H42.8099L48.0889 21.6963H51.9279L57.1133 7.38763H53.2409L49.9599 16.4439ZM61.9847 7.38763H58.2995V21.6963H61.9847V7.38763ZM60.1405 6.35644C61.624 6.35644 62.8267 5.11503 62.8267 3.58368C62.8267 2.05232 61.624 0.810913 60.1405 0.810913C58.6568 0.810913 57.4541 2.05232 57.4541 3.58368C57.4541 5.11503 58.6568 6.35644 60.1405 6.35644ZM69.2885 3.56988H65.6132V7.36346H63.4582V10.8122H65.6132V16.8922C65.6132 20.341 67.4542 21.8239 70.047 21.8239C70.9219 21.8358 71.7899 21.6608 72.5962 21.3101V17.7647C72.1562 17.9312 71.6917 18.0186 71.223 18.0234C70.097 18.0234 69.2852 17.5717 69.2852 16.0232V10.8122H72.5962V7.39795H69.2885V3.56988ZM80.3443 7.12897C78.9232 7.1283 77.5339 7.56266 76.3521 8.37715C75.1703 9.19166 74.249 10.3496 73.705 11.7046C73.1608 13.0597 73.0182 14.5507 73.2953 15.9894C73.5724 17.428 74.2566 18.7495 75.2614 19.7867C76.2663 20.8239 77.5465 21.5302 78.9403 21.8162C80.3341 22.1021 81.7786 21.955 83.0913 21.3933C84.4041 20.8317 85.5263 19.8808 86.315 18.661C87.1038 17.4411 87.5252 16.0071 87.5244 14.5402C87.5236 12.5749 86.7663 10.6904 85.4205 9.30066C84.0739 7.91101 82.2485 7.12989 80.3443 7.12897ZM80.3443 18.1648C79.6522 18.1655 78.9756 17.9543 78.3999 17.558C77.8242 17.1617 77.3753 16.598 77.11 15.9382C76.8447 15.2785 76.775 14.5524 76.9095 13.8517C77.0442 13.1511 77.3771 12.5074 77.8661 12.0021C78.3552 11.4967 78.9786 11.1525 79.6572 11.0129C80.3359 10.8732 81.0391 10.9446 81.6785 11.2177C82.3179 11.491 82.8645 11.9537 83.2496 12.5477C83.6339 13.1415 83.8389 13.8397 83.8389 14.5541C83.8373 15.5092 83.4684 16.4247 82.8128 17.0992C82.1572 17.7737 81.27 18.152 80.3443 18.1511V18.1648Z" fill="#303030"/>
        <path d="M7.18342 23.7275C11.1507 23.7275 14.3669 20.4079 14.3669 16.3128C14.3669 12.2178 11.1507 8.89807 7.18342 8.89807C3.21611 8.89807 -3.05176e-05 12.2178 -3.05176e-05 16.3128C-3.05176e-05 20.4079 3.21611 23.7275 7.18342 23.7275Z" fill="#04E061"/>
        <path d="M19.6425 22.793C22.0395 22.793 23.9826 20.7873 23.9826 18.3132C23.9826 15.839 22.0395 13.8333 19.6425 13.8333C17.2456 13.8333 15.3024 15.839 15.3024 18.3132C15.3024 20.7873 17.2456 22.793 19.6425 22.793Z" fill="#FF4053"/>
        <path d="M8.55663 7.93604C10.0402 7.93604 11.2429 6.69463 11.2429 5.16327C11.2429 3.63191 10.0402 2.3905 8.55663 2.3905C7.07305 2.3905 5.87036 3.63191 5.87036 5.16327C5.87036 6.69463 7.07305 7.93604 8.55663 7.93604Z" fill="#965EEB"/>
        <path d="M17.9553 12.8676C21.1808 12.8676 23.7956 10.1687 23.7956 6.83926C23.7956 3.5099 21.1808 0.810913 17.9553 0.810913C14.7297 0.810913 12.1149 3.5099 12.1149 6.83926C12.1149 10.1687 14.7297 12.8676 17.9553 12.8676Z" fill="#00AAFF"/>
    </g>
    <defs>
        <clipPath id="clip0_90_973">
            <rect width="88" height="25" fill="white" transform="translate(-3.05176e-05 0.810913)"/>
        </clipPath>
    </defs>
</svg>
