<svg width="376" height="258" viewBox="0 0 376 258" fill="none" xmlns="http://www.w3.org/2000/svg">
<path d="M459.994 38.2834C450.521 9.65863 419.54 -5.84301 390.918 3.7073C349.09 17.5998 305.842 27.1405 261.938 32.0655C231.897 35.4067 210.273 62.4641 213.688 92.4247C217.029 122.466 244.087 144.09 274.125 140.671C325.654 134.887 376.338 123.643 425.418 107.359C454.043 97.886 469.547 66.9822 459.994 38.2834Z" fill="#FF4053"/>
<path d="M220.366 184.884L197.312 143.332C191.835 133.493 182.914 125.952 172.143 122.215L32.4146 73.736C21.6444 69.9992 9.96993 70.3943 -0.518853 74.6938L-44.3539 93.0389C-56.8459 98.231 -61.7126 113.478 -54.5789 124.95L26.0959 254.555C34.2534 267.652 50.5031 273.29 65.0197 268.059L208.629 216.271C221.43 211.715 227.019 196.825 220.366 184.884Z" fill="#04E061"/>
<path d="M318.554 237.052L255.246 216.727C248.715 214.66 246.372 205.328 251.522 201.997L327.115 153.101C332.266 149.77 339.816 155.734 339.023 162.538L331.579 228.578C330.82 235.311 324.983 239.086 318.554 237.052Z" fill="#00AAFF"/>
</svg>
