<svg width="42" height="42" viewBox="0 0 42 42" fill="none" xmlns="http://www.w3.org/2000/svg">
<circle cx="21" cy="21" r="21" fill="#00AAFF"/>
<mask id="mask0_457_740" style="mask-type:alpha" maskUnits="userSpaceOnUse" x="0" y="0" width="42" height="42">
<circle cx="21" cy="21" r="21" fill="#FF4053"/>
</mask>
<g mask="url(#mask0_457_740)">
<path d="M29.8651 9.19392C31.0128 8.74604 32.4405 8.98398 33.1263 10.0757C33.5602 10.7615 33.5882 11.6853 33.2243 12.3991C32.7484 13.3649 31.7127 13.7847 30.7049 13.8967C29.5012 14.0367 28.3395 13.6028 27.5277 12.693C27.4018 10.7475 28.6194 9.6838 29.8651 9.19392Z" fill="#441533"/>
<path d="M33.0983 10.6356C33.4902 11.1535 33.4902 12.2592 33.1403 12.861C32.7064 13.6028 31.9366 14.1487 31.0968 14.2887C30.1731 14.4426 29.2073 14.2187 28.4375 13.6728" stroke="#441533" stroke-width="0.4" stroke-miterlimit="10" stroke-linecap="round"/>
<path d="M32.7904 9.85175C32.9583 10.8595 32.3705 11.8112 31.4747 12.2451C30.355 12.777 28.9273 12.693 27.7656 12.3711" stroke="#704162" stroke-width="0.4" stroke-miterlimit="10" stroke-linecap="round"/>
<path d="M17.8982 12.1052C17.0724 12.5951 16.4146 13.3509 16.0367 14.2327C15.6168 15.2544 15.5048 16.4721 14.4131 17.004C13.4054 17.4938 12.7895 18.4736 13.2234 19.6773C13.2934 19.8592 13.3774 20.0692 13.2794 20.2371C13.2094 20.3491 13.0974 20.4051 12.9855 20.4471C11.5578 21.1189 10.5781 22.5885 10.3121 24.1561C10.0602 25.7237 10.4801 27.3473 11.2919 28.705C12.1037 30.0626 13.2934 31.1683 14.609 32.0501C16.0367 33.0019 17.9682 33.7017 19.0879 35.0174C20.1936 36.319 21.3833 36.9629 23.0629 37.3548C25.5403 37.9426 28.1156 38.0546 30.635 37.7187C31.9786 37.5367 33.3223 37.2988 34.582 36.8089C35.8976 36.291 36.9333 35.4513 38.0811 34.6535C39.0468 33.9816 40.1805 33.4778 41.0203 32.61C42.084 31.5323 42.8258 30.1046 42.9238 28.593C43.0638 26.5215 41.9581 25.2339 40.0685 24.646C38.6829 24.2121 37.0313 23.9882 36.2755 22.6025C35.6177 21.4128 36.5974 19.9292 36.3455 18.5996C36.1635 17.6338 35.3378 16.892 34.442 16.4721C33.5462 16.0522 32.5525 15.8982 31.6147 15.6183C31.0269 15.4504 30.467 15.2404 29.9071 14.9885C29.6272 14.8625 29.3333 14.7085 29.1093 14.4986C28.6895 14.0927 28.5495 13.4769 28.4235 12.917" fill="#441533"/>
<path d="M28.0036 14.6105C28.0876 15.0864 28.4235 15.4783 28.8154 15.7582C30.145 16.682 32.2865 16.71 33.2662 18.1096C33.7561 18.7955 33.7561 19.7052 33.6721 20.531C33.5742 21.3568 33.3922 22.2106 33.5602 23.0224C33.6861 23.6242 33.9941 24.1981 34.4419 24.632C35.9536 26.1016 38.277 26.0736 39.2007 28.2291C40.1105 30.3145 39.0188 32.8759 37.5631 34.4435" stroke="#704162" stroke-width="0.4" stroke-miterlimit="10" stroke-linecap="round"/>
<path d="M28.4375 13.7988C29.1373 14.7085 30.257 14.7925 31.2787 14.9885C32.2865 15.1844 33.3362 15.2684 34.302 15.6323C35.2677 15.9962 36.1915 16.682 36.5694 17.6898C37.1013 19.1314 36.4574 20.9929 37.3952 22.1826C37.6611 22.5185 38.025 22.7565 38.4029 22.9524C39.4247 23.4563 40.5444 23.6662 41.5521 24.2401C43.0777 25.1079 44.1275 26.7595 43.9875 28.635C43.8615 30.3425 42.7558 31.7422 41.4541 32.6799C41.2862 32.7919 41.1182 32.9039 40.9503 33.0019C40.2225 33.4358 39.4527 33.7997 38.6969 34.1776C38.3469 34.3595 37.997 34.5835 37.6331 34.7514C37.2132 34.9474 36.7513 35.0453 36.3175 35.2133" stroke="#441533" stroke-width="0.4" stroke-miterlimit="10" stroke-linecap="round"/>
<path d="M25.4282 16.724L25.7501 19.0614L26.5899 22.4625C26.5899 22.4625 25.4562 24.9959 22.0411 24.9959C19.4378 24.9959 19.0039 22.9944 19.0039 22.9944L18.9899 19.0614" fill="#FFC1AA"/>
<path d="M19.8857 9.71179C19.1718 9.80976 17.8562 10.3696 17.1844 11.5733C16.6945 12.4411 16.5405 13.3229 16.4845 14.5825C16.4285 15.6743 16.5965 18.3476 16.9744 19.4393C17.2263 20.1391 18.0521 21.0629 19.6057 21.1749C21.6072 21.3148 23.5247 20.0831 24.3785 18.7395C25.2183 17.3818 25.6102 15.1284 25.2463 13.4208C24.7284 10.9855 22.503 9.33388 19.8857 9.71179Z" fill="#FFC1AA"/>
<path d="M20.7114 8.07421C22.363 7.80828 24.1126 8.27016 25.4702 9.24991C26.0301 9.65581 26.52 10.1317 26.9259 10.6775C27.6397 11.6433 28.1016 12.791 28.1855 13.9947C28.2695 15.1844 27.9896 16.4161 27.3458 17.4238C27.1218 17.7877 26.1841 18.6555 26.1841 18.6555L25.2323 14.9884C23.3568 14.7225 20.8794 13.3649 19.9136 10.7895C19.9136 10.7895 17.4503 10.7055 16.6245 13.2669C16.2186 10.0337 19.0599 8.32614 20.7114 8.07421Z" fill="#441533"/>
<path d="M28.2975 13.1689C27.9616 13.4208 27.5277 13.5188 27.1078 13.5608C26.0301 13.6588 24.9244 13.3789 23.9586 12.903C22.9929 12.4131 22.1391 11.7133 21.3973 10.9155" stroke="#704162" stroke-width="0.4" stroke-miterlimit="10" stroke-linecap="round"/>
<path d="M28.2135 13.7848C27.3458 14.8205 25.7921 15.2124 24.5325 14.7365" stroke="#704162" stroke-width="0.4" stroke-miterlimit="10" stroke-linecap="round"/>
<path d="M24.2246 15.5483C24.3645 15.0165 24.7704 14.4426 25.3443 14.3446C25.8902 14.2467 26.422 14.6386 26.618 15.1424C26.8839 15.8282 26.7719 16.668 26.436 17.2979C26.1001 17.9557 25.3443 18.5715 24.5745 18.1936C24.2806 18.0537 24.0566 17.7877 23.9866 17.4798" fill="#FFC1AA"/>
<path d="M25.8061 15.5063C25.3722 15.9542 24.9663 16.4301 24.5884 16.9199" stroke="#303030" stroke-width="0.4" stroke-miterlimit="10" stroke-linecap="round" stroke-linejoin="round"/>
<path d="M24.6725 14.7085C24.4485 14.9885 24.2946 15.2964 24.1966 15.6323" stroke="#303030" stroke-width="0.4" stroke-miterlimit="10" stroke-linecap="round" stroke-linejoin="round"/>
<path d="M25.4702 18.2216C24.9523 18.4316 24.3505 18.2216 24.0426 17.7597" stroke="#303030" stroke-width="0.4" stroke-miterlimit="10" stroke-linecap="round" stroke-linejoin="round"/>
<path d="M18.2621 16.4021C18.2761 16.654 18.2341 16.92 18.1221 17.1439C17.9961 17.3818 17.6042 17.5218 17.9262 17.8017C18.0661 17.9277 18.2201 18.0117 18.388 18.0957" stroke="#303030" stroke-width="0.4" stroke-miterlimit="10" stroke-linecap="round" stroke-linejoin="round"/>
<path d="M20.2484 15.8212C20.2624 16.0452 20.3884 16.2131 20.5423 16.2131C20.6823 16.1991 20.7942 16.0172 20.7802 15.7933C20.7663 15.5693 20.6403 15.4014 20.4863 15.4014C20.3324 15.4014 20.2344 15.5973 20.2484 15.8212Z" fill="#303030"/>
<path d="M17.1132 15.9262C17.1272 16.1501 17.2532 16.3181 17.4071 16.3181C17.5471 16.3041 17.6591 16.1221 17.6451 15.8982C17.6311 15.6743 17.5051 15.5063 17.3511 15.5063C17.1972 15.5063 17.0992 15.7023 17.1132 15.9262Z" fill="#303030"/>
<path d="M18.57 18.7115L19.5497 17.8717C19.5497 17.8717 20.2776 18.9774 19.6757 19.3693C19.1718 19.6772 18.57 18.7115 18.57 18.7115Z" fill="white"/>
<path d="M20.7814 13.3369C20.3196 13.1129 19.6757 13.1689 19.2418 13.4488" stroke="#303030" stroke-width="0.4" stroke-miterlimit="10" stroke-linecap="round" stroke-linejoin="round"/>
<path d="M17.4223 13.8547C16.9464 13.5468 16.4985 13.5608 16.1766 13.8547" stroke="#303030" stroke-width="0.4" stroke-miterlimit="10" stroke-linecap="round" stroke-linejoin="round"/>
<path d="M23.1608 19.7472C22.0691 20.853 20.6694 21.3568 19.0039 21.1749" stroke="#303030" stroke-width="0.4" stroke-miterlimit="10" stroke-linecap="round" stroke-linejoin="round"/>
<path d="M6.01518 35.8291L5.1334 38.1246L0.374612 34.0796L-2.41067 39.1463C-0.213233 43.7091 3.63578 48.328 6.01518 48.8038C8.38057 49.2797 10.3821 47.1802 11.1799 45.7806C12.3416 43.7511 14.8469 37.2428 14.8469 37.2428" fill="#FFC1AA"/>
<path d="M5.13344 38.1386C5.14743 38.1386 9.05244 41.3298 9.85023 43.2473" stroke="#303030" stroke-width="0.4" stroke-miterlimit="10" stroke-linecap="round" stroke-linejoin="round"/>
<path d="M17.3943 23.7922C17.3943 23.7922 14.9589 22.9804 13.2514 23.2044C10.9979 23.4983 9.61229 25.4018 8.59055 27.5993C7.56881 29.7827 5.28739 36.1231 5.28739 36.1231L14.777 38.7964L17.6462 29.5727" fill="#F0E7FF"/>
<path d="M15.5748 36.263L6.18319 33.6737" stroke="#965EEB" stroke-width="0.4" stroke-miterlimit="10" stroke-linecap="round"/>
<path d="M14.2311 27.5993C13.5313 28.8029 12.8175 30.0206 12.3416 31.3363C11.8657 32.652 11.6278 34.0796 11.9077 35.4513C12.1736 36.8229 13.1674 38.2085 14.2731 39.1463L16.3865 46.9283H33.3362C33.3362 46.9283 33.4342 36.403 32.3705 28.663L27.0938 22.7425L21.4812 24.0582L16.5265 23.7642" fill="#F0E7FF"/>
<path d="M20.7535 24.0162C20.3756 30.7904 18.8499 33.2818 20.3756 38.1246C20.7955 39.4682 21.6912 46.9283 21.6912 46.9283" stroke="#303030" stroke-width="0.4" stroke-miterlimit="10" stroke-linecap="round" stroke-linejoin="round"/>
<path d="M20.8094 37.7186C20.8094 37.9286 20.9773 38.0826 21.1733 38.0826C21.3832 38.0826 21.5372 37.9146 21.5372 37.7186C21.5372 37.5227 21.3692 37.3547 21.1733 37.3547C20.9773 37.3547 20.8094 37.5227 20.8094 37.7186Z" fill="#965EEB"/>
<path d="M20.3476 31.9941C20.3476 32.204 20.5155 32.358 20.7115 32.358C20.9074 32.358 21.0754 32.19 21.0754 31.9941C21.0754 31.7981 20.9074 31.6302 20.7115 31.6302C20.5155 31.6302 20.3476 31.7841 20.3476 31.9941Z" fill="#965EEB"/>
<path d="M20.8934 25.8077C20.8934 26.0176 21.0614 26.1716 21.2573 26.1716C21.4533 26.1716 21.6212 26.0036 21.6212 25.8077C21.6212 25.5977 21.4533 25.4438 21.2573 25.4438C21.0614 25.4438 20.8934 25.5977 20.8934 25.8077Z" fill="#965EEB"/>
<path d="M14.2311 27.5992C13.5313 28.8029 12.8175 30.0206 12.3416 31.3363C11.8657 32.6519 11.6278 34.0796 11.9077 35.4512C12.0337 36.0951 12.3276 36.7529 12.7055 37.3547" stroke="#303030" stroke-width="0.4" stroke-miterlimit="10" stroke-linecap="round" stroke-linejoin="round"/>
<path d="M38.5289 36.417C38.5289 36.417 39.5086 41.5676 39.5646 42.7993C39.6206 44.031 39.7886 46.0045 38.6408 46.8023C37.4931 47.5861 29.3612 44.4789 29.3612 44.4789L28.9413 36.8648" fill="#FFC1AA"/>
<path d="M25.3443 22.0986L27.7517 23.0084C27.7517 23.0084 29.6272 22.7704 30.7749 22.7704C31.9226 22.7704 34.162 22.7284 35.6177 25.1918C36.9053 27.3753 37.1013 28.6909 37.9411 31.6022C38.7808 34.5134 39.3827 37.2427 39.3827 37.2427L28.5774 38.9083L27.7517 28.7889" fill="#F0E7FF"/>
<path d="M28.5775 38.9083L27.9756 28.7329" stroke="#303030" stroke-width="0.4" stroke-miterlimit="10" stroke-linecap="round" stroke-linejoin="round"/>
<path d="M26.59 20.685L20.8654 24.0302L23.4828 27.5293L27.7517 23.0084L26.59 20.685Z" fill="#F0E7FF"/>
<path d="M18.7519 22.1826L20.8654 24.0301L18.332 26.8854L17.3943 23.7922L18.7519 22.1826Z" fill="#F0E7FF"/>
<path d="M20.8654 24.0301L23.4828 27.5293L27.7517 23.0084" stroke="#303030" stroke-width="0.4" stroke-miterlimit="10" stroke-linecap="round" stroke-linejoin="round"/>
<path d="M20.8654 24.0301L18.332 26.8854L17.3943 23.7922" stroke="#303030" stroke-width="0.4" stroke-miterlimit="10" stroke-linecap="round" stroke-linejoin="round"/>
<path d="M20.9074 23.9322L24.7284 24.814L24.1825 25.7097L20.8094 24.3941L20.9074 23.9322Z" fill="#FF4053"/>
<path d="M20.9074 23.9322L17.9542 24.478L18.2341 25.4438L20.9494 24.4081L20.9074 23.9322Z" fill="#FF4053"/>
<path d="M21.0474 23.9742C21.0754 23.9882 22.433 30.4685 22.433 30.4685C22.433 30.4685 21.4393 30.7764 21.3973 30.7484C21.3553 30.7204 20.7815 24.45 20.7815 24.45L21.0474 23.9742Z" fill="#FF4053"/>
<path d="M20.5715 24.394C20.5435 24.408 18.0241 31.6722 18.0241 31.6722C18.0241 31.6722 18.9619 32.1201 19.0179 32.1061C19.0598 32.0781 21.0193 24.492 21.0193 24.492L20.5715 24.394Z" fill="#FF4053"/>
<path d="M21.2713 24.0441C21.2573 24.1141 21.2433 24.1701 21.2153 24.2261C21.1873 24.3101 21.1733 24.4081 21.1733 24.506C21.1733 24.52 21.1733 24.52 21.1593 24.52C21.1593 24.534 21.1453 24.52 21.1453 24.52C20.9774 24.52 20.8094 24.534 20.6415 24.52C20.5715 24.3521 20.5575 24.1561 20.5995 23.9742" stroke="#B8434F" stroke-width="0.4" stroke-miterlimit="10" stroke-linecap="round"/>
<path d="M38.8368 34.9194L28.4375 36.417" stroke="#303030" stroke-width="0.4" stroke-miterlimit="10" stroke-linecap="round" stroke-linejoin="round"/>
<path d="M17.1103 26.767L17.9252 27.2019L12.7525 36.8948L11.9375 36.4599L17.1103 26.767Z" fill="#B8434F"/>
<path d="M17.3243 26.8854L12.1456 36.5709" stroke="#FF4053" stroke-width="0.4" stroke-miterlimit="10" stroke-linecap="round"/>
<path d="M17.6602 27.0533L12.4815 36.7529" stroke="#FF4053" stroke-width="0.4" stroke-miterlimit="10" stroke-linecap="round"/>
<path d="M12.7475 36.8928L11.7117 37.8026L11.9357 36.4589" fill="#965EEB"/>
<path d="M39.5367 45.0527C39.3967 46.9282 38.6829 47.908 37.3112 48.4679C35.9396 49.0277 33.8121 48.7338 32.3565 48.4399C29.9491 47.95 27.6397 46.4244 25.5402 45.1507C23.4408 43.877 17.7162 39.5521 17.7162 39.5521L13.7412 33.4077C14.721 33.0998 15.7147 32.7918 16.7505 32.7639C19.1439 32.7079 21.7612 33.9256 23.9586 34.7653C26.296 35.6611 28.5774 36.6829 30.8309 37.7326C32.8464 38.6843 34.8758 39.6221 36.8913 40.5739" fill="#FFC1AA"/>
<path d="M22.615 34.3735C21.2293 33.8276 20.3616 33.4497 18.9059 33.0158C18.1921 32.8059 16.9884 32.498 16.2466 32.442C15.7287 32.4 15.1969 32.498 14.679 32.6099C13.4193 32.8899 12.2716 33.5057 11.5298 34.6814C11.1799 35.2413 10.928 35.8571 10.676 36.4729C10.5361 36.8229 10.3961 37.1728 10.2981 37.5507C10.2282 37.8026 10.0602 38.2785 10.2002 38.5304C10.4801 39.0343 11.3339 38.3345 11.5718 38.0825C12.0197 37.5787 12.1737 36.9348 12.5236 36.389C12.6775 36.165 12.8595 35.9551 13.0554 35.7731C12.9155 36.165 12.8175 36.5989 12.7895 37.0748C12.7755 37.4387 12.7055 37.8586 12.9295 38.1665C13.1534 38.4744 13.2234 38.4884 13.6013 38.5164C13.6433 38.9503 14.0492 39.2862 14.4551 39.2162C14.3991 39.2302 14.651 39.6361 14.679 39.6641C14.777 39.7621 14.917 39.9161 15.0429 39.9721C15.3788 40.126 15.8967 39.8461 16.2046 39.7201C16.3306 39.6781 16.4426 39.6221 16.5825 39.6221C16.6945 39.6221 16.7925 39.6361 16.9044 39.6641C18.0801 39.9441 19.1579 40.7559 20.3756 40.7139L22.615 34.3735Z" fill="#FFC1AA"/>
<path d="M13.5593 38.5724C13.7132 37.2148 14.4411 35.9271 15.4908 35.1433" stroke="#303030" stroke-width="0.4" stroke-miterlimit="10" stroke-linecap="round" stroke-linejoin="round"/>
<path d="M14.4831 39.2442C14.5391 39.0203 14.665 38.8243 14.791 38.6424C15.2809 37.9706 15.9247 37.3967 16.6385 37.0048" stroke="#303030" stroke-width="0.4" stroke-miterlimit="10" stroke-linecap="round" stroke-linejoin="round"/>
<path d="M15.7707 39.8881C15.8127 39.8181 15.8827 39.7901 15.9527 39.7761C16.4985 39.5942 17.0444 39.4542 17.6042 39.3282" stroke="#303030" stroke-width="0.4" stroke-miterlimit="10" stroke-linecap="round" stroke-linejoin="round"/>
<path d="M13.0414 35.8011C13.4613 35.0173 13.9232 34.3175 14.595 33.7856" stroke="#303030" stroke-width="0.4" stroke-miterlimit="10" stroke-linecap="round" stroke-linejoin="round"/>
<path d="M36.5554 40.5599C35.1418 39.7341 33.6722 39.0063 32.1605 38.3624" stroke="#303030" stroke-width="0.4" stroke-miterlimit="10" stroke-linecap="round" stroke-linejoin="round"/>
<path d="M21.5513 33.7576L22.8809 34.3035C23.0209 37.1027 22.545 39.7761 21.4393 42.3654L20.1516 41.5116C21.2013 39.0762 21.6912 36.4029 21.5513 33.7576Z" fill="#7A4A44"/>
<path d="M22.6429 38.5724C23.2308 38.3485 23.4967 37.6207 23.2308 36.9488C22.9649 36.277 22.279 35.9271 21.7052 36.165C21.1173 36.389 20.8514 37.1168 21.1173 37.7886C21.3693 38.4464 22.0551 38.7964 22.6429 38.5724Z" fill="#995F56"/>
<path d="M22.475 38.6424C22.0411 38.7403 21.4392 38.5024 21.2293 38.0965" stroke="#303030" stroke-width="0.4" stroke-miterlimit="10" stroke-linecap="round" stroke-linejoin="round"/>
<path d="M22.8669 36.3609C22.587 36.137 22.2231 36.025 21.8592 36.053C21.7332 36.067 21.6073 36.095 21.5093 36.165" stroke="#303030" stroke-width="0.4" stroke-miterlimit="10" stroke-linecap="round" stroke-linejoin="round"/>
<path d="M21.6492 36.5709L22.1951 37.3967L21.5932 37.8026" stroke="#303030" stroke-width="0.4" stroke-miterlimit="10" stroke-linecap="round" stroke-linejoin="round"/>
<path d="M-5.00002 25.0098H10.0601L18.0941 44.4369H3.03392L-5.00002 25.0098Z" fill="#04E061"/>
<mask id="mask1_457_740" style="mask-type:luminance" maskUnits="userSpaceOnUse" x="-5" y="25" width="24" height="20">
<path d="M-5.00002 25.0098H10.0601L18.0941 44.4369H3.03392L-5.00002 25.0098Z" fill="white"/>
</mask>
<g mask="url(#mask1_457_740)">
<path d="M8.88448 24.52L17.3803 45.0808" stroke="#10B957" stroke-width="0.4" stroke-miterlimit="10" stroke-linecap="round"/>
<path d="M5.53933 24.52L14.0352 45.0808" stroke="#10B957" stroke-width="0.4" stroke-miterlimit="10" stroke-linecap="round"/>
<path d="M2.1942 24.52L10.69 45.0808" stroke="#10B957" stroke-width="0.4" stroke-miterlimit="10" stroke-linecap="round"/>
<path d="M-1.15093 24.52L7.34489 45.0808" stroke="#10B957" stroke-width="0.4" stroke-miterlimit="10" stroke-linecap="round"/>
<path d="M-4.49612 24.52L4.0137 45.0808" stroke="#10B957" stroke-width="0.4" stroke-miterlimit="10" stroke-linecap="round"/>
<path d="M16.3586 39.0763H0.248666" stroke="#10B957" stroke-width="0.4" stroke-miterlimit="10" stroke-linecap="round"/>
<path d="M14.749 34.7094H-1.36086" stroke="#10B957" stroke-width="0.4" stroke-miterlimit="10" stroke-linecap="round"/>
<path d="M12.8595 30.3425H-3.25042" stroke="#10B957" stroke-width="0.4" stroke-miterlimit="10" stroke-linecap="round"/>
<path d="M11.2499 25.9897H-4.86001" stroke="#10B957" stroke-width="0.4" stroke-miterlimit="10" stroke-linecap="round"/>
</g>
<path d="M-2.92852 24.548H7.06493L7.76476 26.2555H-2.22869L-2.92852 24.548Z" fill="#D3A585"/>
<path d="M0.542593 23.6382C0.346642 22.9803 0.724548 22.4905 1.41037 22.5324C2.0962 22.5884 2.81002 23.1623 3.00597 23.8201C3.20192 24.478 2.82401 24.9678 2.13818 24.9258C1.46636 24.8838 0.752539 24.296 0.542593 23.6382ZM2.32014 23.7781C2.23616 23.4842 1.91424 23.2323 1.62032 23.2183C1.32639 23.1903 1.15844 23.4142 1.24241 23.6942C1.32639 23.9881 1.64831 24.24 1.94224 24.254C2.23616 24.282 2.40412 24.0721 2.32014 23.7781Z" fill="#D3A585"/>
<path d="M0.710554 40.9938C0.962489 39.874 1.07446 38.8243 0.584582 37.7466C0.164689 36.8368 -0.325187 35.955 0.416623 35.0593C0.654563 34.7793 0.920497 34.4014 1.21442 34.1915C1.74629 33.8136 2.19418 33.4077 2.25016 32.7499C2.26416 32.6379 2.25016 32.5119 2.19417 32.4139C2.0962 32.274 1.88625 32.274 1.71829 32.302C1.55034 32.344 1.21442 32.4839 1.21442 32.4839C1.21442 32.4839 2.0822 31.8541 2.32014 31.4202C2.41812 31.2382 2.5021 31.0283 2.44611 30.8324C2.39012 30.6364 1.98423 30.5524 1.98423 30.5524C1.98423 30.5524 2.25016 30.3845 2.34813 30.2585C2.44611 30.1325 2.4741 29.9506 2.39013 29.8246C2.30615 29.6846 2.13819 29.6427 1.98423 29.6147C1.60632 29.5587 1.22842 29.5307 0.864511 29.5587C1.25641 29.5727 1.7183 29.0828 1.57833 28.8029C1.45237 28.5369 -0.479146 28.9148 -1.51488 29.2508C-2.03275 29.4187 -2.56462 29.6427 -2.94252 30.0486C-3.96426 31.1683 -4.10422 32.4 -4.10422 33.8136C-4.10422 34.3035 -3.96426 35.1153 -3.86628 35.5911C-3.76831 36.067 -3.60035 36.5289 -3.4044 36.9768C-2.81655 38.4184 -2.10273 39.8041 -1.26295 41.1197" fill="#FFC1AA"/>
<path d="M1.25644 32.4559C0.360668 33.0998 -0.829024 33.5757 -1.17893 34.7234" stroke="#303030" stroke-width="0.4" stroke-miterlimit="10" stroke-linecap="round" stroke-linejoin="round"/>
<path d="M2.09621 30.5244C1.28441 30.7204 0.500616 30.9863 -0.241195 31.3642C-0.92702 31.7141 -1.93476 32.6099 -2.41064 33.6596" stroke="#303030" stroke-width="0.4" stroke-miterlimit="10" stroke-linecap="round" stroke-linejoin="round"/>
<path d="M0.892487 29.5727C-0.605131 29.7826 -2.49465 30.5244 -3.25045 31.98" stroke="#303030" stroke-width="0.4" stroke-miterlimit="10" stroke-linecap="round" stroke-linejoin="round"/>
<path d="M0.962472 39.3982C1.01846 39.8041 0.850499 40.7418 0.794513 41.0637" stroke="#303030" stroke-width="0.4" stroke-miterlimit="10" stroke-linecap="round" stroke-linejoin="round"/>
<path d="M6.54704 25.1078H-1.86481" stroke="#303030" stroke-width="0.4" stroke-miterlimit="10" stroke-linecap="round" stroke-linejoin="round"/>
</g>
</svg>
