<svg width="42" height="43" viewBox="0 0 42 43" fill="none" xmlns="http://www.w3.org/2000/svg">
    <circle cx="21" cy="21.2306" r="21" fill="#00AAFF"/>
    <mask id="mask0_97_4134" style="mask-type:alpha" maskUnits="userSpaceOnUse" x="0" y="0" width="42" height="43">
        <circle cx="21" cy="21.2306" r="21" fill="#FF4053"/>
    </mask>
    <g mask="url(#mask0_97_4134)">
        <path d="M21.1696 15.251L18.5521 16.7645L18.9261 18.4026L17.8577 21.1448L14.7595 22.1241C14.7595 22.1241 20.6355 26.1661 22.2024 26.451C24.2145 26.8071 27.0634 23.2459 27.0634 23.2459L25.4075 22.5336L26.4046 18.7944" fill="#FFC1AA"/>
        <path d="M27.5798 15.5537C27.099 14.1826 26.5649 12.313 26.0129 11.3158C25.5499 10.4612 24.7308 9.25035 23.8227 8.85861C22.6475 8.37785 21.3477 9.03668 20.2081 9.48183C18.3207 10.2297 17.9289 12.491 18.196 14.2895C18.4097 15.6605 18.837 16.9782 19.8342 17.9753C21.4723 19.5957 24.8199 20.4147 26.7251 18.7232C27.6332 17.9219 28.114 17.0672 27.5798 15.5537Z" fill="#FFC1AA"/>
        <path d="M23.5378 13.4882C23.6446 13.7019 23.5912 13.9511 23.431 14.0224C23.2707 14.1114 23.0392 13.9867 22.9324 13.7731C22.8256 13.5594 22.879 13.3101 23.0392 13.2389C23.2173 13.1677 23.431 13.2745 23.5378 13.4882Z" fill="#303030"/>
        <path d="M26.5114 12.6157C26.6183 12.8294 26.5649 13.0786 26.4046 13.1499C26.2443 13.2389 26.0129 13.1142 25.906 12.9006C25.7992 12.6869 25.8526 12.4376 26.0129 12.3664C26.1731 12.2952 26.4046 12.402 26.5114 12.6157Z" fill="#303030"/>
        <path d="M24.7664 12.6335C25.0869 13.1855 25.5143 13.6662 25.8526 14.2182C25.9238 14.3251 25.9594 14.4319 25.9594 14.5565C25.9594 14.9127 25.4608 15.0729 25.2116 15.1976" stroke="#303030" stroke-width="0.4" stroke-miterlimit="10"/>
        <path d="M18.6411 19.1683C18.6411 19.1683 20.0478 17.7795 20.1903 17.085C20.4752 15.6605 19.941 13.3814 20.2081 11.9391C21.6148 11.4405 22.5763 11.1022 24.0008 10.6036C24.5349 10.4077 25.0691 10.2297 25.5677 9.9626C25.9238 9.78454 26.2621 9.57086 26.5114 9.26816C26.7429 9.00107 26.8853 8.68056 26.9922 8.34225C27.1168 7.98613 27.2059 7.6122 27.188 7.25608C27.1168 6.41919 26.3334 5.68915 25.4431 5.61792C24.8377 5.58231 24.2322 5.8494 23.8227 6.25894C23.5912 6.49042 23.2351 6.56164 22.9324 6.437C22.8968 6.41919 22.8434 6.40139 22.8078 6.40139C22.4873 6.34797 22.1667 6.41919 21.8818 6.52603C21.223 6.75751 20.7779 7.54097 20.2971 8.02174C19.9588 8.36005 19.6383 7.8971 18.8904 8.14638C16.5756 8.89423 15.4361 10.6392 15.1156 12.6513C14.7594 14.8236 15.8456 17.1562 17.555 18.5095C17.8933 18.7766 18.6411 19.1683 18.6411 19.1683Z" fill="#441533"/>
        <path d="M21.686 18.9902C22.3449 19.5778 24.3391 20.201 26.1375 19.2039" stroke="#303030" stroke-width="0.4" stroke-miterlimit="10"/>
        <path d="M21.4367 12.9362C21.5614 12.6335 21.686 12.3308 21.8997 12.0993C22.238 11.761 22.6297 11.7788 23.0393 11.9212" stroke="#303030" stroke-width="0.4" stroke-miterlimit="10"/>
        <path d="M25.176 11.3336C25.2116 11.1734 25.2828 10.9953 25.4075 10.8529C25.7102 10.5146 26.1197 10.7995 26.3512 11.0665" stroke="#303030" stroke-width="0.4" stroke-miterlimit="10"/>
        <path d="M21.1162 15.6071C20.8669 14.9661 19.8164 14.788 19.3178 15.1976C18.1248 16.1947 19.478 18.4917 20.8491 18.2602C21.2408 18.189 21.7038 17.8685 21.686 17.4055" fill="#FFC1AA"/>
        <path d="M19.6205 16.3193L21.1875 16.9604" stroke="#303030" stroke-width="0.4" stroke-miterlimit="10"/>
        <path d="M20.2259 15.0373C20.582 15.1085 20.9025 15.2866 21.1518 15.5537" stroke="#303030" stroke-width="0.4" stroke-miterlimit="10"/>
        <path d="M19.2822 17.5123C19.6561 17.9753 20.2081 18.4026 20.8313 18.278C21.2587 18.2068 21.6504 17.8507 21.6504 17.3877" stroke="#303030" stroke-width="0.4" stroke-miterlimit="10"/>
        <path d="M24.4459 15.6249C24.4993 15.9633 24.6418 16.6399 25.3184 16.3906C25.5321 16.3194 25.7101 16.1591 25.7992 15.9989" stroke="#303030" stroke-width="0.4" stroke-miterlimit="10"/>
        <path d="M16.4688 21.4119C16.4688 21.4119 20.2793 26.077 23.0926 25.9524C24.9623 25.8634 26.3867 22.9432 26.3867 22.9432C26.3867 22.9432 29.948 23.4239 31.1232 24.0472C32.2984 24.6704 30.5534 33.8049 30.9985 36.9031C31.4437 40.0192 32.6189 52.8751 32.6189 52.8751H10.9311C10.9311 52.8751 8.22458 37.3483 8.74096 31.5079C9.25733 25.6853 10.9667 22.9254 12.1953 22.2309C13.4239 21.5543 16.4688 21.4119 16.4688 21.4119Z" fill="#965EEB"/>
        <path d="M14.7772 21.8926C16.2551 23.9581 18.8726 26.4688 21.1518 27.5728C22.3804 28.1604 24.4103 28.0535 25.5855 27.3769C27.0456 26.5222 28.4344 23.3705 28.4344 23.3705" stroke="#6D41B0" stroke-width="0.4" stroke-miterlimit="10"/>
        <path d="M30.7848 23.9225C31.9066 24.3499 32.975 25.0087 33.6872 25.988C34.4173 27.003 34.7022 28.285 34.898 29.5136C35.3254 32.0955 35.5213 34.7308 35.4856 37.3483C35.45 39.9124 35.3254 42.9394 34.7734 45.4501C34.1146 48.4415 32.1915 50.2933 29.0577 50.3467C26.1019 50.4001 23.0926 49.2962 20.3683 48.2456C18.837 47.658 17.3235 47.0348 15.8278 46.3404L18.9794 38.5769L27.3127 40.0726C27.3127 40.0726 28.8618 32.0599 30.3397 29.5493" fill="#965EEB"/>
        <path d="M29.7877 30.7957C31.1766 29.6739 32.975 28.9973 34.7734 29.1041" stroke="#6D41B0" stroke-width="0.4" stroke-miterlimit="10"/>
        <path d="M18.9795 38.5947L27.3127 40.0905C27.3127 40.0905 28.8618 32.0777 30.3397 29.5671" stroke="#303030" stroke-width="0.4" stroke-miterlimit="10"/>
        <path d="M27.1347 40.0548C28.7016 40.3219 30.2151 40.8027 31.6396 41.4793" stroke="#303030" stroke-width="0.4" stroke-miterlimit="10"/>
        <path d="M19.567 23.7266C20.3505 22.7117 21.0628 21.6433 21.9174 20.6996C22.5229 20.023 23.2173 19.4354 23.9829 18.9546C24.7486 18.4917 25.6389 18.0465 26.5292 17.9753C27.1168 17.9219 27.5976 18.2958 28.0071 18.6519C28.2564 18.8656 28.4879 19.0792 28.7372 19.2929C28.7906 19.3285 28.8262 19.382 28.844 19.4354C28.8618 19.56 28.7194 19.649 28.5947 19.6847C28.3988 19.7381 28.292 19.6668 28.0783 19.649C28.2386 19.7381 28.3632 19.9339 28.4167 20.0586C28.5057 20.2544 28.4879 20.3435 28.381 20.5393C28.5769 20.5928 28.7372 20.7352 28.7906 20.9489C28.844 21.1448 28.7906 21.3584 28.7194 21.5543C28.7015 21.6077 28.6659 21.6611 28.6837 21.7145C28.7015 21.7858 28.755 21.8214 28.7906 21.8748C29.6809 22.8541 28.203 24.0471 27.3839 24.4211C27.3305 24.4389 27.2593 24.4745 27.2058 24.4745C27.099 24.4745 27.01 24.3676 26.9744 24.243C26.9566 24.1362 26.9744 24.0115 27.01 23.9047C25.817 25.1511 25.8348 26.6468 24.2678 27.3591" fill="#FFC1AA"/>
        <path d="M19.567 23.7266C20.3505 22.7117 21.0627 21.6433 21.9174 20.6996C22.5228 20.023 23.2173 19.4354 23.9829 18.9546C24.7486 18.4917 25.6389 18.0465 26.5292 17.9753C27.1168 17.9219 27.277 18.1177 27.277 18.1177" stroke="#303030" stroke-width="0.4" stroke-miterlimit="10"/>
        <path d="M28.1674 19.7025C27.6688 19.4176 27.4908 19.2751 26.921 19.1683C26.3512 19.0615 25.6033 19.2573 25.1226 19.5422" stroke="#303030" stroke-width="0.4" stroke-miterlimit="10"/>
        <path d="M28.381 20.5572C28.381 20.5572 27.7578 20.3435 26.9387 20.4503C26.458 20.5037 25.8169 20.7708 25.8169 20.7708" stroke="#303030" stroke-width="0.4" stroke-miterlimit="10"/>
        <path d="M28.6837 21.7146C28.2742 21.6434 27.8646 21.6255 27.4551 21.6968C27.0812 21.768 26.7429 21.9461 26.3867 22.1241" stroke="#303030" stroke-width="0.4" stroke-miterlimit="10"/>
        <path d="M27.01 23.9047L28.2742 22.783" stroke="#303030" stroke-width="0.4" stroke-miterlimit="10"/>
        <path d="M13.2103 21.8926C11.5899 22.2666 7.61916 23.5842 6.42616 27.9645C5.30438 32.0421 5.85637 36.1909 6.533 39.5028C7.22743 42.8147 9.31074 49.2427 12.3378 49.9194C16.5756 50.8453 18.6233 49.4742 22.0955 40.5534C25.5677 31.6325 26.636 26.9317 26.636 26.9317L19.1575 23.2459C19.1575 23.2459 11.5187 34.7308 10.7352 38.6659" fill="#965EEB"/>
        <path d="M16.8783 26.8071L25.2828 30.9559" stroke="#6D41B0" stroke-width="0.4" stroke-miterlimit="10"/>
        <path d="M19.1753 23.2459C19.1753 23.2459 11.5365 34.7308 10.7531 38.6659" stroke="#303030" stroke-width="0.4" stroke-miterlimit="10"/>
        <path d="M10.112 48.299C10.7887 49.1359 11.5365 49.7235 12.3378 49.9015C16.5756 50.8275 18.6233 49.4564 22.0955 40.5356C25.5677 31.6147 26.636 26.9139 26.636 26.9139" stroke="#303030" stroke-width="0.4" stroke-miterlimit="10"/>
        <path d="M7.47674 25.7565C8.70536 25.6675 9.93397 26.0414 11.0023 26.6646C12.0707 27.27 13.0144 28.1247 13.8869 29.0328" stroke="#6D41B0" stroke-width="0.4" stroke-miterlimit="10"/>
        <path d="M13.5664 27.9645C13.8869 28.9794 14.2431 31.0983 14.2431 31.0983" stroke="#303030" stroke-width="0.4" stroke-miterlimit="10"/>
    </g>
</svg>
