<svg width="314" height="223" viewBox="0 0 314 223" fill="none" xmlns="http://www.w3.org/2000/svg">
    <path d="M280.548 155.059L257.495 113.507C252.017 103.668 243.096 96.1273 232.326 92.3905L92.5972 43.9111C81.827 40.1744 70.1525 40.5695 59.6638 44.869L15.8287 63.214C3.33668 68.4062 -1.52998 83.6533 5.60375 95.1255L86.2785 224.73C94.436 237.827 110.686 243.465 125.202 238.235L268.812 186.446C281.612 181.89 287.202 167 280.548 155.059Z" fill="#965EEB"/>
    <path d="M145.352 222.894H44.2792L48.4823 192.139H144.618L145.352 222.894Z" fill="#00AAFF"/>
    <path d="M144.685 195.274L47.0812 202.546L48.4822 192.139H144.618L144.685 195.274Z" fill="#1184BE"/>
    <path d="M77.9035 50.5699L75.1014 57.4416L43.6788 66.1145C38.8086 67.4488 34.4054 70.1174 31.0029 73.8534C27.4003 77.8563 23.1306 83.9941 20.3286 92.8004C14.4577 111.214 -22.6358 178.062 24.0646 188.403C24.0646 188.403 32.6041 190.404 44.8129 184.4L44.2792 188.069C43.9456 190.204 45.6135 192.139 47.7484 192.139H145.152C147.087 192.139 148.688 190.538 148.688 188.603V182.398C148.688 182.398 174.707 185.201 183.18 163.785C191.652 142.303 164.366 120.887 160.363 110.48C156.36 100.139 157.694 81.7258 145.085 73.9201C132.476 66.1145 115.731 58.8426 115.731 58.8426L114.997 53.0384C114.797 51.3705 113.396 50.0362 111.661 49.9695L81.2392 48.3683C79.9049 48.3016 78.5039 49.1689 77.9035 50.5699Z" fill="#FF4053"/>
    <path d="M53.7526 108.412C53.7526 108.412 59.9571 124.357 67.0289 125.024C74.1007 125.691 78.4372 125.625 80.6387 126.959C80.6387 126.959 62.559 132.296 57.422 133.564C52.2182 134.898 48.4822 135.165 48.4822 135.165L53.7526 108.412Z" fill="#E72E40"/>
    <path d="M183.313 163.785C184.114 161.716 184.581 159.648 184.847 157.58C165.1 180.997 147.487 146.172 147.487 146.172L148.821 182.398C148.821 182.398 174.84 185.267 183.313 163.785Z" fill="#E72E40"/>
    <path d="M148.821 182.399L147.487 154.445" stroke="#393842" stroke-miterlimit="10" stroke-linecap="round" stroke-linejoin="round"/>
    <path d="M101.587 85.9952C101.587 85.9952 113.663 73.2527 115.864 58.909L115.13 53.1048C114.93 51.4369 113.529 50.1026 111.795 50.0359L81.3727 48.4347C79.8382 48.368 78.4372 49.2353 77.9035 50.6363L75.1014 57.508C75.1682 57.4412 87.3103 79.8574 101.587 85.9952Z" fill="white"/>
    <path d="M82.707 51.7041L85.6424 33.7578H108.125L109.793 53.6388C109.793 53.6388 105.19 62.1116 99.1188 62.8455C99.0521 62.7788 84.3081 60.4438 82.707 51.7041Z" fill="#FEC9B6"/>
    <path d="M116.064 32.4235L114.263 21.0152C112.995 13.2763 105.657 7.9391 97.9179 9.13997C90.179 10.4076 84.8418 17.7462 86.0426 25.4851L86.3095 27.153C85.9092 27.153 85.5756 27.153 85.1753 27.2197C82.3066 27.6867 80.3719 30.3553 80.8389 33.1573C81.3059 36.0261 83.9745 37.9608 86.7765 37.4938C87.1768 37.4271 87.5771 37.2936 87.9106 37.1602C89.3117 44.7657 96.5169 49.9695 104.189 48.7019C111.928 47.5677 117.265 40.2291 116.064 32.4235Z" fill="#FEC9B6"/>
    <path d="M107.058 20.4146C107.058 20.4146 107.258 21.8156 107.658 22.416C108.125 23.2833 108.659 23.8837 109.593 24.284C110.327 24.6176 110.994 24.8844 111.128 25.7517C111.394 27.086 110.46 28.487 109.193 28.8873" stroke="#5C3023" stroke-miterlimit="10" stroke-linecap="round" stroke-linejoin="round"/>
    <path d="M106.124 21.6824C106.324 24.1509 104.589 26.3525 102.188 26.5526C99.8527 26.7527 97.7845 24.8847 97.5844 22.3496C97.3842 19.8811 99.1188 17.6795 101.521 17.4794C103.856 17.346 105.924 19.214 106.124 21.6824Z" stroke="white" stroke-miterlimit="10" stroke-linecap="round" stroke-linejoin="round"/>
    <path d="M113.61 25.6721C115.961 25.4874 117.707 23.3128 117.511 20.8151C117.315 18.3174 115.25 16.4423 112.899 16.627C110.548 16.8117 108.802 18.9862 108.998 21.484C109.194 23.9817 111.259 25.8568 113.61 25.6721Z" stroke="white" stroke-miterlimit="10" stroke-linecap="round" stroke-linejoin="round"/>
    <path d="M106.124 21.6825C106.124 21.6825 107.859 20.3482 108.993 21.4823" stroke="white" stroke-miterlimit="10" stroke-linecap="round" stroke-linejoin="round"/>
    <path d="M101.187 23.617C101.555 23.617 101.854 23.1989 101.854 22.683C101.854 22.1672 101.555 21.749 101.187 21.749C100.819 21.749 100.52 22.1672 100.52 22.683C100.52 23.1989 100.819 23.617 101.187 23.617Z" fill="#3B1610"/>
    <path d="M111.328 22.683C111.328 23.2167 111.061 23.617 110.66 23.617C110.327 23.617 109.993 23.2167 109.993 22.683C109.993 22.1493 110.26 21.749 110.66 21.749C111.061 21.749 111.328 22.1493 111.328 22.683Z" fill="#3B1610"/>
    <path d="M115.664 29.955L115.864 33.0906C115.864 33.0906 114.396 28.1537 108.526 28.554C102.721 28.9543 98.9186 31.2893 98.1848 37.1602C97.6511 41.7635 88.2443 34.9586 90.5126 29.021C90.5126 29.021 96.9839 26.6192 94.849 18.8803C94.849 18.8803 102.121 18.6135 104.523 15.0776C106.924 11.5417 111.528 13.9434 112.662 16.5453C112.662 16.5453 116.665 14.4771 115.13 10.4742C114.33 8.40608 112.995 8.13922 112.995 8.13922C112.995 8.13922 114.13 1.46773 108.859 0.934008C103.589 0.400289 100.12 3.73603 95.8498 4.4699C91.58 5.20376 80.1718 6.7382 78.7708 11.6751C77.3697 16.612 78.237 19.0805 78.237 19.0805C78.237 19.0805 74.3676 21.1486 75.3016 26.4858C76.2356 31.823 78.3705 34.3582 81.3059 37.4938C82.5735 38.8948 83.7077 40.2958 84.575 41.4967L85.5757 33.7577C85.5757 33.7577 88.5111 52.5046 108.926 49.369C125.538 46.8338 119 30.2218 115.664 29.955Z" fill="#3B1610"/>
    <path d="M105.523 32.8236C105.523 32.8236 108.993 33.8243 110.661 32.2231" stroke="#FEC9B6" stroke-miterlimit="10" stroke-linecap="round" stroke-linejoin="round"/>
    <path d="M85.976 35.3589C85.042 36.2262 83.7077 36.76 82.3067 36.76C79.3712 36.76 76.9028 34.3582 76.9028 31.3561C76.9028 28.4206 79.3045 25.9521 82.3067 25.9521C84.8418 26.0856 85.976 35.3589 85.976 35.3589Z" fill="#FEC9B6"/>
    <path d="M84.1079 31.8897L81.6395 31.0224L79.1043 30.0884" stroke="#5C3023" stroke-miterlimit="10" stroke-linecap="round" stroke-linejoin="round"/>
    <path d="M80.2385 33.2908L81.6395 31.0225" stroke="#5C3023" stroke-miterlimit="10" stroke-linecap="round" stroke-linejoin="round"/>
    <path d="M81.7062 17.4795C83.174 16.5455 84.9753 16.2119 86.7099 16.1452C88.5779 16.0785 92.3806 15.9451 93.448 17.9465" stroke="#5C3023" stroke-miterlimit="10" stroke-linecap="round" stroke-linejoin="round"/>
    <path d="M106.057 12.8759C106.724 12.0086 107.858 11.675 108.859 11.1413C109.993 10.6076 112.395 9.47346 112.862 8.13916" stroke="#5C3023" stroke-miterlimit="10" stroke-linecap="round" stroke-linejoin="round"/>
    <path d="M104.523 41.5635C105.19 41.8971 105.657 43.2981 105.924 44.0319C106.391 45.4329 106.324 46.8339 106.324 48.3017" stroke="#5C3023" stroke-miterlimit="10" stroke-linecap="round" stroke-linejoin="round"/>
    <path d="M109.927 40.2959C111.528 41.7636 112.061 44.7658 112.061 46.834" stroke="#5C3023" stroke-miterlimit="10" stroke-linecap="round" stroke-linejoin="round"/>
    <path d="M113.663 39.3618C115.064 41.0964 115.464 43.0311 115.864 45.166" stroke="#5C3023" stroke-miterlimit="10" stroke-linecap="round" stroke-linejoin="round"/>
    <path d="M84.6417 26.7529L97.7845 23.2837" stroke="white" stroke-miterlimit="10" stroke-linecap="round" stroke-linejoin="round"/>
    <path d="M44.9463 184.4L99.4523 147.973C100.32 147.373 100.653 146.172 100.186 145.238L90.179 125.691C89.712 124.757 88.6445 124.29 87.6438 124.623C81.5728 126.691 61.2247 133.363 51.0841 134.764C39.0754 136.432 24.7317 139.033 18.5939 147.506" stroke="#393842" stroke-miterlimit="10" stroke-linecap="round" stroke-linejoin="round"/>
    <path d="M48.4822 135.165L54.8201 102.941" stroke="#393842" stroke-miterlimit="10" stroke-linecap="round" stroke-linejoin="round"/>
    <path d="M67.0956 59.71C67.0956 59.71 74.9013 88.3306 101.921 96.1363C101.921 96.1363 120.668 85.4619 123.203 62.2451" stroke="#393842" stroke-miterlimit="10" stroke-linecap="round" stroke-linejoin="round"/>
    <path d="M69.2972 65.714L77.7033 61.7778" stroke="#393842" stroke-miterlimit="10" stroke-linecap="round" stroke-linejoin="round"/>
    <path d="M73.1 73.0526L82.0398 68.1157" stroke="#393842" stroke-miterlimit="10" stroke-linecap="round" stroke-linejoin="round"/>
    <path d="M79.2379 81.5253L88.0442 75.521" stroke="#393842" stroke-miterlimit="10" stroke-linecap="round" stroke-linejoin="round"/>
    <path d="M86.8433 88.5972L94.3153 81.5254" stroke="#393842" stroke-miterlimit="10" stroke-linecap="round" stroke-linejoin="round"/>
    <path d="M101.587 85.9951L101.854 96.1358" stroke="#393842" stroke-miterlimit="10" stroke-linecap="round" stroke-linejoin="round"/>
    <path d="M105.523 81.5254L111.528 87.93" stroke="#393842" stroke-miterlimit="10" stroke-linecap="round" stroke-linejoin="round"/>
    <path d="M109.727 74.854L117.399 79.8576" stroke="#393842" stroke-miterlimit="10" stroke-linecap="round" stroke-linejoin="round"/>
    <path d="M113.529 67.1816L121.201 71.2513" stroke="#393842" stroke-miterlimit="10" stroke-linecap="round" stroke-linejoin="round"/>
    <path d="M101.587 85.9954C101.587 85.9954 103.722 83.7271 106.391 80.0578L102.588 71.7852C102.588 71.7852 105.39 70.3841 105.323 67.1818C105.323 67.1818 101.054 64.0462 99.0521 63.4458C99.0521 63.4458 95.0492 64.7134 92.9144 66.7148C92.9144 66.7148 93.2479 70.9179 96.1834 71.7184L94.3821 81.5255C96.7171 83.3935 99.1188 84.928 101.587 85.9954Z" fill="#A6DFFC"/>
    <path d="M96.2501 71.7185C96.2501 71.7185 99.5192 69.9172 102.588 71.7185" stroke="#00AAFF" stroke-miterlimit="10" stroke-linecap="round" stroke-linejoin="round"/>
    <path d="M86.3763 73.6534C86.3763 73.6534 91.58 65.7143 99.0521 63.5127C99.0521 63.5127 106.524 66.7817 110.994 72.6526" stroke="#393842" stroke-miterlimit="10" stroke-linecap="round" stroke-linejoin="round"/>
    <path d="M126.539 116.551L122.202 118.152L112.729 92.4006C112.328 91.2664 112.862 89.9988 114.063 89.5985L114.33 89.5318C115.464 89.1315 116.732 89.6652 117.132 90.8661L126.539 116.551Z" fill="white"/>
    <path d="M99.0521 121.487L112.929 107.744C114.063 106.61 115.664 106.143 117.265 106.477L127.74 108.745C127.74 108.745 129.874 109.946 129.874 112.548C129.874 112.548 133.41 113.015 133.677 115.016C133.944 117.018 132.476 119.086 132.476 119.086C132.476 119.086 134.745 121.287 133.677 123.756C133.677 123.756 134.011 125.824 133.677 126.491C132.476 129.16 129.207 130.227 128.073 130.294C126.539 130.427 124.27 129.96 124.27 129.96C124.27 129.96 119.667 137.499 111.595 133.63L106.457 136.698L99.0521 121.487Z" fill="#FEC9B6"/>
    <path d="M90.2457 125.691L99.0521 121.488L107.191 138.3L99.6525 144.238L90.2457 125.691Z" stroke="#393842" stroke-miterlimit="10" stroke-linecap="round" stroke-linejoin="round"/>
    <path d="M92.3806 129.961L98.7185 126.425" stroke="#393842" stroke-miterlimit="10" stroke-linecap="round" stroke-linejoin="round"/>
    <path d="M95.0492 135.164L103.455 130.561" stroke="#393842" stroke-miterlimit="10" stroke-linecap="round" stroke-linejoin="round"/>
    <path d="M97.4509 139.834L105.657 135.164" stroke="#393842" stroke-miterlimit="10" stroke-linecap="round" stroke-linejoin="round"/>
    <path d="M129.808 112.548L120.534 110.68" stroke="#5C3023" stroke-miterlimit="10" stroke-linecap="round" stroke-linejoin="round"/>
    <path d="M132.409 119.086L122.736 117.285" stroke="#5C3023" stroke-miterlimit="10" stroke-linecap="round" stroke-linejoin="round"/>
    <path d="M124.27 122.755L133.61 123.689" stroke="#5C3023" stroke-miterlimit="10" stroke-linecap="round" stroke-linejoin="round"/>
    <path d="M124.137 129.96L126.605 127.158H128.94" stroke="#5C3023" stroke-miterlimit="10" stroke-linecap="round" stroke-linejoin="round"/>
    <path d="M170.103 90.7988H138.347C133.01 90.7988 128.673 95.1353 128.673 100.472C128.673 105.81 133.01 110.146 138.347 110.146H170.103V90.7988Z" fill="#DCC9AB"/>
    <path d="M165.433 162.184H120.601C118.8 162.184 117.465 160.516 117.866 158.715L130.608 101.74C130.942 100.139 132.409 99.0049 134.077 99.0049H178.843C180.644 99.0049 181.979 100.673 181.578 102.474L168.836 159.449C168.502 161.05 167.034 162.184 165.433 162.184Z" fill="#A6DFFC"/>
    <path d="M121.402 158.715L134.144 101.74C134.478 100.139 135.945 99.0049 137.613 99.0049H134.077C132.409 99.0049 131.008 100.139 130.608 101.74L117.866 158.715C117.465 160.449 118.8 162.184 120.601 162.184H124.137C122.336 162.184 121.001 160.516 121.402 158.715Z" fill="#00AAFF"/>
    <path d="M184.247 90.7988H138.347C143.684 90.7988 148.021 95.1353 148.021 100.472L147.487 107.744L193.921 108.345V100.472C193.921 95.1353 189.584 90.7988 184.247 90.7988Z" fill="white"/>
    <path d="M152.557 94.335H185.715" stroke="#DCC9AB" stroke-miterlimit="10" stroke-linecap="round" stroke-linejoin="round"/>
    <path d="M155.359 99.0713H188.517" stroke="#DCC9AB" stroke-miterlimit="10" stroke-linecap="round" stroke-linejoin="round"/>
    <path d="M82.7069 51.7042L82.0398 49.3691" stroke="#393842" stroke-miterlimit="10" stroke-linecap="round" stroke-linejoin="round"/>
    <path d="M109.727 53.5721L110.994 51.1704" stroke="#393842" stroke-miterlimit="10" stroke-linecap="round" stroke-linejoin="round"/>
    <path d="M159.963 161.183C161.297 162.584 163.165 163.251 165.1 163.585C167.768 163.985 171.371 163.518 174.507 159.582C180.377 152.176 177.108 143.303 176.375 139.901C175.641 136.498 176.975 134.23 174.773 132.963L172.572 142.77C172.572 142.77 161.097 132.362 156.827 132.963C152.557 133.563 155.359 135.831 155.359 135.831C155.359 135.831 151.957 134.831 151.023 136.765C150.089 138.7 151.957 139.968 151.957 139.968C151.957 139.968 150.156 142.903 152.691 146.239L157.895 152.377C157.895 152.377 151.557 148.44 149.755 149.174C147.153 150.175 156.36 157.447 159.963 161.183Z" fill="#FEC9B6"/>
    <path d="M151.957 139.834L165.167 152.577" stroke="#5C3023" stroke-miterlimit="10" stroke-linecap="round" stroke-linejoin="round"/>
    <path d="M155.359 135.765L168.836 146.239" stroke="#5C3023" stroke-miterlimit="10" stroke-linecap="round" stroke-linejoin="round"/>
    <path d="M157.895 152.243L161.164 155.445" stroke="#5C3023" stroke-miterlimit="10" stroke-linecap="round" stroke-linejoin="round"/>
    <path d="M94.1819 151.51C94.1819 151.51 78.3038 168.655 84.7084 176.528C91.113 184.4 118.6 188.67 119.267 192.139H47.8818C45.6802 192.139 43.9456 190.138 44.3459 187.936L44.9463 184.4L47.7483 182.532L94.1819 151.51Z" fill="#E72E40"/>
    <path d="M107.325 195.475L102.121 222.894" stroke="#1184BE" stroke-miterlimit="10" stroke-linecap="round" stroke-linejoin="round"/>
    <path d="M301.503 125.204L212.18 124.924C210.107 124.909 208.195 125.997 207.146 127.789L200.831 138.606C199.782 140.398 199.767 142.599 200.791 144.384L206.981 155.285C208.005 157.091 209.902 158.205 211.976 158.219L301.277 158.499C303.351 158.513 305.263 157.425 306.312 155.633L312.648 144.817C313.697 143.025 313.712 140.823 312.687 139.038L306.498 128.137C305.473 126.331 303.555 125.218 301.503 125.204Z" fill="#04E061"/>
    <rect x="228.804" y="132.028" width="54" height="19" rx="9.5" transform="rotate(0.388369 228.804 132.028)" fill="#04E061"/>
    <path d="M224.658 146L223.218 145.99L223.249 141.351L217.041 141.309L217.01 145.948L215.57 145.939L215.642 135.315L217.082 135.325L217.05 139.965L223.258 140.007L223.29 135.367L224.73 135.376L224.658 146ZM230.297 138.47C232.377 138.484 233.81 139.534 233.798 141.374L233.766 146.062L232.39 146.053L232.395 145.253C231.815 145.873 230.964 146.251 229.828 146.243C228.101 146.232 226.842 145.423 226.853 143.775C226.865 141.999 228.405 141.402 230.101 141.413L232.421 141.429C232.429 140.213 231.504 139.759 230.288 139.75C229.409 139.744 228.51 140.106 228.217 140.808L226.697 140.798C227.14 139.281 228.601 138.459 230.297 138.47ZM232.41 143.109L232.413 142.629L230.077 142.613C228.941 142.605 228.235 142.984 228.229 143.784C228.224 144.584 228.925 144.957 229.981 144.964C231.469 144.974 232.402 144.213 232.41 143.109ZM243.028 140.909L241.524 140.898C241.145 140.24 240.428 139.819 239.564 139.813C238.124 139.803 237.092 140.948 237.082 142.404C237.072 143.86 238.088 145.019 239.528 145.029C240.392 145.035 241.115 144.624 241.504 143.97L243.007 143.981C242.47 145.401 241.152 146.32 239.52 146.309C237.344 146.294 235.691 144.619 235.706 142.395C235.721 140.171 237.396 138.518 239.572 138.533C241.204 138.544 242.51 139.481 243.028 140.909ZM244.071 139.988L244.079 138.772L251.151 138.82L251.143 140.036L248.295 140.016L248.253 146.16L246.877 146.151L246.919 140.007L244.071 139.988ZM256.015 138.645C258.095 138.659 259.528 139.708 259.516 141.548L259.484 146.236L258.108 146.227L258.113 145.427C257.533 146.047 256.683 146.425 255.547 146.418C253.819 146.406 252.56 145.597 252.571 143.949C252.583 142.173 254.123 141.576 255.819 141.587L258.139 141.603C258.148 140.387 257.223 139.933 256.007 139.925C255.127 139.919 254.228 140.281 253.935 140.983L252.415 140.972C252.858 139.455 254.319 138.633 256.015 138.645ZM258.128 143.283L258.131 142.803L255.795 142.787C254.659 142.78 253.953 143.159 253.947 143.959C253.942 144.759 254.643 145.131 255.699 145.139C257.187 145.149 258.12 144.387 258.128 143.283ZM267.696 142.612C268.525 143.05 268.713 143.691 268.709 144.315C268.701 145.403 267.943 146.294 266.343 146.283L261.879 146.253L261.929 138.893L266.329 138.923C267.929 138.933 268.675 139.818 268.668 140.922C268.663 141.53 268.499 142.153 267.696 142.612ZM266.207 145.066C266.895 145.071 267.329 144.769 267.334 144.145C267.338 143.521 266.908 143.215 266.22 143.21L263.276 143.19L263.263 145.046L266.207 145.066ZM266.164 141.994C266.852 141.998 267.286 141.697 267.291 141.073C267.295 140.449 266.865 140.142 266.177 140.138L263.297 140.118L263.284 141.974L266.164 141.994ZM276.499 138.991L277.875 139.001L277.826 146.361L276.45 146.351L276.471 143.247L272.167 143.218L272.146 146.322L270.77 146.313L270.82 138.953L272.196 138.962L272.175 142.002L276.479 142.031L276.499 138.991ZM281.755 146.387L280.379 146.378L280.429 139.018L281.805 139.027L281.768 144.387L286.109 139.057L287.485 139.066L287.435 146.426L286.059 146.416L286.095 141.057L281.755 146.387ZM290.038 139.083L291.414 139.093L291.392 142.309L294.95 139.117L296.79 139.129L292.685 142.781L296.74 146.489L294.9 146.476L291.384 143.428L291.364 146.452L289.988 146.443L290.038 139.083Z" fill="white"/>
</svg>
