<svg width="375" height="667" viewBox="0 0 375 667" fill="none" xmlns="http://www.w3.org/2000/svg">
<g clip-path="url(#clip0_601_2)">
<path d="M483.861 67.0994L435.796 35.1235C422.447 26.2648 406.811 22.1754 390.903 23.3826L333.338 27.7328C308.184 29.6596 298.703 65.9085 319.693 79.9033L367.758 111.879C381.108 120.738 396.744 124.827 412.651 123.62L470.217 119.27C495.35 117.42 504.851 81.0942 483.861 67.0994Z" fill="#FF4053"/>
<path d="M80.8655 393.012L153.508 268.048C161.054 255.195 149.156 239.616 134.771 243.419L-76.3614 299.23C-90.7459 303.033 -93.3918 322.456 -80.48 329.901L44.4037 402.565C57.1345 409.972 73.4369 405.663 80.8655 393.012Z" fill="#00AAFF"/>
</g>
<defs>
<clipPath id="clip0_601_2">
<rect width="375" height="667" fill="white"/>
</clipPath>
</defs>
</svg>
