<svg width="376" height="668" viewBox="0 0 376 668" fill="none" xmlns="http://www.w3.org/2000/svg">
    <g clip-path="url(#clip0_340_8960)">
        <path d="M443.982 87.9944L395.917 56.0185C382.567 47.1598 366.931 43.0705 351.024 44.2776L293.458 48.6278C268.305 50.5547 258.824 86.8035 279.814 100.798L327.879 132.774C341.229 141.633 356.865 145.722 372.772 144.515L430.338 140.165C455.471 138.315 464.972 101.989 443.982 87.9944Z" fill="#FF4053"/>
        <path d="M80.9864 393.907L153.629 268.944C161.175 256.091 149.276 240.512 134.892 244.314L-76.2406 300.126C-90.6251 303.928 -93.2709 323.352 -80.3591 330.797L44.5245 403.46C57.2554 410.868 73.5578 406.558 80.9864 393.907Z" fill="#00AAFF"/>
    </g>
    <defs>
        <clipPath id="clip0_340_8960">
            <rect width="375" height="667" fill="white" transform="translate(0.12085 0.89502)"/>
        </clipPath>
    </defs>
</svg>
