<svg width="42" height="43" viewBox="0 0 42 43" fill="none" xmlns="http://www.w3.org/2000/svg">
    <circle cx="21" cy="21.2529" r="21" fill="#04E061"/>
    <mask id="mask0_135_3171" style="mask-type:alpha" maskUnits="userSpaceOnUse" x="0" y="0" width="42" height="43">
        <circle cx="21" cy="21.2529" r="21" fill="#FF4053"/>
    </mask>
    <g mask="url(#mask0_135_3171)">
        <path d="M33.5891 24.6357L31.1101 42.7192H9.67002L7.191 24.6357C7.057 23.7585 7.66001 22.9488 8.53101 22.8138C10.474 22.5439 14.025 22.0716 17.777 21.9366C18.514 21.9366 19.3181 21.8691 20.0551 21.8691C24.4771 21.8691 29.7031 22.4764 32.2491 22.8138C33.1201 22.9488 33.7231 23.7585 33.5891 24.6357Z" fill="#B38DEE"/>
        <path d="M24.0748 15.6611H18.5138V24.9728H24.0748V15.6611Z" fill="#FFAA8B"/>
        <path d="M22.1988 18.0234V18.4957C22.1988 18.4957 20.3228 19.9802 18.5808 20.3176V17.3486C19.9208 17.6185 22.1988 18.0234 22.1988 18.0234Z" fill="#2C3335"/>
        <path d="M11.8138 24.0963L10.4738 42.7196H2.2998C2.56781 40.2905 3.77381 31.3162 7.32482 23.7589V23.6914L11.8138 24.0963Z" fill="#B38DEE"/>
        <path d="M38.346 42.719H30.1719L28.8319 24.0957L33.4549 23.7583C33.4549 23.7583 33.4549 23.7583 33.4549 23.8258C33.4549 23.8933 33.5219 23.8933 33.5219 23.9607C37.0059 31.4505 38.1449 40.2899 38.346 42.719Z" fill="#B38DEE"/>
        <path d="M24.0749 42.7193H18.5138L17.7098 23.5562H24.8789L24.0749 42.7193Z" fill="white"/>
        <path d="M19.5861 42.7186H18.3131C15.6331 36.3084 13.623 27.6715 13.623 27.6715L17.9781 21.936L19.5861 42.7186Z" fill="#965EEB"/>
        <path d="M23.0029 42.7186H24.2759C26.9559 36.3084 28.9659 27.6715 28.9659 27.6715L24.6109 21.936L23.0029 42.7186Z" fill="#965EEB"/>
        <path d="M18.5139 20.8569C18.5139 20.8569 19.1169 22.7463 21.3279 23.556C21.3279 23.556 16.0349 25.7827 16.1689 25.6477C16.3029 25.4453 18.5139 20.8569 18.5139 20.8569Z" fill="white"/>
        <path d="M24.0749 20.8569C24.0749 20.8569 23.4719 22.7463 21.2609 23.556C21.2609 23.556 26.5539 25.7827 26.4199 25.6477C26.3529 25.4453 24.0749 20.8569 24.0749 20.8569Z" fill="white"/>
        <path d="M26.621 25.8504C26.554 25.8504 26.554 25.8504 26.621 25.8504C25.147 25.5805 21.864 24.0286 21.328 23.8261C20.792 24.0961 17.308 25.7155 16.169 25.8504C16.102 25.8504 15.968 25.7829 15.968 25.7155C15.968 25.648 16.035 25.513 16.102 25.513C17.308 25.3781 21.194 23.4888 21.194 23.4888C21.261 23.4888 21.261 23.4888 21.328 23.4888C21.395 23.4888 25.08 25.3106 26.554 25.5805C26.621 25.5805 26.6881 25.7155 26.6881 25.7829C26.7551 25.7829 26.6881 25.8504 26.621 25.8504Z" fill="#965EEB"/>
        <path d="M21.3279 42.9218C21.2609 42.9218 21.1938 42.8543 21.1938 42.7868V23.6237C21.1938 23.5562 21.2609 23.4888 21.3279 23.4888C21.3949 23.4888 21.4618 23.5562 21.4618 23.6237V42.7868C21.4618 42.8543 21.3949 42.9218 21.3279 42.9218Z" fill="#965EEB"/>
        <path d="M9.60291 42.922C9.53591 42.922 9.4689 42.8545 9.4689 42.787V42.5846C9.3349 41.9099 8.9999 39.6157 8.7319 37.4565C8.12889 33.138 8.12891 33.0705 8.26291 33.003C8.32991 32.9356 8.4639 33.0031 8.4639 33.0705C8.4639 33.138 8.4639 33.138 8.4639 33.2055C8.4639 33.3404 8.53091 34.0827 8.99991 37.389C9.33491 39.5482 9.6699 41.8424 9.7369 42.5171C9.7369 42.6521 9.7369 42.7196 9.7369 42.7196C9.8039 42.787 9.73691 42.8545 9.60291 42.922C9.66991 42.922 9.66991 42.922 9.60291 42.922Z" fill="#2C3335"/>
        <path d="M8.99992 38.063C8.93292 38.063 8.86591 38.063 8.86591 37.9955C7.86091 36.4435 6.98991 34.8241 6.98991 34.8241C6.92291 34.7567 6.9899 34.6217 7.0569 34.6217C7.1239 34.5542 7.25791 34.6217 7.25791 34.6892C7.25791 34.6892 8.0619 36.3086 9.0669 37.7931C9.1339 37.8605 9.06692 37.9955 8.99992 37.9955C9.06692 38.063 8.99992 38.063 8.99992 38.063Z" fill="#2C3335"/>
        <path d="M31.1098 42.9218C31.0428 42.9218 30.9088 42.8543 30.9088 42.7868V42.7194C30.9088 42.6519 30.9758 42.3145 31.0428 41.7747C31.1768 40.7625 31.4448 39.0757 31.6458 37.4562C31.9138 35.432 32.1148 34.015 32.1818 33.2053C32.1818 33.1378 32.2488 33.0703 32.3828 33.0703C32.4498 33.0703 32.5168 33.1378 32.5168 33.2727C32.4498 34.0825 32.2488 35.4994 31.9808 37.5237C31.7798 39.1431 31.5118 40.83 31.3778 41.8422C31.3108 42.382 31.2438 42.7194 31.2438 42.8543C31.2438 42.7868 31.1768 42.9218 31.1098 42.9218Z" fill="#2C3335"/>
        <path d="M31.7798 38.3332C31.7128 38.3332 31.7128 38.3332 31.6458 38.2657C31.5788 38.1983 31.5788 38.1308 31.6458 37.9958C32.3158 37.2536 32.9188 35.9041 33.3208 35.0944C33.6558 34.3521 33.7898 34.1497 33.9238 34.0148C33.9908 33.9473 34.1248 34.0148 34.1248 34.0822C34.1918 34.1497 34.1248 34.2847 34.0578 34.2847C33.9908 34.3522 33.7898 34.757 33.5888 35.2293C33.1868 36.1065 32.5168 37.456 31.8468 38.1983C31.8468 38.3332 31.7798 38.3332 31.7798 38.3332Z" fill="#2C3335"/>
        <path d="M35.6658 29.6289C35.5988 29.6289 35.5318 29.6289 35.5318 29.5614C34.5268 28.1444 33.1868 26.7949 32.9188 26.7274C32.8518 26.7274 32.7848 26.6599 32.7848 26.5925C32.7848 26.525 32.8518 26.4575 32.9858 26.4575C33.4548 26.4575 35.1298 28.4143 35.8668 29.4265C35.9338 29.4939 35.9338 29.6289 35.7998 29.6289C35.7328 29.6289 35.6658 29.6289 35.6658 29.6289Z" fill="#2C3335"/>
        <path d="M4.24293 32.5304C4.10893 32.4629 4.04192 32.3955 4.10892 32.328C4.10892 32.2605 4.84594 30.3037 6.31994 28.7518C6.38694 28.6843 6.52094 28.6843 6.58794 28.7518C6.65494 28.8193 6.65494 28.9542 6.58794 29.0217C5.18094 30.5736 4.44393 32.4629 4.44393 32.4629C4.37693 32.4629 4.30993 32.5304 4.24293 32.5304Z" fill="#2C3335"/>
        <path d="M15.1026 9.66533C15.1022 8.34673 15.1612 7.15178 16.264 5.68058C17.3669 4.20939 16.9003 8.2468 16.8809 8.28838C16.8614 8.32995 15.8734 9.97968 15.8734 9.97968L15.1026 9.66533Z" fill="#FFA6A4"/>
        <path d="M15.5403 11.7824C15.6178 12.5493 15.4945 13.1665 15.1304 13.2034C14.7747 13.2407 14.4167 12.6529 14.3302 11.8939C14.2527 11.127 14.4787 10.482 14.8349 10.4362C15.2079 10.3913 15.4628 11.0154 15.5403 11.7824Z" fill="#FF4053"/>
        <path d="M14.8144 12.2157L15.0347 12.3238L15.213 12.9602C15.213 12.9602 15.2417 13.0391 15.2854 13.1446C15.2414 13.1761 15.1895 13.1984 15.1387 13.2038C14.817 13.2347 14.5011 12.778 14.3814 12.1454C14.6487 12.3079 14.8144 12.2157 14.8144 12.2157Z" fill="#CB3034"/>
        <path d="M16.0231 9.47578C15.7499 9.40706 14.9571 9.5708 14.839 9.97429C14.5784 10.8996 14.7755 13.0954 15.3614 13.672C15.5752 13.8825 16.1979 13.8793 16.4285 13.8254C17.0012 13.6819 17.0591 12.7695 16.9354 11.5372C16.795 10.3039 16.3958 9.56793 16.0231 9.47578Z" fill="#FF4053"/>
        <path d="M14.8144 12.2153C15.0858 12.4466 15.2501 12.243 15.2501 12.243C15.4163 12.673 15.7766 12.6959 16.2247 12.7928L16.4847 12.6724C16.4847 12.6724 16.7158 12.8754 16.9401 13.0523C16.8717 13.4675 16.7109 13.7484 16.4206 13.8156C16.1984 13.87 15.5673 13.8728 15.3535 13.6623C15.1 13.415 14.9174 12.8469 14.8144 12.2153Z" fill="#CB3034"/>
        <path d="M14.8307 9.9737C14.9488 9.57021 15.7415 9.40647 16.0148 9.47518C16.0394 9.48531 16.0561 9.48637 16.0807 9.49649C15.5802 9.43048 15.2893 9.77163 15.2047 10.1772C15.1201 10.5829 15.0597 12.4627 15.6026 13.3191C15.6715 13.4262 15.7861 13.7417 16.2258 13.8381C15.9388 13.8542 15.5198 13.8276 15.3458 13.6539C14.7677 13.0863 14.57 10.899 14.8307 9.9737Z" fill="#FFA6A4"/>
        <path d="M14.8144 12.2158C15.0857 12.447 15.2501 12.2434 15.2501 12.2434C15.3168 12.6501 15.4349 13.0429 15.6108 13.3195C15.6797 13.4266 15.7943 13.7421 16.2341 13.8385C15.947 13.8545 15.5281 13.8279 15.354 13.6542C15.1 13.4155 14.9173 12.8473 14.8144 12.2158Z" fill="#FF4053"/>
        <path d="M15.8438 11.6388C15.9111 12.3024 16.1132 12.8289 16.2908 12.8145C16.4689 12.7916 16.5544 12.2404 16.4793 11.5678C16.412 10.9043 16.2099 10.3777 16.0323 10.3921C15.8542 10.4151 15.7688 10.9662 15.8438 11.6388Z" fill="#CB3034"/>
        <path d="M24.3826 14.2874C24.3732 14.3039 24.3632 14.329 24.3537 14.3455C24.3537 15.118 24.5899 15.4829 23.86 16.897C23.074 17.6177 21.7194 18.8615 20.6461 18.939C19.4968 19.0202 18.4901 18.3141 17.7802 17.4385C17.4526 17.0324 16.615 15.1301 16.5302 14.611C16.4475 14.0578 16.543 13.4816 16.4944 12.922C16.4631 12.6203 16.3636 12.3315 16.2809 12.0437C16.0345 11.1547 15.9459 10.1644 16.106 9.23276C16.1728 8.84314 16.2756 8.28456 16.4978 7.96474C16.7656 7.58788 17.3297 7.31545 17.7214 7.10912C18.9677 6.42619 20.5691 6.24527 21.8988 6.76634C23.2615 7.29805 24.3212 8.49551 24.8222 9.88013C25.0581 10.5373 25.1861 11.1704 24.9999 11.8521C24.796 12.6783 24.7703 13.4815 24.3826 14.2874Z" fill="#FFAA8B"/>
        <path d="M17.005 17.6151C17.0838 17.6373 17.1534 17.6245 17.2219 17.6288C17.9384 17.5366 18.3319 17.4756 18.3319 17.4756L18.3157 17.01C18.3157 17.01 17.9335 17.0718 17.217 17.164C16.5577 17.2598 15.8119 15.6467 15.7114 13.7993C15.7076 13.6787 15.6331 13.5879 15.5521 13.6C15.4597 13.6113 15.395 13.7277 15.3977 13.8655C15.4939 15.7814 16.2342 17.4801 17.005 17.6151Z" fill="#FFA6A4"/>
        <path d="M15.4346 13.6445C15.4335 13.6616 15.4324 13.6788 15.4313 13.6959C15.5367 15.6468 16.2782 17.3284 17.0479 17.4805C17.1267 17.5027 17.1963 17.4899 17.2648 17.4943C17.8318 17.4098 18.19 17.3637 18.3167 17.3546L18.3194 17.4924C18.3194 17.4924 17.9372 17.5541 17.2093 17.6456C17.1398 17.6584 17.0599 17.6533 16.9924 17.6318C16.233 17.4976 15.4813 15.7982 15.3759 13.8472C15.3813 13.7616 15.4085 13.6945 15.4346 13.6445Z" fill="#FF4053"/>
        <path d="M18.2926 17.7314L18.9281 17.6513C19.1483 17.6137 19.3152 17.3318 19.3016 17.004C19.288 16.6763 19.1081 16.4412 18.8879 16.4788L18.2524 16.5589C18.0323 16.5966 17.8654 16.8785 17.879 17.2062C17.8926 17.534 18.0725 17.7691 18.2926 17.7314Z" fill="#393842"/>
        <path d="M17.9997 16.7489C17.9975 16.7832 17.9943 16.8346 17.9921 16.8689C18.0057 17.1966 18.1856 17.4317 18.4058 17.3941L18.9613 17.3089C19.1119 17.284 19.2358 17.1371 19.2935 16.9515C19.2924 16.9686 19.2913 16.9857 19.3027 16.9865C19.3163 17.3142 19.138 17.5954 18.9292 17.6338L18.2938 17.7139C18.0736 17.7515 17.8948 17.4993 17.8801 17.1887C17.8785 17.0337 17.9236 16.8645 17.9997 16.7489Z" fill="#393842"/>
        <path d="M18.7211 7.66086C18.7211 7.66086 16.3631 8.49585 16.135 11.6922C16.135 11.6922 14.4306 9.52053 15.7073 6.50206C16.9836 3.49212 20.0934 3.80079 20.0934 3.80079L18.7211 7.66086Z" fill="#393842"/>
        <path d="M18.721 7.66101C18.721 7.66101 16.4233 8.47415 16.1504 11.582C16.1514 11.565 16.1525 11.5479 16.1536 11.5308C16.3863 8.39474 17.5118 7.62708 18.6037 7.12272L18.8437 7.31776L18.721 7.66101Z" fill="#393842"/>
        <path d="M25.0086 10.9193C25.0086 10.9193 18.659 10.893 18.3557 7.58592C18.0608 4.27934 19.7282 3.58888 20.529 3.56265C21.3299 3.53641 22.8918 3.44718 24.1328 4.83595C25.3817 6.23378 26.8144 7.12098 26.3778 11.3487L25.0086 10.9193Z" fill="#393842"/>
        <path d="M25.1989 10.0416C24.9321 9.87052 24.6659 9.69095 24.4092 9.49485C24.1519 9.30728 23.904 9.10318 23.6562 8.89908C23.1611 8.48236 22.6927 8.04166 22.2517 7.56843C22.6481 8.08164 23.0797 8.57138 23.5381 9.03714C23.767 9.27429 23.997 9.49437 24.2437 9.71553C24.4821 9.93615 24.7383 10.1408 24.994 10.3539L25.1989 10.0416Z" fill="#0C0835"/>
        <path d="M21.903 4.97768C23.3503 5.90006 24.8748 7.9918 24.8044 9.63126C24.8044 9.63126 25.479 9.07473 25.1985 8.19215C24.9181 7.30957 23.9978 6.30077 23.4792 5.85687C22.96 5.4215 21.903 4.97768 21.903 4.97768Z" fill="#0C0835"/>
        <path d="M24.6765 10.1878C24.9111 9.67183 24.8918 7.85543 24.8573 7.33951C24.8227 6.82358 24.6633 6.41961 24.6525 6.32474C24.6417 6.22987 24.6857 6.19842 24.6857 6.19842C23.7423 4.49461 22.2739 4.17024 20.805 3.58897L20.8915 3.55165C21.7421 3.53713 23.0653 3.62968 24.1407 4.84525C25.3817 6.23402 26.8144 7.12123 26.3778 11.3489L25.0002 10.919C25.0002 10.919 22.8304 10.9097 20.9631 10.2432C23.0564 10.7956 24.4419 10.7038 24.6765 10.1878Z" fill="#0C0835"/>
        <path d="M19.1438 7.62798C19.701 8.65656 20.4139 9.61795 23.3104 10.2385C25.2448 10.6438 25.5802 10.2626 25.5802 10.2626C25.5802 10.2626 22.1848 9.81596 20.8556 9.02095C19.5275 8.20888 19.1438 7.62798 19.1438 7.62798Z" fill="#0C0835"/>
        <path d="M24.8652 6.28684C24.5602 5.12872 22.7389 3.73736 20.5375 3.5634C20.5375 3.5634 21.6864 3.35377 22.9699 3.9404C24.254 4.5185 25.1488 5.39725 25.6104 6.3427C26.0714 7.29667 24.8652 6.28684 24.8652 6.28684Z" fill="#FFA6A4"/>
        <path d="M23.0676 4.2548C24.2349 4.81693 24.8392 5.89986 24.8392 5.89986C24.8973 5.91211 25.4438 6.04954 25.4522 6.05007C25.5049 6.1476 25.5659 6.24566 25.6103 6.34265C25.6248 6.37783 25.64 6.40448 25.6546 6.43965C25.4792 6.41996 25.2289 6.38695 25.1597 6.4168C25.134 6.42374 25.0754 6.42002 24.9932 6.38911C24.9132 6.3241 24.8651 6.2868 24.8651 6.2868C24.5601 5.12867 22.7388 3.73732 20.5374 3.56336C21.2752 3.60163 21.8925 3.68362 23.0676 4.2548Z" fill="#FF4053"/>
        <path d="M24.9057 10.2884C25.1394 8.19694 24.9454 6.74619 24.71 6.34596C24.4752 5.93719 25.5284 6.17528 25.7268 6.49611C25.8568 6.70129 26.2199 8.40252 25.9184 10.3698C25.6169 12.3371 24.9057 10.2884 24.9057 10.2884Z" fill="#FFA6A4"/>
        <path d="M24.9089 6.12709C24.8146 6.15536 24.7862 6.20493 24.8473 6.30299C24.9078 6.40958 25.1196 7.31348 25.1369 8.10229C25.1541 8.89111 25.0686 9.70765 25.0794 9.80252C25.0902 9.89739 25.7497 10.1105 25.9568 10.0294C25.9413 10.1398 25.9259 10.2501 25.9105 10.3604C25.8845 10.5043 25.8681 10.6317 25.8364 10.7325C25.6337 10.7453 25.3483 10.7357 25.0886 10.7192C24.9764 10.4981 24.8978 10.279 24.8978 10.279C25.1315 8.18757 24.9375 6.73682 24.7021 6.33659C24.6113 6.17671 24.7246 6.1154 24.9089 6.12709Z" fill="#FF4053"/>
        <path d="M25.0882 10.1969C25.3617 10.1286 26.1579 10.3076 26.2582 10.7164C26.4935 11.6474 26.2455 13.8322 25.6462 14.3935C25.4311 14.6025 24.8011 14.5882 24.5781 14.5226C24.0075 14.3666 23.9733 13.4482 24.1266 12.225C24.2884 11.0023 24.7125 10.2843 25.0882 10.1969Z" fill="#FF4053"/>
        <path d="M25.6455 14.402C25.4304 14.611 24.8004 14.5967 24.5774 14.5312C24.2466 14.4417 24.1001 14.0985 24.0561 13.5991C24.3174 13.8554 25.0345 13.8239 25.4051 13.6847C25.4051 13.6847 25.4157 12.5894 25.6479 11.9791C25.6479 11.9791 25.9427 12.7684 26.0989 13.489C25.9891 13.893 25.8334 14.2256 25.6455 14.402Z" fill="#CB3034"/>
        <path d="M25.0521 12.3528C24.9069 13.4481 25.1087 14.377 25.4925 14.4271C25.8763 14.4771 26.3085 13.6312 26.4538 12.5359C26.599 11.4406 26.3972 10.5117 26.0134 10.4616C25.6212 10.411 25.1973 11.2575 25.0521 12.3528Z" fill="#FFA6A4"/>
        <path d="M25.5168 12.8529C25.5168 12.8529 26.0074 12.9439 26.1514 13.7237C25.9624 14.1826 25.7172 14.4667 25.4921 14.4353C25.2921 14.4055 25.1481 14.1566 25.0719 13.7665C25.1992 13.7489 25.3186 13.7222 25.4135 13.6854C25.4057 13.6764 25.3746 13.5031 25.5168 12.8529Z" fill="#FF4053"/>
        <path d="M25.5468 12.5122C25.4356 13.3357 25.5448 14.0019 25.9034 14.0503C26.2621 14.0988 26.6384 13.4719 26.7495 12.6484C26.8607 11.825 26.6526 11.1268 26.2939 11.0783C25.9353 11.0299 25.6574 11.6972 25.5468 12.5122Z" fill="#FF4053"/>
        <path d="M26.0135 13.7749C26.1805 13.794 26.3457 13.7103 26.4995 13.5403C26.3349 13.8809 26.1202 14.0813 25.9113 14.0595C25.6029 14.0142 25.483 13.5186 25.5246 12.8619C25.5592 13.3778 25.7219 13.7307 26.0135 13.7749Z" fill="#CB3034"/>
        <path d="M19.4956 15.2182C19.3616 15.2187 19.2273 15.1517 19.1601 15.0844C19.0256 14.95 18.8911 14.8155 18.8904 14.6131C18.8883 14.0058 18.9521 13.1284 19.0179 12.7907C19.0177 12.7233 19.0177 12.7233 19.0175 12.6558C19.0172 12.5883 19.0838 12.4531 19.218 12.5201C19.285 12.5199 19.3522 12.5871 19.3525 12.6546C19.3525 12.6546 19.3527 12.7221 19.3529 12.7896C19.3539 13.0595 19.2233 14.0046 19.2254 14.6119C19.2256 14.6793 19.2929 14.7466 19.3601 14.8138C19.4274 14.8811 19.4944 14.8808 19.5614 14.8806L19.7621 14.8124C19.8291 14.8122 19.9631 14.8117 19.9636 14.9466C19.9638 15.0141 19.9643 15.1491 19.8303 15.1495L19.6295 15.2177C19.6295 15.2177 19.5626 15.218 19.4956 15.2182Z" fill="#C15638"/>
        <path d="M17.9471 13.1329C17.948 13.4028 17.8145 13.5383 17.6805 13.5387C17.5465 13.5392 17.4118 13.3373 17.4111 13.1348C17.4101 12.8649 17.5437 12.7295 17.6777 12.729C17.8117 12.7286 17.9464 12.9305 17.9471 13.1329Z" fill="#2C3335"/>
        <path d="M21.565 13.1197C21.566 13.3897 21.4325 13.5251 21.2985 13.5255C21.1645 13.526 21.0297 13.3241 21.029 13.1216C21.0281 12.8517 21.1616 12.7163 21.2956 12.7158C21.4296 12.7154 21.5643 12.9173 21.565 13.1197Z" fill="#2C3335"/>
        <path d="M20.3718 16.7C20.3048 16.7002 20.2378 16.7005 20.1708 16.7007C20.0368 16.7012 19.8356 16.6344 19.7011 16.4999C19.6339 16.4327 19.6334 16.2977 19.7674 16.2973C19.8342 16.2296 19.9682 16.2291 19.9686 16.364C20.0359 16.4313 20.6394 16.5641 21.0402 16.2253C21.5077 15.8188 21.3716 15.212 21.3716 15.212C21.3713 15.1445 21.3709 15.0095 21.5049 15.0091C21.5719 15.0088 21.7059 15.0083 21.7063 15.1433C21.7063 15.1433 21.9102 15.9523 21.3091 16.4942C20.9746 16.6304 20.5728 16.6993 20.3718 16.7Z" fill="#C15638"/>
        <path d="M16.8043 12.0571C16.8043 12.0571 16.871 11.9894 16.6696 11.8552C16.6023 11.7879 16.4686 11.8559 16.4686 11.8559C16.4016 11.8561 16.4018 11.9236 16.4018 11.9236L16.4016 11.8561L16.4683 11.7884C16.4681 11.7209 16.5351 11.7207 16.6018 11.653C16.6686 11.5853 16.7354 11.5176 16.8694 11.5171C17.0031 11.4491 17.2039 11.3809 17.3379 11.3805C17.4719 11.38 17.6729 11.3793 17.8069 11.3788C18.0079 11.3781 18.1421 11.4451 18.2764 11.5121C18.4106 11.5791 18.4781 11.7138 18.4116 11.849C18.3448 11.9167 18.2781 11.9844 18.2111 11.9847L18.1441 11.9849C18.0101 11.9854 17.8761 11.9858 17.8091 11.9861C17.6751 11.9866 17.6081 11.9868 17.4741 11.9873C17.3401 11.9877 17.2063 12.0557 17.1393 12.0559C17.0723 12.0562 17.0723 12.0562 17.0055 12.1239L16.9385 12.1241C16.9385 12.1241 16.9385 12.1241 16.8718 12.1918C16.8048 12.1921 16.738 12.2598 16.6708 12.1925C16.5363 12.0581 16.5361 11.9906 16.5361 11.9906C16.5356 11.8556 16.6691 11.7202 16.8031 11.7197C16.9371 11.7193 16.8038 11.9222 16.8043 12.0571Z" fill="#85303A"/>
        <path d="M20.4874 11.5039C20.4874 11.5039 20.5542 11.4362 20.3527 11.3019C20.2854 11.2347 20.1517 11.3027 20.1517 11.3027C20.0847 11.3029 20.0849 11.3704 20.0849 11.3704L20.0847 11.3029L20.1514 11.2352C20.1512 11.1677 20.2182 11.1675 20.285 11.0998C20.3517 11.032 20.4185 10.9643 20.5525 10.9639C20.6863 10.8959 20.887 10.8277 21.021 10.8272C21.155 10.8268 21.356 10.8261 21.49 10.8256C21.691 10.8249 21.8252 10.8919 21.9595 10.9589C22.0937 11.0259 22.1612 11.1606 22.0947 11.2958C22.0279 11.3635 21.9612 11.4312 21.8942 11.4314L21.8272 11.4317C21.6932 11.4321 21.5592 11.4326 21.4922 11.4329C21.3582 11.4333 21.2912 11.4336 21.1572 11.434C21.0232 11.4345 20.8894 11.5025 20.8224 11.5027C20.7554 11.5029 20.7554 11.503 20.6886 11.5707L20.6216 11.5709C20.6216 11.5709 20.6216 11.5709 20.5549 11.6386C20.4879 11.6388 20.4211 11.7066 20.3539 11.6393C20.2194 11.5048 20.2192 11.4374 20.2192 11.4374C20.2187 11.3024 20.3522 11.167 20.4862 11.1665C20.3524 11.2345 20.4869 11.3689 20.4874 11.5039Z" fill="#85303A"/>
        <path d="M9.60298 42.5167L9.46898 42.7192H7.92798C8.46398 41.0998 8.73197 38.4007 8.79897 37.4561C9.06697 39.2779 9.33498 41.1672 9.46898 42.1794C9.46898 42.3143 9.46898 42.3818 9.53598 42.4493C9.60298 42.4493 9.60298 42.5167 9.60298 42.5167Z" fill="#2C3335"/>
        <path d="M34.1921 42.7192H31.1101H31.0431C31.1101 42.3818 31.4451 39.8852 31.7801 37.4561C32.0481 39.008 32.5171 42.0444 34.1921 42.7192Z" fill="#2C3335"/>
    </g>
</svg>
