<svg width="376" height="257" viewBox="0 0 376 257" fill="none" xmlns="http://www.w3.org/2000/svg">
<path d="M429.885 126.303L406.47 89.6518C400.908 80.9745 392.331 74.5918 382.281 71.7889L251.89 35.4258C241.84 32.623 231.197 33.6459 221.86 38.1682L182.857 57.4118C171.74 62.8632 168.158 77.0674 175.326 87.1427L256.371 200.962C264.565 212.464 279.729 216.693 292.693 211.091L420.944 155.64C432.379 150.752 436.64 136.833 429.885 126.303Z" fill="#965EEB"/>
<path d="M161.537 185.118L104.985 181.402C89.2897 180.389 73.9798 184.554 61.0288 193.361L14.1536 225.214C-6.31636 239.154 3.33946 274.647 28.0506 276.296L84.6022 280.011C100.298 281.024 115.608 276.859 128.559 268.053L175.434 236.2C195.924 222.335 186.248 186.767 161.537 185.118Z" fill="#00E166"/>
<path d="M-75.7223 147.066C-67.7078 175.154 -38.3464 191.408 -10.2583 183.319C30.7879 171.559 73.0324 164.069 115.726 161.073C144.938 159.051 166.959 133.734 164.862 104.597C162.839 75.3854 137.523 53.3644 108.311 55.4616C58.2019 58.982 8.69189 67.8204 -39.4699 81.6023C-67.558 89.6167 -83.8116 118.903 -75.7223 147.066Z" fill="#FF4053"/>
<mask id="mask0_90_2" style="mask-type:alpha" maskUnits="userSpaceOnUse" x="-78" y="55" width="243" height="131">
<path d="M-75.7223 147.066C-67.7079 175.154 -38.3465 191.408 -10.2583 183.319C30.7878 171.559 73.0323 164.069 115.726 161.073C144.938 159.051 166.959 133.734 164.862 104.597C162.839 75.3854 137.523 53.3644 108.311 55.4616C58.2018 58.982 8.6918 67.8204 -39.47 81.6023C-67.5581 89.6167 -83.8117 118.903 -75.7223 147.066Z" fill="#FF4053"/>
</mask>
<g mask="url(#mask0_90_2)">
<path d="M189.198 129.53H-58.1573V187.059H189.198V129.53Z" fill="#F5F5F5"/>
<path d="M-58.1573 145.409H24.1201" stroke="#B5B5B5" stroke-width="0.5" stroke-miterlimit="10" stroke-linecap="round" stroke-linejoin="round"/>
<path d="M35.0555 161.528H75.1908" stroke="#B5B5B5" stroke-width="0.5" stroke-miterlimit="10" stroke-linecap="round" stroke-linejoin="round"/>
<path d="M-30.3824 161.528H28.5699" stroke="#B5B5B5" stroke-width="0.5" stroke-miterlimit="10" stroke-linecap="round" stroke-linejoin="round"/>
<path d="M116.257 142.802H189.227" stroke="#B5B5B5" stroke-width="0.5" stroke-miterlimit="10" stroke-linecap="round" stroke-linejoin="round"/>
<path d="M122.219 177.6H166.193" stroke="#B5B5B5" stroke-width="0.5" stroke-miterlimit="10" stroke-linecap="round" stroke-linejoin="round"/>
</g>
<mask id="mask1_90_2" style="mask-type:alpha" maskUnits="userSpaceOnUse" x="171" y="33" width="263" height="181">
<path d="M429.885 126.303L406.47 89.6518C400.908 80.9745 392.331 74.5918 382.281 71.7889L251.89 35.4258C241.84 32.623 231.197 33.6459 221.86 38.1682L182.857 57.4118C171.74 62.8632 168.158 77.0674 175.326 87.1427L256.37 200.962C264.565 212.464 279.729 216.693 292.693 211.091L420.944 155.64C432.379 150.752 436.64 136.833 429.885 126.303Z" fill="#965EEB"/>
</mask>
<g mask="url(#mask1_90_2)">
<path d="M299.684 160.016C299.684 160.016 327.388 186.585 368.867 164.418L367.723 157.741L300.514 153.914L299.684 160.016Z" fill="#1285BE"/>
<path d="M359.659 139.21L374.151 194.468L307.65 194.722C307.65 194.722 301.384 158.683 304.562 139.473L359.659 139.263L359.659 139.21Z" fill="#04E061"/>
<path d="M304.199 142.073C304.302 141.171 304.405 140.269 304.562 139.473L359.659 139.263L362.309 149.329L304.199 142.073Z" fill="#21B05E"/>
<path d="M336.105 194.613L327.919 158.052L322.797 156.427" stroke="#26303D" stroke-miterlimit="10" stroke-linecap="round" stroke-linejoin="round"/>
<path d="M354.422 79.4012C354.422 79.4012 360.69 74.1801 359.163 65.1703C357.637 56.1606 350.704 54.7021 350.704 54.7021C350.704 54.7021 358.772 46.2921 349.299 35.5096C349.299 35.5096 346.357 32.7101 342.786 32.3525C342.786 32.3525 341.168 24.5839 325.72 26.0747C319.488 26.6762 314.501 35.6424 318.085 38.8107C318.085 38.8107 315.501 45.8208 319.458 49.3059L319.475 53.9727C319.475 53.9727 308.935 56.6646 307.645 67.8064C306.356 78.9482 318.253 82.8803 318.253 82.8803C318.253 82.8803 348.689 85.2037 354.422 79.4012Z" fill="#5C3023"/>
<path d="M341.696 67.9493L364.206 73.9091C365.592 74.2751 366.715 75.2254 367.306 76.4959C370.422 83.1662 380.309 104.66 382.216 115.63C382.216 115.63 386.157 129.033 377.491 134.104C375.151 135.439 372.435 135.873 369.769 135.512L363.798 134.686L368.867 164.365C368.867 164.365 347.457 167.205 343.137 152.266L340.423 139.283L313.78 139.385C313.78 139.385 315.702 154.333 299.738 160.015L304.141 127.012L301.748 114.24L293.25 121.697C290.701 123.934 287.67 125.643 284.423 126.451C279.153 127.85 272.011 127.453 267.766 118.082C260.35 101.776 256.165 80.3671 256.165 80.3671L265.825 70.3601L285.007 97.97L301.492 75.2091C302.182 74.3049 303.138 73.6118 304.256 73.3424L326.083 68.0088L341.696 67.9493Z" fill="#00AAFF"/>
<path d="M311.02 100.469C311.837 90.9204 321.737 74.0712 325.977 68.0093L341.696 67.9493C341.696 67.9493 333.766 112.315 340.37 139.284L313.727 139.385C313.727 139.385 310.407 107.366 311.02 100.469Z" fill="#FCFBFF"/>
<path d="M311.386 112.454C319.762 115.073 330.051 116.413 337.833 117.019C338.023 124.868 338.745 132.608 340.37 139.284L313.727 139.385C313.727 139.385 312.177 124.171 311.386 112.454Z" fill="white"/>
<path d="M325.977 68.0093L326.38 62.0681C325.368 62.0719 324.408 61.9165 323.448 61.602C316.245 59.243 318.077 50.4856 319.124 45.7086C319.595 43.5325 320.226 41.0906 321.23 38.9124C326.886 41.0121 332.683 37.9671 332.683 37.9671C334.831 42.4667 338.83 43.1409 338.83 43.1409C338.683 46.5355 339.81 48.5995 340.56 49.6043C340.297 50.5069 341.696 67.9493 341.696 67.9493C341.696 67.9493 340.084 78.2969 339.364 85.1409C337.18 85.3083 334.942 85.4229 332.597 85.4319C326.949 85.4534 321.565 84.8906 316.712 83.9015C319.938 77.3661 323.751 71.1998 325.977 68.0093Z" fill="#FEC9B6"/>
<path d="M330.776 41.1033C330.776 41.1033 324.23 43.1966 320.86 39.7623C320.965 39.4967 321.071 39.2312 321.177 38.9656C326.833 41.0653 332.63 38.0203 332.63 38.0203C334.778 42.5199 338.777 43.1941 338.777 43.1941C338.726 43.7246 338.781 44.2547 338.783 44.732C336.545 44.7936 332.547 44.4376 330.776 41.1033Z" fill="#F48B6E"/>
<path d="M339.434 47.8055C337.842 49.5617 337.799 52.1604 339.35 53.5864C340.901 55.0124 343.511 54.7372 345.102 52.9811C346.694 51.2249 346.738 48.6262 345.187 47.2002C343.583 45.7744 341.026 46.0493 339.434 47.8055Z" fill="#FEC9B6"/>
<path d="M374.929 119.264C374.929 119.264 373.034 111.211 362.105 109.873C351.176 108.536 339.19 109.537 334.549 108.122L333.641 121.649C333.641 121.649 353.351 133.878 363.798 134.633L374.929 119.264Z" fill="#00AAFF"/>
<path d="M361.785 109.822C361.785 109.822 360.494 106.645 358.003 96.3126L358.48 109.622L361.785 109.822Z" fill="#1285BE"/>
<path d="M326.38 62.1212C326.38 62.1212 332.294 61.8335 335.576 56.1464C335.576 56.1464 335.071 63.4669 326.129 65.9935L326.38 62.1212Z" fill="#F48B6E"/>
<path d="M343.914 48.637L340.034 51.3034" stroke="#F48B6E" stroke-miterlimit="10" stroke-linecap="round" stroke-linejoin="round"/>
<path d="M301.694 114.241C301.694 114.241 299.533 106.453 299.457 100.514C299.442 96.5892 303.261 91.7486 304.415 87.1304" stroke="#1285BE" stroke-miterlimit="10" stroke-linecap="round" stroke-linejoin="round"/>
<path d="M298.114 125.55L325.929 125.444L320.729 89.2424L292.914 89.3485L298.114 125.55Z" fill="#FF4053"/>
<path d="M334.447 109.29C334.447 109.29 330.07 107.344 328.624 105.546C327.179 103.749 322.427 101.274 322.427 101.274L322.921 105.197C322.921 105.197 308.197 100.692 306.335 101.442C304.473 102.191 308.051 104.352 308.051 104.352C308.051 104.352 304.583 103.146 304.426 103.836C304.268 104.526 305.502 106.483 306.25 107.011C306.25 107.011 305.289 106.749 305.24 107.651C305.19 108.553 310.054 112.458 314.056 113.981C314.056 113.981 309.576 113.044 308.301 114.003C308.301 114.003 314.814 117.213 317.268 117.946C319.669 118.68 333.689 120.217 333.689 120.217L334.447 109.29Z" fill="#FEC9B6"/>
<path d="M308.051 104.299L320.162 108.23" stroke="#F48B6E" stroke-miterlimit="10" stroke-linecap="round" stroke-linejoin="round"/>
<path d="M306.303 106.957C306.303 106.957 314.414 110.108 318.895 111.258" stroke="#F48B6E" stroke-miterlimit="10" stroke-linecap="round" stroke-linejoin="round"/>
<path d="M314.109 113.928L318.11 115.026" stroke="#F48B6E" stroke-miterlimit="10" stroke-linecap="round" stroke-linejoin="round"/>
<path d="M334.763 122.387C334.763 122.387 342.295 127.079 351.208 130.969" stroke="#1285BE" stroke-miterlimit="10" stroke-linecap="round" stroke-linejoin="round"/>
<path d="M374.929 119.264C374.929 119.264 373.034 111.211 362.105 109.873C351.176 108.536 339.19 109.537 334.549 108.122" stroke="#1285BE" stroke-miterlimit="10" stroke-linecap="round" stroke-linejoin="round"/>
<path d="M284.954 98.0233C284.954 98.0233 288.59 101.298 290.05 107.019" stroke="#1285BE" stroke-miterlimit="10" stroke-linecap="round" stroke-linejoin="round"/>
<path d="M334.447 109.29L333.742 120.164L331.237 119.855L334.447 109.29Z" fill="#F48B6E"/>
<path d="M265.135 71.0522L257.637 61.1637C257.637 61.1637 254.694 57.9399 250.637 55.9932C245.619 53.6789 239.101 49.249 239.101 49.249C239.101 49.249 236.922 50.6361 239.114 52.6961L245.051 58.401L241.385 61.1196C239.95 62.1327 239.851 64.3074 241.294 65.2565C241.347 65.3094 241.454 65.362 241.561 65.4146C241.561 65.4146 240.771 67.8041 243.173 68.9086C243.173 68.9086 243.126 70.6059 244.834 71.3418C246.542 72.0777 249.521 70.8997 249.521 70.8997C249.521 70.8997 250.174 74.4504 255.4 75.438L257.704 78.6643L265.135 71.0522Z" fill="#FEC9B6"/>
<path d="M252.198 60.0708L241.537 59.1038C241.537 59.1038 240.535 62.0245 243.256 62.7035C245.976 63.3826 248.804 64.3794 248.804 64.3794C248.804 64.3794 248.394 68.5706 252.554 69.6684L252.198 60.0708Z" fill="#FEC9B6"/>
<path d="M250.332 59.9187L241.537 59.1568C241.537 59.1568 240.536 62.0774 243.256 62.7565C245.976 63.4355 248.804 64.4324 248.804 64.4324C248.804 64.4324 248.394 68.6235 252.554 69.7213" stroke="#F48B6E" stroke-miterlimit="10" stroke-linecap="round" stroke-linejoin="round"/>
<path d="M248.804 64.3793C248.804 64.3793 243.428 66.0969 241.454 65.468" stroke="#F48B6E" stroke-miterlimit="10" stroke-linecap="round" stroke-linejoin="round"/>
<path d="M249.455 67.3466C249.455 67.3466 246.318 69.3208 243.12 68.9618" stroke="#F48B6E" stroke-miterlimit="10" stroke-linecap="round" stroke-linejoin="round"/>
<path d="M249.469 71.0058C249.469 71.0058 251.169 69.7266 251.006 68.9847" stroke="#F48B6E" stroke-miterlimit="10" stroke-linecap="round" stroke-linejoin="round"/>
<path d="M265.135 71.0522L255.83 76.391L257.651 78.7705L265.135 71.0522Z" fill="#F48B6E"/>
<path d="M327.283 47.1624C327.231 47.7459 327.553 48.222 327.926 48.2206C328.352 48.272 328.67 47.7935 328.722 47.263C328.773 46.6794 328.451 46.2033 328.078 46.2048C327.652 46.1533 327.28 46.579 327.283 47.1624Z" fill="#5C3023"/>
<path d="M319.82 46.4484C319.769 47.0319 320.09 47.508 320.463 47.5066C320.89 47.558 321.208 47.0795 321.259 46.549C321.31 45.9654 320.988 45.4893 320.615 45.4908C320.242 45.4392 319.871 45.8648 319.82 46.4484Z" fill="#5C3023"/>
<path d="M331.161 44.2307C331.161 44.2307 329.715 42.3801 327.374 43.2906" stroke="#5C3023" stroke-miterlimit="10" stroke-linecap="round" stroke-linejoin="round"/>
<path d="M322.737 42.831C322.737 42.831 321.773 41.6149 320.174 41.621" stroke="#5C3023" stroke-miterlimit="10" stroke-linecap="round" stroke-linejoin="round"/>
<path d="M323.29 47.1776C323.29 47.1776 321.258 49.4951 321.022 50.611C320.787 51.7269 322.867 51.5597 322.867 51.5597" stroke="#F48B6E" stroke-miterlimit="10" stroke-linecap="round" stroke-linejoin="round"/>
<path d="M325.591 52.5051L322.632 52.9146C322.632 52.9146 322.717 54.2284 324.356 54.0231C325.996 53.8177 325.591 52.5051 325.591 52.5051Z" fill="#FCFBFF"/>
<path d="M310.125 89.2829L310.562 92.145L300.704 92.1826L300.321 89.3203" stroke="#5C3023" stroke-miterlimit="10" stroke-linecap="round" stroke-linejoin="round"/>
<path d="M245.58 127.235L264.151 134.324C264.151 134.324 277.597 139.152 279.506 150.6C281.415 162.1 284.788 180.172 284.788 180.172L309.477 184.744L309.515 194.661L198.041 195.087L198.853 170.582L185.262 169.733C188.174 150.895 191.421 135.927 211.491 131.078L229.644 126.395L245.58 127.235Z" fill="#04E061"/>
<path d="M249.583 128.864C249.583 128.864 250.485 142.013 237.694 141.425C224.903 140.838 225.598 127.418 225.598 127.418" stroke="#303030" stroke-miterlimit="10" stroke-linecap="round" stroke-linejoin="round"/>
<path d="M263.709 172.191L283.102 171.216C284.027 176.409 284.735 180.225 284.735 180.225L309.424 184.798L309.462 194.715L263.849 194.889L263.709 172.191Z" fill="#FEC9B6"/>
<path d="M283.102 171.216L263.709 172.191L263.727 176.911L283.102 171.216Z" fill="#F48B6E"/>
<path d="M222.228 96.1413C223.064 91.6303 227.485 91.3483 227.485 91.3483C226.939 87.9032 230.34 85.2916 235.564 85.802C240.788 86.3124 242.162 83.4434 248.128 82.6782C254.093 81.9129 256.779 87.6833 255.413 92.6736C254.046 97.6639 248.186 98.1105 248.186 98.1105L247.77 114.605L233.171 115.085C229.388 115.1 226.286 112.248 226.273 108.695C226.271 108.164 226.375 107.634 226.48 107.103C223.645 104.25 221.654 99.2194 222.228 96.1413Z" fill="#00184C"/>
<path d="M228.913 102.48C230.672 102.473 232.168 103.528 232.813 105.063C234.088 103.892 235.252 101.872 235.292 98.4248C235.292 98.4248 240.256 100.527 242.114 98.717C244.025 96.8005 243.909 94.3615 243.909 94.3615C243.909 94.3615 245.682 98.014 249.887 96.8312L251.65 112.151C251.65 112.151 253.062 118.987 244.968 120.503L245.8 129.091C245.8 129.091 246.363 136.884 239.543 137.176C229.58 137.638 229.548 129.153 229.548 129.153L230.915 110.374C230.33 110.641 229.691 110.856 228.999 110.859C226.707 110.867 224.782 109.018 224.773 106.685C224.764 104.352 226.622 102.488 228.913 102.48Z" fill="#FEC9B6"/>
<path d="M235.292 98.3718C235.292 98.3718 240.256 100.474 242.114 98.664C244.025 96.7475 243.909 94.3084 243.909 94.3084C243.909 94.3084 245.681 97.9609 249.887 96.7782C249.887 96.7782 247.283 98.7503 244.243 97.9664C244.243 97.9664 242.234 102.111 238.235 101.596C238.235 101.596 235.959 105.529 232.866 105.01C234.088 103.892 235.252 101.872 235.292 98.3718Z" fill="#F48B6E"/>
<path d="M244.915 120.45C244.915 120.45 237.725 121.591 234.983 115.078C234.983 115.078 235.601 123.561 245.302 124.267L244.915 120.45Z" fill="#F48B6E"/>
<path d="M231.277 107.35L226.952 105.139" stroke="#303030" stroke-miterlimit="10" stroke-linecap="round" stroke-linejoin="round"/>
<path d="M245.956 103.104L248.153 106.623C248.443 107.073 248.239 107.648 247.745 107.814L245.976 108.476" stroke="#303030" stroke-miterlimit="10" stroke-linecap="round" stroke-linejoin="round"/>
<path d="M247.136 110.072C247.136 110.072 244.625 110.86 243.218 109.348" stroke="#303030" stroke-miterlimit="10" stroke-linecap="round" stroke-linejoin="round"/>
<path d="M248.739 103.359C248.327 103.36 247.992 102.91 247.99 102.354C247.987 101.797 248.32 101.345 248.732 101.343C249.144 101.342 249.479 101.792 249.482 102.348C249.484 102.905 249.151 103.357 248.739 103.359Z" fill="#00184C"/>
<path d="M241.55 104.5C241.138 104.501 240.802 104.051 240.8 103.495C240.798 102.939 241.13 102.486 241.542 102.485C241.954 102.483 242.29 102.933 242.292 103.489C242.294 104.046 241.962 104.498 241.55 104.5Z" fill="#00184C"/>
<path d="M242.6 100.253C242.6 100.253 240.359 99.6253 238.981 101.646" stroke="#00184C" stroke-miterlimit="10" stroke-linecap="round" stroke-linejoin="round"/>
<path d="M250.43 99.6399C250.43 99.6399 249.096 99.1146 247.5 99.6511" stroke="#00184C" stroke-miterlimit="10" stroke-linecap="round" stroke-linejoin="round"/>
<path d="M264.007 194.358L263.445 158.934" stroke="#26303D" stroke-miterlimit="10" stroke-linecap="round" stroke-linejoin="round"/>
<path d="M282.394 167.188L263.587 168.214" stroke="#26303D" stroke-miterlimit="10" stroke-linecap="round" stroke-linejoin="round"/>
<path d="M237.698 184.276L250.303 177.97C250.303 177.97 252.269 176.637 254.941 178.642C257.613 180.647 265.475 187.988 268.993 188.293C268.993 188.293 270.336 191.205 266.18 191.22C266.18 191.22 264.482 193.189 261.226 191.77C261.226 191.77 259.101 193.369 256.056 191.524C256.056 191.524 254.09 192.858 250.89 192.074L246.622 190.765C246.622 190.765 243.545 194.489 237.739 194.935L196.602 195.092C196.602 195.092 181.305 194.09 183.228 181.355C184.839 170.689 185.262 169.68 185.262 169.68L208.34 171.183L207.621 178.08L237.698 184.276Z" fill="#FEC9B6"/>
<path d="M208.341 171.236L185.262 169.733L184.529 173.289L208.341 171.236Z" fill="#F48B6E"/>
<path d="M207.621 178.08C207.621 178.08 202.662 177.303 198.89 180.181" stroke="#F48B6E" stroke-miterlimit="10" stroke-linecap="round" stroke-linejoin="round"/>
<path d="M237.698 184.276L234.4 185.826" stroke="#F48B6E" stroke-miterlimit="10" stroke-linecap="round" stroke-linejoin="round"/>
<path d="M246.622 190.765L243.26 189.452C243.26 189.452 240.343 193.281 236.558 192.606" stroke="#F48B6E" stroke-miterlimit="10" stroke-linecap="round" stroke-linejoin="round"/>
<path d="M256.003 191.525L247.885 186.623" stroke="#F48B6E" stroke-miterlimit="10" stroke-linecap="round" stroke-linejoin="round"/>
<path d="M261.173 191.77L251.926 184.487" stroke="#F48B6E" stroke-miterlimit="10" stroke-linecap="round" stroke-linejoin="round"/>
<path d="M266.126 191.221L255.545 183.147" stroke="#F48B6E" stroke-miterlimit="10" stroke-linecap="round" stroke-linejoin="round"/>
<path d="M208.341 171.236L210.418 157.015" stroke="#21B05E" stroke-miterlimit="10" stroke-linecap="round" stroke-linejoin="round"/>
<path d="M208.912 167.468L185.991 165.275" stroke="#21B05E" stroke-miterlimit="10" stroke-linecap="round" stroke-linejoin="round"/>
<path d="M246.941 190.764L296.604 190.574L296.62 194.764L246.957 194.953L246.941 190.764Z" fill="#E23647"/>
<path d="M272.748 194.855L325.767 194.652L336.266 153.035L283.246 153.237L272.748 194.855Z" fill="#FF4053"/>
<path d="M283.246 153.237L286.976 153.223L276.478 194.84L272.748 194.855L283.246 153.237Z" fill="#E23647"/>
<path d="M307.975 177.207C306.26 176.788 305.309 174.672 305.849 172.482C306.39 170.292 308.218 168.857 309.933 169.276C311.648 169.695 312.6 171.81 312.059 174C311.518 176.191 309.69 177.626 307.975 177.207Z" fill="#FCFBFF"/>
</g>
<path d="M304.199 142.073C304.302 141.171 304.405 140.269 304.562 139.473L359.659 139.263L362.309 149.329L304.199 142.073Z" fill="#21B05E"/>
<path d="M354.422 79.4012C354.422 79.4012 360.69 74.18 359.163 65.1703C357.637 56.1605 350.704 54.7021 350.704 54.7021C350.704 54.7021 358.772 46.2921 349.299 35.5095C349.299 35.5095 346.357 32.71 342.786 32.3524C342.786 32.3524 341.168 24.5838 325.72 26.0747C319.488 26.6761 314.501 35.6423 318.085 38.8106C318.085 38.8106 315.501 45.8208 319.458 49.3059L319.475 53.9727C319.475 53.9727 308.935 56.6645 307.645 67.8064C306.356 78.9482 318.253 82.8802 318.253 82.8802C318.253 82.8802 348.689 85.2036 354.422 79.4012Z" fill="#5C3023"/>
<path d="M341.696 67.9493L364.206 73.9091C365.592 74.2751 366.715 75.2254 367.306 76.4959C370.422 83.1662 380.309 104.66 382.216 115.63C382.216 115.63 386.157 129.033 377.491 134.104C375.151 135.439 372.435 135.873 369.769 135.512L363.798 134.686L368.867 164.365C368.867 164.365 347.457 167.205 343.137 152.266L340.423 139.283L313.78 139.385C313.78 139.385 317.751 146.741 301.787 152.424L304.141 127.012L301.748 114.24L293.25 121.697C290.701 123.934 287.67 125.643 284.423 126.451C279.153 127.85 272.011 127.453 267.766 118.082C260.35 101.776 256.165 80.3671 256.165 80.3671L265.825 70.3601L285.007 97.97L301.492 75.2091C302.182 74.3049 303.138 73.6118 304.256 73.3424L326.083 68.0088L341.696 67.9493Z" fill="#00AAFF"/>
<path d="M311.02 100.469C311.837 90.9203 321.737 74.0711 325.977 68.0092L341.696 67.9492C341.696 67.9492 333.766 112.315 340.37 139.283L313.727 139.385C313.727 139.385 310.407 107.366 311.02 100.469Z" fill="#FCFBFF"/>
<path d="M311.386 112.453C319.762 115.073 330.051 116.413 337.833 117.019C338.023 124.868 338.745 132.608 340.37 139.284L313.727 139.385C313.727 139.385 312.177 124.171 311.386 112.453Z" fill="white"/>
<path d="M325.977 68.0093L326.38 62.0681C325.368 62.0719 324.408 61.9165 323.448 61.602C316.245 59.243 318.077 50.4856 319.124 45.7086C319.595 43.5325 320.226 41.0906 321.23 38.9124C326.886 41.0121 332.683 37.9671 332.683 37.9671C334.831 42.4667 338.83 43.1409 338.83 43.1409C338.683 46.5355 339.81 48.5995 340.56 49.6043C340.297 50.5069 341.696 67.9493 341.696 67.9493C341.696 67.9493 340.084 78.2969 339.364 85.1409C337.18 85.3083 334.942 85.4229 332.597 85.4319C326.949 85.4534 321.565 84.8906 316.712 83.9015C319.938 77.3661 323.751 71.1998 325.977 68.0093Z" fill="#FEC9B6"/>
<path d="M330.776 41.1032C330.776 41.1032 324.23 43.1965 320.86 39.7622C320.965 39.4967 321.071 39.2311 321.177 38.9655C326.833 41.0653 332.63 38.0203 332.63 38.0203C334.778 42.5199 338.777 43.194 338.777 43.194C338.726 43.7246 338.781 44.2547 338.783 44.732C336.545 44.7935 332.547 44.4376 330.776 41.1032Z" fill="#F48B6E"/>
<path d="M339.434 47.8055C337.842 49.5617 337.799 52.1604 339.35 53.5864C340.901 55.0124 343.511 54.7372 345.102 52.9811C346.694 51.2249 346.738 48.6262 345.187 47.2002C343.583 45.7744 341.026 46.0493 339.434 47.8055Z" fill="#FEC9B6"/>
<path d="M374.929 119.264C374.929 119.264 373.034 111.211 362.105 109.873C351.176 108.536 339.19 109.537 334.549 108.122L333.641 121.649C333.641 121.649 353.351 133.878 363.798 134.633L374.929 119.264Z" fill="#00AAFF"/>
<path d="M361.785 109.822C361.785 109.822 360.494 106.645 358.003 96.3126L358.48 109.622L361.785 109.822Z" fill="#1285BE"/>
<path d="M326.38 62.1211C326.38 62.1211 332.294 61.8334 335.576 56.1464C335.576 56.1464 335.071 63.4668 326.129 65.9935L326.38 62.1211Z" fill="#F48B6E"/>
<path d="M343.914 48.6369L340.034 51.3033" stroke="#26303D" stroke-miterlimit="10" stroke-linecap="round" stroke-linejoin="round"/>
<path d="M301.694 114.241C301.694 114.241 299.533 106.453 299.457 100.514C299.442 96.5892 303.261 91.7486 304.415 87.1304" stroke="#1285BE" stroke-miterlimit="10" stroke-linecap="round" stroke-linejoin="round"/>
<path d="M298.114 125.55L325.929 125.444L320.729 89.2423L292.914 89.3485L298.114 125.55Z" fill="#FF4053"/>
<path d="M334.447 109.289C334.447 109.289 330.07 107.344 328.624 105.546C327.179 103.749 322.427 101.274 322.427 101.274L322.921 105.197C322.921 105.197 308.197 100.692 306.335 101.442C304.473 102.191 308.051 104.352 308.051 104.352C308.051 104.352 304.583 103.146 304.426 103.836C304.268 104.526 305.502 106.483 306.25 107.011C306.25 107.011 305.289 106.749 305.24 107.651C305.19 108.553 310.054 112.458 314.056 113.981C314.056 113.981 309.576 113.044 308.301 114.003C308.301 114.003 314.814 117.213 317.268 117.946C319.669 118.68 333.689 120.217 333.689 120.217L334.447 109.289Z" fill="#FEC9B6"/>
<path d="M308.051 104.299L320.162 108.23" stroke="#F48B6E" stroke-miterlimit="10" stroke-linecap="round" stroke-linejoin="round"/>
<path d="M306.303 106.957C306.303 106.957 314.414 110.108 318.895 111.258" stroke="#F48B6E" stroke-miterlimit="10" stroke-linecap="round" stroke-linejoin="round"/>
<path d="M314.109 113.928L318.11 115.026" stroke="#F48B6E" stroke-miterlimit="10" stroke-linecap="round" stroke-linejoin="round"/>
<path d="M334.763 122.387C334.763 122.387 342.295 127.079 351.208 130.969" stroke="#1285BE" stroke-miterlimit="10" stroke-linecap="round" stroke-linejoin="round"/>
<path d="M374.929 119.264C374.929 119.264 373.034 111.211 362.105 109.873C351.176 108.536 339.19 109.537 334.549 108.122" stroke="#1285BE" stroke-miterlimit="10" stroke-linecap="round" stroke-linejoin="round"/>
<path d="M284.954 98.0233C284.954 98.0233 288.59 101.297 290.05 107.019" stroke="#1285BE" stroke-miterlimit="10" stroke-linecap="round" stroke-linejoin="round"/>
<path d="M334.447 109.29L333.742 120.164L331.237 119.855L334.447 109.29Z" fill="#F48B6E"/>
<path d="M265.135 71.0521L257.637 61.1636C257.637 61.1636 254.694 57.9398 250.637 55.9931C245.619 53.6788 239.101 49.2489 239.101 49.2489C239.101 49.2489 236.922 50.6361 239.114 52.696L245.051 58.4009L241.385 61.1196C239.95 62.1327 239.851 64.3074 241.294 65.2565C241.347 65.3093 241.454 65.3619 241.561 65.4146C241.561 65.4146 240.771 67.804 243.173 68.9086C243.173 68.9086 243.126 70.6058 244.834 71.3417C246.542 72.0777 249.521 70.8996 249.521 70.8996C249.521 70.8996 250.174 74.4503 255.4 75.438L257.704 78.6642L265.135 71.0521Z" fill="#FEC9B6"/>
<path d="M252.198 60.0707L241.537 59.1038C241.537 59.1038 240.535 62.0244 243.256 62.7034C245.976 63.3825 248.804 64.3793 248.804 64.3793C248.804 64.3793 248.393 68.5705 252.554 69.6683L252.198 60.0707Z" fill="#FEC9B6"/>
<path d="M250.332 59.9187L241.537 59.1568C241.537 59.1568 240.536 62.0774 243.256 62.7564C245.976 63.4355 248.804 64.4323 248.804 64.4323C248.804 64.4323 248.394 68.6235 252.554 69.7213" stroke="#F48B6E" stroke-miterlimit="10" stroke-linecap="round" stroke-linejoin="round"/>
<path d="M248.804 64.3793C248.804 64.3793 243.428 66.0968 241.454 65.468" stroke="#F48B6E" stroke-miterlimit="10" stroke-linecap="round" stroke-linejoin="round"/>
<path d="M249.455 67.3466C249.455 67.3466 246.318 69.3207 243.12 68.9617" stroke="#F48B6E" stroke-miterlimit="10" stroke-linecap="round" stroke-linejoin="round"/>
<path d="M249.469 71.0058C249.469 71.0058 251.169 69.7265 251.006 68.9847" stroke="#F48B6E" stroke-miterlimit="10" stroke-linecap="round" stroke-linejoin="round"/>
<path d="M265.135 71.0522L255.83 76.391L257.651 78.7705L265.135 71.0522Z" fill="#F48B6E"/>
<path d="M327.283 47.1624C327.231 47.7459 327.553 48.222 327.926 48.2206C328.352 48.272 328.67 47.7935 328.722 47.263C328.773 46.6794 328.451 46.2033 328.078 46.2048C327.652 46.1533 327.28 46.579 327.283 47.1624Z" fill="#26303D"/>
<path d="M319.82 46.4483C319.769 47.0319 320.09 47.508 320.463 47.5065C320.89 47.5579 321.208 47.0794 321.259 46.5489C321.31 45.9653 320.988 45.4893 320.615 45.4907C320.242 45.4391 319.871 45.8648 319.82 46.4483Z" fill="#26303D"/>
<path d="M331.161 44.2307C331.161 44.2307 329.715 42.3801 327.374 43.2906" stroke="#26303D" stroke-miterlimit="10" stroke-linecap="round" stroke-linejoin="round"/>
<path d="M322.737 42.831C322.737 42.831 321.773 41.6149 320.174 41.621" stroke="#26303D" stroke-miterlimit="10" stroke-linecap="round" stroke-linejoin="round"/>
<path d="M323.29 47.1776C323.29 47.1776 321.258 49.4951 321.022 50.611C320.787 51.7269 322.867 51.5597 322.867 51.5597" stroke="#26303D" stroke-miterlimit="10" stroke-linecap="round" stroke-linejoin="round"/>
<path d="M328.446 52.4942L322.633 53.2986C322.633 53.2986 322.8 55.8792 326.021 55.4758C329.242 55.0724 328.446 52.4942 328.446 52.4942Z" fill="#FCFBFF"/>
<path d="M310.125 89.2828L310.562 92.1449L300.704 92.1825L300.321 89.3202" stroke="#5C3023" stroke-miterlimit="10" stroke-linecap="round" stroke-linejoin="round"/>
<path fill-rule="evenodd" clip-rule="evenodd" d="M164.427 201.33C163.45 206.599 156.379 213.28 156.379 213.28L159.686 215.616L160.031 224.831C160.031 224.831 166.425 218.328 168.361 212.761C170.296 207.195 170.936 198.891 169.891 193.578C166.886 178.366 151.465 172.329 137.622 170.959C123.586 169.585 115.449 172.529 109.97 174.488C104.491 176.446 100.266 178.848 100.266 178.848L100.861 180.457C98.5974 181.993 93.8738 184.742 92.3548 186.623L90.4368 185.681L85.7743 191.294L83.4758 194.155C83.4758 194.155 82.021 193.165 77.4809 195.889C72.9118 198.622 71.9043 203.484 71.9368 204.307C71.9693 205.129 72.0365 205.141 72.0365 205.141C72.0365 205.141 73.023 204.93 74.1112 204.432C74.6362 204.173 76.6167 201.828 79.0549 199.725C81.6694 197.471 84.5218 195.367 84.5218 195.367C84.5218 195.367 89.0819 192.605 91.803 192.849C94.524 193.093 96.0769 193.988 96.0879 193.921C96.0897 193.824 96.4731 193.417 96.1809 192.066C97.1204 190.781 103.185 186.911 103.185 186.911C103.185 186.911 104.187 187.368 104.961 187.192C105.726 186.986 114.435 182.295 121.615 181.089C128.832 179.904 132.585 180.084 132.585 180.084C141.684 180.237 166.595 189.636 164.427 201.33Z" fill="#FF4053"/>
<path fill-rule="evenodd" clip-rule="evenodd" d="M87.1197 193.984C90.0009 192.897 91.6248 193.097 94.9689 193.5C94.3573 191.223 92.5142 188.368 91.7457 188.767C90.9682 189.136 88.8949 191.799 87.1197 193.984Z" fill="#CA2D3D"/>
<path fill-rule="evenodd" clip-rule="evenodd" d="M159.677 215.587L160.022 224.802C160.022 224.802 166.416 218.299 168.352 212.732C169.962 208.067 170.694 201.497 170.281 196.372C169.113 202.565 166.358 210.212 159.677 215.587Z" fill="#FF98A2"/>
<path fill-rule="evenodd" clip-rule="evenodd" d="M164.427 201.33C164.203 202.456 163.718 203.664 163.069 204.859C163.069 204.859 168.713 198.301 164.337 187.294C159.962 176.288 138.365 170.888 124.172 172.703C109.941 174.497 103.094 180.564 103.094 180.564C104.185 182.436 105.525 184.903 104.97 187.221C105.735 187.016 114.445 182.324 121.624 181.119C128.841 179.934 132.594 180.113 132.594 180.113C141.684 180.237 166.595 189.636 164.427 201.33Z" fill="#CA2D3D"/>
<path fill-rule="evenodd" clip-rule="evenodd" d="M67.8934 219.914C67.7194 226.023 74.6833 236.641 83.4646 235.259C92.2459 233.876 112.669 215.903 106.932 203.59C101.195 191.277 89.7757 193.095 88.8274 193.325C76.1511 196.43 68.2266 208.47 67.8934 219.914Z" fill="#FF98A2"/>
<path fill-rule="evenodd" clip-rule="evenodd" d="M74.9657 232.934C77.4357 234.729 80.3637 235.742 83.4646 235.259C92.2459 233.876 112.669 215.903 106.932 203.59C103.711 196.71 98.687 195.003 91.1862 196.917C77.2401 200.449 66.0332 219.98 74.9657 232.934Z" fill="#FF4053"/>
<path fill-rule="evenodd" clip-rule="evenodd" d="M75.7739 233.483C78.0678 234.917 80.7015 235.701 83.4936 235.25C91.6082 233.978 109.613 218.582 107.811 206.521C105.238 206.551 101.903 207.203 97.6193 209.11C85.0405 214.683 75.8411 225.39 75.7739 233.483Z" fill="#E83648"/>
<path fill-rule="evenodd" clip-rule="evenodd" d="M93.0915 205.615C97.3917 203.35 102.306 207.27 100.632 212.755C98.556 219.615 89.5402 229.783 83.9315 226.913C76.7952 223.331 84.1297 209.905 93.0915 205.615Z" fill="#CA2D3D"/>
<path fill-rule="evenodd" clip-rule="evenodd" d="M94.9228 205.046C98.6504 204.529 102.05 208.086 100.641 212.784C98.5652 219.644 89.5493 229.813 83.9406 226.942C83.225 226.588 82.6656 226.121 82.2134 225.588C90.833 224.609 98.6122 212.614 97.5033 208.121C97.1114 206.449 96.0889 205.517 94.9228 205.046Z" fill="#FF98A2"/>
<path fill-rule="evenodd" clip-rule="evenodd" d="M126.984 214.788C116.427 211.788 90.2517 232.381 85.7027 242.668C85.7027 242.668 81.9599 237.905 80.535 233.318C79.101 228.702 87.6895 220.748 95.1421 215.293C101.892 210.346 110.105 205.391 118.188 205.763C122.385 205.933 124.714 211.585 126.984 214.788Z" fill="#FF4053"/>
<path fill-rule="evenodd" clip-rule="evenodd" d="M85.7317 242.659C85.7317 242.659 87.5077 244.991 94.5455 242.1C101.583 239.208 129.888 222.599 127.013 214.779C124.192 207.134 80.892 229.235 85.7317 242.659Z" fill="#FF98A2"/>
<path fill-rule="evenodd" clip-rule="evenodd" d="M91.2959 241.796C91.2959 241.796 92.6942 235.627 103.824 228.774C114.953 221.921 119.805 221.022 120.677 221.264C121.309 221.452 123.537 226.366 124.606 228.885C126.849 234.051 115.546 240.861 112.151 242.653C100.924 248.575 98.9926 248.823 97.9357 247.678C96.8406 246.512 91.2959 241.796 91.2959 241.796Z" fill="#FF4053"/>
<path fill-rule="evenodd" clip-rule="evenodd" d="M124.615 228.914C124.957 229.705 124.989 230.528 124.742 231.373C123.911 233.009 121.778 236.298 116.751 239.814C115.043 240.985 113.446 241.898 112.414 242.475C112.307 242.54 112.22 242.567 112.113 242.633C100.886 248.555 98.9545 248.803 97.8976 247.657L97.8885 247.628C97.8413 247.579 97.7941 247.529 97.7559 247.509L97.7087 247.46L97.6996 247.431C99.4951 244.182 106.452 235.902 124.615 228.914Z" fill="#FF4053"/>
<path fill-rule="evenodd" clip-rule="evenodd" d="M124.615 228.914C126.839 234.021 115.45 240.859 112.142 242.624C100.915 248.546 98.9836 248.794 97.9266 247.648C97.8231 247.52 97.6524 247.381 97.4635 247.183C99.4951 244.182 106.452 235.902 124.615 228.914Z" fill="#FF98A2"/>
<path fill-rule="evenodd" clip-rule="evenodd" d="M156.37 213.251C156.37 213.251 155.917 214.769 156.405 217.469C156.884 220.139 157.129 222.978 157.129 222.978L159.984 224.782L159.639 215.567L156.37 213.251Z" fill="#CA2D3D"/>
<path fill-rule="evenodd" clip-rule="evenodd" d="M158.907 216.595C158.674 216.668 156.761 219.024 153.095 221.38C149.428 223.736 147.701 224.433 147.701 224.433L148.913 230.592C148.913 230.592 154.083 227.128 156.252 225.493C158.451 223.849 159.276 223.016 159.276 223.016L158.907 216.595Z" fill="#FF98A2"/>
<path fill-rule="evenodd" clip-rule="evenodd" d="M157.116 215.037L158.916 216.625C154.475 221.208 151.243 222.5 147.762 224.734L146.609 222.562C146.58 222.571 150.455 220.887 157.116 215.037Z" fill="#FF4053"/>
<path fill-rule="evenodd" clip-rule="evenodd" d="M100.237 178.857L100.832 180.466L100.256 180.869C100.891 182.914 101.799 185.836 102.325 187.53C102.852 187.174 103.165 186.949 103.165 186.949C103.165 186.949 104.167 187.406 104.941 187.23C104.97 187.221 104.999 187.212 105.028 187.203C105.623 184.295 103.513 179.249 100.237 178.857Z" fill="#FF98A2"/>
<path fill-rule="evenodd" clip-rule="evenodd" d="M100.832 180.466C100.832 180.466 97.778 182.536 95.5052 184.043C93.3105 185.494 92.3948 186.547 92.3548 186.623C92.689 186.776 93.5753 187.269 94.3943 188.264C95.4204 189.515 96.1809 192.066 96.1809 192.066C97.2548 190.803 103.437 186.8 104.371 186.318C104.371 186.318 103.941 184.113 103.351 182.727C102.752 181.311 102.367 180.79 102.367 180.79L100.832 180.466Z" fill="#CA2D3D"/>
<path fill-rule="evenodd" clip-rule="evenodd" d="M100.832 180.466C100.832 180.466 97.778 182.536 95.5052 184.043C93.3105 185.494 92.3948 186.547 92.3548 186.623C92.5455 186.724 92.9178 186.897 93.3828 187.265C94.1477 186.547 95.107 185.736 96.3079 184.883C97.0691 184.358 101.119 181.594 102.396 180.781L100.832 180.466Z" fill="#FF4053"/>
<path fill-rule="evenodd" clip-rule="evenodd" d="M137.083 226.162C137.083 226.162 128.641 228.432 118.91 229.629C109.178 230.826 102.908 230.852 102.908 230.852C102.908 230.852 100.575 230.936 100.468 233.052C100.331 235.177 100.99 237.503 101.765 238.255C102.57 238.998 107.743 238.416 110.018 238.35C112.292 238.284 127.072 235.999 132.578 234.641C138.084 233.283 138.767 232.815 138.767 232.815L137.083 226.162Z" fill="#E83648"/>
<path fill-rule="evenodd" clip-rule="evenodd" d="M136.872 227.125C136.872 227.125 128.43 229.395 118.699 230.592C108.967 231.789 102.697 231.815 102.697 231.815C102.697 231.815 100.364 231.899 100.257 234.015C100.12 236.139 100.779 238.465 101.554 239.217C102.359 239.961 107.532 239.379 109.807 239.313C112.081 239.247 126.861 236.962 132.367 235.604C137.873 234.246 138.556 233.777 138.556 233.777L136.872 227.125Z" fill="#FF4053"/>
<path fill-rule="evenodd" clip-rule="evenodd" d="M147.057 220.821L148.711 223.479L137.168 228.282L136.556 224.98L147.057 220.821Z" fill="#FF4053"/>
<path fill-rule="evenodd" clip-rule="evenodd" d="M149.862 232.315C149.801 232.014 148.682 223.488 148.682 223.488L137.168 228.282L139.142 236.382L149.862 232.315Z" fill="#FF98A2"/>
<path d="M35.2402 134.7C33.0721 131.565 32.8963 127.317 32.8963 127.317H27.0072H24.3996H18.5106C18.5106 127.317 18.3055 131.565 16.1667 134.7C13.9986 137.835 9.48657 139.798 9.48657 139.798H24.3996H27.0072H41.9203C41.891 139.828 37.379 137.865 35.2402 134.7Z" fill="#E2E2E2"/>
<path opacity="0.7" d="M25.8353 134.056C29.5269 133.968 33.0135 134.612 36.2656 135.96C35.8848 135.579 35.5332 135.14 35.2402 134.7C33.0721 131.565 32.8963 127.317 32.8963 127.317H18.5106C18.5106 127.317 18.3055 131.565 16.1667 134.7C15.8151 135.228 15.3756 135.726 14.9069 136.195C18.2176 134.583 22.4073 134.144 25.8353 134.056Z" fill="#E2E2E2"/>
<path d="M99.1114 125.032C99.1114 127.639 97.0019 129.749 94.3943 129.749H-38.5927C-41.2003 129.749 -43.3098 127.639 -43.3098 125.032V37.4285C-43.3098 34.8209 -41.2003 32.7114 -38.5927 32.7114H94.3943C97.0019 32.7114 99.1114 34.8209 99.1114 37.4285V125.032Z" fill="#2C3335"/>
<path d="M3.65608 32.7407H-38.5927C-41.2003 32.7407 -43.3098 34.8502 -43.3098 37.4578V74.5793C-27.7229 60.5452 -12.3703 46.2474 3.65608 32.7407Z" fill="#364041"/>
<path opacity="0.8" d="M-34.4909 92.4515C-11.8723 71.0341 12.9731 52.195 37.2617 32.7407H8.16809C-9.46976 47.4486 -26.2286 63.1821 -43.3098 78.5053V101.036C-40.4092 98.1355 -37.4794 95.2642 -34.4909 92.4515Z" fill="#364041"/>
<path d="M51.4716 32.7407H41.891C37.6133 36.1686 33.3357 39.5673 29.0581 42.9659C4.12486 62.7133 -21.0428 82.4313 -43.3098 105.226V109.269C-28.9534 96.6119 34.1854 47.0678 51.4716 32.7407Z" fill="#364041"/>
<path d="M98.7305 43.6691C98.877 43.8156 98.9942 43.9914 99.0821 44.1965V43.2589C98.9649 43.4054 98.8477 43.5226 98.7305 43.6691Z" fill="#364041"/>
<path d="M30.6402 121.369C28.3256 124.153 26.011 126.936 23.6964 129.72H24.6926C26.6849 126.966 28.6479 124.182 30.6402 121.369Z" fill="#364041"/>
<path d="M-43.3098 116.301V125.061C-43.3098 127.669 -41.2003 129.778 -38.5927 129.778H94.3943C97.0019 129.778 99.1114 127.669 99.1114 125.061V116.301H-43.3098Z" fill="#E2E2E2"/>
<path d="M-15.2709 138.978H67.2343L80.6532 145.453H-30.477L-15.2709 138.978Z" fill="#F4F4F4"/>
<path d="M80.6532 145.453H-30.477V147.211H80.6532V145.453Z" fill="#E2E2E2"/>
<path d="M4.5936 141.38H0.345276L2.279 140.15H6.17573L4.5936 141.38Z" fill="#E2E2E2"/>
<path d="M-0.592318 141.38H-4.84064L-2.49674 140.15H1.39999L-0.592318 141.38Z" fill="#E2E2E2"/>
<path d="M15.024 141.38H10.7756L11.8597 140.15H15.7564L15.024 141.38Z" fill="#E2E2E2"/>
<path d="M9.86734 141.38H5.61902L7.11326 140.15H11.01L9.86734 141.38Z" fill="#E2E2E2"/>
<path d="M25.3957 141.38H21.1474L21.3818 140.15H25.2785L25.3957 141.38Z" fill="#E2E2E2"/>
<path d="M20.2099 141.38H15.9615L16.6354 140.15H20.5322L20.2099 141.38Z" fill="#E2E2E2"/>
<path d="M35.7675 141.41H31.5191L30.9332 140.15H34.8299L35.7675 141.41Z" fill="#E2E2E2"/>
<path d="M30.6109 141.41H26.3626L26.1868 140.15H30.0835L30.6109 141.41Z" fill="#E2E2E2"/>
<path d="M46.1392 141.41H41.8908L40.4552 140.15H44.3519L46.1392 141.41Z" fill="#E2E2E2"/>
<path d="M40.9533 141.41H36.705L35.6795 140.15H39.6055L40.9533 141.41Z" fill="#E2E2E2"/>
<path d="M56.5696 141.41H52.3213L50.0359 140.15H53.962L56.5696 141.41Z" fill="#E2E2E2"/>
<path d="M51.3836 141.41H47.1353L45.2895 140.15H49.1862L51.3836 141.41Z" fill="#E2E2E2"/>
<path d="M66.912 141.439H62.6637L59.558 140.15H63.4548L66.912 141.439Z" fill="#E2E2E2"/>
<path d="M61.7554 141.439L57.5071 141.41L54.8116 140.15H58.7084L61.7554 141.439Z" fill="#E2E2E2"/>
<path d="M2.86504 142.845L-1.79346 142.816L0.110962 141.615H4.41788L2.86504 142.845Z" fill="#E2E2E2"/>
<path d="M14.2915 142.845H9.633L10.7171 141.615L15.024 141.644L14.2915 142.845Z" fill="#E2E2E2"/>
<path d="M8.63689 142.845H3.97839L5.44333 141.615H9.75024L8.63689 142.845Z" fill="#E2E2E2"/>
<path d="M25.6595 142.875H21.001L21.2354 141.644H25.5423L25.6595 142.875Z" fill="#E2E2E2"/>
<path d="M19.9755 142.875H15.317L15.9615 141.644H20.2977L19.9755 142.875Z" fill="#E2E2E2"/>
<path d="M37.0567 142.904H32.3982L31.783 141.644H36.1192L37.0567 142.904Z" fill="#E2E2E2"/>
<path d="M31.3727 142.904L26.7142 142.875L26.5385 141.644H30.8454L31.3727 142.904Z" fill="#E2E2E2"/>
<path d="M48.4246 142.933L43.7661 142.904L42.3305 141.673H46.6374L48.4246 142.933Z" fill="#E2E2E2"/>
<path d="M42.7407 142.904H38.0822L37.0567 141.644L41.3636 141.673L42.7407 142.904Z" fill="#E2E2E2"/>
<path d="M59.8805 142.933H55.222L52.9366 141.673H57.2436L59.8805 142.933Z" fill="#E2E2E2"/>
<path d="M54.1965 142.933H49.538L47.6629 141.673H51.9698L54.1965 142.933Z" fill="#E2E2E2"/>
<path d="M71.219 142.963H66.5605L63.4548 141.673L67.7617 141.703L71.219 142.963Z" fill="#E2E2E2"/>
<path d="M65.5351 142.963L60.8766 142.933L58.1811 141.673H62.488L65.5351 142.963Z" fill="#E2E2E2"/>
<path d="M1.01925 144.252H-4.02014L-2.11572 143.05H2.60138L1.01925 144.252Z" fill="#E2E2E2"/>
<path d="M25.6301 144.34L8.4024 144.281L9.45716 143.05L25.5129 143.08L25.6301 144.34Z" fill="#E2E2E2"/>
<path d="M7.28914 144.281H2.22046L3.71469 143.05H8.43179L7.28914 144.281Z" fill="#E2E2E2"/>
<path d="M38.1699 144.369L33.1305 144.34L32.5153 143.109H37.2324L38.1699 144.369Z" fill="#E2E2E2"/>
<path d="M32.0172 144.34H26.9485L26.7727 143.08L31.4605 143.109L32.0172 144.34Z" fill="#E2E2E2"/>
<path d="M50.5048 144.398L45.4654 144.369L44.0004 143.138H48.7175L50.5048 144.398Z" fill="#E2E2E2"/>
<path d="M44.352 144.369H39.2833L38.2579 143.109H42.975L44.352 144.369Z" fill="#E2E2E2"/>
<path d="M62.9567 144.428L57.888 144.398L55.6027 143.138L60.3198 143.168L62.9567 144.428Z" fill="#E2E2E2"/>
<path d="M56.7747 144.398H51.7353L49.8602 143.138H54.5773L56.7747 144.398Z" fill="#E2E2E2"/>
<path d="M75.2914 144.457L70.2227 144.428L67.1171 143.168H71.8049L75.2914 144.457Z" fill="#E2E2E2"/>
<path d="M69.1095 144.428H64.0701L61.3453 143.168H66.0624L69.1095 144.428Z" fill="#E2E2E2"/>
<g style="mix-blend-mode:multiply" clip-path="url(#clip0_90_2)">
<path d="M21.7913 121.111L20.4272 124.346L21.1599 124.346L21.4403 123.67L22.8876 123.67L23.1693 124.346L23.8965 124.346L22.5409 121.111L21.7913 121.111ZM21.6918 123.076L22.1682 121.938L22.6428 123.076L21.6918 123.076ZM24.7721 123.511L24.1805 122.073L23.4816 122.073L24.4344 124.346L25.1273 124.346L26.0632 122.073L25.3643 122.073L24.7721 123.511ZM26.9425 122.073L26.2773 122.073L26.2773 124.346L26.9425 124.346L26.9425 122.073ZM26.6096 121.909C26.8774 121.909 27.0944 121.712 27.0944 121.469C27.0944 121.226 26.8774 121.028 26.6096 121.028C26.3418 121.028 26.1247 121.226 26.1247 121.469C26.1247 121.712 26.3418 121.909 26.6096 121.909ZM28.2607 121.467L27.5974 121.467L27.5974 122.069L27.2084 122.069L27.2084 122.617L27.5974 122.617L27.5974 123.583C27.5974 124.13 27.9297 124.366 28.3976 124.366C28.5555 124.368 28.7122 124.34 28.8577 124.284L28.8577 123.721C28.7783 123.748 28.6945 123.762 28.6099 123.762C28.4067 123.762 28.2601 123.691 28.2601 123.445L28.2601 122.617L28.8577 122.617L28.8577 122.075L28.2607 122.075L28.2607 121.467ZM30.2562 122.032C29.9997 122.032 29.7489 122.101 29.5356 122.23C29.3223 122.36 29.156 122.543 29.0578 122.759C28.9596 122.974 28.9339 123.211 28.9839 123.439C29.0339 123.668 29.1574 123.878 29.3388 124.042C29.5201 124.207 29.7512 124.319 30.0028 124.365C30.2543 124.41 30.515 124.387 30.752 124.298C30.9889 124.208 31.1915 124.057 31.3338 123.864C31.4762 123.67 31.5522 123.442 31.5521 123.209C31.552 122.897 31.4153 122.598 31.1724 122.377C30.9293 122.156 30.5999 122.032 30.2562 122.032ZM30.2562 123.785C30.1313 123.785 30.0091 123.751 29.9052 123.688C29.8013 123.625 29.7203 123.536 29.6724 123.431C29.6245 123.326 29.6119 123.211 29.6362 123.1C29.6605 122.988 29.7206 122.886 29.8089 122.806C29.8972 122.726 30.0097 122.671 30.1322 122.649C30.2547 122.627 30.3816 122.638 30.497 122.681C30.6124 122.725 30.711 122.798 30.7805 122.893C30.8499 122.987 30.8869 123.098 30.8869 123.211C30.8866 123.363 30.82 123.508 30.7017 123.616C30.5834 123.723 30.4232 123.783 30.2562 123.783L30.2562 123.785Z" fill="#303030"/>
<path d="M17.0515 124.668C17.7675 124.668 18.348 124.141 18.348 123.491C18.348 122.84 17.7675 122.313 17.0515 122.313C16.3354 122.313 15.7549 122.84 15.7549 123.491C15.7549 124.141 16.3354 124.668 17.0515 124.668Z" fill="#04E061"/>
<path d="M19.3002 124.52C19.7328 124.52 20.0835 124.201 20.0835 123.808C20.0835 123.415 19.7328 123.097 19.3002 123.097C18.8676 123.097 18.5168 123.415 18.5168 123.808C18.5168 124.201 18.8676 124.52 19.3002 124.52Z" fill="#FF4053"/>
<path d="M17.2994 122.16C17.5671 122.16 17.7842 121.963 17.7842 121.72C17.7842 121.476 17.5671 121.279 17.2994 121.279C17.0316 121.279 16.8145 121.476 16.8145 121.72C16.8145 121.963 17.0316 122.16 17.2994 122.16Z" fill="#965EEB"/>
<path d="M18.9957 122.943C19.5778 122.943 20.0498 122.515 20.0498 121.986C20.0498 121.457 19.5778 121.028 18.9957 121.028C18.4135 121.028 17.9415 121.457 17.9415 121.986C17.9415 122.515 18.4135 122.943 18.9957 122.943Z" fill="#00AAFF"/>
</g>
<path d="M87.2197 123.663H78.3501V133.645H87.2197V123.663Z" fill="#7E51C4"/>
<path d="M89.8775 123.045H78.9683V133.027H89.8775V123.045Z" fill="#965EEB"/>
<path d="M84.4383 123.786C84.865 123.786 85.2109 123.441 85.2109 123.014C85.2109 122.587 84.865 122.241 84.4383 122.241C84.0116 122.241 83.6657 122.587 83.6657 123.014C83.6657 123.441 84.0116 123.786 84.4383 123.786Z" fill="white"/>
<path d="M80.8843 125.424H88.1469" stroke="white" stroke-miterlimit="10" stroke-linecap="round" stroke-linejoin="round"/>
<path d="M80.8843 127.062H88.1469" stroke="white" stroke-miterlimit="10" stroke-linecap="round" stroke-linejoin="round"/>
<path d="M80.8843 128.978H85.211" stroke="white" stroke-miterlimit="10" stroke-linecap="round" stroke-linejoin="round"/>
<path d="M80.8843 130.616H86.8489" stroke="white" stroke-miterlimit="10" stroke-linecap="round" stroke-linejoin="round"/>
<path d="M112.457 115.761L116.141 146.338C116.141 146.338 119.476 147.333 123.053 147.198C126.629 147.064 129.614 146.338 129.614 146.338L132.411 115.761H112.457Z" fill="#965EEB"/>
<path d="M132.411 115.922C132.411 116.514 127.947 116.998 122.434 116.998C116.921 116.998 112.457 116.514 112.457 115.922C112.457 115.331 116.921 114.847 122.434 114.847C127.947 114.847 132.411 115.331 132.411 115.922Z" fill="#FFFDEE"/>
<path d="M132.411 115.922C132.411 116.514 127.947 116.998 122.434 116.998C116.921 116.998 112.457 116.514 112.457 115.922C112.457 115.331 116.921 114.847 122.434 114.847C127.947 114.847 132.411 115.331 132.411 115.922Z" fill="#8949D8"/>
<path opacity="0.5" d="M130.502 117.536L127.893 145.666L125.231 146.069L127.059 118.181L130.502 117.536Z" fill="white"/>
<mask id="mask2_90_2" style="mask-type:luminance" maskUnits="userSpaceOnUse" x="109" y="83" width="30" height="35">
<path d="M138.301 83.4095H109.095V115.385H112.511C112.215 115.492 112.054 115.627 112.054 115.761C112.054 116.487 116.84 117.052 122.73 117.052C128.619 117.052 133.406 116.46 133.406 115.761C133.406 115.627 133.245 115.492 132.949 115.385H138.354V83.4095H138.301Z" fill="white"/>
</mask>
<g mask="url(#mask2_90_2)">
<path d="M119.234 130.848L116.383 99.5988C116.302 99.6256 116.222 99.6256 116.141 99.5988L115.845 99.7601L118.75 131.17L119.234 130.848Z" fill="#FBD568"/>
<path d="M114.501 99.9484L117.486 130.955L118.75 131.17L115.872 99.7601L114.501 99.9484Z" fill="#FFE9AB"/>
<path d="M113.64 99.5988L116.571 130.74L117.593 131.197L114.501 99.9484L113.64 99.5988Z" fill="#E7C051"/>
<path d="M114.581 92.8488L116.356 99.5988C116.356 99.5988 116.195 100.029 115.334 100.217C114.474 100.406 113.613 99.7332 113.613 99.7332L114.581 92.8488Z" fill="#EDDBBC"/>
<path d="M115.308 95.5649L114.581 92.8488L114.232 95.3229C114.555 95.538 114.931 95.5649 115.308 95.5649Z" fill="#444444"/>
<path d="M129.453 91.5848C129.534 91.1007 129.211 90.6704 128.727 90.5898L128.377 90.536C127.893 90.4553 127.463 90.778 127.382 91.2621L126.871 94.4354C126.791 94.9194 127.113 95.3497 127.597 95.4304L127.947 95.4842C128.431 95.5649 128.861 95.2422 128.942 94.7581L129.453 91.5848Z" fill="#CACCCE"/>
<path opacity="0.8" d="M127.57 95.1615C127.543 95.296 127.409 95.4035 127.275 95.3766C127.14 95.3498 127.032 95.2153 127.059 95.0808L127.678 91.2352C127.705 91.1008 127.839 90.9932 127.974 91.0201C128.108 91.047 128.216 91.1814 128.189 91.3159L127.57 95.1615Z" fill="white"/>
<path d="M129.507 94.6775L126.387 94.1934L126.306 94.7044L126.575 94.7313L126.28 96.5331L128.861 96.9365L129.157 95.1347L129.426 95.1884L129.507 94.6775Z" fill="#DDB683"/>
<path d="M129.157 96.7213C128.969 96.6944 128.485 96.4793 127.893 96.3717C127.302 96.2641 126.764 96.3448 126.575 96.3179H126.495L125.796 96.3986L125.204 100.217L125.796 101.508L120.928 132.085L123.51 132.488L129.157 96.7213Z" fill="#3C4B59"/>
<path d="M124.343 108.662C124.424 108.124 124.263 107.64 124.021 107.478L125.769 96.4793C125.796 96.3717 125.715 96.1566 125.607 96.1297H125.58C125.473 96.1028 125.285 96.291 125.258 96.3986L123.133 109.791C123.106 109.899 123.214 110.248 123.321 110.275H123.348C123.456 110.302 123.617 109.979 123.644 109.872L123.671 109.657C123.94 109.63 124.263 109.226 124.343 108.662Z" fill="#CACCCE"/>
<path opacity="0.4" d="M123.59 108.5L123.348 108.473L125.177 96.8826L125.446 96.9364L123.59 108.5Z" fill="white"/>
<path opacity="0.8" d="M124.693 121.651C124.639 121.893 124.424 122.081 124.155 122.027L124.047 122C123.779 121.946 123.617 121.731 123.644 121.462L127.409 97.6894C127.463 97.4474 127.678 97.2592 127.947 97.313L128.054 97.3398C128.323 97.3936 128.485 97.6088 128.458 97.8777L124.693 121.651Z" fill="#4F5F6D"/>
<path d="M120.713 99.3568H120.175V130.821H120.713V99.3568Z" fill="white"/>
<path d="M120.713 99.3568H120.175V116.568H120.713V99.3568Z" fill="#3D4372"/>
<path opacity="0.8" d="M119.099 99.3568V133.241H119.395C119.557 133.241 119.987 133.376 120.471 133.376C120.955 133.376 121.358 133.241 121.547 133.241H121.52V99.3568H119.099Z" fill="#C5E6ED"/>
<path d="M122.542 99.6256H122.488C122.434 98.281 122.246 94.3009 122.138 92.9294C122.031 91.8806 121.654 89.1376 121.358 88.5997H120.417C120.417 88.5997 119.476 91.2352 119.315 92.8218C119.18 94.1934 119.046 98.3079 118.992 99.4374C118.884 99.4643 118.83 99.5181 118.83 99.6525V99.7332C118.83 99.8677 118.857 99.9214 118.992 99.9214H121.789V106.349C121.789 106.349 121.896 106.887 122.058 106.833C122.219 106.779 122.326 106.214 122.326 106.214L122.407 100.002C122.542 100.002 122.595 99.8946 122.595 99.7601V99.6794C122.595 99.5181 122.676 99.6256 122.542 99.6256Z" fill="#717691"/>
<path d="M122.326 99.3568H119.099V99.6257H122.326V99.3568Z" fill="#979CB2"/>
<path d="M120.552 89.1645C120.552 89.1645 119.879 90.9932 119.906 92.9025C119.933 94.8119 119.906 98.8189 119.906 98.8189H120.498L120.552 89.1645Z" fill="#979CB2"/>
<path opacity="0.4" d="M119.637 99.8946H119.368V132.972H119.637V99.8946Z" fill="white"/>
<path d="M134.132 92.3378C133.783 92.2571 133.46 92.3109 133.11 92.3109C133.083 92.3378 133.083 92.3647 133.083 92.4185L132.814 93.8438C132.761 94.0858 132.922 94.3009 133.164 94.3547L134.294 94.5699C134.536 94.6236 134.751 94.4623 134.804 94.2203L135.073 92.795C135.073 92.7412 135.073 92.6874 135.073 92.6336C134.751 92.5529 134.455 92.4185 134.132 92.3378Z" fill="#3D4372"/>
<path d="M134.159 92.526C134.589 92.6067 134.993 92.7681 135.235 92.9025C135.208 92.6336 134.751 92.3378 134.159 92.2302C133.541 92.0958 133.003 92.2302 132.895 92.4723C133.218 92.4185 133.648 92.4454 134.159 92.526Z" fill="#3D4372"/>
<path d="M133.272 95.0001L133.783 95.1077L127.624 126.007L127.113 125.9L133.272 95.0001Z" fill="white"/>
<path d="M130.475 109.038L130.986 109.146L127.624 126.007L127.113 125.9L130.475 109.038Z" fill="#3D4372"/>
<path opacity="0.8" d="M128.646 126.222L135.262 93.0102L135.073 92.9833C134.912 92.9564 134.536 92.7412 134.052 92.6337C133.568 92.553 133.137 92.6068 132.976 92.553H132.949L126.333 125.765L128.646 126.222Z" fill="#C5E6ED"/>
<path opacity="0.4" d="M134.702 93.1562L128.252 125.599L128.516 125.651L134.966 93.2087L134.702 93.1562Z" fill="white"/>
</g>
<path d="M354.105 266.329C354.927 248.065 340.727 232.586 322.449 231.808C295.75 230.636 269.187 226.691 243.251 219.99C225.51 215.388 207.411 226.042 202.869 243.753C198.267 261.493 208.92 279.592 226.676 284.15C257.118 292.013 288.261 296.6 319.585 297.985C337.849 298.807 353.313 284.652 354.105 266.329Z" fill="#00AAFF"/>
<defs>
<clipPath id="clip0_90_2">
<rect width="15.883" height="3.97075" fill="white" transform="translate(15.7549 121.028)"/>
</clipPath>
</defs>
</svg>
