<svg width="376" height="313" viewBox="0 0 376 313" fill="none" xmlns="http://www.w3.org/2000/svg">
    <path d="M111.103 135.287L112.568 137.301L114.032 139.497L116.962 143.891C118.975 146.821 120.989 149.567 123.186 152.496C125.2 155.242 127.397 158.171 129.411 160.917C131.608 163.664 133.621 166.41 135.818 169.156C138.015 171.902 140.212 174.465 142.409 176.845C144.606 179.408 146.803 181.788 149 183.985C151.197 186.182 153.394 188.196 155.224 189.477C156.14 190.21 156.872 190.576 157.238 190.759H157.055H156.872H156.689C156.323 190.759 156.14 190.759 155.774 190.759C155.224 190.759 154.675 190.942 154.126 190.942C153.76 191.125 153.394 191.125 153.028 191.308C152.844 191.491 152.661 191.491 152.478 191.674C152.295 191.857 152.295 191.857 152.478 191.857C152.844 191.674 153.577 191.125 154.309 190.21C155.041 189.294 155.957 188.379 156.872 187.097C157.787 185.999 158.52 184.717 159.435 183.436C161.083 180.69 162.731 177.943 164.195 174.831C165.66 171.902 167.307 168.79 168.772 165.494C171.701 159.27 174.447 152.679 177.01 146.088C178.292 142.793 179.574 139.497 180.855 136.202L182.686 131.259L183.601 128.696L184.517 126.316V126.133C186.347 120.824 192.206 118.078 197.515 119.908C202.458 121.556 205.204 126.682 204.106 131.625L203.557 134.371L203.19 136.751C202.824 138.582 202.458 140.413 201.909 142.244C200.993 145.905 200.261 149.567 199.163 153.045C197.332 160.368 195.135 167.508 192.755 174.831C191.474 178.493 190.192 182.154 188.727 185.633C187.263 189.294 185.615 192.956 183.784 196.617C182.869 198.448 181.77 200.279 180.672 202.293C179.574 204.123 178.292 206.137 176.827 208.151C175.363 210.165 173.532 212.179 171.152 214.376C169.871 215.474 168.406 216.573 166.575 217.488C165.66 218.037 164.744 218.586 163.646 218.953C162.547 219.319 161.266 219.868 159.984 220.051C158.703 220.417 157.238 220.6 155.774 220.6C155.041 220.6 154.309 220.6 153.577 220.6H153.028H152.661C152.478 220.6 152.112 220.6 151.929 220.417C150.831 220.234 149.915 220.051 149 219.685C148.084 219.502 147.352 219.136 146.437 218.953C143.324 217.854 140.944 216.573 138.748 215.291C136.551 214.009 134.72 212.728 132.889 211.263C131.058 209.982 129.411 208.517 127.946 207.236C124.834 204.49 121.905 201.743 118.975 198.997C116.229 196.251 113.483 193.322 110.92 190.576C105.794 184.9 100.851 179.042 96.0908 173.183C93.7108 170.254 91.5139 167.325 89.1339 164.213C88.0355 162.748 86.937 161.284 85.8385 159.636L84.1909 157.256L82.5432 154.876C77.0509 147.187 78.8817 136.385 86.5709 130.893C94.2601 125.401 105.062 127.231 110.554 134.921L110.737 135.104L111.103 135.287Z" fill="#FFBCA3"/>
    <path d="M154.126 189.111C152.112 191.857 150.831 194.97 150.465 198.448C150.282 199.363 151.746 199.363 151.929 198.448C152.296 195.336 153.577 192.406 155.408 189.66C155.774 189.111 154.676 188.379 154.126 189.111Z" fill="#7D351D"/>
    <path d="M152.295 191.308C150.648 192.04 149 192.772 147.535 193.505C146.803 193.871 147.352 194.969 148.268 194.603C149.915 193.871 151.563 193.139 153.028 192.406C153.76 192.223 153.028 190.942 152.295 191.308Z" fill="#7D351D"/>
    <path d="M211.429 117.345C211.429 117.345 209.232 132.54 201.726 136.018C195.502 138.948 183.785 129.428 183.785 129.428C179.025 124.668 178.109 121.738 176.462 115.88C174.814 110.205 183.419 103.431 183.419 103.431C183.419 103.431 189.277 80.1801 192.938 78.3494C196.417 76.3355 193.488 98.6708 193.488 98.6708C193.488 98.6708 194.769 97.2062 196.966 97.7555C200.078 98.3047 207.768 102.332 211.063 105.811C214.175 108.923 211.429 117.345 211.429 117.345Z" fill="#FFBCA3"/>
    <path d="M180.123 118.444C184.334 116.43 190.009 114.233 192.572 110.022C193.671 108.374 194.22 105.994 192.756 104.53C191.291 103.248 189.094 103.614 187.446 103.614C186.531 103.614 186.531 105.079 187.446 105.079C188.911 105.079 191.474 104.53 192.206 106.177C192.756 107.459 191.474 109.29 190.742 110.205C190.009 110.937 189.277 111.67 188.362 112.219C185.616 114.233 182.503 115.697 179.391 117.162C178.659 117.711 179.391 118.81 180.123 118.444Z" fill="#7D351D"/>
    <path d="M192.572 108.74C197.698 112.767 203.557 115.33 209.964 116.429C210.88 116.612 211.246 115.33 210.33 115.147C204.106 114.232 198.43 111.669 193.487 107.824C192.938 107.275 191.84 108.19 192.572 108.74Z" fill="#7D351D"/>
    <path d="M197.332 115.148C193.854 119.725 193.122 125.035 194.952 130.344C195.318 131.259 196.6 130.893 196.234 129.978C194.403 124.851 195.135 120.091 198.431 115.881C199.163 115.148 197.882 114.599 197.332 115.148Z" fill="#7D351D"/>
    <path d="M196.417 109.839C197.332 106.361 198.247 102.699 200.444 99.77C200.993 99.0377 199.712 98.3054 199.346 99.0377C197.149 102.15 196.05 105.812 195.318 109.473C194.952 110.388 196.234 110.755 196.417 109.839Z" fill="#7D351D"/>
    <path d="M201.543 113.135C202.275 109.473 203.74 105.995 205.571 102.699C205.937 101.967 204.838 101.235 204.472 101.967C202.641 105.263 201.177 108.924 200.445 112.586C200.078 113.684 201.36 114.05 201.543 113.135Z" fill="#7D351D"/>
    <path d="M206.669 114.05C206.669 114.233 206.669 114.233 206.486 114.416C206.852 114.599 207.401 114.599 207.768 114.782C208.317 111.67 209.232 109.107 211.063 106.544C211.612 105.812 210.331 105.079 209.965 105.812C208.134 108.558 207.218 111.121 206.669 114.233C206.486 115.149 207.768 115.515 207.951 114.599C207.951 114.416 207.951 114.416 208.134 114.233C208.317 113.684 206.852 113.318 206.669 114.05Z" fill="#7D351D"/>
    <path d="M192.573 99.4033C191.84 101.234 191.474 103.065 191.474 104.896C191.474 105.811 192.756 105.811 192.939 104.896C192.939 103.065 193.488 101.417 194.037 99.7694C194.22 98.8541 192.756 98.671 192.573 99.4033Z" fill="#7D351D"/>
    <path d="M92.0632 333.557C90.5986 333.924 89.134 334.29 87.8525 334.656C69.5448 338.867 50.3218 340.514 36.7742 337.402C30.1834 335.754 25.7896 327.699 23.2266 318.545C22.4942 315.982 21.5789 313.602 21.3958 311.039C19.7481 285.775 25.9727 274.973 25.9727 274.973L125.2 263.989C125.2 263.989 128.495 270.03 132.157 277.902C134.72 283.578 137.649 290.351 139.48 296.393C140.578 300.055 141.494 303.35 141.677 306.279C142.409 315.25 118.792 326.967 92.0632 333.557Z" fill="#FF4053"/>
    <path d="M87.6694 343.811C85.6555 377.314 75.4033 438.095 68.6294 467.021C68.4464 467.753 68.2633 468.486 68.0802 469.035C67.7141 470.133 67.531 471.415 67.1648 472.33C61.3064 495.215 31.0988 573.388 15.1712 614.214C14.9881 614.763 14.805 615.313 14.4389 615.862C13.5235 618.059 12.242 622.087 11.5097 624.1C8.21429 623.551 4.91892 623.002 1.62355 622.636C-6.79796 621.537 -14.3041 620.439 -22.7256 619.707C-22.5425 618.059 -22.1764 613.665 -21.9933 611.834C-21.8102 611.285 -21.8102 610.736 -21.6271 610.004C-18.5148 590.414 -13.9379 560.573 -9.5441 533.844C-2.40413 489.356 8.39737 465.373 8.39737 465.373C8.39737 465.373 13.7066 456.036 16.2696 429.673C18.4666 407.887 24.6912 338.318 26.1558 314.885C26.5219 310.125 26.705 307.379 26.705 307.379C26.705 307.379 77.234 303.351 86.2048 320.926C86.9371 322.208 87.3032 323.855 87.4863 325.32C88.2186 329.531 88.2186 335.938 87.6694 343.811Z" fill="#FF4053"/>
    <path d="M156.689 628.677C156.689 629.226 156.689 629.959 156.506 630.508C156.14 637.099 155.774 640.943 155.774 640.943L153.027 640.577L126.481 637.648L123.003 637.282C123.003 637.282 122.82 633.803 122.454 627.945C122.454 627.395 122.454 626.663 122.271 626.114C120.989 605.06 117.877 558.376 112.934 525.056C106.16 480.568 112.568 454.938 112.568 454.938C112.568 454.938 113.3 442.489 105.244 417.407C103.231 411.183 100.851 400.747 98.4707 388.298C97.7384 384.453 97.006 380.243 96.0907 376.032C93.5276 362.301 91.1476 347.655 88.9507 334.474C88.5845 332.46 88.4015 330.629 88.0353 328.615C87.8522 327.883 87.8522 327.151 87.6692 326.418C84.923 308.477 82.9092 295.295 82.9092 295.295C82.9092 295.295 88.2184 292.915 95.7245 290.352C103.414 287.789 113.3 285.226 121.538 285.226C129.411 285.226 135.818 287.789 138.198 294.746C139.114 297.675 140.212 301.337 141.127 305.548C142.592 311.223 144.057 317.997 145.521 325.32C147.352 334.29 149.183 343.994 151.014 354.063C152.478 362.301 153.76 370.54 155.224 378.595C159.618 406.239 163.28 431.87 164.195 441.573C164.378 443.953 164.561 446.882 164.561 450.361C164.561 451.093 164.561 451.825 164.561 452.558C165.477 492.468 159.069 593.526 156.689 628.677Z" fill="#FF4053"/>
    <path d="M88.0358 328.615C87.6696 328.615 87.3035 328.432 87.1204 328.066C86.9373 327.517 87.1204 326.968 87.4866 326.785C87.6696 326.785 98.2881 320.926 100.302 308.477C100.485 307.928 100.851 307.562 101.4 307.745C101.95 307.928 102.316 308.294 102.133 308.843C99.7527 322.391 88.585 328.432 88.2189 328.615C88.2189 328.615 88.2189 328.615 88.0358 328.615Z" fill="#2B2B39"/>
    <path d="M125.017 270.214C116.412 272.594 106.709 274.241 95.5415 275.523C94.8092 275.523 94.0769 275.706 93.3446 275.706C74.4877 277.72 51.9693 278.086 24.691 276.804C24.874 270.031 24.691 263.074 24.3248 256.483C24.3248 255.934 24.3248 255.568 24.3248 255.018C23.2264 237.26 20.6633 222.614 20.6633 222.065C20.4802 221.149 20.2971 220.051 20.1141 218.952C20.1141 218.586 19.931 218.037 19.931 217.488C19.3818 214.376 18.6495 211.08 17.7341 207.419C17.1848 205.405 16.6356 203.574 16.0864 201.56C15.5372 199.546 14.9879 197.532 14.2556 195.519C14.2556 195.336 14.0725 194.969 14.0725 194.786C13.8895 194.42 13.7064 193.871 13.7064 193.505C13.3402 192.223 12.9741 190.942 12.4249 189.66C12.0587 188.379 11.5095 187.097 11.1433 185.816C10.9602 185.083 10.5941 184.351 10.411 183.619C10.411 183.436 10.2279 183.436 10.2279 183.253C10.0449 182.703 9.86179 182.154 9.67871 181.605C9.12948 180.323 8.76333 179.042 8.2141 177.943C8.03103 177.394 7.84795 177.028 7.66488 176.479C6.7495 173.916 5.65104 171.536 4.55258 168.973C-3.13662 151.031 -4.41815 130.893 14.0725 124.668C15.3541 124.302 16.8187 123.753 18.1002 123.387C20.4802 122.654 22.6771 121.922 24.874 121.373C25.4233 121.19 25.9725 121.007 26.3387 121.007C30.1833 119.908 33.1125 119.176 34.9432 118.627C35.4925 118.444 35.8586 118.444 36.0417 118.26C36.2248 118.26 36.2248 118.26 36.4078 118.26C36.5909 118.26 36.5909 118.26 36.5909 118.26L75.4031 121.556L79.0646 121.922C79.7969 121.922 80.3461 122.105 81.0784 122.105C81.6277 122.105 81.9938 122.288 82.543 122.288C86.3876 122.837 89.683 123.387 92.6122 123.936C95.7245 124.668 98.4707 125.4 100.485 126.316C101.583 126.865 102.498 127.414 103.414 127.964C103.78 128.147 104.146 128.513 104.512 128.696C108.357 131.808 109.638 135.836 110.737 142.06C110.92 142.61 110.92 142.976 111.103 143.525C111.469 145.539 111.835 147.553 112.201 149.933C112.201 150.116 112.201 150.299 112.384 150.665V150.848C112.568 151.397 112.568 152.13 112.751 152.679C112.934 153.045 112.934 153.594 113.117 153.96C113.3 155.059 113.666 156.157 113.849 157.256C114.398 159.453 115.131 161.466 115.68 163.663C115.68 163.846 115.863 164.03 115.863 164.396C115.863 164.579 116.046 164.762 116.046 165.128C117.328 169.156 118.792 173.183 120.074 176.845C120.257 177.211 120.44 177.577 120.44 178.126C121.172 180.14 121.721 181.971 122.271 183.802C122.271 183.985 122.271 183.985 122.454 184.168C122.637 184.534 122.637 184.9 122.82 185.083C123.369 186.914 123.735 188.562 124.101 190.209C124.468 192.406 124.651 194.42 124.468 196.068C124.468 196.8 124.284 197.349 124.101 197.899C123.735 199.363 123.186 200.828 122.454 202.109C122.454 202.109 122.454 202.292 122.271 202.292C122.088 202.842 121.721 203.391 121.538 203.94C120.806 205.405 119.891 206.686 119.158 207.968C116.961 211.263 114.764 213.643 113.666 214.925C113.117 215.474 112.934 215.657 112.934 215.657C112.934 215.657 112.934 215.657 112.934 215.84C112.934 216.206 112.934 216.572 113.117 216.939C113.3 218.22 113.483 219.868 113.849 221.699C113.849 221.882 114.032 222.98 114.398 224.811C114.398 225.177 114.581 225.726 114.581 226.275C114.948 228.289 115.497 230.852 116.046 233.782C116.229 234.331 116.229 234.697 116.412 235.246C118.06 244.217 120.989 257.032 125.017 270.214Z" fill="#00AAFF"/>
    <path d="M100.302 126.133C101.217 134.737 106.16 148.102 113.666 157.072C113.117 154.876 112.568 152.862 112.201 150.665V150.482C112.201 150.299 112.201 150.116 112.018 149.749C109.638 136.934 109.455 130.16 100.302 126.133Z" fill="#FFBCA3"/>
    <path d="M37.5065 151.764C36.5911 168.79 22.1281 187.83 10.7774 185.816C10.4112 184.901 10.2282 183.985 9.862 183.07C9.67893 182.521 9.49585 181.972 9.31278 181.422C7.66509 177.212 6.0174 172.818 4.36972 168.79C-3.31948 150.849 -4.60102 130.71 13.8897 124.486C15.1712 124.119 16.6358 123.57 17.9174 123.204C27.9865 125.401 38.605 132.175 37.5065 151.764Z" fill="#FFBCA3"/>
    <path d="M52.281 28.1421C51.104 29.5331 47.7869 32.5291 47.7869 32.5291L43.0789 35.7391L39.1199 39.0561C39.1199 39.0561 27.1358 45.3691 24.6748 43.3361C23.1768 42.1591 23.3908 40.1261 23.8188 38.7351C24.0328 37.8791 24.3538 37.2371 24.3538 37.2371C24.3538 37.2371 24.0328 37.3441 23.6048 37.4511C22.4278 37.6651 20.1808 37.7721 19.2178 35.2041C17.8268 31.5661 22.4278 27.607 22.4278 27.607C22.4278 27.607 18.7898 27.5 17.2918 24.397C15.7938 21.294 22.2138 15.944 22.2138 15.944C22.2138 15.944 20.0738 15.516 21.2508 11.771C22.3208 8.02594 26.3868 9.09594 26.3868 9.09594C26.3868 9.09594 25.9588 2.35491 30.8808 1.9269C35.8029 1.4989 39.2269 8.02594 39.2269 8.02594C39.2269 8.02594 42.9719 6.09993 46.8239 8.56094C50.676 11.022 48.1079 18.405 48.1079 18.405C48.1079 18.405 52.174 16.586 54.956 20.01C56.882 22.257 54.421 25.788 52.281 28.1421Z" fill="#EAE56D"/>
    <path d="M47.7869 32.4221C47.7869 32.4221 41.4739 33.7061 39.1199 38.8422C39.1199 38.8422 39.9759 40.0192 42.0089 40.4472C42.0089 40.4472 43.1859 36.9161 48.0009 34.9901C48.1079 35.0971 48.9639 33.3851 47.7869 32.4221Z" fill="#965EEB"/>
    <path d="M92.2467 80.3641C92.2467 80.3641 99.5697 78.7164 101.584 68.4642C104.879 51.6212 93.5282 36.0597 72.6575 33.1305C45.1961 29.4689 41.3515 37.8904 35.8592 48.5089C30.55 59.1273 31.8315 75.0549 37.3238 83.8426C42.633 92.2641 53.4345 95.9256 53.4345 95.9256L92.2467 80.3641Z" fill="#EAE56D"/>
    <path d="M87.6698 92.8131C87.3037 95.01 88.7683 97.0239 90.9652 97.39C93.1621 97.7562 95.176 96.2916 95.5421 94.0946C95.9083 91.8977 94.4437 89.8839 92.2467 89.5177C90.0498 89.1516 88.036 90.6162 87.6698 92.8131Z" fill="white"/>
    <path d="M41.7178 119.909C41.7178 119.909 47.027 131.626 59.8423 134.189C75.953 137.484 78.333 130.527 78.333 130.527C77.7838 128.33 77.4176 126.133 77.4176 123.753C77.4176 122.838 77.4176 121.923 77.4176 121.007C77.6007 118.444 77.9669 115.515 78.333 112.403C78.5161 111.67 78.5161 110.938 78.6992 110.023V109.84C67.5315 106.544 58.5608 100.869 52.7023 92.2643L51.2377 90.9828L50.1393 90.2505L49.9562 90.9828V93.1797C50.5054 103.066 47.7593 111.121 41.7178 119.909Z" fill="#FFBCA3"/>
    <path d="M60.208 101.235C62.2218 106.728 67.1649 116.614 77.4172 120.825C77.6002 118.261 77.9664 115.332 78.3326 112.22C78.5156 111.488 78.5156 110.755 78.6987 109.84C78.5156 109.84 78.3325 109.84 77.9664 109.84C71.9249 110.023 65.5172 106.361 60.208 101.235Z" fill="#2B2B39"/>
    <path d="M37.3238 73.2236C36.5915 79.2651 40.8022 87.5035 48.8576 88.602H49.0406C49.0406 88.9682 49.2237 89.3343 49.4068 89.7005C49.4068 89.8835 49.5899 90.0666 49.5899 90.2497C53.2514 101.234 67.3483 109.107 75.2205 110.388C78.1498 110.754 79.9805 110.388 80.7128 110.388C89.5005 109.656 92.4297 98.305 92.2466 89.3343C92.2466 88.0528 92.0635 86.7712 91.8805 85.6728V85.4897C91.8805 85.4897 96.2743 73.5897 97.5558 68.2805C100.119 58.0283 95.542 46.8606 73.0236 41.9176C50.5052 36.9745 43.3653 50.5221 40.8022 57.6621C40.4361 58.9436 39.7037 66.2667 40.8022 67.7313C38.6053 68.6467 37.6899 71.0267 37.3238 73.2236Z" fill="#FFBCA3"/>
    <path d="M69.728 56.3807C69.728 56.3807 69.728 62.7883 63.8696 65.9006C60.3911 67.7314 57.8281 69.3791 58.7434 73.0406C60.025 77.9837 58.5604 80.9129 55.8142 80.9129C50.8712 80.7298 51.0542 69.5622 40.802 67.7314C40.802 67.7314 37.1405 66.4499 38.422 60.0422C39.5204 53.6345 52.885 36.4254 69.728 39.5377C86.571 42.65 100.668 52.7191 99.7525 64.8022C98.8371 76.7021 96.6402 74.1391 96.6402 74.1391C96.6402 74.1391 96.8233 73.4068 96.4571 63.7037C95.9079 55.0991 68.8126 50.7053 69.728 56.3807Z" fill="#EAE56D"/>
    <path d="M40.8019 87.8705C40.4358 90.0674 41.9004 92.0812 44.0973 92.4474C46.2942 92.8135 48.308 91.3489 48.6742 89.152C49.0404 86.9551 47.5757 84.9413 45.3788 84.5751C43.365 84.209 41.1681 85.6736 40.8019 87.8705Z" fill="white"/>
    <path d="M78.3324 98.8543C77.2339 98.6713 76.6847 97.9389 76.6847 97.7559C76.5016 97.5728 76.5016 97.2067 76.8678 97.0236C77.0509 96.8405 77.417 96.8405 77.6001 97.2066C77.6001 97.2066 78.3324 98.122 79.6139 97.7559C79.797 97.7559 80.1632 97.7559 80.1632 98.122C80.1632 98.3051 80.1632 98.6713 79.797 98.6713C79.2478 98.8543 78.6985 98.8543 78.3324 98.8543Z" fill="#7D351D"/>
    <path d="M79.4313 95.5597C75.9528 94.6443 75.0375 91.8981 75.0375 91.7151C74.8544 91.3489 75.2205 90.9827 75.5867 90.7997C75.9528 90.6166 76.319 90.9827 76.5021 91.3489C76.5021 91.532 77.2344 93.5458 79.7974 94.095C82.3605 94.6443 83.8251 93.5458 83.8251 93.5458C84.1913 93.1797 84.5574 93.3627 84.9236 93.5458C85.2897 93.912 85.1067 94.2781 84.9236 94.6443C84.7405 94.8273 82.7267 96.475 79.4313 95.5597Z" fill="#7D351D"/>
    <path d="M81.9938 89.3341C82.1769 89.3341 82.1769 89.3341 82.36 89.3341L85.6553 87.8695C85.8384 87.6864 86.0215 87.5033 86.0215 87.3203C86.0215 87.1372 86.0215 86.771 85.8384 86.771C83.6415 84.9403 82.36 82.5603 81.9938 79.2649C81.9938 78.8988 81.6277 78.5326 81.2615 78.7157C80.8954 78.7157 80.5292 79.0818 80.7123 79.448C81.0784 82.7434 82.1769 85.3064 84.1907 87.3203L81.8107 88.2357C81.4446 88.4187 81.2615 88.7849 81.4446 89.151C81.6277 89.151 81.8107 89.151 81.9938 89.3341Z" fill="#7D351D"/>
    <path d="M77.7831 68.6466C79.6139 69.1958 80.7123 66.8159 79.2477 65.7174C78.5154 65.1682 77.4169 64.6189 75.9523 64.802C69.5447 65.1682 66.4324 70.2943 66.4324 70.2943C66.4324 70.2943 72.657 68.0974 75.7693 68.4635C76.6846 68.2805 77.2339 68.4635 77.7831 68.6466Z" fill="#2B2B39"/>
    <path d="M87.4867 70.4771C85.656 70.4771 85.2898 67.7309 86.9375 67.1817C87.8529 66.8155 88.9513 66.8155 90.4159 67.3648C96.4574 69.7448 96.0913 74.1386 96.0913 74.1386C96.0913 74.1386 92.6129 71.5755 89.3175 70.8432C88.5852 70.6601 88.0359 70.4771 87.4867 70.4771Z" fill="#2B2B39"/>
    <path d="M48.8572 88.6019H49.0403C49.0403 88.968 49.2233 89.3342 49.4064 89.7003C49.4064 89.8834 49.5895 90.0665 49.5895 90.2495C50.5049 90.2495 51.7864 90.0665 52.8849 89.3342C53.6172 88.968 54.1664 88.4188 54.7156 87.6865C55.0818 87.3203 54.8987 86.7711 54.5325 86.588C54.1664 86.2219 53.6172 86.4049 53.4341 86.7711C52.8849 87.5034 51.9695 88.0526 51.2372 88.2357C50.6879 88.4188 50.1387 88.4188 49.7726 88.4188C49.4064 88.6018 49.0403 88.6019 48.8572 88.6019Z" fill="#7D351D"/>
    <path d="M50.1389 83.8427C49.7728 83.6596 49.5897 83.4765 49.5897 83.1104C49.2235 77.2519 42.6328 73.9566 42.6328 73.7735C42.2666 73.5904 42.0836 73.0412 42.2666 72.675C42.4497 72.3089 42.999 72.1258 43.3651 72.3089C43.7313 72.492 50.8712 76.1535 51.2374 82.9273C51.2374 83.4765 50.8712 83.8427 50.5051 83.8427C50.322 84.0258 50.322 84.0258 50.1389 83.8427Z" fill="#7D351D"/>
    <path d="M43.365 79.8142C43.182 79.8142 43.182 79.8142 42.9989 79.6311C42.6327 79.265 42.6327 78.8988 42.8158 78.5327C42.8158 78.3496 44.8296 76.1527 48.125 76.7019C48.4912 76.7019 48.8573 77.2511 48.8573 77.6173C48.8573 77.9834 48.3081 78.3496 47.9419 78.3496C45.562 77.9834 44.2804 79.6311 44.2804 79.6311C44.0973 79.8142 43.7312 79.9973 43.365 79.8142Z" fill="#7D351D"/>
    <path d="M75.5863 78.5334C75.4032 79.998 74.4878 81.2795 73.7555 81.0964C73.0232 80.9133 72.474 79.6318 72.6571 77.9841C72.8401 76.5195 73.7555 75.238 74.4878 75.4211C75.2201 75.6041 75.9524 77.0687 75.5863 78.5334Z" fill="#2B2B39"/>
    <path d="M70.2773 75.0551L70.0942 74.872C70.0942 74.6889 70.0942 74.5058 70.2773 74.3228C70.4604 74.3228 74.6711 72.6751 77.4173 75.7874C77.6004 75.9704 77.6004 76.1535 77.4173 76.3366C77.2342 76.5197 77.0511 76.5197 76.8681 76.3366C74.6711 73.7735 70.8265 75.0551 70.6435 75.0551C70.4604 75.0551 70.2773 75.0551 70.2773 75.0551Z" fill="#2B2B39"/>
    <path d="M89.8666 80.7301C89.6835 82.1947 88.7681 83.4763 88.0358 83.2932C87.3035 83.1101 86.7543 81.8286 86.9373 80.1809C87.1204 78.7163 88.0358 77.4348 88.7681 77.6178C89.6835 77.8009 90.0496 79.2655 89.8666 80.7301Z" fill="#2B2B39"/>
    <path d="M84.9236 77.0691L84.7405 76.886C84.7405 76.7029 84.7405 76.5199 84.9236 76.3368C85.1066 76.3368 89.5004 74.8722 91.8804 78.1676C92.0635 78.3506 92.0635 78.5337 91.8804 78.7168C91.6974 78.8999 91.5143 78.8999 91.3312 78.7168C89.1343 75.9706 85.2897 77.2522 85.2897 77.2522C85.1066 77.2522 84.9236 77.0691 84.9236 77.0691Z" fill="#2B2B39"/>
    <path d="M84.8548 152.49L55.8654 148.222L57.5198 142.437L84.8932 146.31L84.8548 152.49Z" fill="#04E061"/>
    <path opacity="0.66" d="M84.8548 152.49L55.8654 148.222L57.5198 142.437L84.8932 146.31L84.8548 152.49Z" fill="#04E061"/>
    <path d="M76.7743 201.338L49.9158 197.371L52.0044 149.515L88.2059 154.804L76.7743 201.338Z" fill="white"/>
    <path d="M81.3203 186.933L86.1162 167.214L50.5703 162.018L49.5212 182.434L81.3203 186.933Z" fill="#965EEB"/>
    <path d="M89.4494 156.651L50.2975 150.945L52.0942 146.518L88.9745 151.735L89.4494 156.651Z" fill="#04E061"/>
    <path d="M33.8449 181.239C33.6618 181.422 33.2956 181.605 32.9295 181.605L32.0141 182.155L30.0003 183.07L25.9726 184.901C23.2264 186.182 20.6634 187.464 17.9172 188.562C12.608 190.942 7.29881 193.322 1.9896 195.153C0.708069 195.702 -0.573463 196.068 -1.855 196.434C-3.13653 196.801 -4.41806 197.167 -5.51652 197.533C-6.79806 197.899 -7.89651 198.265 -8.99497 198.448C-10.0934 198.631 -11.1919 198.814 -12.1073 198.998C-13.0226 199.181 -13.755 198.998 -14.1211 198.998C-14.3042 198.998 -14.4873 198.998 -14.3042 198.998C-14.3042 198.998 -14.3042 198.998 -14.1211 198.998H-13.938C-13.938 198.998 -13.938 198.998 -13.755 198.998H-13.3888C-13.0226 199.181 -12.2903 199.364 -11.7411 199.73C-11.1919 200.096 -10.4596 200.462 -9.72727 201.011C-8.99497 201.561 -8.44574 202.293 -8.07959 202.842C-7.53036 203.574 -7.16421 204.124 -6.98113 204.673C-6.79805 205.222 -6.61498 205.771 -6.4319 206.138C-6.24883 206.504 -6.24883 206.87 -6.24883 207.053C-6.24883 207.419 -6.24883 207.602 -6.24883 207.602C-6.24883 207.419 -6.06575 206.87 -5.88268 205.954C-5.6996 205.039 -5.33345 204.124 -4.78422 203.025C-3.86884 200.828 -2.77038 198.448 -1.48885 196.068C-0.20731 193.688 1.07422 191.308 2.53883 188.745C4.00344 186.182 5.46805 183.802 6.93266 181.239C10.045 176.296 13.1573 171.353 16.4526 166.227L21.3957 158.721L26.1557 151.215L26.3387 151.032C30.7326 144.258 28.7187 135.104 21.9449 130.71C15.7203 126.682 7.84804 127.964 3.08806 133.273L2.17268 134.189L1.44037 135.104L-0.207314 136.935C-1.30577 138.216 -2.22115 139.315 -3.31961 140.596C-5.33345 142.976 -7.34728 145.539 -9.17805 148.102C-13.0226 153.228 -16.6842 158.355 -20.3457 163.847C-22.1765 166.593 -23.8241 169.339 -25.4718 172.268C-27.1195 175.198 -28.7672 178.127 -30.2318 181.239C-31.6964 184.351 -33.3441 187.647 -34.6256 191.125C-35.3579 192.956 -35.9072 194.787 -36.4564 196.984C-37.0056 199.181 -37.5549 201.561 -37.7379 204.49C-37.921 205.954 -37.921 207.602 -37.7379 209.616C-37.5549 210.531 -37.5549 211.63 -37.1887 212.728C-37.0056 213.827 -36.4564 215.108 -36.0903 216.39C-35.541 217.671 -34.8087 218.953 -33.8933 220.417C-32.978 221.699 -31.8795 222.981 -30.598 224.079C-29.3164 225.177 -28.0349 226.093 -26.7534 226.825C-25.4718 227.557 -24.1903 228.107 -22.9088 228.473L-22.5426 228.656H-22.3595H-22.1765L-21.4442 228.839C-21.078 229.022 -20.5288 229.022 -20.1626 229.205L-18.8811 229.388C-18.5149 229.388 -18.1488 229.571 -17.7826 229.571C-16.1349 229.754 -14.8534 229.754 -13.3888 229.754C-10.6427 229.754 -8.44574 229.388 -6.24883 228.839C-2.03807 227.924 1.62345 226.642 5.1019 225.36C8.58035 224.079 11.6926 222.431 14.6219 220.784C20.6634 217.488 26.1557 214.01 31.4649 210.165C34.0279 208.334 36.7741 206.321 39.1541 204.307C40.4356 203.208 41.7171 202.293 42.8156 201.194C43.3648 200.645 44.0971 200.096 44.6464 199.547L45.5617 198.814L46.4771 197.899C50.871 193.871 51.054 187.098 47.0264 182.704C43.9141 179.408 39.1541 178.493 35.1264 179.958L33.8449 181.239Z" fill="#FFBCA3"/>
    <path d="M33.2955 198.266C37.6893 201.744 44.097 200.646 47.7585 196.435C49.5893 194.238 51.9693 191.858 54.3493 190.577C59.8416 187.464 67.1646 185.45 69.5446 183.07C73.0231 179.592 67.7138 179.409 67.1646 179.409C62.9539 179.775 57.2785 181.423 57.2785 181.423C57.2785 181.423 66.6154 176.114 70.8261 175.747C75.0369 175.198 77.0507 172.086 72.84 170.255C68.6292 168.424 57.2785 172.086 54.3493 173.917C54.3493 173.917 59.2923 169.157 64.9677 168.424C70.6431 167.692 72.4738 166.594 74.3046 165.129C76.1353 163.664 72.84 160.369 64.9677 161.651C57.0954 162.932 54.3493 165.495 51.4201 167.875C51.4201 167.875 53.0678 165.129 56.5462 161.467C60.0246 157.623 66.6154 157.257 67.5308 154.327C68.4462 151.215 60.94 152.131 56.9123 154.511C52.8847 156.891 49.7724 158.172 46.2939 162.932C42.6324 167.692 39.5201 172.269 38.0555 175.564C36.5909 178.86 29.8171 190.027 30.9155 195.153C31.0986 196.252 32.014 197.35 33.2955 198.266Z" fill="#FFBCA3"/>
    <path d="M33.4788 184.535C33.4788 184.535 34.2111 173.55 36.408 170.438C38.4218 167.326 40.0695 161.65 42.2664 162.749C44.4633 164.03 42.4495 170.987 42.4495 170.987L33.4788 184.535Z" fill="#FFBCA3"/>
    <path d="M11.1435 176.662C11.5097 176.845 11.8758 176.845 12.0589 176.479C12.242 176.296 23.0435 162.199 27.4373 155.609C27.6204 155.242 27.6204 154.876 27.2542 154.693C26.8881 154.51 26.5219 154.51 26.3388 154.876C21.945 161.467 11.1435 175.564 11.1435 175.747C10.5943 175.93 10.7774 176.479 11.1435 176.662C10.9604 176.662 10.9604 176.662 11.1435 176.662Z" fill="#7D351D"/>
    <path d="M22.1284 162.199C22.3115 162.382 22.4946 162.382 24.6915 161.65L29.8176 160.002C28.1699 160.551 28.353 160.185 28.1699 159.819C27.9868 159.453 27.6207 159.27 27.2545 159.453L22.1284 161.1C21.7622 161.283 21.5792 161.65 21.7623 162.016C21.9453 162.016 22.1284 162.016 22.1284 162.199Z" fill="#7D351D"/>
    <path d="M246.471 321.347C246.471 321.347 141.161 330.563 125.777 339.93C110.392 349.298 57.4452 484.68 56.0002 492.474C55.885 493.185 80.9887 504.915 80.9887 504.915C80.9887 504.915 150.5 404.693 155.879 389.508C155.879 389.508 216.414 392.016 246.001 380.57C275.56 369.302 288.137 354.735 288.137 354.735L246.471 321.347Z" fill="#CECEE3"/>
    <path d="M208.905 206.336C208.905 206.336 185.328 269.661 184.125 284.975C182.921 300.289 207.498 319.779 207.498 319.779L227.006 318.742C227.006 318.742 222.499 291.374 216.597 282.754L237.811 227.257L208.905 206.336Z" fill="#FFB79D"/>
    <path d="M238.422 231.369C236.202 231.557 234.189 231.596 232.055 231.25C231.522 231.164 231.166 231.106 230.633 231.02C222.69 229.368 215.736 223.863 210.56 218.646C210.233 218.41 209.935 217.997 209.637 217.584C204.043 211.569 200.554 206.077 200.554 206.077C201.495 204.77 202.466 203.285 203.258 201.772C203.493 201.445 203.758 200.94 203.993 200.613C208.489 193.131 213.125 183.664 217.26 175.029C217.524 174.524 217.789 174.02 218.053 173.515C223.946 160.786 228.221 150.166 228.221 150.166L238.422 231.369Z" fill="#965EEB"/>
    <path d="M344.64 330.318C344.611 330.496 344.611 330.496 344.64 330.318C344.375 330.823 343.933 331.299 343.342 331.568C338.648 334.639 324.532 336.184 307.358 336.322C306.618 336.384 306.085 336.298 305.345 336.36C299.127 336.448 292.434 336.093 285.918 335.768C285.385 335.681 284.823 335.773 284.289 335.686C255.41 333.745 226.988 327.864 227.947 317.437C228.148 316.193 228.143 315.097 228.345 313.852C228.431 313.319 228.369 312.579 228.455 312.046C228.733 308.077 229.189 304.137 229.582 299.456C229.669 298.923 229.784 298.212 229.721 297.472C230.345 291.369 230.963 284.171 231.899 275.017C232.014 274.306 232.1 273.773 232.038 273.033C232.148 271.226 232.465 269.271 232.604 267.286C232.805 266.041 232.829 264.768 233.031 263.524C233.117 262.99 233.204 262.457 233.112 261.895C233.227 261.184 233.343 260.472 233.28 259.732C233.765 255.614 234.043 251.645 234.321 247.676C234.436 246.965 234.373 246.225 234.488 245.514C235.241 235.236 235.345 225.583 234.363 218.125C234.243 217.741 234.272 217.563 234.152 217.179C234.032 216.794 234.06 216.617 233.94 216.232C233.147 210.995 232.117 206.084 231.237 201.38C231.026 200.434 230.963 199.694 230.751 198.747C228.145 185.553 225.726 174.579 224.946 165.877C224.855 165.315 224.792 164.575 224.878 164.041C224.594 160.164 224.786 156.728 225.631 153.763C225.717 153.23 226.01 152.547 226.275 152.043C227.86 149.015 231.636 145.978 236.095 143.233C236.508 142.935 237.099 142.666 237.512 142.368C247.611 136.341 260.233 131.635 260.233 131.635L293.089 122.543C293.089 122.543 305.241 125.241 317.192 129.184C317.725 129.27 318.23 129.534 318.734 129.799C323.924 131.552 328.878 133.631 332.886 135.923C333.391 136.187 333.895 136.451 334.222 136.686C335.054 137.186 335.707 137.657 336.361 138.127C345.453 145.074 346.889 167.749 346.994 190.755C346.999 191.851 347.004 192.946 347.009 194.042C346.905 203.695 346.801 213.349 346.721 221.729C346.783 222.469 346.668 223.18 346.731 223.92C346.693 228.658 346.919 232.891 347.232 236.591C347.637 240.853 347.984 245.47 348.451 250.472C348.513 251.212 348.576 251.952 348.638 252.692C350.193 269 351.614 288.388 350.416 304.798C350.272 305.687 350.305 306.604 350.161 307.493C349.759 316.734 347.93 324.648 344.64 330.318Z" fill="#965EEB"/>
    <path d="M253.355 58.0824C253.355 58.0824 242.338 64.1435 242.935 71.721C243.532 79.2984 250.237 88.595 250.237 88.595C250.237 88.595 255.457 71.0125 253.355 58.0824Z" fill="#121D27"/>
    <path d="M250.275 83.8575C250.275 83.8575 246.959 84.0503 246.239 88.4951C245.548 92.7621 247.654 100.037 252.002 99.0988C256.351 98.1611 250.275 83.8575 250.275 83.8575Z" fill="#7D351D"/>
    <path d="M260.628 133.703C262.474 135.826 264.91 137.681 267.404 139.18C270.076 140.707 272.714 141.317 275.617 141.422L277.068 141.475L278.548 141.349C280.028 141.224 281.743 140.772 283.281 140.292C288.071 138.878 291.818 136.018 294.821 132.126C296.618 130.045 298.323 127.402 299.466 124.85C299.105 123.697 298.596 122.337 298.235 121.184C296.61 115.447 295.221 109.383 293.86 103.142L294.124 102.637L293.763 101.484L293.374 100.509L292.163 101.225L290.539 102.239L261.51 119.249L261.323 123.78L261.305 126.149L261.204 130.147L260.628 133.703Z" fill="#FFB79D"/>
    <path d="M294.325 101.393C294.09 101.72 294.032 102.075 293.768 102.58C293.739 102.758 293.71 102.936 293.504 103.085C293.211 103.767 292.918 104.449 292.625 105.132C287.668 115.459 273.797 125.619 262.923 124.04C262.212 123.925 261.679 123.838 260.967 123.723C250.473 120.928 248.049 108.859 249.546 99.6134C249.604 99.2578 249.662 98.9022 249.719 98.5466C249.719 98.5466 249.628 97.9844 249.623 96.8889C249.589 95.9711 249.584 94.8756 249.459 93.3957C249.232 89.1625 248.967 82.9159 248.288 76.9674C247.114 66.1947 254.564 50.6154 276.402 47.5844C298.27 44.3757 306.013 60.7739 304.939 71.9122C304.656 74.7857 303.96 77.9572 302.879 81.2488C304.864 81.3878 307.031 82.6511 308.262 86.3172C310.334 92.6739 302.08 100.825 294.325 101.393Z" fill="#FFB79D"/>
    <path d="M254.378 87.8052C254.504 89.2851 255.22 90.4958 256.138 90.4621C256.878 90.3995 257.463 89.0347 257.338 87.5548C257.213 86.0749 256.497 84.8641 255.579 84.8979C254.839 84.9605 254.253 86.3252 254.378 87.8052Z" fill="#2B2B39"/>
    <path d="M259.255 85.8586L259.462 85.7096C259.668 85.5606 259.519 85.3541 259.37 85.1475C259.193 85.1187 255.598 82.5294 252.293 84.9132C252.086 85.0622 252.057 85.24 252.206 85.4466C252.355 85.6532 252.533 85.682 252.74 85.533C255.425 83.5961 258.9 85.801 258.9 85.801C259.077 85.8298 259.255 85.8586 259.255 85.8586Z" fill="#2B2B39"/>
    <path d="M267.64 87.0359C267.765 88.5158 268.481 89.7266 269.399 89.6928C270.139 89.6302 270.725 88.2654 270.6 86.7855C270.475 85.3056 269.758 84.0948 268.841 84.1286C268.101 84.1912 267.544 85.3781 267.64 87.0359Z" fill="#2B2B39"/>
    <path d="M272.695 85.1172L272.902 84.9682C273.108 84.8192 272.959 84.6126 272.81 84.406C272.632 84.3772 269.038 81.7879 265.732 84.1718C265.526 84.3208 265.497 84.4986 265.646 84.7052C265.795 84.9117 265.973 84.9405 266.179 84.7916C268.865 82.8547 272.339 85.0596 272.339 85.0596C272.339 85.0596 272.517 85.0884 272.695 85.1172Z" fill="#2B2B39"/>
    <path d="M257.046 94.9892C256.869 94.9604 256.72 94.7539 256.571 94.5473L256.393 94.5185C255.509 95.47 254.298 96.1862 252.789 96.4892C248.619 97.4557 244.284 94.929 243.318 90.7584C242.351 86.5878 244.878 82.2532 249.048 81.2866C253.219 80.3201 257.554 82.8468 258.52 87.0174C258.852 88.3484 258.799 89.7995 258.391 91.193C258.569 91.2218 258.775 91.0728 258.953 91.1016C259.338 90.9814 259.722 90.8612 260.078 90.9188C260.279 89.6743 260.332 88.2232 260 86.8922C258.793 81.9528 253.834 78.7776 248.717 79.9557C243.777 81.1626 240.602 86.122 241.78 91.2392C242.987 96.1785 247.946 99.3538 253.064 98.1757C254.779 97.7237 256.374 96.8874 257.671 95.6378C257.373 95.2246 257.224 95.018 257.046 94.9892Z" fill="white"/>
    <path d="M273.457 96.1882C268.517 97.3951 263.351 94.3688 262.173 89.2516C260.966 84.3123 263.992 79.1463 269.11 77.9682C274.049 76.7612 279.215 79.7875 280.393 84.9047C281.6 89.8441 278.396 94.9812 273.457 96.1882ZM269.413 79.4769C265.242 80.4434 262.715 84.778 263.682 88.9487C264.648 93.1193 268.983 95.646 273.154 94.6794C277.324 93.7129 279.851 89.3783 278.884 85.2077C277.918 81.0371 273.583 78.5104 269.413 79.4769Z" fill="white"/>
    <path d="M243.765 91.3778C243.559 91.5268 243.232 91.2914 243.054 91.2626C242.727 91.0272 242.814 90.4939 243.049 90.1671C243.049 90.1671 244.817 88.264 248.19 87.7156C248.574 87.5954 248.901 87.8308 249.021 88.2152C249.142 88.5996 248.906 88.9264 248.522 89.0466C245.682 89.6813 244.178 91.0799 244.178 91.0799C243.972 91.2288 243.943 91.4066 243.765 91.3778Z" fill="white"/>
    <path d="M278.542 81.6848C284.687 78.6662 289.247 78.675 291.886 79.2848L291.833 80.7359C289.373 80.1549 285.197 80.0259 279.23 83.0733C278.845 83.1935 278.49 83.1359 278.192 82.7228C278.072 82.3384 278.336 81.8338 278.542 81.6848Z" fill="white"/>
    <path d="M260.628 133.703C272.107 131.549 278.554 123.288 281.431 117.915C275.647 122.087 268.848 124.635 262.952 123.862C262.241 123.747 261.707 123.661 260.996 123.546L260.628 133.703Z" fill="#2B2B39"/>
    <path d="M263.109 60.9398C271.527 56.2823 279.912 57.458 283.622 59.3362C285.818 60.4217 289.365 65.5577 287.4 69.8009C285.436 74.0441 289.703 74.7353 290.659 76.7148C291.616 78.6943 286.73 85.2012 286.73 85.2012L291.483 88.5255C291.483 88.5255 292.54 86.5072 294.216 84.0419C295.893 81.5766 302.966 80.7153 302.966 80.7153C302.966 80.7153 306.256 75.0447 307.081 67.6977C308.084 60.3794 296.429 43.3475 274.638 43.8318C274.638 43.8318 270.47 32.3917 264.046 32.6283C257.651 32.6871 257.027 38.7896 257.027 38.7896C257.027 38.7896 250.188 32.5731 245.889 37.7152C241.589 42.8574 247.01 49.9391 247.01 49.9391C247.01 49.9391 237.554 47.4949 237.137 53.4485C236.72 59.402 248.378 64.0272 248.378 64.0272C248.378 64.0272 253.481 66.3135 263.109 60.9398Z" fill="#121D27"/>
    <path d="M299.036 56.5417C299.036 56.5417 306.766 50.4956 310.423 53.8249C313.754 56.9188 307.047 60.0288 307.047 60.0288C307.047 60.0288 313.144 59.5568 313.486 63.0789C313.948 66.9853 305.453 67.6162 305.453 67.6162L299.036 56.5417Z" fill="#121D27"/>
    <path d="M288.665 100.293C289.083 101.09 289.736 101.561 290.39 102.032C291.548 102.767 292.793 102.969 293.682 103.113C293.71 102.935 293.739 102.757 293.768 102.579C293.826 102.224 294.061 101.897 294.119 101.541L294.296 101.57C294.119 101.541 293.763 101.484 293.408 101.426C293.052 101.368 292.519 101.282 292.014 101.018C291.332 100.725 290.5 100.225 289.904 99.3989C289.606 98.9858 289.073 98.8994 288.838 99.2261C288.424 99.5241 288.338 100.058 288.665 100.293Z" fill="#7D351D"/>
    <path d="M268.676 99.7923C268.676 99.7923 268.59 107.077 262.642 107.755C256.693 108.434 255.63 102.606 255.63 102.606L268.676 99.7923Z" fill="white"/>
    <path d="M295.959 95.8179C296.343 95.6977 296.55 95.5487 296.607 95.1931C297.351 89.475 304.001 86.7206 304.029 86.5428C304.414 86.4226 304.678 85.918 304.38 85.5048C304.26 85.1204 303.755 84.8562 303.342 85.1542C302.958 85.2744 295.717 88.2981 294.978 95.1117C294.921 95.4673 295.219 95.8805 295.752 95.9669C295.752 95.9669 295.93 95.9957 295.959 95.8179Z" fill="#7D351D"/>
    <path d="M302.9 92.3826C303.078 92.4114 303.107 92.2336 303.107 92.2336C303.52 91.9356 303.607 91.4022 303.28 91.1668C303.28 91.1668 301.492 88.6877 298.148 89.0583C297.763 89.1785 297.35 89.4765 297.441 90.0387C297.562 90.423 297.86 90.8362 298.422 90.7448C300.819 90.5859 302.011 92.2386 302.011 92.2386C302.189 92.2674 302.516 92.5028 302.9 92.3826Z" fill="#7D351D"/>
    <path d="M260.819 97.6081C261.026 97.4591 261.203 97.4879 261.232 97.3101C261.468 96.9833 261.376 96.4211 260.872 96.157L256.182 93.5727L259.905 91.9863C260.112 91.8373 260.318 91.6884 260.347 91.5106L263.233 81.578C263.291 81.2224 263.199 80.6603 262.666 80.5739C262.31 80.5163 261.748 80.6077 261.662 81.141L258.833 90.718L253.928 92.8427C253.721 92.9917 253.486 93.3184 253.457 93.4962C253.399 93.8518 253.548 94.0584 253.875 94.2938L260.079 97.6707C260.435 97.7283 260.612 97.7571 260.819 97.6081Z" fill="#7D351D"/>
    <path d="M263.041 85.0135C262.835 85.1625 262.508 84.9271 262.33 84.8983C262.181 84.6917 260.874 83.7502 259.577 84.9997C259.341 85.3265 258.808 85.2401 258.481 85.0047C258.155 84.7693 258.241 84.2359 258.476 83.9091C260.244 82.006 262.469 82.9138 263.243 83.769C263.57 84.0044 263.483 84.5377 263.248 84.8645C263.426 84.8933 263.248 84.8645 263.041 85.0135Z" fill="white"/>
    <path d="M277.753 77.5445C277.96 77.3955 278.373 77.0975 278.431 76.7419C278.959 75.7327 278.656 74.224 277.647 73.6956C277.32 73.4602 271.294 70.1122 266.221 74.3992C265.365 75.1729 265.135 76.5952 265.88 77.6282C266.654 78.4834 268.076 78.7138 269.109 77.9688C271.852 75.6763 275.356 77.7034 275.356 77.7034C276.216 78.0252 276.956 77.9626 277.753 77.5445Z" fill="#2B2B39"/>
    <path d="M250.783 78.4654C251.523 78.4028 252.114 78.1336 252.556 77.6578C253.704 76.2017 256.904 76.7201 257.586 77.013C258.802 77.3924 260.013 76.6763 260.392 75.4605C260.772 74.2448 260.056 73.034 258.84 72.6547C256.408 71.8959 251.728 71.5027 249.019 74.7129C248.312 75.6933 248.438 77.1732 249.418 77.8794C249.716 78.2926 250.249 78.379 250.783 78.4654Z" fill="#2B2B39"/>
    <path d="M346.254 327.111C346.254 327.111 300.488 335.936 252.628 327.271C233.484 323.806 228.178 316.013 228.178 316.013C226.54 320.491 221.841 322.467 215.307 324.51C215.307 324.51 266.778 352.553 312.925 349.263C348.114 358.43 346.254 327.111 346.254 327.111Z" fill="#CECEE3"/>
    <path d="M286.659 335.704C286.659 335.704 221.414 352.139 198.867 368.557C175.906 385.273 169.675 531.871 169.675 531.871C183.284 535.718 200.852 537.651 200.852 537.651C214.542 488.051 237.211 426.951 238.144 404.295C238.144 404.295 318.014 406.832 333.215 389.589C346.647 374.249 346.572 331.907 346.572 331.907L286.659 335.704Z" fill="#CECEE3"/>
    <path d="M338.383 328.392C338.264 334.758 337.479 350.87 336.471 357.093C334.859 367.049 331.81 380.239 322.508 385.848C318.285 388.266 313.019 389.238 308.315 390.118C302.486 391.181 296.567 391.681 290.647 392.182C278.452 393.126 266.045 393.124 253.874 392.794C246.796 392.56 239.896 392.354 232.847 391.942C232.491 391.885 232.078 392.183 232.02 392.538C231.297 402.639 229.833 412.802 227.153 422.585C225.261 429.76 222.658 436.819 220.084 443.7C217.423 451.114 215.623 458.851 213.673 466.381C211.172 476.193 208.492 485.977 206.019 495.611C203.196 506.284 200.372 516.956 197.904 527.686C197.76 528.575 199.182 528.806 199.326 527.917C203.739 508.561 209.218 489.379 214.193 469.932C216.258 461.691 218.116 453.599 220.863 445.651C223.231 438.918 225.747 432.393 227.582 425.574C230.732 415.137 232.311 404.263 233.179 393.273C251.395 394.582 269.784 394.824 288.048 393.586C298.912 392.974 310.722 392.15 320.889 387.958C330.7 383.709 334.494 371.551 336.76 362.066C338.383 354.301 339.721 335.907 339.743 327.882L338.383 328.392Z" fill="#39252B"/>
    <path d="M316.2 171.352L317.69 173.418L319.151 175.662C320.194 177.108 321.208 178.732 322.074 180.149C323.953 183.191 326.01 186.261 327.889 189.302C331.619 195.562 335.349 201.823 338.723 208.025C342.069 214.406 345.265 220.58 347.693 226.994C349.01 230.127 350.149 233.231 351.111 236.306C352.072 239.381 352.707 242.22 353.193 244.853C353.313 245.238 353.255 245.593 353.404 245.8L353.462 245.444L353.52 245.089C353.635 244.378 353.664 244.2 353.664 244.2C353.841 244.229 353.52 245.089 353.169 246.127C352.818 247.165 352.083 248.323 351.32 249.659C350.556 250.995 349.643 252.124 348.851 253.638C346.967 256.252 344.878 259.015 342.61 261.75C341.491 263.028 340.343 264.484 339.223 265.763C338.104 267.041 336.778 268.468 335.659 269.747C333.213 272.452 330.768 275.158 328.145 277.835C325.522 280.512 323.077 283.217 320.276 285.865C317.653 288.542 315.03 291.219 312.257 293.689L308.159 297.587L306.214 299.461L304.268 301.336L304.061 301.485C299.521 305.858 299.258 313.114 303.632 317.654C307.529 321.752 313.81 322.404 318.326 319.304L320.776 317.694L323.227 316.084C324.879 314.892 326.503 313.878 327.978 312.657C331.255 310.451 334.382 308.038 337.51 305.626C340.638 303.213 343.765 300.8 346.893 298.388C350.021 295.975 352.999 293.356 355.978 290.736C357.482 289.338 358.957 288.117 360.46 286.719C361.964 285.32 363.468 283.921 364.972 282.523C368.008 279.548 370.866 276.544 373.783 273.185C375.137 271.58 376.699 269.826 378.111 267.865C379.523 265.905 380.936 263.944 382.228 261.599C383.52 259.254 384.87 256.553 386.008 252.906C386.502 250.979 387.026 248.874 387.073 246.327C387.131 245.972 387.189 245.616 387.068 245.232C387.126 244.876 387.006 244.492 387.063 244.136L386.972 243.574L387.03 243.219L386.938 242.656C386.847 242.094 386.784 241.354 386.871 240.821C386.404 235.819 385.495 231.293 384.557 226.944C383.441 222.567 382.297 218.368 380.74 214.466C377.86 206.337 374.687 198.889 371.13 191.562C367.573 184.235 363.603 177.206 359.633 170.177C357.633 166.751 355.456 163.297 353.25 160.02C352.236 158.396 351.044 156.744 349.881 154.913L348.093 152.434L346.156 149.748C340.374 141.513 328.846 139.464 320.612 145.246C312.377 151.028 310.356 162.377 315.96 170.583L316.2 171.352Z" fill="#FFB79D"/>
    <path d="M360.625 238.393C359.15 239.613 357.675 240.834 356.527 242.29C355.878 242.915 357.008 243.828 357.656 243.203C358.804 241.747 360.073 240.675 361.548 239.454C362.167 239.007 361.422 237.974 360.625 238.393Z" fill="#7D351D"/>
    <path d="M353.428 244.526C356.94 241.993 360.962 240.82 365.257 241.333C366.146 241.477 365.945 242.721 365.027 242.755C361.087 242.299 357.272 243.324 354.144 245.736C353.524 246.183 352.779 245.15 353.428 244.526Z" fill="#7D351D"/>
    <path d="M318.551 310.035C319.613 315.863 315.434 321.39 309.577 322.631C306.559 323.237 303.1 324.318 300.856 325.779C295.336 329.447 289.648 335.276 286.366 336.387C281.369 337.949 283.833 332.875 284.275 332.399C286.716 328.598 291.107 324.018 291.107 324.018C291.107 324.018 281.541 330.131 279.1 333.933C276.66 337.734 272.605 337.989 273.027 333.131C273.449 328.273 282.558 319.349 285.748 317.676C285.748 317.676 278.8 320.017 275.269 324.919C271.738 329.821 269.701 331.133 267.544 332.061C265.358 333.166 263.767 328.347 268.859 321.691C273.951 315.035 277.646 313.627 281.369 312.04C281.369 312.04 278.054 312.233 272.701 313.738C267.349 315.243 263.823 321.24 260.474 320.515C257.096 319.968 261.654 313.226 265.907 310.63C269.981 308.006 272.902 305.742 279.086 304.737C285.27 303.732 291.247 302.875 295.038 303.125C298.829 303.374 312.653 302.511 316.815 306.105C317.589 306.96 318.248 308.526 318.551 310.035Z" fill="#FFB79D"/>
    <path d="M305.374 303.522C305.374 303.522 294.634 298.863 290.549 299.296C286.643 299.758 280.478 298.394 280.43 300.941C280.531 303.694 288.148 305.11 288.148 305.11L305.374 303.522Z" fill="#FFB79D"/>
    <path d="M307.06 166.95C307.547 176.335 322.003 190.718 328.987 202.797C329.256 203.388 331.491 206.487 331.76 207.078C335.192 212.925 336.091 215.26 336.091 215.26C351.961 208.526 359.965 204.166 367.801 195.218C368.243 194.742 368.507 194.237 368.92 193.939C371.452 190.7 373.45 187.375 374.737 183.934C367.114 167.92 357.348 156.121 349.26 148.607C348.784 148.165 348.308 147.723 347.832 147.281C340.873 140.68 335.707 137.654 335.707 137.654C330.47 138.448 325.651 140.039 321.634 142.308C321.043 142.577 320.63 142.875 320.217 143.173C311.506 148.513 306.631 157.211 307.06 166.95Z" fill="#965EEB"/>
    <path d="M313.732 175.33C320.634 189.037 327.772 202.418 335.501 215.53C335.919 216.327 336.981 215.405 336.534 214.785C328.983 201.702 321.845 188.321 315.092 174.82C314.645 174.2 313.314 174.532 313.732 175.33Z" fill="#322380"/>
    <path d="M314.493 186.402C317.136 188.107 319.63 189.606 322.273 191.311C322.926 191.782 323.839 190.653 323.157 190.36C320.514 188.654 318.02 187.156 315.377 185.45C314.723 184.98 313.81 186.109 314.493 186.402Z" fill="#322380"/>
    <path d="M236.072 228.982C236.141 211.66 233.101 194.381 227.164 178.093C226.923 177.324 225.564 177.834 225.982 178.631C231.741 194.891 234.632 211.963 234.769 229.136C234.803 230.054 236.105 229.9 236.072 228.982Z" fill="#322380"/>
</svg>
